<svg width="12" height="13" viewBox="0 0 12 13" fill="none" xmlns="http://www.w3.org/2000/svg">
<path d="M11.8441 6.19533L8.51125 1.59647C8.23075 1.20577 7.77702 0.969727 7.29028 0.969727C6.06107 0.969727 5.35159 2.33717 6.06107 3.32206L8.47825 6.66743L6.06107 10.0128C5.34334 10.9977 6.06107 12.3651 7.29028 12.3651C7.77702 12.3651 8.239 12.1291 8.51949 11.7384L11.8524 7.13952C12.0504 6.85464 12.0504 6.48022 11.8441 6.19533Z" fill="#009EE2"/>
<path d="M6.06876 6.19533L2.7441 1.59647C2.45536 1.20577 2.00163 0.969727 1.51489 0.969727C0.285675 0.969727 -0.432054 2.33717 0.285675 3.32206L2.70285 6.66743L0.285675 10.0128C-0.432054 10.9977 0.285675 12.3651 1.51489 12.3651C2.00163 12.3651 2.46361 12.1291 2.7441 11.7384L6.07701 7.13952C6.275 6.85464 6.275 6.48022 6.06876 6.19533Z" fill="#009EE2"/>
</svg>
