<svg width="80" height="80" viewBox="0 0 80 80" fill="none" xmlns="http://www.w3.org/2000/svg">
<circle cx="40" cy="40" r="39" stroke="#009EE2" stroke-width="2"/>
<path d="M22.4002 40.1692C24.7192 38.0651 27.4439 36.4573 30.4069 35.4445C33.3699 34.4318 36.5087 34.0354 39.6304 34.2798C46.447 34.7176 50.791 38.4264 53.521 40.2893C56.2511 42.1523 59.0241 42.1866 59.2559 44.2471C59.3276 44.7316 59.2966 45.2258 59.165 45.6976C59.0334 46.1694 58.804 46.6083 58.4918 46.9857C56.3405 49.6208 53.667 51.782 50.6396 53.3334C47.6122 54.8848 44.2964 55.7927 40.901 56H40.8581C40.6957 55.9875 40.5437 55.9156 40.4311 55.798C40.3185 55.6803 40.2533 55.5252 40.248 55.3625C40.2426 55.1997 40.2976 55.0407 40.4023 54.916C40.5069 54.7913 40.654 54.7095 40.8152 54.6865C44.0334 54.4996 47.1776 53.6451 50.0479 52.1775C52.9181 50.7099 55.4516 48.6611 57.4873 46.1615C57.8103 45.7684 57.9869 45.2753 57.9869 44.7665C57.9869 44.2576 57.8103 43.7646 57.4873 43.3714C51.2889 40.6242 50.8597 39.0531 46.447 36.8725C47.7519 38.332 47.666 38.8986 47.9493 40.8645C47.9615 41.029 47.9108 41.1919 47.8077 41.3206C47.7045 41.4493 47.5565 41.5341 47.3933 41.558C47.2302 41.5819 47.064 41.5432 46.9282 41.4496C46.7925 41.356 46.6972 41.2144 46.6616 41.0534C46.301 38.6324 46.052 37.3704 44.0174 35.9882C39.8562 34.7673 35.4069 34.9667 31.3716 36.5548C29.6546 38.2032 29.1824 39.9889 29.1824 42.3498C29.1705 44.553 29.9871 46.6802 31.4702 48.3095C32.9534 49.9388 34.9948 50.9511 37.1895 51.1456C39.3841 51.3401 41.5717 50.7026 43.3183 49.3596C45.0649 48.0165 46.2429 46.0661 46.6187 43.8951C46.65 43.7235 46.7479 43.5713 46.8911 43.4716C47.0342 43.3719 47.2109 43.3328 47.3827 43.3628C47.4671 43.3773 47.5477 43.4084 47.6199 43.4544C47.6921 43.5004 47.7544 43.5603 47.8032 43.6306C47.8519 43.701 47.8862 43.7803 47.9039 43.864C47.9216 43.9478 47.9225 44.0342 47.9064 44.1183C47.6472 45.5854 47.0664 46.977 46.2058 48.1932C45.3452 49.4094 44.226 50.4201 42.9287 51.1527C41.6314 51.8853 40.188 52.3216 38.702 52.4305C37.2161 52.5393 35.7245 52.318 34.3343 51.7823C32.944 51.2466 31.6896 50.4098 30.6609 49.332C29.6323 48.2542 28.8549 46.9621 28.3846 45.5484C27.9143 44.1347 27.7627 42.6344 27.9407 41.1552C28.1187 39.6759 28.6219 38.2545 29.4142 36.9927C25.9114 38.6329 22.8659 41.1095 20.5458 44.2041V44.2041C20.4204 44.3729 20.3527 44.5776 20.3527 44.7879C20.3527 44.9982 20.4204 45.2029 20.5458 45.3717C22.5819 48.088 25.1845 50.3289 28.1731 51.9388C31.1618 53.5488 34.4649 54.4893 37.8533 54.6951C38.0203 54.7101 38.1756 54.7873 38.2884 54.9113C38.4013 55.0352 38.4635 55.1971 38.4629 55.3647C38.4574 55.4505 38.4351 55.5343 38.3971 55.6114C38.3592 55.6885 38.3064 55.7573 38.2418 55.8139C38.1772 55.8706 38.102 55.9139 38.0206 55.9414C37.9392 55.9689 37.8532 55.9801 37.7675 55.9743C34.267 55.7634 30.8516 54.8093 27.7487 53.1755C24.5055 51.4775 21.6836 49.075 19.4899 46.1444C19.2105 45.7781 19.0493 45.3355 19.0279 44.8754C19.0064 44.4152 19.1256 43.9595 19.3697 43.5688L22.4002 40.1692Z" fill="#4CADF9"/>
<path d="M39.7258 37.0871C38.511 36.689 37.1969 36.7159 35.9994 37.1636C34.802 37.6113 33.7925 38.4531 33.1369 39.5505C32.4813 40.648 32.2185 41.9358 32.3919 43.2024C32.5652 44.469 33.1643 45.6389 34.0907 46.5199C35.017 47.4008 36.2156 47.9404 37.4892 48.0499C38.7629 48.1594 40.036 47.8323 41.0991 47.1224C42.1623 46.4125 42.9522 45.362 43.3392 44.1436C43.7262 42.9252 43.6871 41.6114 43.2285 40.4182C43.4372 39.9344 43.4926 39.3982 43.3872 38.882C43.2817 38.3658 43.0204 37.8944 42.6386 37.5313C42.2568 37.1682 41.7728 36.9309 41.252 36.8515C40.7311 36.7721 40.1984 36.8543 39.7258 37.0871V37.0871ZM42.1468 39.3708C42.1467 39.6207 42.0725 39.8651 41.9335 40.0728C41.7944 40.2805 41.5968 40.4423 41.3657 40.5375C41.1346 40.6328 40.8804 40.6573 40.6354 40.6079C40.3903 40.5585 40.1655 40.4374 39.9893 40.2601C39.8132 40.0827 39.6937 39.857 39.646 39.6117C39.5982 39.3663 39.6245 39.1123 39.7213 38.8818C39.8181 38.6514 39.9812 38.4549 40.1899 38.3173C40.3985 38.1796 40.6434 38.1071 40.8933 38.1088C41.0587 38.1088 41.2224 38.1415 41.375 38.205C41.5276 38.2685 41.6662 38.3616 41.7827 38.4789C41.8992 38.5962 41.9913 38.7354 42.0538 38.8885C42.1163 39.0415 42.1479 39.2055 42.1468 39.3708ZM37.9658 46.7797C37.4021 46.7363 36.8525 46.5823 36.3483 46.3264C35.8441 46.0706 35.3953 45.718 35.0274 45.2887C34.6595 44.8594 34.3797 44.3619 34.2041 43.8245C34.0285 43.2871 33.9604 42.7203 34.0038 42.1566C34.0472 41.5929 34.2012 41.0433 34.4571 40.5391C34.7129 40.0349 35.0655 39.5861 35.4948 39.2182C35.9241 38.8503 36.4216 38.5705 36.959 38.3949C37.4964 38.2193 38.0632 38.1512 38.6269 38.1946C38.4332 38.569 38.3302 38.9836 38.3264 39.4051C38.3304 39.857 38.4532 40.2998 38.6824 40.6892C38.9117 41.0786 39.2394 41.4008 39.6326 41.6235C40.0257 41.8462 40.4706 41.9615 40.9225 41.9579C41.3743 41.9543 41.8173 41.8319 42.2068 41.6029C42.3392 42.2313 42.3288 42.8814 42.1765 43.5053C42.0242 44.1291 41.7339 44.7109 41.3269 45.2076C40.92 45.7044 40.4067 46.1035 39.825 46.3756C39.2433 46.6477 38.608 46.7858 37.9658 46.7797Z" fill="#4CADF9"/>
<path d="M62.3982 41.7402C62.3982 41.7402 53.5642 28.9313 30.4961 32.8203" stroke="#55B6EC" stroke-width="2" stroke-linecap="round" stroke-linejoin="round" stroke-dasharray="1 4"/>
<path d="M18.6052 33.7905C18.9953 34.2889 19.5651 34.6148 20.1926 34.6982C20.82 34.7817 21.4552 34.6161 21.962 34.2369C25.8682 31.3266 39.9219 22.3466 56.5426 31.2493C56.7726 31.3798 57.0443 31.4161 57.3004 31.3504C57.5566 31.2848 57.7774 31.1224 57.9162 30.8973C58.064 30.6802 58.124 30.4151 58.0842 30.1554C58.0444 29.8958 57.9077 29.6609 57.7016 29.498C47.6056 21.4366 33.569 19.8484 18.2017 28.8026C17.9052 28.9746 17.6487 29.2079 17.4494 29.4869C17.2501 29.7659 17.1126 30.0842 17.046 30.4205C16.9794 30.7568 16.9852 31.1035 17.0631 31.4373C17.141 31.7712 17.2892 32.0847 17.4978 32.3568L18.6052 33.7905ZM18.8542 29.9358C30.5213 23.1364 43.2358 21.4108 54.5251 28.8197C48.199 25.9554 41.0939 25.2993 34.3502 26.9568C29.5822 28.1289 25.0999 30.2518 21.1722 33.1981C20.94 33.3717 20.6491 33.4474 20.3617 33.4089C20.0744 33.3704 19.8137 33.2207 19.6354 32.9921L18.5366 31.5584C18.4408 31.4345 18.3726 31.2917 18.3365 31.1393C18.3005 30.987 18.2974 30.8287 18.3275 30.6751C18.3575 30.5214 18.4201 30.376 18.5109 30.2485C18.6018 30.121 18.7188 30.0144 18.8542 29.9358V29.9358Z" fill="#4CADF9"/>
</svg>
