<svg width="24" height="24" viewBox="0 0 24 24" fill="none" xmlns="http://www.w3.org/2000/svg">
<path d="M22 11.5646C21.9509 11.9326 21.9101 12.3005 21.8447 12.6605C21.4931 14.6522 20.5774 16.364 19.1303 17.7958C18.8605 18.0598 18.4517 18.0678 18.1983 17.8198C17.9366 17.5719 17.9285 17.1719 18.2064 16.8919C18.8769 16.22 19.4246 15.4601 19.8498 14.6122C21.2969 11.7246 20.8227 8.05305 18.6806 5.61335C18.5253 5.43737 18.3536 5.26939 18.1983 5.09341C17.9366 4.80545 17.9448 4.4215 18.2064 4.18153C18.4762 3.92556 18.8687 3.94156 19.1548 4.22152C20.7328 5.80532 21.6648 7.68509 21.9264 9.87682C21.9509 10.0528 21.9755 10.2288 22 10.4048C22 10.8047 22 11.1887 22 11.5646Z" fill="#009EE2"/>
<path d="M6.87158 16.1149C7.64033 16.1763 8.36861 16.3607 9.04025 16.7371C10.0518 17.3208 10.6587 18.1734 10.8852 19.2564C10.9581 19.5944 10.9823 19.94 10.9985 20.278C11.0228 20.7388 10.7477 21 10.2541 21C8.16631 21 6.07047 21 3.98273 21C3.57004 21 3.15734 21 2.74465 21C2.25104 21 1.99209 20.7465 2.00018 20.278C2.00828 19.3716 2.21058 18.5267 2.77702 17.774C3.44056 16.883 4.37924 16.3991 5.48785 16.1917C5.59304 16.1687 5.69824 16.161 5.80344 16.1456C5.90863 16.1303 6.01383 16.1226 6.12712 16.1072C5.20463 15.969 4.45207 15.5619 3.90181 14.8398C3.35155 14.1102 3.17353 13.296 3.36774 12.4203C3.68333 10.961 5.15607 9.8933 6.67738 10.0085C8.41716 10.1391 9.67143 11.345 9.72807 13.0118C9.76044 14.4635 8.66801 15.8537 6.87158 16.1149ZM3.33537 19.7557C5.44739 19.7557 7.55131 19.7557 9.66333 19.7557C9.57432 19.1258 9.33965 18.5805 8.85413 18.1427C8.30387 17.6434 7.63223 17.4207 6.88777 17.3592C5.98146 17.2901 5.1318 17.4283 4.37924 17.9506C3.74806 18.3961 3.44056 19.0183 3.33537 19.7557ZM6.49935 14.8859C7.55131 14.8859 8.41716 14.0564 8.41716 13.0579C8.41716 12.067 7.55131 11.2451 6.50744 11.2451C5.44739 11.2451 4.58154 12.0593 4.58154 13.0579C4.58154 14.0564 5.44739 14.8859 6.49935 14.8859Z" fill="#009EE2"/>
<path d="M18 11.7618C17.965 13.8392 17.3872 15.4165 16.2317 16.7341C15.9428 17.0611 15.5226 17.09 15.2337 16.8014C14.9448 16.5129 14.9185 16.0416 15.1987 15.705C15.7152 15.0895 16.1354 14.4163 16.3542 13.6084C16.8532 11.7714 16.5556 10.098 15.4438 8.60727C15.365 8.50148 15.2775 8.41492 15.1987 8.30913C14.9185 7.94366 14.936 7.49163 15.2424 7.19349C15.5401 6.90496 15.9515 6.94343 16.2404 7.28005C17.0458 8.19372 17.5886 9.26127 17.8337 10.5115C17.93 10.9924 17.965 11.5022 18 11.7618Z" fill="#009EE2"/>
<path d="M14 10.9692C13.9839 12.0446 13.7094 12.9441 13.1523 13.6989C12.8859 14.0608 12.5064 14.1022 12.2319 13.792C11.9574 13.4818 11.9251 12.9958 12.1754 12.6132C12.4418 12.21 12.6437 11.7757 12.684 11.2277C12.7244 10.628 12.6114 10.0903 12.3207 9.61471C12.2642 9.53199 12.2077 9.43893 12.1512 9.35621C11.9251 8.99432 11.9574 8.51869 12.2158 8.2085C12.4741 7.91898 12.8616 7.92932 13.1119 8.24986C13.6044 8.89092 13.895 9.66641 13.9677 10.566C13.9919 10.7211 13.9919 10.8658 14 10.9692Z" fill="#009EE2"/>
</svg>
