<svg width="28" height="28" viewBox="0 0 28 28" fill="none" xmlns="http://www.w3.org/2000/svg">
<path d="M27.75 13.9875L24.7 10.5L25.125 5.8875L20.6125 4.8625L18.25 0.875L14 2.7L9.75 0.875L7.3875 4.8625L2.875 5.875L3.3 10.5L0.25 13.9875L3.3 17.475L2.875 22.1L7.3875 23.125L9.75 27.125L14 25.2875L18.25 27.1125L20.6125 23.125L25.125 22.1L24.7 17.4875L27.75 13.9875ZM22.8125 15.8375L22.1125 16.65L22.2125 17.7125L22.4375 20.15L20.0625 20.6875L19.0125 20.925L18.4625 21.85L17.225 23.95L15 22.9875L14 22.5625L13.0125 22.9875L10.7875 23.95L9.55 21.8625L9 20.9375L7.95 20.7L5.575 20.1625L5.8 17.7125L5.9 16.65L5.2 15.8375L3.5875 14L5.2 12.15L5.9 11.3375L5.7875 10.2625L5.5625 7.8375L7.9375 7.3L8.9875 7.0625L9.5375 6.1375L10.775 4.0375L13 5L14 5.425L14.9875 5L17.2125 4.0375L18.45 6.1375L19 7.0625L20.05 7.3L22.425 7.8375L22.2 10.275L22.1 11.3375L22.8 12.15L24.4125 13.9875L22.8125 15.8375Z" fill="#009EE2"/>
<path d="M11.6113 16.1876L8.71133 13.2751L6.86133 15.1376L11.6113 19.9001L20.7863 10.7001L18.9363 8.83765L11.6113 16.1876Z" fill="#009EE2"/>
</svg>
