<svg width="80" height="80" viewBox="0 0 80 80" fill="none" xmlns="http://www.w3.org/2000/svg">
<path d="M56.4675 39.265L40.7175 23.515C40.0875 22.885 39.2125 22.5 38.25 22.5H26C24.075 22.5 22.5 24.075 22.5 26V38.25C22.5 39.2125 22.885 40.0875 23.5325 40.735L39.2825 56.485C39.9125 57.115 40.7875 57.5 41.75 57.5C42.7125 57.5 43.5875 57.115 44.2175 56.4675L56.4675 44.2175C57.115 43.5875 57.5 42.7125 57.5 41.75C57.5 40.7875 57.0975 39.895 56.4675 39.265ZM41.75 54.0175L26 38.25V26H38.25V25.9825L54 41.7325L41.75 54.0175V54.0175Z" fill="white"/>
<path d="M30.375 33C31.8247 33 33 31.8247 33 30.375C33 28.9253 31.8247 27.75 30.375 27.75C28.9253 27.75 27.75 28.9253 27.75 30.375C27.75 31.8247 28.9253 33 30.375 33Z" fill="white"/>
<circle cx="40" cy="40" r="38.5" stroke="white" stroke-width="3"/>
</svg>
