<svg width="36" height="36" viewBox="0 0 36 36" fill="none" xmlns="http://www.w3.org/2000/svg">
<path d="M34.4675 17.265L18.7175 1.515C18.0875 0.885 17.2125 0.5 16.25 0.5H4C2.075 0.5 0.5 2.075 0.5 4V16.25C0.5 17.2125 0.885 18.0875 1.5325 18.735L17.2825 34.485C17.9125 35.115 18.7875 35.5 19.75 35.5C20.7125 35.5 21.5875 35.115 22.2175 34.4675L34.4675 22.2175C35.115 21.5875 35.5 20.7125 35.5 19.75C35.5 18.7875 35.0975 17.895 34.4675 17.265ZM19.75 32.0175L4 16.25V4H16.25V3.9825L32 19.7325L19.75 32.0175V32.0175Z" fill="white"/>
<path d="M8.375 11C9.82475 11 11 9.82475 11 8.375C11 6.92525 9.82475 5.75 8.375 5.75C6.92525 5.75 5.75 6.92525 5.75 8.375C5.75 9.82475 6.92525 11 8.375 11Z" fill="white"/>
</svg>
