<svg width="366" height="132" viewBox="0 0 366 132" fill="none" xmlns="http://www.w3.org/2000/svg">
<path d="M0 105.164V84.1324L52.7344 1.05263H70.8676V30.1645H60.1357L26.8914 82.7755V83.7623H101.83V105.164H0ZM60.6291 127.368V98.75L61.1225 89.4367V1.05263H86.1637V127.368H60.6291Z" fill="#009EE2"/>
<path d="M264 105.164V84.1324L316.734 1.05263H334.868V30.1645H324.136L290.891 82.7755V83.7623H365.83V105.164H264ZM324.629 127.368V98.75L325.123 89.4367V1.05263H350.164V127.368H324.629Z" fill="#009EE2"/>
<circle cx="182.727" cy="66" r="66" fill="white"/>
<circle cx="182.725" cy="66" r="47.6667" fill="#87D9EB"/>
<circle cx="182.728" cy="66" r="18.3333" fill="#2B2B2B"/>
<circle cx="197.5" cy="51.5" r="11.5" fill="white"/>
</svg>
