<svg width="43" height="43" viewBox="0 0 43 43" fill="none" xmlns="http://www.w3.org/2000/svg">
<path d="M41.0661 0H20.1378C19.1814 0 18.9001 0.281294 18.9001 1.23769V41.0689C18.9001 42.0253 19.1814 42.3066 20.1378 42.3066H41.0661C42.0225 42.3066 42.3038 42.0253 42.3038 41.0689V1.23769C42.3038 0.281294 42.0225 0 41.0661 0ZM20.7229 1.82279H40.4698V4.01688H20.7229V1.82279ZM20.7229 6.7173V5.87342H40.4923V6.7173H20.7229ZM20.7229 22.076H40.4698V33.7215H20.7229V22.076ZM40.4698 40.4838H20.7229V35.5893H40.4698V40.4838ZM40.4698 20.2307H20.7229V8.5851H40.4698V20.2307Z" fill="#009EE2"/>
<path d="M16.6385 25.159C16.6385 23.6512 15.6821 22.3123 14.2532 21.8284C13.9944 21.7384 13.7356 21.6934 13.4656 21.6371C13.398 21.6259 13.3305 21.6146 13.263 21.6034C13.263 21.5584 13.263 21.5246 13.263 21.4796C13.263 21.2321 13.263 20.9733 13.2518 20.7145C13.2405 20.5457 13.2743 20.5007 13.4093 20.4332C14.1632 20.0394 14.5682 19.3868 14.602 18.5429C14.6245 17.7103 14.6245 16.8101 14.602 15.7075C14.5795 14.9086 14.2307 14.2785 13.6006 13.9297C13.2968 13.7609 13.2405 13.6034 13.2518 13.2433C13.2855 12.2307 12.8355 11.4768 11.8903 11.0042C11.8453 10.9817 11.7553 10.858 11.7328 10.7454C11.4627 9.46274 11.2039 8.14628 10.9452 6.87483C10.8101 6.22223 10.6864 5.56963 10.5513 4.91702C10.4276 4.32068 10.135 4.07314 9.52743 4.06189C8.6723 4.06189 7.82841 4.06189 7.11955 4.06189C6.4557 4.06189 6.17441 4.29818 6.03939 4.95078L5.89311 5.68214C5.60056 7.20113 5.28551 8.78763 4.98172 10.3516C4.90296 10.7792 4.83544 11.0267 4.48664 11.1393C4.29536 11.1955 4.14909 11.353 4.02532 11.4881L3.96906 11.5443C3.50774 12.0281 3.31646 12.6582 3.37272 13.4796C3.38397 13.6484 3.36146 13.7159 3.18143 13.8172C2.43882 14.2222 2.03376 14.8973 2.0225 15.775C2.01125 16.5288 2.01125 17.3615 2.0225 18.3966C2.03376 19.308 2.43882 20.0056 3.23769 20.4445C3.29395 20.4782 3.33896 20.512 3.36146 20.5345C3.37272 20.8495 3.37272 21.1646 3.37272 21.4684C3.37272 21.5134 3.37272 21.5584 3.37272 21.6146C1.32489 21.8959 0.00843882 23.2912 0.00843882 25.1927C-0.00281294 29.9747 -0.00281294 34.3967 0.00843882 38.7398C0.0196906 40.7314 1.57243 42.2954 3.55275 42.3066C5.12799 42.3179 6.71449 42.3179 8.32349 42.3179C9.90999 42.3179 11.4965 42.3179 13.0942 42.3066C15.0858 42.2954 16.6385 40.7314 16.6498 38.7511C16.6611 34.723 16.6611 30.4023 16.6385 25.159ZM1.83122 36.422V27.4768H14.827V36.422H1.83122ZM12.8017 40.5064H3.9128C3.15893 40.5064 2.59634 40.3038 2.24754 39.8988C1.90999 39.5162 1.76372 38.9649 1.81997 38.2673H14.8383C14.917 38.9086 14.782 39.4487 14.4445 39.8425C14.0844 40.2813 13.5106 40.5064 12.8017 40.5064ZM6.88327 10.0028C7.0858 8.99016 7.28833 7.9775 7.49086 6.9761C7.51337 6.88608 7.52462 6.79607 7.53587 6.71731C7.58088 6.45852 7.62589 6.21098 7.6934 5.98594C7.70465 5.96344 7.77216 5.91843 7.80591 5.89593C7.82842 5.88468 7.83967 5.87342 7.86217 5.85092C7.98594 5.85092 8.12096 5.83967 8.24473 5.82842C8.50352 5.80591 8.79607 5.78341 8.91984 5.88468C9.0211 5.95219 9.05486 6.26724 9.07736 6.50352C9.08861 6.62729 9.11112 6.76231 9.13362 6.88608C9.33615 7.88749 9.53868 8.90015 9.74121 9.92406L9.90999 10.7792H6.71449L6.88327 10.0028ZM5.18425 12.9958C5.21801 12.7257 5.37553 12.602 5.66808 12.602C7.46836 12.602 9.22363 12.602 10.9789 12.602C11.3052 12.602 11.4627 12.7595 11.474 13.0971C11.4852 13.2208 11.474 13.3446 11.474 13.4909H5.173V13.4684C5.173 13.2996 5.16175 13.1421 5.18425 12.9958ZM3.82279 15.8762C3.82279 15.4487 3.96906 15.3024 4.39663 15.3024C4.94796 15.3024 5.51055 15.3024 6.06189 15.3024C6.4332 15.3024 6.81576 15.3024 7.18706 15.3024H9.40366C10.3376 15.3024 11.2715 15.3024 12.2054 15.3024C12.6892 15.3024 12.8242 15.4374 12.8242 15.9213C12.8242 16.6414 12.8355 17.4852 12.8242 18.3291C12.8242 18.7567 12.6779 18.903 12.2504 18.903C9.59494 18.903 6.95078 18.903 4.40788 18.903C3.98031 18.903 3.83404 18.7567 3.83404 18.3291C3.82279 17.4965 3.82279 16.6751 3.82279 15.8762ZM11.4515 20.737V21.5809H5.20675V20.737H11.4515ZM3.23769 23.4487C3.41772 23.4037 3.62025 23.4037 3.82279 23.4037C4.72293 23.4037 5.63432 23.4037 6.51196 23.4149C8.50352 23.4262 10.5626 23.4374 12.5992 23.3812C13.3643 23.3587 13.9944 23.595 14.3882 24.0338C14.737 24.4276 14.8945 24.9677 14.8495 25.6203H1.80872C1.72996 24.4501 2.23629 23.6625 3.23769 23.4487Z" fill="#009EE2"/>
<path d="M38.2533 23.9775C38.2421 23.3024 37.9045 22.9536 37.2294 22.9536C32.83 22.9536 28.3743 22.9536 23.9748 22.9536C23.2997 22.9536 22.9509 23.3024 22.9509 23.9775C22.9509 24.6076 22.9509 25.249 22.9509 25.8678V26.3066C22.9509 27.1505 23.266 27.4543 24.1099 27.4656H34.1352C35.1478 27.4656 36.1717 27.4656 37.1957 27.4656C37.9158 27.4656 38.2646 27.128 38.2646 26.3967C38.2533 25.7215 38.2533 24.8552 38.2533 23.9775ZM24.7737 25.6203V24.7764H36.4193V25.6203H24.7737Z" fill="#009EE2"/>
<path d="M6.50062 15.5612H4.75659V18.6779H6.50062V15.5612Z" fill="#009EE2"/>
<path d="M9.2238 15.5498H7.45728V18.644H9.2238V15.5498Z" fill="#009EE2"/>
<path d="M11.8905 15.5388H10.1465V18.6556H11.8905V15.5388Z" fill="#009EE2"/>
</svg>
