<svg width="41" height="41" viewBox="0 0 41 41" fill="none" xmlns="http://www.w3.org/2000/svg">
<path d="M0 37.7602C0.194242 37.1451 0.631287 36.6919 1.08452 36.2548C2.80032 34.5552 4.49994 32.8394 6.21574 31.1398C6.42617 30.9294 6.45854 30.7675 6.39379 30.4923C6.03768 28.9708 5.92437 27.4168 5.92437 25.8467C5.92437 25.6687 6.05387 25.4582 6.18336 25.3288C11.2013 20.2947 16.2192 15.2767 21.2371 10.2588C21.3504 10.1455 21.4637 10.0484 21.6094 9.9351C21.2371 9.35238 20.9943 8.75347 21.0267 8.07362C21.059 6.84342 21.6418 5.93696 22.7425 5.41899C23.7946 4.93338 24.8791 5.0305 25.7694 5.7751C26.5464 6.40638 27.2262 7.16716 27.9546 7.87938C28.0679 7.99269 28.1327 8.13837 28.2136 8.26786C29.1686 7.31284 30.0103 6.45494 30.9492 5.53229C30.6578 5.2733 30.3341 5.01431 30.0427 4.70677C28.9744 3.62225 28.8611 2.0845 29.7352 0.999988C30.6254 -0.100715 32.3736 -0.37589 33.3934 0.595318C35.5786 2.66723 37.6991 4.7877 39.771 6.95673C40.6774 7.89557 40.4994 9.5628 39.5767 10.4693C38.6379 11.4081 37.1002 11.489 36.048 10.6473C35.5948 10.2912 35.2063 9.87035 34.7369 9.41712C33.9275 10.3074 33.102 11.2139 32.2603 12.1527C32.7783 12.6707 33.4257 13.3343 34.0894 13.9656C34.7207 14.5807 35.1901 15.2444 35.2549 16.167C35.3196 17.3487 34.8826 18.2875 33.8952 18.9026C32.843 19.5501 31.7585 19.5501 30.7064 18.8864C30.6578 18.854 30.5931 18.8217 30.415 18.6598C30.3341 18.8055 30.2855 18.9673 30.1722 19.0645C25.1705 24.0824 20.1526 29.0841 15.1508 34.102C14.908 34.3448 14.6814 34.4581 14.3253 34.4419C12.7876 34.3448 11.266 34.2477 9.77683 33.8268C9.55022 33.7621 9.38835 33.8268 9.22648 33.9887C7.39737 35.8178 5.56826 37.6469 3.73915 39.476C2.92981 40.2854 1.86148 40.4472 1.01977 39.9131C0.517976 39.5893 0.242804 39.0714 0.0323756 38.5372C1.97545e-06 38.2782 0 38.0192 0 37.7602ZM24.1831 9.91892C23.9888 10.0646 23.8432 10.1293 23.7299 10.2427C18.6958 15.2929 13.6778 20.3432 8.62757 25.3611C7.96391 26.0086 7.59161 26.6237 7.80204 27.5625C8.04484 28.6794 8.19052 29.8287 8.43332 30.9456C8.49807 31.2207 8.48189 31.3826 8.28765 31.593C6.23192 33.6326 4.20857 35.6721 2.15284 37.7117C2.07191 37.7926 1.97479 37.8412 1.94242 37.9383C1.89386 38.0678 1.91005 38.2134 1.89386 38.3429C2.02335 38.3268 2.15285 38.3429 2.26615 38.2944C2.36327 38.262 2.41184 38.1487 2.49277 38.084C4.45138 36.1254 6.42616 34.1829 8.35239 32.2081C8.72468 31.8197 9.01605 31.6902 9.58259 31.9006C10.8613 32.3862 12.221 32.4509 13.5646 32.5804C13.8721 32.6128 14.0663 32.5319 14.293 32.3214C19.5537 27.0607 24.8144 21.8 30.0751 16.5231C30.1884 16.4098 30.237 16.248 30.3503 16.0699C30.7711 16.5069 31.0625 16.8307 31.37 17.1382C31.9042 17.64 32.6002 17.6562 33.0534 17.1706C33.5229 16.685 33.5391 16.0052 33.0211 15.4872C30.2855 12.7516 27.5499 9.99985 24.8144 7.28047C24.2964 6.76249 23.6004 6.7463 23.1309 7.23191C22.6453 7.7337 22.6453 8.41354 23.1795 8.94771C23.4385 9.25526 23.7622 9.53043 24.1831 9.91892ZM33.5714 5.6456C32.2441 6.97292 30.9654 8.25167 29.719 9.49806C30.0751 9.87035 30.4636 10.2427 30.9006 10.6959C32.147 9.43331 33.4096 8.15456 34.6883 6.85961C35.3358 7.50708 35.9833 8.15455 36.6145 8.78584C36.7764 8.94771 36.9545 9.10958 37.1487 9.23907C37.4725 9.4495 37.9095 9.40094 38.1685 9.15814C38.4275 8.91534 38.476 8.42973 38.2494 8.10599C38.1685 7.9765 38.0552 7.84701 37.9419 7.74988C36.1613 5.93696 34.3808 4.10785 32.6002 2.29493C32.4869 2.18162 32.3736 2.0845 32.2441 2.00357C31.888 1.77695 31.451 1.82551 31.192 2.0845C30.933 2.35968 30.9006 2.79672 31.1272 3.13665C31.2244 3.28233 31.3377 3.41182 31.451 3.52513C32.1308 4.20497 32.7945 4.86863 33.5714 5.6456Z" fill="#009EE2"/>
<path d="M19.2947 16.6688C20.7515 18.1094 22.176 19.5501 23.6328 20.9907C23.5518 21.0716 23.4709 21.1688 23.39 21.2659C20.2335 24.4223 17.0609 27.5949 13.9045 30.7675C13.7264 30.9456 13.5484 31.0427 13.2894 31.0103C12.3991 30.8647 11.5088 30.7352 10.6186 30.5571C10.1492 30.4762 9.89016 30.1362 9.7283 29.6992C9.40456 28.7604 9.30745 27.7892 9.29126 26.8018C9.29126 26.7046 9.35601 26.5751 9.42075 26.4942C12.6905 23.2407 15.9602 19.9709 19.2461 16.7174C19.2623 16.685 19.2947 16.6688 19.2947 16.6688Z" fill="#009EE2"/>
</svg>
