<svg width="43" height="37" viewBox="0 0 43 37" fill="none" xmlns="http://www.w3.org/2000/svg">
<path d="M42.8908 17.0712C42.7825 17.9016 42.6922 18.732 42.5478 19.5443C41.7716 24.0391 39.7498 27.9022 36.5547 31.1334C35.959 31.7291 35.0564 31.7472 34.4968 31.1876C33.9192 30.628 33.9011 29.7254 34.5149 29.0936C35.9951 27.5772 37.2046 25.8624 38.1432 23.9489C41.3384 17.4323 40.2914 9.14661 35.5619 3.64088C35.2189 3.24375 34.8398 2.86467 34.4968 2.46753C33.9192 1.81768 33.9372 0.951201 34.5149 0.409654C35.1106 -0.167996 35.9771 -0.131893 36.6089 0.499912C40.0928 4.07412 42.1507 8.31624 42.7283 13.2624C42.7825 13.6595 42.8367 14.0566 42.8908 14.4538C42.8908 15.3563 42.8908 16.2228 42.8908 17.0712Z" fill="#009EE2"/>
<path d="M10.8674 25.1764C12.5823 25.3208 14.207 25.7541 15.7053 26.6386C17.9617 28.0105 19.3156 30.0142 19.821 32.5595C19.9835 33.3538 20.0376 34.1661 20.0737 34.9604C20.1279 36.0434 19.5141 36.6572 18.413 36.6572C13.7557 36.6572 9.08034 36.6572 4.42304 36.6572C3.50241 36.6572 2.58178 36.6572 1.66115 36.6572C0.560008 36.6572 -0.017641 36.0615 0.000410515 34.9604C0.0184621 32.8303 0.469749 30.8446 1.73336 29.0755C3.21359 26.9816 5.30757 25.8443 7.78063 25.3569C8.0153 25.3028 8.24997 25.2847 8.48464 25.2486C8.71931 25.2125 8.95398 25.1945 9.2067 25.1584C7.14883 24.8334 5.47003 23.8767 4.24253 22.1799C3.01502 20.465 2.61788 18.5515 3.05112 16.4936C3.75513 13.0638 7.04052 10.5546 10.4342 10.8254C14.3153 11.1323 17.1133 13.9664 17.2396 17.8836C17.3119 21.2953 14.8749 24.5627 10.8674 25.1764ZM2.97892 33.7328C7.69037 33.7328 12.3838 33.7328 17.0952 33.7328C16.8967 32.2526 16.3732 30.971 15.2901 29.942C14.0626 28.7687 12.5643 28.2452 10.9035 28.1008C8.88177 27.9383 6.98636 28.2632 5.30757 29.4907C3.89955 30.5377 3.21359 31.9999 2.97892 33.7328ZM10.0371 22.2882C12.3838 22.2882 14.3153 20.3386 14.3153 17.9919C14.3153 15.6632 12.3838 13.7317 10.0551 13.7317C7.69037 13.7317 5.75886 15.6452 5.75886 17.9919C5.75886 20.3386 7.69037 22.2882 10.0371 22.2882Z" fill="#009EE2"/>
<path d="M33.8292 15.3743C33.757 19.2734 32.5656 22.2339 30.1828 24.707C29.5871 25.3207 28.7206 25.3749 28.1249 24.8333C27.5292 24.2918 27.4751 23.4072 28.0527 22.7754C29.1178 21.6201 29.9842 20.3565 30.4355 18.8402C31.4645 15.3924 30.8507 12.2514 28.5582 9.45339C28.3957 9.25483 28.2152 9.09236 28.0527 8.89379C27.4751 8.20784 27.5112 7.35941 28.143 6.79981C28.7567 6.25827 29.6052 6.33047 30.2009 6.96228C31.8616 8.67718 32.9808 10.6809 33.4862 13.0276C33.6848 13.9302 33.757 14.8869 33.8292 15.3743Z" fill="#009EE2"/>
<path d="M26.6808 15.7535C26.6447 17.6308 26.0309 19.2013 24.7854 20.5191C24.1897 21.1509 23.3413 21.2231 22.7275 20.6815C22.1138 20.14 22.0415 19.2916 22.6011 18.6237C23.1968 17.9197 23.6481 17.1615 23.7384 16.2048C23.8286 15.1578 23.5759 14.2191 22.9261 13.3887C22.7997 13.2443 22.6734 13.0818 22.547 12.9374C22.0415 12.3056 22.1138 11.4753 22.6914 10.9337C23.2691 10.4283 24.1355 10.4463 24.6951 11.0059C25.7963 12.1251 26.4461 13.479 26.6086 15.0495C26.6627 15.3202 26.6627 15.573 26.6808 15.7535Z" fill="#009EE2"/>
</svg>
