<svg width="48" height="37" viewBox="0 0 48 37" fill="none" xmlns="http://www.w3.org/2000/svg">
<path d="M47.6027 17.828C47.3205 17.0303 46.7928 16.5517 46.0442 16.3922C45.5533 16.294 45.0625 16.1836 44.5839 16.0854C43.6144 15.8768 42.6203 15.6682 41.6386 15.4718C41.3563 15.4227 41.2582 15.3245 41.1845 15.0546C40.4973 12.6984 39.7855 10.2931 39.0983 7.98595C38.8283 7.10237 38.5706 6.20652 38.3129 5.32294C37.8343 3.6785 36.9016 2.979 35.1958 2.979H34.4963C33.0973 2.979 31.6493 2.97901 30.2257 2.99128C29.9926 2.99128 29.968 2.96674 29.9189 2.78266C29.7962 2.25496 29.6121 1.73954 29.4649 1.31003C29.1826 0.487809 28.5445 0.0214758 27.6732 0.00920393C27.035 -0.00306798 26.3846 -0.00306798 25.7342 0.00920393C24.8752 0.0214758 24.237 0.487809 23.9425 1.31003L23.9057 1.42047C23.7584 1.82545 23.6112 2.25496 23.513 2.69675C23.4639 2.92992 23.4025 2.99128 23.0957 2.99128H23.0712C18.776 2.97901 14.4195 2.979 10.198 2.979H8.89714C8.66397 2.979 8.45535 2.97901 8.24673 3.0281C7.79266 3.13854 7.53495 3.49443 7.54723 3.94849C7.57177 4.43936 7.87857 4.7707 8.35717 4.83206C8.51671 4.85661 8.67624 4.84434 8.82351 4.84434H34.9872C36.104 4.84434 36.239 4.94251 36.5458 5.9979C36.8648 7.07782 37.1839 8.17002 37.503 9.24995C38.1288 11.3607 38.7792 13.5328 39.4051 15.6804C39.6628 16.564 40.2028 17.0794 41.0618 17.2512C42.5958 17.558 44.1421 17.9017 45.4552 18.1839C45.5411 18.2084 45.6515 18.2698 45.7006 18.3066C45.7251 18.7975 45.7251 19.2761 45.7251 19.7793C45.7251 19.8774 45.7251 19.9756 45.7251 20.0615C45.5779 20.0615 45.4429 20.0615 45.2956 20.0615C44.7925 20.0615 44.3261 20.0615 43.8475 20.0615C43.1235 20.0738 42.7799 20.4174 42.7676 21.1537C42.7676 21.8777 42.7676 22.6141 42.7676 23.3258V23.694C42.7676 24.6267 43.0621 24.9212 43.9825 24.9212C44.4366 24.9212 44.8907 24.9212 45.3447 24.9212H45.7129V28.0628C45.5656 28.0628 45.4183 28.0628 45.2834 28.0628C44.7066 28.0628 44.1543 28.0628 43.6021 28.0751C43.4303 28.0751 43.3689 28.0505 43.2708 27.8542C42.1049 25.6084 40.2764 24.4671 37.8588 24.4671H37.8466C35.429 24.4671 33.6005 25.5961 32.4224 27.8419C32.3119 28.0382 32.2506 28.0873 32.0542 28.0751C30.8025 28.0505 29.5385 28.0628 28.3604 28.0751C27.7713 28.0751 27.3541 28.4678 27.3541 29.0077C27.3541 29.5354 27.7591 29.9159 28.3481 29.9404C28.4586 29.9404 28.569 29.9404 28.6917 29.9404H28.8267H31.7965V31.0326H15.794V29.9404H24.7034C24.7402 29.9404 24.777 29.9404 24.8138 29.9404C24.9365 29.9404 25.0715 29.9404 25.2065 29.9281C25.6728 29.8668 25.9551 29.56 26.0042 29.1059C26.0533 28.6273 25.7956 28.2591 25.3292 28.1242C25.1574 28.0751 24.9856 28.0751 24.8261 28.0751H23.4762C20.9113 28.0751 18.2483 28.0751 15.6344 28.0751H15.6221C15.3399 28.0751 15.254 28.026 15.1558 27.8051C14.7754 26.9583 14.1495 26.222 13.3273 25.6207C11.8915 24.5653 10.0752 24.2094 8.35717 24.6267C6.61456 25.0439 5.1542 26.2097 4.34426 27.8296C4.2829 27.9401 4.22154 28.026 4.18472 28.0628C3.55885 28.0873 2.93299 28.0873 2.2703 28.0751C2.13531 28.0751 2.00032 28.0751 1.86533 28.0751V23.8044C1.86533 17.693 1.86533 11.3607 1.85306 5.13886C1.85306 4.95478 1.88987 4.89342 1.90215 4.88115C1.91442 4.86888 1.97578 4.83206 2.17213 4.83206C3.30114 4.85661 4.23381 4.84434 5.12966 4.81979C5.39964 4.80752 5.7678 4.70935 5.95188 4.47618C6.13596 4.25528 6.17277 3.86258 6.11141 3.5926C6.05005 3.35943 5.8537 2.96674 5.14193 2.96674C4.81059 2.96674 4.49152 2.96674 4.16018 2.96674C3.54658 2.96674 2.92072 2.97901 2.30712 2.95446C1.15356 2.90538 0.392701 3.37171 0.0122719 4.37801L0 4.42709V31.6707L0.0245438 31.7198C0.429517 32.6034 1.12902 33.0084 2.19667 32.9347C2.55256 32.9102 2.92072 32.9225 3.2766 32.9225C3.52204 32.9225 3.77975 32.9225 4.02519 32.9225C4.19699 32.9225 4.24608 32.947 4.33198 33.1065C5.47327 35.34 7.36315 36.5304 9.78071 36.5304C12.1983 36.5304 14.0391 35.3769 15.2294 33.1188C15.2663 33.0452 15.4258 32.947 15.4872 32.947C21.0095 32.9347 26.6178 32.9347 32.1401 32.947C32.2015 32.947 32.3488 33.0452 32.3979 33.1188C33.5882 35.3769 35.429 36.5304 37.8588 36.5304H37.8711C40.2764 36.5304 42.154 35.3523 43.3076 33.1065C43.3935 32.947 43.4426 32.9225 43.6144 32.9225C43.8721 32.9225 44.1175 32.9225 44.363 32.9225C44.7188 32.9102 45.087 32.9102 45.4429 32.9347C46.5105 32.9961 47.21 32.6034 47.615 31.7198L47.6396 31.6707V17.8648L47.6027 17.828ZM25.3783 2.95446C25.3906 2.92992 25.3906 2.90538 25.4029 2.8931C25.501 2.54949 25.5992 2.24269 25.7219 1.92362C25.7587 1.91135 25.8201 1.8868 25.8569 1.8868C26.3969 1.87453 26.9737 1.86226 27.5259 1.8868C27.575 1.8868 27.6854 1.96044 27.71 2.00952C27.8204 2.27951 27.9063 2.56176 27.9922 2.86856C28.0045 2.8931 28.0045 2.92992 28.0168 2.95446H25.3783ZM45.7129 23.0436H44.682V21.9882H45.7129V23.0436ZM1.88987 31.0449V29.9895H3.73066V31.0449H1.88987ZM9.86662 34.6896C7.5595 34.751 5.64508 32.8979 5.58372 30.5663C5.55918 29.4863 5.96415 28.4555 6.73728 27.6455C7.51041 26.8356 8.52898 26.3693 9.62118 26.3447C9.658 26.3447 9.69481 26.3447 9.73163 26.3447C10.8484 26.3447 11.8792 26.7497 12.6523 27.486C13.0573 27.8664 13.3641 28.3205 13.585 28.8237C13.8059 29.3268 13.9286 29.879 13.9409 30.4435C13.99 32.7261 12.1615 34.6283 9.86662 34.6896ZM40.8041 33.4379C40.0064 34.2356 38.9633 34.6774 37.8466 34.6774H37.8343C35.5395 34.6774 33.6619 32.812 33.6619 30.5049C33.6619 29.3882 34.0914 28.345 34.8768 27.5596C35.6622 26.7742 36.7053 26.3325 37.8343 26.3325H37.8466C40.1414 26.3325 42.019 28.1978 42.0313 30.4926C42.0313 31.5971 41.6018 32.6402 40.8041 33.4379ZM45.7006 31.0326H43.8721V29.9772H45.7006V31.0326Z" fill="#009EE2"/>
<path d="M18.6167 13.8765V13.2261C18.6167 12.1952 18.3222 11.9007 17.2914 11.9007H15.4383C15.4383 11.7412 15.4383 11.5816 15.4383 11.4221C15.4383 10.8944 15.4383 10.379 15.4383 9.87584C15.426 9.09044 15.0947 8.74683 14.3093 8.74683C13.4502 8.74683 12.5912 8.74683 11.7322 8.74683C10.9468 8.74683 10.6032 9.10271 10.5909 9.87584C10.5909 10.379 10.5909 10.8944 10.5909 11.4221V11.9007C10.4191 11.9007 10.2596 11.9007 10.1 11.9007C9.54778 11.9007 9.03236 11.9007 8.51694 11.9007C7.7929 11.913 7.44928 12.2566 7.43701 12.9929C7.43701 13.6801 7.43701 14.3674 7.43701 15.0669V15.5332C7.43701 16.4659 7.74381 16.7727 8.70102 16.7727C9.17962 16.7727 9.6705 16.7727 10.1614 16.7727H10.5909C10.5909 16.9322 10.5909 17.0917 10.5909 17.2513C10.5909 17.8035 10.5909 18.3189 10.5909 18.8343C10.5909 19.5584 10.9468 19.9143 11.6708 19.9143C12.0144 19.9143 12.358 19.9143 12.7017 19.9143C12.9471 19.9143 13.2048 19.9143 13.4502 19.9143H14.1129C15.156 19.9143 15.4383 19.6443 15.4383 18.6012C15.4383 18.1348 15.4383 17.6808 15.4383 17.2022V16.7604C15.5978 16.7604 15.7696 16.7604 15.9292 16.7604C16.4569 16.7604 16.96 16.7604 17.4754 16.7604C18.2608 16.7604 18.6045 16.4045 18.6167 15.6191C18.6167 15.0423 18.6167 14.4655 18.6167 13.8765ZM13.573 16.7481V18.0121H12.4685V17.5703C12.4685 17.0426 12.4685 16.5272 12.4685 16.0118C12.4685 15.2387 12.1372 14.9073 11.364 14.9073C10.8486 14.9073 10.3332 14.9073 9.80549 14.9073H9.35143V13.7906H9.76867C10.2718 13.7906 10.7627 13.7906 11.2536 13.7906C12.174 13.7906 12.4685 13.4838 12.4685 12.5634V10.649H13.573V11.6798C13.573 11.7903 13.573 11.9007 13.573 12.0112C13.573 12.2689 13.573 12.5388 13.5852 12.7966C13.6098 13.447 13.9534 13.7783 14.6038 13.7906C15.156 13.8029 15.6837 13.7906 16.2482 13.7906C16.4078 13.7906 16.5673 13.7906 16.7268 13.7906V14.9073H15.4138C13.6711 14.8951 13.573 14.9932 13.573 16.7481Z" fill="#009EE2"/>
<path d="M37.8713 16.4413C37.5522 16.8708 37.0368 17.1162 36.4109 17.1285C35.9937 17.1285 35.5764 17.1408 35.1592 17.1408C34.6438 17.1408 34.1283 17.1408 33.6375 17.1285C33.2816 17.1285 32.9993 17.018 32.803 16.8217C32.6434 16.6499 32.5575 16.4167 32.5575 16.159C32.5698 15.6068 32.9871 15.2632 33.6252 15.2632C34.2879 15.2632 34.9506 15.2632 35.6501 15.2632H36.2391L35.9814 14.4164C35.7605 13.7046 35.5519 13.0174 35.3433 12.3302C34.9137 10.8944 34.472 9.45854 34.0424 8.02272C33.9811 7.82637 33.9811 7.82637 33.8706 7.82637C32.3121 7.83864 30.729 7.83864 29.195 7.83864C28.6183 7.83864 28.0415 7.83864 27.477 7.83864V15.2632H29.7718C29.8209 15.2632 29.87 15.2632 29.9191 15.2632C30.0418 15.2632 30.1645 15.2632 30.2995 15.2632C30.8272 15.3 31.2076 15.6559 31.2322 16.159C31.2567 16.6622 30.8763 17.0794 30.3609 17.1162C30.0786 17.1408 29.8086 17.1408 29.5386 17.1408C29.4405 17.1408 29.3423 17.1408 29.2441 17.1408C29.0846 17.1408 28.9251 17.1408 28.7655 17.1408C28.2992 17.1408 27.8329 17.1408 27.3542 17.1408C26.2866 17.1162 25.5994 16.4167 25.5994 15.3491C25.5994 12.9192 25.5994 10.3667 25.5994 7.76501C25.5994 6.66054 26.2866 5.97332 27.3911 5.97332C29.3791 5.96104 31.539 5.96104 34.0179 5.97332C34.9751 5.97332 35.5273 6.37829 35.8096 7.29868C36.5091 9.55671 37.319 12.2197 38.1167 14.8582C38.264 15.4472 38.1903 16.0117 37.8713 16.4413Z" fill="#009EE2"/>
<path d="M9.78067 28.0752C9.13026 28.0752 8.52893 28.3206 8.07487 28.7747C7.60854 29.241 7.35083 29.8546 7.35083 30.505C7.35083 31.8427 8.40621 32.8981 9.74385 32.9103H9.7684C10.4188 32.9103 11.0201 32.6649 11.4742 32.2108C11.9283 31.7568 12.186 31.1432 12.186 30.4928C12.186 29.1797 11.106 28.0875 9.78067 28.0752ZM9.7684 29.9528C9.78067 29.9528 9.78067 29.9528 9.79294 29.9528C10.0875 29.9651 10.3206 30.2228 10.3206 30.5173C10.3084 30.8241 10.0752 31.045 9.78067 31.045H9.7684C9.60886 31.045 9.47387 30.9836 9.3757 30.8855C9.27752 30.7873 9.22843 30.64 9.22843 30.4805C9.2407 30.1982 9.48614 29.9528 9.7684 29.9528Z" fill="#009EE2"/>
<path d="M37.8713 28.0874C37.859 28.0874 37.8468 28.0874 37.8468 28.0874C37.2086 28.0874 36.6196 28.3328 36.1532 28.7869C35.6869 29.2532 35.4292 29.8668 35.4292 30.5172C35.4292 31.1677 35.6869 31.7813 36.141 32.2353C36.595 32.6894 37.1964 32.9348 37.8345 32.9348C37.8468 32.9348 37.859 32.9348 37.859 32.9348C39.1967 32.9225 40.2521 31.8549 40.2521 30.5172C40.2643 29.1796 39.1844 28.0997 37.8713 28.0874ZM38.3867 30.5295C38.3745 30.8363 38.1413 31.0572 37.8468 31.0572H37.8345C37.5277 31.0572 37.2945 30.824 37.2945 30.5172C37.2945 30.2227 37.54 29.965 37.8345 29.965C37.9818 29.965 38.1167 30.0141 38.2149 30.1245C38.3254 30.2227 38.3867 30.37 38.3867 30.5295Z" fill="#009EE2"/>
</svg>
