<svg width="80" height="80" viewBox="0 0 80 80" fill="none" xmlns="http://www.w3.org/2000/svg">
<path d="M61.4889 51.8188C61.2368 52.1492 61.0194 52.5143 60.7325 52.8013C58.0633 55.4965 55.3768 58.183 52.6902 60.8696C51.8382 61.7216 51.16 61.7216 50.308 60.8696C49.4299 59.9915 48.543 59.1046 47.6649 58.2265C46.9172 57.4701 46.865 56.9224 47.4563 56.0355C46.9085 55.34 46.2043 54.9401 45.3174 54.8705C44.4915 54.8096 43.7699 54.488 43.1786 53.9228C42.4309 53.2099 41.7093 52.4883 40.979 51.7579C40.6399 51.4188 40.6225 51.045 40.9094 50.7668C41.1789 50.4972 41.5702 50.5233 41.9093 50.8537C42.57 51.5058 43.2308 52.1579 43.8829 52.8186C44.3263 53.2707 44.848 53.5403 45.4826 53.5924C46.6564 53.6881 47.6041 54.2184 48.3344 55.0618C50.5601 52.8447 52.7772 50.6364 55.0203 48.4019C54.9421 48.315 54.8291 48.1933 54.716 48.0628C54.1074 47.3586 53.7596 46.55 53.7423 45.611C53.7249 44.959 53.7423 44.3069 53.7336 43.6548C53.7249 42.9767 53.5075 42.3767 53.0206 41.8899C52.0382 40.9074 51.0644 39.9162 50.0732 38.9425C49.3255 38.2035 48.2996 38.0644 47.4302 38.5947C47.8736 39.0294 48.3083 39.4468 48.743 39.8728C48.856 39.9858 48.9691 40.0901 49.0734 40.2119C49.3429 40.5248 49.3429 40.89 49.0821 41.1421C48.83 41.3943 48.4387 41.3943 48.1518 41.1161C47.6214 40.6031 47.1085 40.0727 46.5868 39.5511C46.4825 39.4468 46.3608 39.3424 46.1782 39.1685C46.1782 39.4989 46.1782 39.7424 46.1782 39.9771C46.1782 41.0639 46.1173 42.1507 46.1956 43.2375C46.3173 45.0285 44.961 46.3501 43.0308 45.7849C43.0308 46.2892 43.0482 46.7761 43.0308 47.2543C42.9787 48.6888 41.8919 49.6365 40.5095 49.48C40.3095 49.4539 40.1182 49.3931 39.8835 49.3409C39.8487 49.4192 39.8226 49.5409 39.7618 49.6191C39.4488 50.0017 39.1879 50.5059 38.788 50.732C38.2576 51.0363 37.8316 51.4189 37.4143 51.8362C36.7883 52.4622 36.1623 53.0882 35.545 53.7142C34.8669 54.401 34.067 54.8096 33.0932 54.8879C32.2325 54.9574 31.563 55.3661 31.0327 56.0355C31.6326 56.9919 31.5717 57.4788 30.7631 58.2874C29.8676 59.1916 28.9634 60.0958 28.0592 60.9913C27.3636 61.6782 26.6072 61.6869 25.9204 61.0087C24.0859 59.1742 22.2514 57.3397 20.4256 55.5052C20.043 55.1226 20.0082 54.7401 20.3038 54.4445C20.6081 54.1576 20.9646 54.201 21.3646 54.601C23.1121 56.3572 24.8684 58.1048 26.6159 59.861C26.729 59.9741 26.7985 60.1219 26.8855 60.2349C27.9983 59.1133 29.033 58.07 30.0502 57.0441C27.1898 54.201 24.2945 51.3232 21.4428 48.4802C20.4603 49.4539 19.4257 50.4972 18.3128 51.6014C18.5911 51.8623 18.9388 52.1666 19.2605 52.4883C19.617 52.8447 19.6518 53.236 19.3649 53.5142C19.0693 53.8011 18.6954 53.775 18.3389 53.3925C17.8781 52.8882 17.4434 52.3491 17 51.8275C17 51.5927 17 51.3667 17 51.1319C17.2695 50.7929 17.5043 50.4364 17.7999 50.1321C18.6085 49.2974 19.4344 48.4889 20.2517 47.6629C21.0168 46.8891 21.5906 46.8456 22.5035 47.489C23.0773 46.9847 23.4251 46.3587 23.4425 45.585C23.4686 44.7851 23.4338 43.9939 23.4947 43.194C23.5555 42.342 23.9294 41.6116 24.5293 41.003C25.5291 39.9945 26.529 38.9946 27.5375 37.9861C28.1461 37.3775 28.8938 37.0732 29.7981 36.9602C29.3546 36.0907 29.4329 35.1952 29.4329 34.2997C29.4329 33.2825 29.4416 32.2739 29.4329 31.2567C29.4242 30.1699 29.8154 29.257 30.5806 28.4919C30.9979 28.0746 31.4239 27.6572 31.8412 27.2312C32.389 26.6574 32.6498 25.9792 32.5802 25.1446C32.4672 25.1185 32.3629 25.0924 32.2586 25.0663C31.5891 24.9185 31.137 24.4142 31.1283 23.7187C31.1109 22.2667 31.1109 20.8235 31.1283 19.3715C31.137 18.5803 31.7369 18.0065 32.5281 18.0065C36.5709 17.9978 40.6138 17.9978 44.6567 18.0065C45.4913 18.0065 46.0652 18.5977 46.0652 19.4411C46.0739 20.7192 46.0652 21.9885 46.0652 23.2666C46.0652 24.4838 45.8304 24.8055 44.6741 25.1446C44.5697 25.9271 44.7001 26.6661 45.2305 27.2921C45.9434 28.1267 46.2304 29.0918 46.2304 30.1786C46.213 32.4217 46.2217 34.6736 46.2304 36.9167C46.2304 37.1428 46.3521 37.3688 46.439 37.6383C47.3519 37.0819 48.204 36.8471 49.1603 37.0297C49.882 37.1601 50.508 37.4818 51.0209 37.9948C52.0208 38.986 53.0119 39.9858 54.0031 40.977C54.6639 41.6377 55.0029 42.4463 55.0986 43.3679C55.0986 43.707 55.0725 44.0287 55.1334 44.6547C55.0029 45.7328 55.142 46.7239 56.0463 47.489C56.2201 47.3847 56.3766 47.2543 56.5592 47.176C57.0896 46.9326 57.6634 47.0369 58.1155 47.489C59.1241 48.4889 60.1326 49.4887 61.1237 50.5059C61.2976 50.6885 61.4107 50.9233 61.5585 51.1406C61.4889 51.358 61.4889 51.5927 61.4889 51.8188ZM32.2586 37.4297C32.2673 37.2732 32.2846 37.1254 32.2846 36.9689C32.2846 36.3603 32.2759 35.7517 32.2933 35.1431C32.3107 34.7344 32.5976 34.491 32.9715 34.4997C33.328 34.5084 33.5627 34.7605 33.5888 35.1518C33.5975 35.2822 33.5888 35.4126 33.5888 35.543C33.5888 39.3424 33.5888 43.1331 33.5888 46.9326C33.5888 47.7585 33.9105 48.1846 34.5191 48.1846C35.1364 48.1846 35.432 47.7759 35.432 46.9239C35.432 43.5505 35.432 40.1684 35.432 36.795C35.432 36.6211 35.432 36.4472 35.4668 36.2733C35.5363 35.9255 35.7798 35.743 36.1188 35.7604C36.4579 35.7777 36.684 35.9777 36.7188 36.3342C36.7361 36.4907 36.7274 36.6559 36.7274 36.8124C36.7274 40.7509 36.7274 44.6981 36.7274 48.6367C36.7274 49.3409 37.0839 49.7495 37.6664 49.7408C38.2316 49.7322 38.5619 49.3322 38.5706 48.6454C38.5706 48.0802 38.5533 47.5151 38.5533 46.95C38.5533 43.5766 38.5533 40.1945 38.5533 36.8211C38.5533 36.6906 38.5446 36.5602 38.5619 36.4298C38.6054 36.0212 38.8749 35.769 39.2314 35.769C39.5879 35.769 39.84 36.0386 39.8748 36.4559C39.8835 36.6037 39.8835 36.7428 39.8835 36.8906C39.8835 40.2379 39.8835 43.5853 39.8835 46.9326C39.8835 47.0804 39.8748 47.2195 39.8922 47.3673C39.9357 47.8194 40.266 48.1498 40.7095 48.1846C41.1789 48.2193 41.5789 47.9498 41.6745 47.489C41.718 47.289 41.718 47.0891 41.718 46.8804C41.718 43.5331 41.718 40.1858 41.718 36.8385C41.718 36.6646 41.7093 36.4907 41.7354 36.3168C41.7875 35.9864 41.9962 35.8038 42.3266 35.7864C42.6744 35.769 42.9091 35.9429 42.9874 36.2907C43.0221 36.4559 43.0221 36.6385 43.0221 36.8124C43.0221 38.986 43.0221 41.1595 43.0221 43.3331C43.0221 43.507 43.0221 43.6809 43.0482 43.8548C43.1091 44.2808 43.4482 44.5851 43.8742 44.6112C44.3089 44.6373 44.6828 44.4025 44.8045 43.9852C44.8566 43.7939 44.874 43.5853 44.874 43.3853C44.874 38.9512 44.874 34.5171 44.8827 30.083C44.8827 29.3439 44.6828 28.6919 44.1959 28.1267C43.6047 27.4312 43.3178 26.6052 43.3091 25.6923C43.3091 25.5097 43.3091 25.3272 43.3091 25.1011C43.0917 25.1011 42.9352 25.1011 42.7787 25.1011C41.3702 25.1011 39.9704 25.1011 38.5619 25.1011C38.3881 25.1011 38.2055 25.1011 38.049 25.0489C37.736 24.9533 37.536 24.6925 37.623 24.3882C37.6925 24.1708 37.9273 23.9708 38.1272 23.823C38.2316 23.7448 38.4402 23.7883 38.5967 23.7883C40.466 23.7883 42.3353 23.7883 44.2046 23.7883C44.3698 23.7883 44.535 23.7709 44.7001 23.7622C44.7001 22.2581 44.7001 20.7974 44.7001 19.3281C40.5964 19.3281 36.5188 19.3281 32.4151 19.3281C32.4151 20.8148 32.4151 22.2667 32.4151 23.7622C32.5802 23.7709 32.7367 23.7883 32.8932 23.7883C33.6062 23.7883 34.3104 23.7883 35.0234 23.7883C35.5363 23.7883 35.8319 24.0317 35.8406 24.4316C35.8406 24.8229 35.5363 25.0837 35.032 25.0924C34.6582 25.1011 34.2843 25.0924 33.9018 25.0924C33.8844 25.2141 33.867 25.2837 33.867 25.3532C33.867 26.5531 33.3888 27.5355 32.5281 28.3528C32.1542 28.7092 31.7891 29.0918 31.4239 29.457C31.024 29.8656 30.7457 30.3438 30.737 30.9176C30.711 32.4826 30.7023 34.0476 30.737 35.6126C30.737 36.4733 31.45 37.2819 32.2586 37.4297ZM36.4927 50.8885C36.1015 50.3494 35.7363 49.8539 35.3711 49.3496C33.6497 49.8886 32.2933 48.8975 32.2933 47.0195C32.2933 44.5851 32.2933 42.1507 32.2933 39.7163C32.2933 39.5685 32.2846 39.412 32.2673 39.1511C31.676 39.7511 31.1631 40.2727 30.6501 40.7944C30.5371 40.9074 30.4327 41.0291 30.311 41.1335C30.0067 41.3943 29.6242 41.3943 29.372 41.1421C29.1199 40.8813 29.1112 40.5075 29.4068 40.2119C29.9372 39.6641 30.4936 39.1424 31.05 38.5947C30.1458 38.073 29.1547 38.2122 28.3983 38.9512C27.4071 39.9249 26.4334 40.9161 25.4509 41.8986C24.964 42.3854 24.738 42.9767 24.7293 43.6635C24.7206 44.2982 24.7293 44.9416 24.7206 45.5763C24.7032 46.5587 24.3467 47.4108 23.6859 48.1324C23.5903 48.2367 23.5034 48.3411 23.4338 48.4193C25.6683 50.6451 27.8766 52.8534 30.1111 55.0792C30.9109 54.1141 31.9977 53.6707 33.2671 53.5403C33.667 53.4968 34.0931 53.2447 34.4061 52.9664C35.1451 52.2796 35.8232 51.5493 36.4927 50.8885ZM57.0809 48.4193C54.1857 51.2971 51.2905 54.175 48.43 57.0267C49.456 58.0526 50.4993 59.0873 51.473 60.0523C54.3422 57.2006 57.2374 54.3228 60.1239 51.4536C59.1067 50.4451 58.0807 49.4192 57.0809 48.4193Z" fill="#009EE2"/>
<path d="M27.8318 57.2179C27.8405 57.6005 27.5362 57.9048 27.1536 57.9135C26.7711 57.9221 26.4581 57.6178 26.4494 57.2353C26.4407 56.8614 26.7624 56.5311 27.1275 56.5311C27.5014 56.5224 27.8318 56.8441 27.8318 57.2179Z" fill="#009EE2"/>
<path d="M34.5102 20.8583C34.8927 20.8583 35.2057 21.1626 35.2144 21.5364C35.2231 21.9016 34.8927 22.232 34.5276 22.2407C34.1537 22.2494 33.8407 21.9364 33.832 21.5538C33.832 21.1713 34.1276 20.867 34.5102 20.8583Z" fill="#009EE2"/>
<path d="M57.9442 51.2624C57.9529 51.645 57.6486 51.9667 57.2747 51.9667C56.9096 51.9754 56.5792 51.6624 56.5705 51.2885C56.5618 50.906 56.8574 50.6017 57.2487 50.593C57.6399 50.5843 57.9442 50.8712 57.9442 51.2624Z" fill="#009EE2"/>
<circle cx="40" cy="40" r="39" stroke="#009EE2" stroke-width="2"/>
</svg>
