<svg width="15" height="15" viewBox="0 0 15 15" fill="none" xmlns="http://www.w3.org/2000/svg">
<path fill-rule="evenodd" clip-rule="evenodd" d="M7.10625 1.27825C6.10002 1.27781 5.11144 1.5582 4.23998 2.0912C3.52415 2.529 2.9081 3.12455 2.43217 3.83508H11.7806C11.3046 3.12455 10.6886 2.529 9.97277 2.0912C9.10131 1.5582 8.11272 1.27781 7.1065 1.27825H7.10625ZM7.1065 0.639039C5.99431 0.638561 4.90161 0.948476 3.93838 1.5376C2.97515 2.12672 2.17535 2.97427 1.61948 3.99495C1.56562 4.09383 1.56564 4.21565 1.61953 4.31452C1.67342 4.41339 1.77299 4.47429 1.88074 4.47429H12.332C12.4398 4.47429 12.5393 4.41339 12.5932 4.31452C12.6471 4.21565 12.6471 4.09383 12.5933 3.99495C12.0374 2.97427 11.2376 2.12672 10.2744 1.5376C9.3112 0.948519 8.2186 0.638606 7.1065 0.639039ZM1.61953 10.3869C1.67342 10.2881 1.77299 10.2272 1.88074 10.2272H12.332C12.4398 10.2272 12.5393 10.2881 12.5932 10.3869C12.6471 10.4858 12.6471 10.6076 12.5933 10.7065C12.0374 11.7272 11.2376 12.5747 10.2744 13.1639C9.31117 13.753 8.21852 14.0629 7.10637 14.0624C5.99423 14.0629 4.90158 13.753 3.93838 13.1639C2.97515 12.5747 2.17535 11.7272 1.61948 10.7065C1.56562 10.6076 1.56564 10.4858 1.61953 10.3869ZM7.10637 14.0624C7.10633 14.0624 7.10629 14.0624 7.10625 14.0624L7.10637 13.7428L7.1065 14.0624C7.10646 14.0624 7.10641 14.0624 7.10637 14.0624ZM2.43217 10.8664C2.9081 11.5769 3.52415 12.1725 4.23998 12.6103C5.11144 13.1433 6.10002 13.4236 7.10625 13.4232H7.1065C8.11272 13.4236 9.10131 13.1433 9.97277 12.6103C10.6886 12.1725 11.3046 11.5769 11.7806 10.8664H2.43217Z" fill="black"/>
<path fill-rule="evenodd" clip-rule="evenodd" d="M6.64795 0.684979C6.78309 0.769572 6.83521 0.946394 6.76886 1.09515L5.35066 4.27436C5.2828 4.4265 5.11372 4.49875 4.96252 4.44022C4.81132 4.3817 4.7289 4.21211 4.77331 4.05089C5.05471 3.0294 5.41886 2.21274 5.71363 1.64998C5.86109 1.36845 5.99143 1.14999 6.08579 1.0007C6.13299 0.926034 6.17121 0.868619 6.19812 0.829214C6.21157 0.80951 6.2222 0.794304 6.22971 0.783691L6.23859 0.771226L6.24121 0.767598L6.24206 0.766439L6.24248 0.765857C6.24253 0.765785 6.24258 0.765718 6.48854 0.960072L6.24248 0.765857C6.33796 0.635331 6.51281 0.600385 6.64795 0.684979ZM7.97041 0.765718L7.72444 0.960072C7.97041 0.765718 7.97035 0.765646 7.97041 0.765718L7.97093 0.766439L7.97177 0.767598L7.97439 0.771226L7.98328 0.783691C7.99079 0.794304 8.00142 0.80951 8.01487 0.829214C8.04178 0.868619 8.08 0.926034 8.12719 1.0007C8.22156 1.14999 8.3519 1.36845 8.49936 1.64998C8.79413 2.21274 9.15828 3.0294 9.43967 4.05089C9.48409 4.21211 9.40167 4.3817 9.25046 4.44022C9.09926 4.49875 8.93019 4.4265 8.86232 4.27436L7.44413 1.09515C7.37777 0.946394 7.42989 0.769572 7.56504 0.684979C7.70018 0.600385 7.87493 0.635191 7.97041 0.765718ZM0.220273 5.75849C0.383718 5.70752 0.555966 5.80392 0.605 5.9738L1.23598 8.15982L1.86696 5.9738C1.90617 5.83796 2.02646 5.74494 2.1629 5.74494C2.29935 5.74494 2.41964 5.83796 2.45885 5.9738L3.08983 8.15982L3.72081 5.9738C3.76984 5.80392 3.94209 5.70752 4.10553 5.75849C4.26898 5.80945 4.36173 5.98847 4.31269 6.15835L3.38577 9.36967C3.34656 9.50551 3.22627 9.59853 3.08983 9.59853C2.95338 9.59853 2.83309 9.50551 2.79388 9.36967L2.1629 7.18365L1.53192 9.36967C1.49272 9.50551 1.37242 9.59853 1.23598 9.59853C1.09953 9.59853 0.979243 9.50551 0.940035 9.36967L0.0131119 6.15835C-0.0359216 5.98847 0.0568273 5.80945 0.220273 5.75849ZM5.16386 5.75849C5.32731 5.70752 5.49956 5.80392 5.54859 5.9738L6.17957 8.15982L6.81055 5.9738C6.84976 5.83796 6.97005 5.74494 7.10649 5.74494C7.24294 5.74494 7.36323 5.83796 7.40244 5.9738L8.03342 8.15982L8.6644 5.9738C8.71343 5.80392 8.88568 5.70752 9.04912 5.75849C9.21257 5.80945 9.30532 5.98847 9.25628 6.15835L8.32936 9.36967C8.29015 9.50551 8.16986 9.59853 8.03342 9.59853C7.89697 9.59853 7.77668 9.50551 7.73747 9.36967L7.10649 7.18365L6.47551 9.36967C6.43631 9.50551 6.31602 9.59853 6.17957 9.59853C6.04312 9.59853 5.92283 9.50551 5.88363 9.36967L4.9567 6.15835C4.90767 5.98847 5.00042 5.80945 5.16386 5.75849ZM10.1075 5.75849C10.2709 5.70752 10.4431 5.80392 10.4922 5.9738L11.1232 8.15983L11.7541 5.9738C11.7933 5.83796 11.9136 5.74494 12.0501 5.74494C12.1865 5.74494 12.3068 5.83796 12.346 5.9738L12.977 8.15983L13.608 5.9738C13.657 5.80392 13.8293 5.70752 13.9927 5.75849C14.1562 5.80945 14.2489 5.98847 14.1999 6.15835L13.273 9.36967C13.2337 9.50551 13.1135 9.59853 12.977 9.59853C12.8406 9.59853 12.7203 9.50551 12.6811 9.36967L12.0501 7.18365L11.4191 9.36967C11.3799 9.50551 11.2596 9.59853 11.1232 9.59853C10.9867 9.59853 10.8664 9.50551 10.8272 9.36967L9.90029 6.15835C9.85126 5.98847 9.94401 5.80945 10.1075 5.75849ZM4.96252 10.261C5.11373 10.2025 5.2828 10.2747 5.35066 10.4269L6.76886 13.6061C6.83521 13.7548 6.78309 13.9316 6.64795 14.0162C6.51281 14.1008 6.33806 14.066 6.24258 13.9355L6.48854 13.7411C6.24258 13.9355 6.24263 13.9356 6.24258 13.9355L6.24206 13.9348L6.24121 13.9336L6.23859 13.93L6.22971 13.9175C6.2222 13.9069 6.21157 13.8917 6.19812 13.872C6.17121 13.8326 6.13299 13.7752 6.08579 13.7005C5.99143 13.5512 5.86109 13.3328 5.71363 13.0512C5.41886 12.4885 5.05471 11.6718 4.77331 10.6503C4.7289 10.4891 4.81132 10.3195 4.96252 10.261ZM9.25048 10.261C9.40168 10.3195 9.48409 10.4891 9.43967 10.6503C9.15827 11.6715 8.79413 12.4881 8.49937 13.051C8.35192 13.3325 8.22158 13.551 8.12722 13.7004C8.08003 13.7751 8.04181 13.8325 8.01491 13.8719C8.00146 13.8916 7.99083 13.9068 7.98332 13.9174L7.97444 13.9299L7.97182 13.9335L7.97098 13.9347L7.97056 13.9353C7.9705 13.9354 7.97045 13.9354 7.72444 13.7411L7.97056 13.9353C7.8751 14.0659 7.70023 14.1008 7.56507 14.0163C7.42991 13.9317 7.37777 13.7548 7.44413 13.6061L8.86232 10.4269C8.93019 10.2747 9.09927 10.2025 9.25048 10.261Z" fill="black"/>
</svg>
