<svg width="41" height="42" viewBox="0 0 41 42" fill="none" xmlns="http://www.w3.org/2000/svg">
<path d="M30.2838 0C30.3699 0.0323046 30.456 0.0753774 30.5421 0.0969138C31.8336 0.473801 32.7483 1.55062 32.7591 2.89664C32.7914 5.58869 32.7698 8.28074 32.7698 10.9728C32.7698 11.4035 32.5116 11.662 32.1457 11.6512C31.7797 11.6404 31.5645 11.3928 31.5645 10.9297C31.5645 8.38842 31.5645 5.84713 31.5645 3.29507C31.5645 1.8952 30.8758 1.20604 29.4875 1.20604C22.8151 1.20604 16.1428 1.20604 9.48119 1.20604C8.84624 1.20604 8.84624 1.20604 8.84624 1.84136C8.84624 3.37045 8.80319 4.9103 8.857 6.43938C8.91081 7.99 7.84539 8.9053 6.44635 8.86223C4.87512 8.81915 3.30389 8.85146 1.7219 8.85146C1.57123 8.85146 1.43133 8.85146 1.23761 8.85146C1.22685 9.05605 1.21609 9.21758 1.21609 9.38987C1.21609 18.9843 1.21609 28.5788 1.21609 38.1733C1.21609 39.4008 1.93713 40.1223 3.17475 40.1223C11.9672 40.1223 20.7704 40.1223 29.5628 40.1223C30.8435 40.1223 31.5645 39.4008 31.5645 38.1194C31.5645 37.9148 31.5537 37.7102 31.5645 37.5164C31.586 37.161 31.8228 36.9134 32.1457 36.9241C32.49 36.9349 32.716 37.1287 32.7483 37.4626C32.9636 39.3901 32.1349 40.8976 30.3054 41.2853C30.2623 41.296 30.23 41.3176 30.1978 41.3391C20.9641 41.3391 11.7412 41.3391 2.50751 41.3391C2.48599 41.3176 2.46446 41.296 2.44294 41.296C0.764091 40.8115 0.0107619 39.8208 0.0107619 38.0763C0.0107619 28.5465 0.0107619 19.0274 0 9.49755C0 8.4638 0.344379 7.62388 1.07619 6.90241C2.89494 5.10412 4.70293 3.30584 6.4894 1.47524C7.14587 0.829151 7.8131 0.226132 8.73862 0C15.9168 0 23.1057 0 30.2838 0ZM7.64091 2.23978C5.82216 4.05961 4.03569 5.8579 2.24923 7.64542C2.23847 7.64542 2.29227 7.65619 2.33532 7.65619C3.77741 7.65619 5.20874 7.66696 6.65082 7.65619C7.3073 7.65619 7.63015 7.3116 7.64091 6.64398C7.65168 5.79329 7.64091 4.95337 7.64091 4.10268C7.64091 3.46736 7.64091 2.8428 7.64091 2.23978Z" fill="#009EE2"/>
<path d="M27.9485 30.0863C26.6248 29.7525 25.9791 29.0095 25.85 27.7066C25.7962 27.2005 25.5594 26.8236 25.0859 26.662C23.6546 26.1667 22.9443 24.3792 23.8806 22.9685C24.1711 22.5378 24.1281 22.0856 23.8698 21.6333C23.0196 20.1473 23.4824 18.7043 25.0321 18.0044C25.5486 17.7675 25.8069 17.3906 25.8607 16.8199C25.9899 15.2693 27.3136 14.2786 28.8418 14.6124C29.466 14.7524 29.9287 14.5801 30.3484 14.1171C31.36 12.9756 32.9958 12.9864 33.9967 14.1278C34.4056 14.5909 34.8469 14.7632 35.4603 14.6232C37.01 14.2786 38.2907 15.2154 38.4521 16.7984C38.5167 17.4121 38.8072 17.7998 39.3776 18.0475C40.7874 18.6613 41.2932 20.2227 40.5076 21.5471C40.1955 22.0856 40.1955 22.5594 40.5076 23.0978C41.2932 24.4223 40.7874 25.9837 39.3776 26.5974C38.7857 26.8559 38.5059 27.2543 38.4521 27.8896C38.3552 28.9664 37.7526 29.6772 36.7302 29.9894C36.4612 30.0756 36.3751 30.1833 36.3858 30.4525C36.3966 32.1215 36.3966 33.7906 36.3858 35.4597C36.3858 36.2458 35.9661 36.7949 35.2666 36.838C34.9653 36.8596 34.6209 36.7626 34.3518 36.6227C33.6954 36.2673 33.0604 35.8473 32.4255 35.4489C32.2425 35.3305 32.1134 35.3197 31.9197 35.4382C31.2847 35.8473 30.6498 36.235 30.004 36.6227C29.0032 37.2257 27.9593 36.6334 27.9593 35.4705C27.9485 33.8337 27.9593 32.1861 27.9593 30.5494C27.9485 30.4094 27.9485 30.2586 27.9485 30.0863ZM39.6682 20.3949C39.6359 19.7273 39.3776 19.3504 38.8826 19.1458C37.8817 18.7474 37.3652 18.0152 37.2575 16.9491C37.1714 16.0553 36.558 15.6246 35.6863 15.8184C34.6747 16.0446 33.8353 15.7754 33.1465 14.9893C32.5654 14.3217 31.7798 14.3109 31.1986 14.9785C30.5099 15.7754 29.6597 16.0553 28.6265 15.8184C27.7763 15.6246 27.1306 16.1092 27.0661 16.9706C26.9907 17.9721 26.4957 18.6828 25.5809 19.092C24.6446 19.5119 24.4402 20.1688 24.9567 21.0733C25.4195 21.8917 25.4841 22.7424 24.9675 23.5177C24.4294 24.3253 24.7307 25.2514 25.6563 25.596C26.5172 25.919 26.9692 26.6405 27.0661 27.545C27.1737 28.5896 27.7441 29.0203 28.7664 28.8049C29.6812 28.6111 30.4668 28.8588 31.1125 29.5372C31.8658 30.3555 32.5008 30.3555 33.2541 29.5479C33.8891 28.8588 34.6639 28.6003 35.5895 28.7942C36.6226 29.0095 37.1714 28.6326 37.3006 27.5666C37.419 26.5867 37.9355 25.9083 38.8395 25.5206C39.679 25.1653 39.9265 24.4223 39.4637 23.6469C38.9256 22.7532 38.9364 21.8702 39.4637 20.9764C39.5498 20.7718 39.6144 20.5242 39.6682 20.3949ZM35.1482 29.8817C34.8361 30.011 34.5563 30.1079 34.2873 30.2263C34.2012 30.2694 34.1258 30.3663 34.0613 30.4525C32.9528 31.68 31.3923 31.68 30.2731 30.4417C29.9825 30.1186 29.6489 29.9141 29.1969 29.9787C29.1969 31.8739 29.1969 33.7475 29.1969 35.6858C29.3691 35.5889 29.4982 35.5243 29.6166 35.4489C30.1978 35.0936 30.7897 34.749 31.36 34.3721C31.9089 34.0167 32.4362 34.0275 32.9743 34.3721C33.4478 34.6736 33.9321 34.9643 34.4164 35.2551C34.6424 35.3951 34.8684 35.5243 35.1482 35.6858C35.1482 33.7475 35.1482 31.8739 35.1482 29.8817Z" fill="#009EE2"/>
<path d="M20.1139 4.18873C22.1156 4.18873 24.1173 4.18873 26.1298 4.18873C27.0984 4.18873 27.6257 4.71637 27.6364 5.67473C27.6364 6.21313 27.6364 6.75154 27.6364 7.28995C27.6364 8.34522 27.1199 8.86209 26.0437 8.86209C23.6223 8.86209 21.2009 8.86209 18.7794 8.86209C18.4566 8.86209 18.1337 8.87286 17.8109 8.86209C17.3804 8.84056 17.1113 8.58212 17.1329 8.22677C17.1544 7.88219 17.4019 7.65606 17.8324 7.65606C20.5229 7.65606 23.2133 7.65606 25.9038 7.65606C26.4311 7.65606 26.4311 7.65606 26.4311 7.12842C26.4311 6.67616 26.4204 6.21313 26.4311 5.76087C26.4419 5.50244 26.3665 5.40553 26.0975 5.40553C22.0941 5.41629 18.0799 5.41629 14.0765 5.40553C13.8182 5.40553 13.7106 5.47013 13.7214 5.75011C13.7321 6.27774 13.7321 6.79461 13.7214 7.32225C13.7106 7.59145 13.8182 7.68837 14.0765 7.66683C14.3563 7.65606 14.6361 7.65606 14.9267 7.66683C15.2711 7.6776 15.4755 7.88219 15.5186 8.21601C15.5616 8.52828 15.3249 8.82979 14.9805 8.85132C14.5393 8.88363 14.0873 8.88363 13.6568 8.82979C12.9896 8.74364 12.5483 8.22677 12.5268 7.55915C12.5053 6.89153 12.5053 6.21313 12.5268 5.54551C12.5483 4.72713 13.0972 4.1995 13.9258 4.1995C15.9813 4.17796 18.0476 4.18873 20.1139 4.18873Z" fill="#009EE2"/>
<path d="M12.8927 24.3792C10.4067 24.3792 7.92071 24.3792 5.43472 24.3792C5.28406 24.3792 5.13339 24.3792 4.99349 24.3361C4.70292 24.25 4.55225 24.0239 4.57377 23.7223C4.5953 23.4208 4.77825 23.227 5.07958 23.1731C5.20872 23.1516 5.34863 23.1624 5.47777 23.1624C10.439 23.1624 15.4002 23.1624 20.3614 23.1624C20.4798 23.1624 20.609 23.1516 20.7273 23.1731C21.0502 23.2162 21.2439 23.3993 21.2547 23.7331C21.2762 24.0885 21.0825 24.2931 20.7489 24.3577C20.6197 24.39 20.4798 24.3684 20.3507 24.3684C17.8647 24.3792 15.3787 24.3792 12.8927 24.3792Z" fill="#009EE2"/>
<path d="M12.9035 20.115C10.4282 20.115 7.95302 20.115 5.47779 20.115C5.34865 20.115 5.20875 20.1257 5.07961 20.1042C4.76751 20.0611 4.55228 19.8457 4.58456 19.5658C4.60609 19.3504 4.78904 19.1242 4.96123 18.9735C5.06884 18.8765 5.29484 18.9089 5.46703 18.9089C10.4282 18.9089 15.3895 18.9089 20.3507 18.9089C20.4583 18.9089 20.5659 18.8981 20.6735 18.9089C21.0502 18.9519 21.2762 19.1996 21.2547 19.5442C21.2331 19.8781 21.0071 20.1042 20.6412 20.1042C19.9202 20.115 19.1884 20.1042 18.4673 20.1042C16.6055 20.115 14.7545 20.115 12.9035 20.115Z" fill="#009EE2"/>
<path d="M12.9357 27.4373C15.4109 27.4373 17.8862 27.4373 20.3506 27.4373C20.5013 27.4373 20.652 27.4265 20.7919 27.4588C21.0717 27.5127 21.2869 27.7172 21.2331 27.9864C21.2008 28.2018 21.0286 28.4279 20.8564 28.5787C20.7488 28.6756 20.5228 28.6433 20.3506 28.6433C15.3894 28.6433 10.4282 28.6433 5.467 28.6433C5.41319 28.6433 5.35938 28.6433 5.30558 28.6433C4.84282 28.6325 4.55225 28.3956 4.55225 28.0295C4.55225 27.6634 4.83205 27.4265 5.30558 27.4265C7.85613 27.4265 10.3959 27.4373 12.9357 27.4373Z" fill="#009EE2"/>
<path d="M12.9357 14.6661C15.4002 14.6661 17.8539 14.6661 20.3183 14.6661C20.4798 14.6661 20.6412 14.6661 20.8026 14.6877C21.0824 14.7415 21.2439 14.9353 21.2546 15.2261C21.2761 15.5276 21.1255 15.7537 20.8349 15.8291C20.6842 15.8722 20.5121 15.8722 20.3506 15.8722C15.3894 15.8722 10.4282 15.8722 5.467 15.8722C5.41319 15.8722 5.35938 15.8722 5.30558 15.8722C4.83205 15.8506 4.55225 15.6245 4.55225 15.2584C4.55225 14.8923 4.83205 14.6661 5.30558 14.6661C7.09204 14.6661 8.87851 14.6661 10.665 14.6661C11.4291 14.6661 12.1824 14.6661 12.9357 14.6661Z" fill="#009EE2"/>
<path d="M9.0615 33.672C10.2991 33.672 11.5367 33.672 12.7743 33.672C13.2586 33.672 13.5277 33.8766 13.5384 34.2535C13.5492 34.6412 13.2694 34.8781 12.7743 34.8781C10.2883 34.8781 7.80236 34.8781 5.31637 34.8781C4.74599 34.8781 4.4339 34.4797 4.62761 34.0381C4.75676 33.7366 5.01504 33.672 5.32713 33.672C6.56475 33.672 7.81312 33.672 9.0615 33.672Z" fill="#009EE2"/>
<path d="M32.1672 17.2613C34.976 17.272 37.236 19.5334 37.2252 22.3439C37.2145 25.1437 34.9437 27.405 32.1241 27.3942C29.3476 27.3835 27.0768 25.1113 27.0768 22.3331C27.0876 19.5334 29.3691 17.2505 32.1672 17.2613ZM32.1672 18.4673C30.0471 18.4673 28.3252 20.1687 28.3037 22.3008C28.2822 24.4222 30.0256 26.1774 32.1564 26.1774C34.2873 26.1774 36.0092 24.476 36.0199 22.3439C36.0307 20.201 34.3195 18.4781 32.1672 18.4673Z" fill="#009EE2"/>
</svg>
