<svg width="34" height="44" viewBox="0 0 34 44" fill="none" xmlns="http://www.w3.org/2000/svg">
<path d="M12.3777 31.0103C13.8437 31.0103 15.3579 30.9622 16.872 31.0223C17.9536 31.0704 18.7467 30.878 19.5038 29.9281C20.6814 28.4251 22.4119 27.7036 24.4067 27.4391C24.2745 26.7898 24.2145 26.1405 24.0102 25.5513C23.6617 24.5293 23.2411 23.5433 22.8205 22.5453C22.6282 22.0764 22.6763 21.6916 23.0488 21.4751C23.4333 21.2467 23.8419 21.391 24.0943 21.8479C24.8874 23.2667 25.4041 24.7818 25.6805 26.369C25.8608 27.367 25.8488 27.367 26.8342 27.5714C27.1586 27.6435 27.4711 27.7277 27.7835 27.8359C28.096 27.9321 28.3964 28.0644 28.7689 28.2087C28.4204 24.6375 27.0745 21.5834 24.6831 18.9741C22.8445 20.5733 20.393 20.6094 18.4943 18.89C17.6772 19.7196 16.848 20.5493 16.0188 21.379C15.418 21.9802 15.1416 21.9802 14.5527 21.391C13.2189 20.0563 11.873 18.7096 10.5391 17.3749C10.4309 17.2667 10.3588 17.1344 10.2507 16.9781C9.86611 17.399 9.55367 17.7356 9.21719 18.0964C10.0103 18.89 10.8275 19.7076 11.6566 20.5373C12.0172 20.898 12.3897 21.2467 12.7382 21.6315C13.0266 21.9441 13.0026 22.377 12.7141 22.6415C12.4498 22.894 12.0412 22.918 11.7408 22.6415C11.5605 22.4852 11.4403 22.2687 11.2841 22.0643C10.4189 22.9301 9.63778 23.6996 8.86869 24.4812C8.31591 25.0343 8.01548 25.0343 7.4627 24.4932C6.90991 23.9401 6.35713 23.387 5.80435 22.8339C5.25156 22.2808 5.25156 21.9802 5.79233 21.4271C6.5494 20.6695 7.29446 19.912 8.05153 19.1665C8.07557 19.1425 8.08758 19.1184 8.23179 18.9621C8.05153 18.8539 7.85926 18.7577 7.71506 18.6134C7.34253 18.2407 7.34253 17.8439 7.71506 17.4711C8.18372 16.9902 8.67642 16.5332 9.30131 15.9441C9.06097 15.7757 8.85667 15.6916 8.72448 15.5352C8.36397 15.1625 8.37599 14.8018 8.72448 14.429C8.8086 14.3449 8.89273 14.2607 8.97685 14.1765C12.4858 10.6534 16.0068 7.14241 19.5158 3.61934C20.2849 2.8498 20.4772 2.8498 21.2462 3.60732C21.2943 3.64339 21.3304 3.69149 21.3424 3.69149C22.0153 3.01814 22.6763 2.35681 23.4574 1.57524C23.3492 1.5031 23.1329 1.40691 22.9887 1.25059C22.6522 0.913917 22.6643 0.5051 22.9647 0.216521C23.2651 -0.0720572 23.6737 -0.0840828 24.0102 0.252592C24.9475 1.17845 25.8848 2.11633 26.8222 3.05421C27.8797 4.10031 28.9251 5.15843 29.9826 6.20453C30.235 6.45703 30.3912 6.72156 30.235 7.09431C30.0427 7.55123 29.514 7.68349 29.1174 7.37087C28.9251 7.22658 28.7689 7.04621 28.6247 6.91395C27.9518 7.5873 27.2908 8.24863 26.5217 9.01817C26.6539 9.11436 26.8702 9.22258 27.0264 9.39092C27.3269 9.71557 27.3269 10.0763 27.0264 10.4009C26.702 10.7617 26.3655 11.0983 26.005 11.423C25.6805 11.7116 25.272 11.6995 24.9956 11.423C24.7192 11.1464 24.7071 10.7256 25.0076 10.413C25.1638 10.2567 25.3681 10.1364 25.5123 10.0402C24.4067 8.934 23.4093 7.936 22.4239 6.938C19.0832 10.2807 15.7064 13.6595 12.3777 17.0022C13.351 17.9761 14.3605 18.9741 15.406 20.0202C16.0909 19.3349 16.86 18.5773 17.5931 17.7958C17.6772 17.7116 17.6291 17.435 17.569 17.2787C16.7158 14.7897 18.242 12.1204 20.8136 11.6274C22.448 11.3148 23.866 11.7957 24.9355 13.0583C26.017 14.3208 26.2694 15.7877 25.6925 17.3629C25.5724 17.6996 25.6325 17.8799 25.8608 18.1324C28.6247 21.1745 30.0547 24.7698 30.3071 28.858C30.3191 29.0624 30.4393 29.3149 30.5835 29.4592C32.9629 31.7918 33.8041 34.5935 32.7826 37.7678C31.7732 40.9061 29.514 42.7097 26.2333 43.2027C25.9329 43.2508 25.6325 43.2749 25.332 43.2749C24.8754 43.2749 24.563 42.9983 24.5389 42.5895C24.5269 42.1686 24.8273 41.856 25.32 41.844C26.69 41.8079 27.9518 41.4111 29.0573 40.6055C31.4607 38.862 32.374 35.7357 31.2925 32.9702C30.235 30.2768 27.423 28.5453 24.635 28.882C21.5587 29.2427 19.2394 31.4672 18.8308 34.4732C18.7828 34.8099 18.7587 35.1586 18.7587 35.5073C18.7467 37.4552 18.7587 39.4151 18.7587 41.363C18.7587 41.5073 18.7587 41.6516 18.7587 41.844C19.8643 41.844 20.9338 41.844 21.9913 41.844C22.1355 41.844 22.2917 41.832 22.4359 41.844C22.8565 41.8801 23.157 42.1807 23.157 42.5654C23.157 42.9502 22.8445 43.2628 22.4239 43.2749C21.5587 43.2869 20.6814 43.2749 19.8162 43.2869C19.2634 43.2869 18.6986 43.2989 18.1458 43.2869C17.581 43.2749 17.3167 43.0103 17.3167 42.4452C17.3047 41.5434 17.3167 40.6416 17.3167 39.7157C17.1965 39.7037 17.1004 39.6797 17.0042 39.6797C13.5073 39.6797 10.0103 39.6676 6.50133 39.6797C5.16744 39.6797 4.06187 40.5454 3.73741 41.844C3.90565 41.844 4.06187 41.844 4.21809 41.844C7.7511 41.844 11.2721 41.844 14.8051 41.844C14.9493 41.844 15.1055 41.832 15.2497 41.856C15.6343 41.9282 15.8626 42.1807 15.8626 42.5775C15.8506 42.9502 15.6343 43.1907 15.2618 43.2628C15.1296 43.2869 14.9974 43.2749 14.8532 43.2749C10.9597 43.2749 7.07815 43.2749 3.18463 43.2749C2.35546 43.2749 2.09108 42.9743 2.18722 42.1326C2.42756 39.8961 4.25415 38.2368 6.52537 38.2247C9.91417 38.2127 13.315 38.2247 16.7038 38.2247C16.8841 38.2247 17.0643 38.2247 17.2806 38.2247C17.2806 37.6115 17.2806 37.0223 17.2806 36.373C16.6197 36.3009 15.9347 36.2287 15.2497 36.1686C13.3631 35.9883 11.4884 35.8079 9.60173 35.6275C7.57085 35.4351 6.41722 34.4732 5.82838 32.4532C5.11938 32.4532 4.38634 32.4652 3.6533 32.4532C1.79066 32.4291 0.324574 31.1666 0.0361653 29.3269C-0.108039 28.4491 0.168353 28.1245 1.05761 28.1245C4.68676 28.1245 8.32792 28.1245 11.9571 28.1245C12.7862 28.1245 13.1107 28.4491 12.9425 29.2668C12.8103 29.8319 12.582 30.385 12.3777 31.0103ZM21.6068 12.9741C20.0205 12.9741 18.7227 14.2847 18.7467 15.8839C18.7587 17.4591 20.0566 18.7457 21.6188 18.7457C23.217 18.7457 24.5029 17.4471 24.5029 15.8599C24.5029 14.2607 23.205 12.9621 21.6068 12.9741ZM20.4171 4.88188C17.0162 8.27267 13.6395 11.6514 10.3348 14.9581C10.6112 15.2707 10.9116 15.6194 11.188 15.92C14.5648 12.5412 17.9416 9.16246 21.3304 5.77166C21.042 5.48308 20.7175 5.17045 20.4171 4.88188ZM17.2446 34.9061C17.4248 34.0644 17.5931 33.2708 17.7733 32.4772C14.3124 32.4772 10.8395 32.4772 7.36656 32.4772C7.6069 33.4031 8.44809 34.0644 9.44551 34.1606C11.236 34.3289 13.0266 34.5093 14.8171 34.6776C15.6343 34.7618 16.4514 34.8339 17.2446 34.9061ZM11.3202 29.5794C8.08759 29.5794 4.855 29.5794 1.62242 29.5794C1.73057 30.3369 2.70395 30.9862 3.46102 30.9862C5.46787 30.9982 7.48673 30.9982 9.49358 30.9862C10.3588 30.9862 11.2721 30.2287 11.3202 29.5794ZM22.5201 4.74961C23.5295 5.75963 24.5269 6.75764 25.4642 7.69552C26.1011 7.07026 26.7621 6.40894 27.3629 5.80773C26.4016 4.83378 25.4041 3.82375 24.4187 2.83778C23.7939 3.47505 23.1329 4.12436 22.5201 4.74961ZM9.18114 20.1405C8.50818 20.8138 7.83523 21.4751 7.17429 22.1485C7.48673 22.4611 7.81119 22.7858 8.1717 23.1465C8.76054 22.5573 9.33736 21.9681 9.91418 21.379C9.99829 21.2948 10.0704 21.2106 10.1545 21.1144C9.81804 20.7778 9.49358 20.4531 9.18114 20.1405Z" fill="#009EE2"/>
<path d="M28.829 33.9202C28.805 35.9042 27.1706 37.5035 25.1758 37.4914C23.193 37.4794 21.5947 35.8201 21.6187 33.824C21.6428 31.84 23.2891 30.2528 25.296 30.2769C27.2548 30.313 28.8531 31.9483 28.829 33.9202ZM27.387 33.8721C27.3749 32.6938 26.4016 31.7318 25.2239 31.7318C24.0342 31.7318 23.0608 32.7178 23.0608 33.9202C23.0608 35.0866 24.0462 36.0605 25.2239 36.0605C26.4256 36.0485 27.399 35.0625 27.387 33.8721Z" fill="#009EE2"/>
<path d="M22.3398 15.8718C22.3278 16.2566 21.9913 16.5812 21.6068 16.5692C21.2102 16.5572 20.8977 16.2325 20.9098 15.8358C20.9218 15.439 21.2462 15.1264 21.6428 15.1384C22.0274 15.1384 22.3518 15.4751 22.3398 15.8718Z" fill="#009EE2"/>
<path d="M25.2479 33.1744C25.6445 33.1864 25.9569 33.5231 25.9449 33.908C25.9329 34.2928 25.5964 34.6174 25.2119 34.6054C24.8153 34.5934 24.5028 34.2567 24.5149 33.8719C24.5269 33.475 24.8513 33.1624 25.2479 33.1744Z" fill="#009EE2"/>
</svg>
