<svg width="42" height="42" viewBox="0 0 42 42" fill="none" xmlns="http://www.w3.org/2000/svg">
<path d="M20.3399 0C21.147 0.366118 21.3838 1.00144 21.3623 1.85213C21.3192 3.43505 21.3515 5.02874 21.3515 6.61166C21.3515 7.72078 20.8887 8.21612 19.791 8.30227C14.1518 8.74376 9.66414 12.6957 8.50186 18.2413C7.1351 24.7453 11.4291 31.3785 17.94 32.7783C18.618 32.9291 19.3175 32.9829 20.0063 33.0798C20.8457 33.1875 21.33 33.6829 21.3407 34.5228C21.3515 36.3211 21.3515 38.1301 21.3407 39.9284C21.3407 40.6714 20.9103 41.1129 20.2538 41.3606C19.9309 41.3606 19.6081 41.3606 19.2852 41.3606C19.1776 41.339 19.0807 41.296 18.9731 41.296C17.8108 41.1883 17.1974 40.6176 17.0145 39.4654C16.9284 38.8947 16.81 38.3239 16.7347 37.7532C16.7024 37.5379 16.6163 37.441 16.4011 37.3871C14.7975 36.9887 13.2909 36.3641 11.8811 35.5027C11.6874 35.3842 11.5582 35.395 11.386 35.5242C10.8587 35.9226 10.3206 36.3103 9.78252 36.6764C9.03995 37.1825 8.10367 37.161 7.46872 36.5795C6.57549 35.7504 5.70377 34.8889 4.87511 33.9951C4.17559 33.2414 4.17559 32.3368 4.76749 31.4862C5.12263 30.9801 5.4993 30.4847 5.83291 29.9678C5.90825 29.8494 5.92977 29.6233 5.87596 29.5156C5.02578 28.0726 4.39082 26.5328 3.96035 24.9176C3.92807 24.7991 3.77741 24.6591 3.65903 24.6376C3.05636 24.5084 2.44294 24.4222 1.82951 24.3253C0.8179 24.1638 0.172182 23.4746 0.0860869 22.4517C0.075325 22.2686 0.0322855 22.0855 0 21.9025C0 21.0949 0 20.2873 0 19.4796C0.0322855 19.3181 0.0645658 19.1674 0.0753277 19.0058C0.161422 17.8859 0.785609 17.2183 1.90484 17.046C2.46446 16.9599 3.01331 16.8522 3.57293 16.7768C3.82045 16.7445 3.92807 16.6476 3.99264 16.3892C4.39083 14.8062 5.00426 13.2987 5.85445 11.9096C5.98359 11.6942 5.9513 11.5543 5.82216 11.3712C5.45625 10.8759 5.09035 10.3698 4.74597 9.86365C4.17559 9.05604 4.1756 8.14074 4.84283 7.41927C5.67149 6.52552 6.53244 5.65329 7.43643 4.82414C8.13595 4.17805 9.06147 4.17805 9.84709 4.71646C10.3744 5.08258 10.891 5.481 11.4291 5.82559C11.5367 5.90096 11.7627 5.91173 11.8703 5.84712C13.3016 5.0072 14.8191 4.37188 16.4226 3.95192C16.5517 3.91962 16.7024 3.74733 16.7239 3.62888C16.8531 3.01509 16.9391 2.39054 17.0468 1.76598C17.2082 0.796845 17.897 0.161524 18.8763 0.0753786C18.9947 0.0646104 19.1023 0.0215364 19.2207 0C19.5866 0 19.9632 0 20.3399 0ZM19.9202 39.9822C19.9417 39.8853 19.9525 39.8315 19.9525 39.7884C19.9632 38.1086 19.9632 36.4287 19.974 34.7381C19.974 34.4689 19.8341 34.4474 19.6296 34.4151C18.844 34.3074 18.0476 34.232 17.2835 34.0382C10.3959 32.3153 5.94053 25.5744 7.02748 18.5643C8.0068 12.2434 13.1833 7.45158 19.5758 6.94548C19.8771 6.92394 19.9525 6.81626 19.9417 6.52552C19.9309 4.9426 19.9525 3.3489 19.9525 1.76598C19.9525 1.64753 19.9309 1.52908 19.9202 1.37833C19.5973 1.39986 19.3067 1.44294 19.0162 1.4537C18.6287 1.46447 18.435 1.6583 18.3705 2.03519C18.2521 2.82126 18.1122 3.59657 17.983 4.38265C17.8969 4.92106 17.7786 5.06105 17.2405 5.19026C15.4002 5.59945 13.6783 6.31015 12.1071 7.33313C11.7304 7.5808 11.3968 7.57003 11.0309 7.29006C10.3852 6.80549 9.71794 6.35323 9.07223 5.87943C8.80318 5.6856 8.52337 5.64253 8.26509 5.8902C7.46871 6.6655 6.6831 7.46235 5.89748 8.24843C5.62844 8.5284 5.66073 8.81914 5.87596 9.12065C6.34949 9.75597 6.79072 10.4128 7.26425 11.0482C7.53329 11.4035 7.55482 11.7373 7.3073 12.125C6.2634 13.7187 5.55311 15.4523 5.15493 17.3045C5.05807 17.7567 4.81054 17.9613 4.36931 18.0259C3.58369 18.1336 2.80883 18.2951 2.02322 18.4028C1.63579 18.4567 1.44208 18.672 1.43132 19.0381C1.42056 20.1257 1.42056 21.2133 1.43132 22.3009C1.43132 22.6778 1.62503 22.8824 2.01246 22.947C2.79807 23.0654 3.57293 23.2162 4.35855 23.3346C4.82131 23.3993 5.05807 23.6362 5.16569 24.0884C5.56387 25.9298 6.27416 27.6527 7.3073 29.2356C7.55482 29.6125 7.53329 29.9463 7.26425 30.3124C6.79072 30.9477 6.33872 31.6046 5.87596 32.2399C5.6392 32.563 5.62845 32.8537 5.91901 33.1445C6.67234 33.8982 7.41491 34.652 8.179 35.395C8.53414 35.7396 8.72786 35.7288 9.13681 35.4381C9.77176 34.9858 10.4067 34.5336 11.0309 34.0705C11.3968 33.8013 11.7197 33.7798 12.0963 34.0274C13.6891 35.072 15.4217 35.7827 17.2728 36.1811C17.7032 36.278 17.9185 36.5149 17.9723 36.9456C18.0907 37.7532 18.2413 38.5608 18.3705 39.3685C18.4243 39.67 18.5749 39.8638 18.887 39.8961C19.2422 39.9284 19.565 39.9499 19.9202 39.9822Z" fill="#009EE2"/>
<path d="M21.373 14.4615C21.373 15.1722 21.373 15.8183 21.373 16.5398C21.5237 16.5398 21.6636 16.5398 21.8035 16.5398C25.2365 16.5398 28.6588 16.5398 32.0918 16.5398C32.8344 16.5398 33.0496 16.3244 33.0496 15.5707C33.0496 14.58 33.0388 13.5785 33.0496 12.5879C33.0496 12.3725 32.985 12.2648 32.7913 12.1571C31.8766 11.6618 31.4676 10.6819 31.7582 9.7343C32.038 8.80823 32.9527 8.17291 33.8782 8.25906C34.9114 8.35597 35.6647 9.08821 35.7939 10.122C35.8907 10.8973 35.4818 11.7156 34.75 12.1033C34.4917 12.2433 34.4271 12.394 34.4271 12.6633C34.4379 13.6324 34.4379 14.6015 34.4271 15.5707C34.4271 17.0674 33.5877 17.9074 32.1133 17.9074C28.7018 17.9074 25.2795 17.9074 21.8681 17.9074C21.7066 17.9074 21.556 17.9074 21.373 17.9074C21.373 18.5965 21.373 19.2534 21.373 19.9426C21.5237 19.9533 21.6636 19.9641 21.8142 19.9641C26.84 19.9641 31.8766 19.9641 36.9023 19.9641C37.1606 19.9641 37.3328 19.921 37.4727 19.6518C37.9139 18.8119 38.904 18.4135 39.808 18.6611C40.7013 18.9088 41.3254 19.738 41.3147 20.6748C41.3039 21.6009 40.6582 22.43 39.765 22.6561C38.861 22.8823 37.9139 22.4839 37.4619 21.6547C37.3436 21.4393 37.2359 21.3424 36.9777 21.3424C31.8981 21.3532 26.8077 21.3532 21.7282 21.3532C21.6205 21.3532 21.5129 21.364 21.3838 21.3747C21.3838 22.0424 21.3838 22.6992 21.3838 23.4099C21.5344 23.4099 21.6851 23.4099 21.8465 23.4099C25.258 23.4099 28.6803 23.4099 32.0918 23.4099C33.6092 23.4099 34.4379 24.2391 34.4379 25.7574C34.4379 26.7265 34.4486 27.6957 34.4271 28.6648C34.4271 28.934 34.5024 29.0848 34.75 29.2248C35.5786 29.677 35.966 30.6138 35.7293 31.5291C35.5033 32.4121 34.6746 33.069 33.7491 33.0798C32.8451 33.0905 32.0272 32.4767 31.7582 31.5938C31.4784 30.6569 31.8766 29.6662 32.7698 29.1924C32.9958 29.074 33.0604 28.9448 33.0604 28.6971C33.0496 27.6741 33.0604 26.6511 33.0496 25.6282C33.0496 25.0467 32.7913 24.7882 32.1994 24.7882C28.6803 24.7882 25.1504 24.7882 21.6313 24.7882C21.556 24.7882 21.4699 24.799 21.373 24.8098C21.373 25.4882 21.373 26.1558 21.373 26.8665C21.5344 26.8665 21.6851 26.8665 21.825 26.8665C24.0742 26.8665 26.3127 26.8665 28.5619 26.8665C28.6911 26.8665 28.831 26.8557 28.9601 26.8773C29.326 26.9096 29.5843 27.1896 29.595 27.5341C29.6058 27.8572 29.369 28.1587 29.0247 28.2233C28.8955 28.2448 28.7556 28.2448 28.6265 28.2448C26.3557 28.2448 24.085 28.2448 21.8035 28.2448C21.6636 28.2448 21.5129 28.2448 21.3515 28.2448C21.3515 28.7186 21.3515 29.1386 21.3515 29.6232C21.5775 29.6232 21.782 29.6232 21.9972 29.6232C23.1164 29.6232 24.2249 29.6232 25.3441 29.6232C26.6571 29.6339 27.5072 30.4739 27.518 31.7983C27.5288 33.0582 27.5288 34.3289 27.518 35.5888C27.518 35.8364 27.5933 35.9656 27.8193 36.0841C28.6803 36.5364 29.0892 37.4947 28.8417 38.41C28.5942 39.3361 27.7763 39.9714 26.8185 39.9606C25.9037 39.9499 25.0858 39.3253 24.8491 38.4531C24.5908 37.5055 24.989 36.5471 25.8607 36.0841C26.0867 35.9656 26.1513 35.8257 26.1513 35.5888C26.1405 34.3504 26.1513 33.1121 26.1405 31.8737C26.1405 31.2276 25.9145 30.9907 25.2688 30.9907C23.9881 30.9907 22.7182 30.98 21.4376 31.0015C21.2977 31.0015 21.1255 31.0769 21.0394 31.1738C20.7165 31.5399 20.3291 31.6907 19.8556 31.6476C17.3696 31.4645 15.1634 30.5815 13.3339 28.8909C10.0731 25.8651 8.87853 22.1177 10.0193 17.832C11.16 13.5355 14.0657 10.908 18.3812 9.87429C18.887 9.75584 19.4144 9.72353 19.9417 9.66969C20.3722 9.62662 20.7165 9.80968 21.0179 10.122C21.1255 10.2296 21.2977 10.3158 21.4483 10.3158C22.7398 10.3266 24.0312 10.3266 25.3226 10.3266C25.893 10.3266 26.1405 10.0897 26.1405 9.52971C26.1513 8.24829 26.1405 6.97764 26.1513 5.69622C26.1513 5.48086 26.0975 5.36241 25.893 5.2655C24.9997 4.79169 24.6016 3.86563 24.8383 2.91803C25.0643 2.03504 25.893 1.37817 26.8185 1.37817C27.7655 1.37817 28.5942 2.0135 28.831 2.9288C29.0677 3.85486 28.648 4.77016 27.7655 5.28703C27.6364 5.36241 27.518 5.56701 27.518 5.70699C27.4965 6.96687 27.5073 8.23752 27.5073 9.4974C27.4965 10.8757 26.6571 11.7049 25.2903 11.7049C23.9881 11.7049 22.686 11.7049 21.3515 11.7049C21.3515 12.1679 21.3515 12.6094 21.3515 13.0832C21.5129 13.0832 21.6528 13.0832 21.8035 13.0832C24.0742 13.0832 26.345 13.0832 28.6265 13.0832C28.7987 13.0832 28.9816 13.094 29.143 13.1478C29.4551 13.2555 29.6166 13.5139 29.5843 13.837C29.552 14.1816 29.3475 14.3969 28.9924 14.4508C28.8632 14.4723 28.7233 14.4615 28.5942 14.4615C26.345 14.4615 24.1065 14.4615 21.8573 14.4615C21.7281 14.4615 21.5775 14.4615 21.373 14.4615ZM19.9525 11.1019C17.3804 11.1557 14.1411 12.7279 12.4192 15.7214C10.482 19.0919 10.4928 22.5054 12.5376 25.8112C14.2164 28.5356 16.7562 29.9678 19.9525 30.3123C19.9525 23.8622 19.9525 17.4766 19.9525 11.1019ZM27.5395 3.44567C27.5395 3.05801 27.2274 2.74574 26.8508 2.75651C26.4741 2.75651 26.162 3.09032 26.1728 3.46721C26.1835 3.83333 26.4849 4.12407 26.8508 4.13483C27.2382 4.13483 27.5395 3.84409 27.5395 3.44567ZM27.5395 37.8932C27.5288 37.5055 27.2274 37.2148 26.84 37.2255C26.4741 37.2363 26.1835 37.5378 26.1728 37.9039C26.1728 38.27 26.4956 38.6039 26.8615 38.5931C27.249 38.5931 27.5503 38.2808 27.5395 37.8932ZM39.9479 20.6748C39.9479 20.2979 39.6251 19.9964 39.2484 20.0072C38.861 20.0179 38.5704 20.3302 38.5812 20.7179C38.5919 21.084 38.8933 21.3747 39.2592 21.3747C39.6358 21.364 39.9479 21.0409 39.9479 20.6748ZM33.7491 9.65892C33.3617 9.65892 33.0711 9.96043 33.0819 10.3589C33.0926 10.725 33.3724 11.0157 33.7491 11.0265C34.1258 11.0373 34.4486 10.725 34.4486 10.3481C34.4379 9.96043 34.1258 9.65892 33.7491 9.65892ZM34.4379 31.0123C34.4379 30.6354 34.115 30.3339 33.7384 30.3446C33.3509 30.3554 33.0604 30.6569 33.0819 31.0446C33.0926 31.4107 33.3832 31.7014 33.7491 31.7014C34.1258 31.6907 34.4379 31.3784 34.4379 31.0123Z" fill="#009EE2"/>
</svg>
