<svg width="35" height="35" viewBox="0 0 35 35" fill="none" xmlns="http://www.w3.org/2000/svg">
<path d="M34.2913 6.16545C33.6383 6.16545 32.9769 6.16545 32.2904 6.16545C32.2904 4.74974 32.2904 3.39267 32.2904 2.01047C30.8756 2.01047 29.4942 2.01047 28.1045 2.01047C28.1045 1.33194 28.1045 0.686912 28.1045 0C30.1723 0 32.2318 0 34.2997 0C34.2913 2.05236 34.2913 4.10472 34.2913 6.16545Z" fill="#009EE2"/>
<path d="M0 34.3114C0 32.2842 0 30.2487 0 28.2047C0.669747 28.2047 1.32274 28.2047 2.00086 28.2047C2.00086 29.5618 2.00086 30.9104 2.00086 32.2926C3.39896 32.2926 4.78031 32.2926 6.22864 32.2926C6.22864 32.9879 6.22864 33.6496 6.22864 34.3198C4.15242 34.3114 2.07622 34.3114 0 34.3114Z" fill="#009EE2"/>
<path d="M28.0625 34.3115C28.0625 33.6581 28.0625 33.0047 28.0625 32.3178C29.4857 32.3178 30.8587 32.3178 32.2652 32.3178C32.2652 30.9356 32.2652 29.5786 32.2652 28.1461C32.9601 28.1461 33.6215 28.1461 34.2913 28.1461C34.2913 30.1984 34.2913 32.2591 34.2913 34.3115C32.215 34.3115 30.1387 34.3115 28.0625 34.3115Z" fill="#009EE2"/>
<path d="M17.1206 26.2028C13.822 26.1944 10.7244 25.2562 7.88635 23.4635C5.39989 21.8971 3.32366 19.9034 1.70788 17.4322C1.57393 17.2228 1.57393 17.0804 1.70788 16.8709C2.78786 15.1872 4.12737 13.7212 5.6678 12.4396C7.77751 10.6804 10.13 9.36525 12.8006 8.67835C17.1122 7.56423 21.2479 8.03333 25.1911 10.1108C28.2301 11.7192 30.6914 13.9725 32.5751 16.8542C32.7174 17.072 32.709 17.2311 32.5751 17.4489C31.5202 19.0992 30.2226 20.54 28.7324 21.7965C26.6143 23.5808 24.2534 24.9127 21.566 25.6248C20.1261 26.0101 18.6694 26.1944 17.1206 26.2028ZM3.95994 17.1641C4.78875 18.2615 5.70966 19.2416 6.7394 20.1295C9.5105 22.5169 12.6751 23.9661 16.3587 24.1588C19.0796 24.3012 21.6581 23.7567 24.0776 22.5169C26.338 21.3609 28.2217 19.7526 29.8375 17.8008C30.0133 17.5913 30.1723 17.3652 30.3314 17.1557C23.0311 7.48884 10.7412 8.05846 3.95994 17.1641Z" fill="#009EE2"/>
<path d="M6.18677 0.0167236C6.18677 0.678499 6.18677 1.32352 6.18677 2.00205C4.78866 2.00205 3.41567 2.00205 2.00918 2.00205C2.00918 3.38424 2.00918 4.73292 2.00918 6.09836C1.33106 6.09836 0.678055 6.09836 0.00830078 6.09836C0.00830078 4.07115 0.00830078 2.05231 0.00830078 0.0167236C2.05942 0.0167236 4.11053 0.0167236 6.18677 0.0167236Z" fill="#009EE2"/>
<path d="M17.1205 23.187C13.7969 23.1786 11.1011 20.4646 11.1095 17.139C11.1179 13.7966 13.8387 11.0909 17.1791 11.116C20.5028 11.1411 23.1901 13.8552 23.1734 17.1808C23.1566 20.5064 20.4442 23.1954 17.1205 23.187ZM17.1289 21.1766C19.3558 21.185 21.1558 19.3923 21.1641 17.1641C21.1725 14.9359 19.3809 13.1348 17.154 13.1265C14.9271 13.1181 13.1271 14.9107 13.1188 17.139C13.1188 19.3588 14.9104 21.1682 17.1289 21.1766Z" fill="#009EE2"/>
</svg>
