<svg width="444" height="704" viewBox="0 0 444 704" fill="none" xmlns="http://www.w3.org/2000/svg">
<path d="M-414.333 456.857C-451.922 392.813 -444.644 325.919 -406.085 268.095C-367.525 210.27 -297.697 161.549 -210.286 133.909C-122.813 106.25 -37.924 90.5895 34.4777 97.8597C70.6698 101.494 103.722 110.856 132.417 127.299C161.108 143.74 185.477 167.279 204.279 199.313C241.894 263.399 248.096 345.933 223.022 419.369C197.95 492.8 141.628 557.071 54.294 584.686C-33.1003 612.32 -131.473 612.399 -217.395 589.542C-303.318 566.685 -376.738 520.908 -414.333 456.857Z" stroke="#E5E5E5"/>
<path d="M237.935 512.136C125.372 624.557 -91.4406 629.046 -244.839 546.302C-321.583 504.906 -382.91 459.084 -410.976 409.574C-425.005 384.825 -430.72 359.163 -425.904 332.671C-421.089 306.18 -405.74 278.832 -377.586 250.713C-321.265 194.463 -227.375 148.789 -128.379 127.525C-29.384 106.261 74.6196 109.426 151.218 150.743C304.576 233.465 350.526 399.687 237.935 512.136Z" stroke="#E5E5E5"/>
</svg>
