<svg width="469" height="830" viewBox="0 0 469 830" fill="none" xmlns="http://www.w3.org/2000/svg">
<path d="M574.214 668.693C443.617 763.114 267.095 711.77 172.59 581.056C125.297 515.644 92.0128 449.371 86.8646 387.675C81.7204 326.028 104.662 268.894 169.966 221.68C235.305 174.44 327.218 148.582 414.616 150.885C502.018 153.187 584.801 183.646 631.989 248.913C726.468 379.591 704.844 574.248 574.214 668.693Z" stroke="#E5E5E5"/>
<path d="M671.787 591.393C576.353 721.251 392.588 726.395 262.613 630.876C197.57 583.075 145.601 530.169 121.818 473.009C98.0542 415.894 102.409 354.481 150.131 289.545C197.877 224.576 277.466 171.83 361.375 147.274C445.288 122.717 533.421 126.379 598.319 174.073C728.258 269.566 767.245 461.501 671.787 591.393Z" stroke="#E5E5E5"/>
</svg>
