<svg width="63" height="23" viewBox="0 0 63 23" fill="none" xmlns="http://www.w3.org/2000/svg">
<path d="M62.4855 6.39014C62.1273 6.846 61.6552 6.97624 61.1016 6.95996C60.4341 6.9274 59.7666 6.95996 59.0502 6.95996C59.1317 7.33441 59.213 7.62747 59.2456 7.92052C59.6038 11.9093 59.2131 15.7515 56.6733 19.0239C52.5706 24.3151 44.3 24.2988 40.1159 19.0727C39.6438 18.4866 39.6275 17.9331 40.0833 17.5749C40.5392 17.2167 41.0439 17.347 41.5486 17.9168C44.0721 20.7822 47.2143 21.8567 50.8774 20.7822C54.4754 19.724 56.5268 17.1842 57.1292 13.4885C57.2757 12.6093 57.4059 11.7139 57.5199 10.8347C58.1385 6.2599 54.5731 2.01066 49.9494 1.91297C47.4259 1.86413 44.9024 1.84785 42.3789 1.91297C39.7903 1.99438 37.8203 3.2317 36.6644 5.54355C35.5248 7.83911 35.7364 10.1184 37.1854 12.2512C37.7389 13.0489 38.3576 13.8141 38.96 14.5793C39.4158 15.1817 39.3996 15.7352 38.9274 16.0771C38.4553 16.419 37.9669 16.305 37.5273 15.7189C36.8761 14.8723 36.2248 14.042 35.6225 13.1792C34.6945 11.8604 34.2386 10.3952 34.1409 8.78339C34.1246 8.49034 33.9456 8.11588 33.7176 7.9368C32.2687 6.74831 30.1033 6.65063 28.5241 7.64375C28.2148 7.83911 28.0845 8.05076 28.0845 8.42522C28.1171 10.2486 27.5798 11.9255 26.489 13.3745C25.0238 15.3282 23.5748 17.2981 22.0119 19.1704C17.5184 24.5919 8.95483 24.136 5.0312 18.3075C4.77071 17.9168 4.55906 17.5261 4.80327 17.0702C5.14516 16.4353 5.99175 16.4516 6.44761 17.1191C7.22908 18.2913 8.2222 19.2355 9.42697 19.9519C13.0901 22.1009 17.9092 21.3032 20.5955 18.0145C22.1096 16.1585 23.5911 14.2537 24.9912 12.3C26.5379 10.151 26.7495 7.80655 25.5285 5.44586C24.3074 3.08518 22.2886 1.91297 19.6512 1.88041C17.4207 1.84785 15.174 1.88041 12.9436 1.88041C7.50585 1.88041 3.89155 6.19477 4.83582 11.5674C4.94979 12.2023 5.04748 12.8535 5.12888 13.4885C5.21028 14.1723 4.93351 14.6118 4.39625 14.6932C3.81015 14.7909 3.40314 14.4328 3.30546 13.7327C3.15894 12.7721 2.97983 11.8116 2.88215 10.8347C2.81703 10.1835 2.81703 9.5323 2.86587 8.88107C2.91471 8.26241 3.06124 7.64375 3.17521 6.9274C2.71935 6.9274 2.27978 6.9274 1.84021 6.9274C1.57972 6.9274 1.30294 6.94368 1.04245 6.9274C0.374947 6.89484 -0.0157911 6.52038 0.00048946 5.98312C0.0167701 5.46215 0.391228 5.10397 1.04245 5.08769C1.79136 5.07141 2.55655 5.05513 3.30546 5.08769C3.81016 5.12025 4.08693 4.95745 4.37998 4.51787C6.31737 1.58736 9.06878 0.0407015 12.5691 0.0244209C24.9424 -0.0081403 37.3156 -0.0081403 49.6889 0.0244209C53.2706 0.0407015 56.0383 1.65248 57.992 4.64812C58.1874 4.95745 58.3665 5.08769 58.7572 5.07141C59.5549 5.03885 60.3527 5.08769 61.1342 5.05513C61.6877 5.03885 62.1761 5.15281 62.518 5.62495C62.4855 5.90172 62.4855 6.14593 62.4855 6.39014ZM27.7101 5.93428C29.9894 4.76208 32.2198 4.84348 34.4177 6.12965C34.9387 4.43647 35.8504 3.0689 37.218 1.91297C33.0827 1.91297 29.0776 1.91297 24.9424 1.91297C26.3099 3.03633 27.1728 4.35506 27.7101 5.93428Z" fill="#009EE2"/>
<path d="M21.7514 7.80655C21.556 8.13216 21.4583 8.40893 21.2792 8.6043C18.4464 11.4534 15.5973 14.3025 12.7319 17.1516C12.2598 17.6238 11.7225 17.64 11.3318 17.2493C10.9411 16.8586 10.9736 16.3213 11.4458 15.8492C14.2786 13.0163 17.1114 10.1835 19.9442 7.33441C20.2861 6.99252 20.6769 6.81343 21.0839 7.04136C21.3444 7.18789 21.5072 7.52978 21.7514 7.80655Z" fill="#009EE2"/>
<path d="M52.8474 16.4516C52.8311 17.3145 52.0985 17.7378 51.4961 17.3959C51.3333 17.2982 51.203 17.1679 51.0891 17.0377C48.3051 14.27 45.5374 11.486 42.7534 8.70202C42.6394 8.58806 42.5092 8.47409 42.4278 8.32757C42.1998 7.93683 42.2324 7.52982 42.558 7.20421C42.8836 6.87859 43.2744 6.86231 43.6814 7.07396C43.7791 7.1228 43.8768 7.22048 43.9582 7.30189C46.791 10.1347 49.6238 12.9675 52.4566 15.8004C52.652 16.0283 52.766 16.3213 52.8474 16.4516Z" fill="#009EE2"/>
<path d="M14.5228 8.52295C14.3437 8.84856 14.2786 9.10905 14.1158 9.28814C13.4971 9.95565 12.8459 10.5906 12.1784 11.2255C11.7388 11.6488 11.1853 11.6325 10.8271 11.2581C10.4689 10.8836 10.4689 10.3627 10.8759 9.95564C11.5272 9.28814 12.1621 8.60435 12.8784 8.00197C13.1064 7.8066 13.5785 7.7252 13.8715 7.82289C14.1158 7.88801 14.2948 8.26246 14.5228 8.52295Z" fill="#009EE2"/>
<path d="M53.4172 10.737C53.2381 10.9649 53.0753 11.3231 52.7985 11.4208C52.5218 11.5185 52.0659 11.4859 51.8542 11.3068C51.0891 10.6393 50.3727 9.92298 49.6889 9.17407C49.347 8.79962 49.3959 8.32748 49.754 7.96931C50.0959 7.62741 50.5681 7.56229 50.91 7.8879C51.6914 8.60425 52.4078 9.35316 53.1404 10.1183C53.2707 10.2323 53.3032 10.444 53.4172 10.737Z" fill="#009EE2"/>
</svg>
