<svg width="49" height="31" viewBox="0 0 49 31" fill="none" xmlns="http://www.w3.org/2000/svg">
<path d="M0 14.9293C3.02305 10.2423 6.87171 6.39366 11.6984 3.54844C16.2203 0.881042 21.1105 -0.338338 26.3691 0.0808238C30.7131 0.423775 34.6761 1.89719 38.3724 4.15813C38.9186 4.48838 39.4393 4.84403 39.9728 5.19968C40.5317 5.58074 40.6841 6.15232 40.3666 6.62229C40.0363 7.10496 39.5028 7.14307 38.8932 6.77471C37.7373 6.05071 36.5814 5.3394 35.4255 4.6281C35.4001 4.6662 35.362 4.70431 35.3366 4.72971C35.5145 4.93294 35.6923 5.14887 35.8828 5.3394C36.2004 5.66965 36.3782 6.05071 36.1877 6.50797C35.9971 6.96524 35.6034 7.07956 35.1461 7.11766C34.0156 7.18117 33.1265 8.0449 32.9868 9.17537C32.8598 10.2296 33.5076 11.2712 34.5364 11.6395C35.4891 11.9698 36.5052 11.6903 37.1403 10.8647C37.4197 10.4964 37.7373 10.255 38.22 10.3566C38.7153 10.4583 38.9058 10.8139 39.0075 11.2585C40.2777 16.4408 39.2234 21.0897 35.7939 25.1924C35.7177 25.2813 35.6542 25.3576 35.6034 25.4719C40.1252 22.995 43.7072 19.4766 46.6794 15.2342C46.0697 14.4975 45.46 13.7607 44.863 13.024C44.4566 12.5033 44.5582 11.8555 45.0917 11.5506C45.4981 11.322 45.9681 11.3728 46.2983 11.7793C47.0605 12.7065 47.8099 13.6591 48.5466 14.6118C48.8895 15.0563 48.7879 15.4882 48.4958 15.9328C46.6413 18.7526 44.4185 21.2422 41.8781 23.4396C38.5756 26.2848 34.9048 28.4568 30.675 29.5873C24.2606 31.2893 18.151 30.4256 12.3589 27.2501C7.39249 24.5319 3.44221 20.6706 0.304848 15.9836C0.203233 15.8312 0.101615 15.666 0 15.5136C0 15.3104 0 15.1198 0 14.9293ZM33.444 5.59344C29.3159 1.51614 22.0632 0.474582 16.5251 4.57729C11.0252 8.64189 9.53911 16.1995 13.0575 22.0551C16.5759 27.8979 24.032 30.1462 30.1289 27.1739C36.556 24.0366 38.3343 17.3427 37.4197 13.1638C34.7904 14.1418 32.6184 13.4813 31.5388 11.3728C30.6496 9.65804 30.8783 7.06686 33.444 5.59344ZM13.0956 25.5862C13.1337 25.5481 13.1718 25.4973 13.21 25.4592C10.6188 22.5377 9.24697 19.1463 9.24697 15.2342C9.24697 11.322 10.6188 7.91788 13.1845 4.97105C13.0321 5.00915 12.9051 5.07266 12.7908 5.13617C8.52296 7.60034 5.09345 10.9536 2.26093 14.9547C2.0704 15.2215 2.17202 15.3739 2.31174 15.5771C4.30594 18.4096 6.64308 20.9373 9.39939 23.0331C10.5934 23.9349 11.8636 24.7352 13.0956 25.5862Z" fill="#009EE2"/>
<path d="M43.0593 9.785C42.5513 9.7723 42.1194 9.32774 42.1194 8.83236C42.1194 8.29888 42.5894 7.86702 43.1101 7.89242C43.6309 7.91783 44.0247 8.34969 44.012 8.87047C43.9993 9.37854 43.5674 9.79771 43.0593 9.785Z" fill="#009EE2"/>
<path d="M30.6369 15.2088C30.6496 18.6383 27.8552 21.4455 24.413 21.4709C20.9835 21.4963 18.1256 18.651 18.1383 15.1961C18.151 11.7666 20.9581 8.95951 24.3876 8.97221C27.8298 8.97221 30.6242 11.7666 30.6369 15.2088ZM28.719 15.3359C28.8206 12.986 26.9407 11.0045 24.5146 10.8902C22.1775 10.7759 20.1706 12.6685 20.0563 15.0945C19.942 17.4571 21.8472 19.464 24.286 19.5656C26.6358 19.6545 28.6173 17.7619 28.719 15.3359Z" fill="#009EE2"/>
</svg>
