<svg width="50" height="35" viewBox="0 0 50 35" fill="none" xmlns="http://www.w3.org/2000/svg">
<path d="M46.6148 6.59085C47.224 6.59085 47.7916 6.59085 48.3592 6.59085C49.0515 6.60469 49.3145 6.85389 49.3145 7.51844C49.3145 10.3843 49.3145 13.2639 49.3145 16.1298C49.3145 16.822 49.093 17.0297 48.3731 17.0851C46.6286 17.2097 45.3134 18.5941 45.2857 20.3247C45.258 22.0691 46.5733 23.4813 48.3592 23.6197C49.0376 23.6751 49.273 23.9243 49.273 24.6165C49.273 27.4408 49.273 30.2513 49.273 33.0756C49.273 33.837 49.0099 34.1001 48.2485 34.1001C32.521 34.1001 16.7935 34.1001 1.05219 34.1001C0.263048 34.1001 0 33.837 0 33.0341C0 30.2513 0 27.4685 0 24.6719C0 23.8966 0.221514 23.6613 0.955278 23.6059C2.68585 23.4951 4.00109 22.1245 4.02878 20.4216C4.05647 18.6633 2.79661 17.2374 1.06604 17.0712C0.221514 16.9881 0.0692231 16.822 0.0692231 15.9636C0.0692231 13.1947 0.0692231 10.4258 0.0692231 7.65688C0.0692231 6.8262 0.193825 6.67391 1.0245 6.54931C8.15448 5.48328 15.2845 4.4034 22.4144 3.33736C28.5753 2.40977 34.7223 1.49603 40.8831 0.56844C42.0738 0.38846 43.2783 0.20848 44.4689 0.0423451C45.4519 -0.096101 45.6457 0.0700344 45.7841 1.06685C46.0195 2.78358 46.2825 4.48647 46.5317 6.2032C46.5456 6.3278 46.5733 6.42471 46.6148 6.59085ZM1.57829 15.6868C1.64751 15.7144 1.6752 15.7283 1.71673 15.7421C3.79342 16.1021 5.49631 17.9157 5.57938 20.3247C5.6486 22.5122 4.19492 24.3396 1.89671 24.9765C1.56444 25.0734 1.56444 25.2534 1.56444 25.5026C1.56444 27.7454 1.56444 30.0021 1.56444 32.2449C1.56444 32.3834 1.59213 32.508 1.60597 32.6464C12.9447 32.6464 24.2558 32.6464 35.6222 32.6464C35.6222 32.0511 35.6222 31.4835 35.6222 30.9158C35.6222 30.2928 35.8991 29.9329 36.3836 29.9467C36.8544 29.9467 37.1312 30.2928 37.1312 30.9297C37.1312 31.4973 37.1312 32.0649 37.1312 32.6326C40.7447 32.6326 44.3028 32.6326 47.8747 32.6326C47.8747 30.2513 47.8747 27.9116 47.8747 25.5857C47.8747 25.5026 47.9162 25.378 47.8608 25.3365C47.7501 25.198 47.6255 25.018 47.4732 24.9765C45.2996 24.3812 43.929 22.6368 43.9151 20.3801C43.9013 18.2342 45.3134 16.3513 47.4178 15.7837C47.8054 15.6729 47.93 15.5345 47.93 15.133C47.9162 12.9594 47.9162 10.7719 47.9162 8.59832C47.9162 8.43218 47.9024 8.26604 47.8885 8.05838C44.3028 8.05838 40.7447 8.05838 37.1451 8.05838C37.1451 8.72292 37.1589 9.35977 37.1451 9.99662C37.1312 10.4673 36.8128 10.7719 36.3975 10.7442C35.9406 10.7304 35.7053 10.4673 35.6776 10.0243C35.6637 9.81664 35.6637 9.60897 35.6637 9.4013C35.6637 8.95827 35.6637 8.51525 35.6637 8.08607C24.2419 8.08607 12.917 8.08607 1.56444 8.08607C1.57829 10.6473 1.57829 13.1532 1.57829 15.6868ZM33.0748 3.2543C25.7648 4.34802 18.5102 5.44174 11.2557 6.52162C11.2557 6.53547 11.2557 6.56316 11.2557 6.577C22.5252 6.577 33.7947 6.577 45.1057 6.577C44.8565 4.91565 44.6212 3.28198 44.372 1.59294C41.077 2.0775 37.8235 2.56206 34.5423 3.04663C34.6254 3.65579 34.7084 4.22342 34.7777 4.7772C34.8607 5.38637 34.6669 5.74633 34.21 5.81555C33.7532 5.88477 33.4209 5.59403 33.3378 5.01256C33.2548 4.45878 33.1717 3.89115 33.0748 3.2543Z" fill="#009EE2"/>
<path d="M18.4549 18.8433C15.5891 18.8433 12.7094 18.8433 9.84357 18.8433C9.6359 18.8433 9.42823 18.8433 9.23441 18.788C8.87445 18.6911 8.63909 18.4003 8.736 18.0542C8.80523 17.805 9.05443 17.5696 9.27594 17.3897C9.40055 17.2928 9.6359 17.3343 9.82973 17.3343C15.5891 17.3343 21.3484 17.3343 27.1078 17.3343C27.2739 17.3343 27.4539 17.3343 27.6201 17.362C27.9939 17.4312 28.2015 17.6804 28.2154 18.0404C28.2292 18.4419 28.0215 18.7049 27.6339 18.788C27.4539 18.8295 27.2601 18.8295 27.0663 18.8295C24.2004 18.8433 21.3346 18.8433 18.4549 18.8433Z" fill="#009EE2"/>
<path d="M18.4826 26.5409C21.3761 26.5409 24.2558 26.5409 27.1493 26.5409C27.3847 26.5409 27.6754 26.5409 27.8415 26.6655C28.0354 26.8178 28.2015 27.1224 28.1877 27.3439C28.1738 27.5654 27.9385 27.8146 27.7308 27.9531C27.5646 28.0639 27.3016 28.0362 27.0801 28.0362C21.3346 28.0362 15.6029 28.0362 9.85739 28.0362C9.77432 28.0362 9.69125 28.0362 9.59434 28.0362C9.04056 28.0085 8.70829 27.7454 8.70829 27.3024C8.69444 26.8455 9.04056 26.5409 9.62203 26.5271C12.5709 26.5409 15.5337 26.5409 18.4826 26.5409Z" fill="#009EE2"/>
<path d="M18.4687 21.9583C21.3345 21.9583 24.2142 21.9583 27.08 21.9583C27.2323 21.9583 27.3984 21.9445 27.5507 21.9721C27.9799 22.0275 28.2153 22.2767 28.2291 22.6921C28.2429 23.1074 27.9937 23.3704 27.5784 23.4258C27.4261 23.4535 27.2738 23.4397 27.1077 23.4397C21.3483 23.4397 15.589 23.4397 9.84346 23.4397C9.78808 23.4397 9.74655 23.4397 9.69117 23.4397C9.06816 23.4258 8.72205 23.1628 8.72205 22.6921C8.73589 22.2352 9.06816 21.9721 9.66348 21.9721C9.89884 21.9721 10.148 21.9721 10.3834 21.9721C13.0693 21.9583 15.769 21.9583 18.4687 21.9583Z" fill="#009EE2"/>
<path d="M13.9277 14.1778C12.5155 14.1778 11.0895 14.1778 9.67739 14.1778C9.05439 14.1778 8.72212 13.9286 8.70827 13.4856C8.69443 13.0149 9.05439 12.7241 9.67739 12.7241C12.5294 12.7241 15.3814 12.7241 18.2472 12.7241C18.8841 12.7241 19.2025 12.9595 19.2025 13.4164C19.2163 13.9009 18.8702 14.1778 18.2472 14.1778C16.7935 14.1778 15.3675 14.1778 13.9277 14.1778Z" fill="#009EE2"/>
<path d="M37.1174 16.1298C37.1174 16.8774 37.1313 17.6111 37.1174 18.3587C37.1036 18.9679 36.8405 19.2725 36.3698 19.2725C35.8991 19.2725 35.6222 18.9402 35.6222 18.3449C35.6222 16.8774 35.6222 15.4098 35.6222 13.9423C35.6222 13.3608 35.9129 13.0286 36.3836 13.0286C36.8544 13.0286 37.1174 13.347 37.1313 13.9562C37.1174 14.6761 37.1174 15.396 37.1174 16.1298Z" fill="#009EE2"/>
<path d="M37.1173 24.6166C37.1173 25.3642 37.1312 26.0979 37.1173 26.8456C37.1035 27.427 36.7989 27.7731 36.342 27.7593C35.899 27.7455 35.6083 27.4132 35.6083 26.8594C35.5944 25.378 35.5944 23.8828 35.6083 22.4014C35.6083 21.8338 35.9267 21.4738 36.3836 21.4877C36.8266 21.5015 37.1035 21.8338 37.1173 22.3876C37.1312 23.1352 37.1173 23.8828 37.1173 24.6166Z" fill="#009EE2"/>
</svg>
