<svg width="36" height="36" viewBox="0 0 36 36" fill="none" xmlns="http://www.w3.org/2000/svg">
<path d="M32.7 36C22.9031 36 13.1062 36 3.30937 36C3.28125 35.9813 3.25313 35.9531 3.225 35.9531C1.17188 35.5219 0 34.0781 0 31.9969C0 24.4031 0 16.8094 0 9.225C0 8.53125 0.234375 8.30625 0.928125 8.30625C1.64062 8.30625 2.35313 8.30625 3.09375 8.30625C3.09375 8.15625 3.09375 8.04375 3.09375 7.92188C3.09375 6.84375 3.09375 5.76562 3.09375 4.6875C3.09375 4.04063 3.3375 3.80625 3.99375 3.79688C4.71562 3.79688 5.4375 3.79688 6.1875 3.79688C6.1875 2.82188 6.20625 1.89375 6.17813 0.95625C6.16875 0.525 6.3 0.20625 6.675 0C16.4437 0 26.2125 0 36 0C36 10.8937 36 21.7969 36 32.7C35.9719 32.775 35.9438 32.85 35.925 32.925C35.5969 34.3781 34.725 35.3438 33.3281 35.8313C33.1219 35.8969 32.9062 35.9437 32.7 36ZM6.74063 34.5938C6.92813 34.5938 7.03125 34.5938 7.13437 34.5938C15.4312 34.5938 23.7281 34.5938 32.025 34.5938C33.5906 34.5938 34.5938 33.5906 34.5938 32.025C34.5938 21.9469 34.5938 11.8687 34.5938 1.79063C34.5938 1.66875 34.5938 1.54688 34.5938 1.425C25.575 1.425 16.6031 1.425 7.59375 1.425C7.59375 1.575 7.59375 1.71562 7.59375 1.85625C7.59375 6.59062 7.59375 11.325 7.59375 16.0594C7.59375 16.1719 7.60313 16.2938 7.59375 16.4062C7.56563 16.8094 7.25625 17.0906 6.88125 17.0812C6.51562 17.0719 6.225 16.8 6.19687 16.4156C6.1875 16.3031 6.19687 16.1812 6.19687 16.0687C6.19687 12.5906 6.19687 9.1125 6.19687 5.625C6.19687 5.49375 6.19687 5.35313 6.19687 5.22188C5.60625 5.22188 5.07187 5.22188 4.50937 5.22188C4.50937 5.39062 4.50937 5.54063 4.50937 5.69063C4.50937 14.1937 4.50937 22.7062 4.50937 31.2094C4.50937 31.875 4.26562 32.2125 3.79688 32.2031C3.3375 32.1937 3.10312 31.8656 3.10312 31.2188C3.10312 24.1969 3.10312 17.1844 3.10312 10.1625C3.10312 10.0125 3.10312 9.87187 3.10312 9.72187C2.5125 9.72187 1.97813 9.72187 1.41563 9.72187C1.41563 9.8625 1.41563 9.99375 1.41563 10.1156C1.41563 17.4 1.41563 24.6938 1.41563 31.9781C1.41563 32.0906 1.41563 32.2125 1.41563 32.325C1.47188 33.5531 2.50312 34.5562 3.73125 34.5844C5.1 34.6219 6.1875 33.5531 6.19687 32.1562C6.20625 29.1 6.19687 26.0438 6.19687 22.9781C6.19687 22.8656 6.1875 22.7437 6.20625 22.6312C6.25312 22.275 6.54375 22.0031 6.89062 22.0031C7.2375 22.0031 7.54688 22.2563 7.59375 22.6125C7.6125 22.725 7.60312 22.8469 7.60312 22.9594C7.60312 25.8281 7.58437 28.6969 7.6125 31.575C7.6125 32.6531 7.48125 33.6656 6.74063 34.5938Z" fill="#3D3D3D"/>
<path d="M21.1125 4.64062C24.6375 4.64062 28.1625 4.64062 31.6875 4.64062C32.4094 4.64062 32.625 4.86562 32.625 5.5875C32.625 7.13437 32.625 8.68125 32.625 10.2281C32.625 10.8562 32.3812 11.1094 31.7625 11.1094C24.6562 11.1094 17.5406 11.1094 10.4344 11.1094C9.81563 11.1094 9.57188 10.8562 9.5625 10.2281C9.5625 8.6625 9.5625 7.0875 9.5625 5.52188C9.5625 4.875 9.80625 4.64062 10.4625 4.64062C14.0156 4.64063 17.5594 4.64062 21.1125 4.64062ZM31.2 6.075C24.45 6.075 17.7188 6.075 10.9969 6.075C10.9969 7.29375 10.9969 8.49375 10.9969 9.69375C17.7469 9.69375 24.4687 9.69375 31.2 9.69375C31.2 8.475 31.2 7.28438 31.2 6.075Z" fill="#3D3D3D"/>
<path d="M21.7969 20.5687C21.7969 22.7344 21.7969 24.9 21.7969 27.0656C21.7969 27.7406 21.5625 27.9844 20.8969 27.9844C17.4187 27.9844 13.9406 27.9844 10.4625 27.9844C9.80625 27.9844 9.5625 27.7406 9.5625 27.1031C9.5625 22.725 9.5625 18.3469 9.5625 13.9594C9.5625 13.3312 9.80625 13.0781 10.425 13.0781C13.9312 13.0781 17.4281 13.0781 20.9344 13.0781C21.5531 13.0781 21.7969 13.3312 21.7969 13.9594C21.7969 16.1625 21.7969 18.3656 21.7969 20.5687ZM10.9969 14.5031C10.9969 18.5437 10.9969 22.5469 10.9969 26.55C14.1375 26.55 17.2594 26.55 20.3719 26.55C20.3719 22.5188 20.3719 18.5156 20.3719 14.5031C17.2406 14.5031 14.1281 14.5031 10.9969 14.5031Z" fill="#3D3D3D"/>
<path d="M21.0938 29.953C24.6094 29.953 28.1156 29.953 31.6313 29.953C31.7625 29.953 31.8938 29.9437 32.0156 29.9624C32.3531 30.0093 32.6063 30.2999 32.6156 30.6374C32.625 30.9843 32.3719 31.2937 32.0156 31.3499C31.8938 31.3687 31.7625 31.3593 31.6313 31.3593C24.6094 31.3593 17.5781 31.3593 10.5563 31.3593C9.9 31.3593 9.55313 31.1062 9.5625 30.6374C9.57188 30.178 9.9 29.953 10.5469 29.953C14.0625 29.953 17.5781 29.953 21.0938 29.953Z" fill="#3D3D3D"/>
<path d="M28.2094 13.0781C29.4281 13.0781 30.6469 13.0688 31.8562 13.0781C32.4469 13.0781 32.8312 13.6406 32.5219 14.1C32.4 14.2875 32.1187 14.4656 31.9031 14.4656C29.4375 14.4938 26.9625 14.4844 24.4969 14.475C24.0656 14.475 23.775 14.175 23.7656 13.7813C23.7656 13.3781 24.0656 13.0781 24.5156 13.0781C25.7531 13.0781 26.9812 13.0781 28.2094 13.0781Z" fill="#3D3D3D"/>
<path d="M28.1625 17.8594C26.9813 17.8594 25.8 17.8594 24.6188 17.8594C24.1031 17.8594 23.7844 17.5969 23.775 17.175C23.7656 16.7344 24.0938 16.4625 24.6281 16.4531C27.0188 16.4531 29.4 16.4531 31.7906 16.4531C32.3063 16.4531 32.625 16.7156 32.6344 17.1375C32.6438 17.5688 32.3156 17.85 31.7813 17.8594C30.5719 17.8594 29.3625 17.8594 28.1625 17.8594Z" fill="#3D3D3D"/>
<path d="M28.2281 19.8281C29.4094 19.8281 30.5906 19.8281 31.7719 19.8281C32.3063 19.8281 32.6344 20.1094 32.625 20.5406C32.6156 20.9625 32.2969 21.225 31.7813 21.225C29.3906 21.225 27.0094 21.225 24.6188 21.225C24.0844 21.225 23.7563 20.9438 23.7656 20.5125C23.775 20.0906 24.0938 19.8281 24.6094 19.8281C25.8188 19.8281 27.0188 19.8281 28.2281 19.8281Z" fill="#3D3D3D"/>
<path d="M28.1906 23.2031C29.3813 23.2031 30.5813 23.2031 31.7719 23.2031C32.2969 23.2031 32.6344 23.4844 32.625 23.925C32.6156 24.3469 32.2969 24.6094 31.7813 24.6094C29.3906 24.6094 27.0094 24.6094 24.6188 24.6094C24.0844 24.6094 23.7563 24.3281 23.7656 23.8875C23.775 23.4656 24.0938 23.2031 24.6094 23.2031C25.8094 23.2031 27 23.2031 28.1906 23.2031Z" fill="#3D3D3D"/>
<path d="M28.1906 27.9843C26.9719 27.9843 25.7531 27.9843 24.5437 27.9843C24.0844 27.9843 23.775 27.6937 23.775 27.2999C23.7656 26.8968 24.075 26.5874 24.525 26.5874C25.3594 26.578 26.1844 26.5874 27.0187 26.5874C28.6219 26.5874 30.225 26.5874 31.8281 26.5874C32.2875 26.5874 32.5875 26.8218 32.6344 27.2062C32.6906 27.6468 32.3531 27.9937 31.8562 27.9937C30.6281 27.9843 29.4094 27.9843 28.1906 27.9843Z" fill="#3D3D3D"/>
<path d="M7.62187 19.5468C7.62187 19.9312 7.31249 20.2406 6.92812 20.2406C6.53437 20.2406 6.21562 19.9125 6.23437 19.5187C6.24374 19.1343 6.56249 18.8343 6.93749 18.8437C7.32187 18.8531 7.62187 19.1625 7.62187 19.5468Z" fill="#3D3D3D"/>
</svg>
