<svg width="310" height="387" viewBox="0 0 310 387" fill="none" xmlns="http://www.w3.org/2000/svg">
<path d="M-271.186 -34.0435C-206.709 -160.602 -47.6084 -191.301 79.0786 -126.758C142.483 -94.4561 195.235 -55.85 224.074 -9.52884C252.888 36.7507 257.863 90.7793 225.621 154.065C193.36 217.388 131.656 274.627 62.1699 307.959C-7.31983 341.294 -84.497 350.679 -147.742 318.458C-274.389 253.936 -335.681 92.5513 -271.186 -34.0435Z" stroke="white"/>
<path d="M-336.275 109.094C-313.624 -31.1245 -171.553 -109.042 -31.1918 -86.3682C39.0564 -75.0204 101.092 -54.411 142.724 -19.1385C184.318 16.1022 205.59 66.0158 194.263 136.133C182.93 206.291 141.704 279.667 85.7533 332.666C29.7996 385.668 -40.8022 418.222 -110.874 406.902C-251.19 384.236 -358.932 249.353 -336.275 109.094Z" stroke="white"/>
<path d="M-266.229 161.172C-259.505 117.453 -225.234 84.604 -176.617 65.1232C-128.007 45.6447 -65.1344 39.5724 -1.41649 49.3735C62.3556 59.1829 119.201 74.5355 158.403 98.3843C177.999 110.306 193.161 124.335 202.585 140.833C212.004 157.321 215.708 176.306 212.344 198.18C205.61 241.956 172.187 286.697 124.469 318.054C76.7615 349.404 14.8326 367.328 -48.8181 357.537C-112.522 347.739 -170.268 320.522 -210.39 284.801C-250.52 249.072 -272.956 204.901 -266.229 161.172Z" stroke="white"/>
</svg>
