<svg width="23" height="17" viewBox="0 0 23 17" fill="none" xmlns="http://www.w3.org/2000/svg">
<path d="M0.522705 17V12.0909C0.522705 10.697 0.795432 9.27275 1.34089 7.8182C1.88634 6.36366 2.60604 4.99245 3.49998 3.70457C4.39392 2.41669 5.36361 1.34093 6.40907 0.477295L10.6818 3.00002C9.83331 4.33336 9.13634 5.72729 8.59089 7.18184C8.06058 8.63639 7.79543 10.2576 7.79543 12.0455V17H0.522705ZM12 17V12.0909C12 10.697 12.2727 9.27275 12.8182 7.8182C13.3636 6.36366 14.0833 4.99245 14.9773 3.70457C15.8712 2.41669 16.8409 1.34093 17.8863 0.477295L22.1591 3.00002C21.3106 4.33336 20.6136 5.72729 20.0682 7.18184C19.5379 8.63639 19.2727 10.2576 19.2727 12.0455V17H12Z" fill="#CCCCCC"/>
</svg>
