<svg width="80" height="80" viewBox="0 0 80 80" fill="none" xmlns="http://www.w3.org/2000/svg">
<path d="M60.1225 41.4465C59.9132 42.3077 59.382 42.9678 58.8266 43.6198C56.8626 45.9057 54.8986 48.1836 52.9829 50.5099C51.8157 51.9265 50.3105 52.6026 48.5478 52.6751C46.4469 52.7636 44.3461 52.7153 42.2452 52.7314C40.4261 52.7475 38.607 52.7475 36.7879 52.7797C36.1762 52.7958 35.5725 52.8924 34.9688 52.9568C34.9285 53.0131 34.8802 53.0695 34.84 53.1258C34.9688 53.1902 35.1217 53.2305 35.2264 53.3271C35.7093 53.7939 35.7093 54.2286 35.2425 54.7115C33.8017 56.1926 32.3608 57.6656 30.9281 59.1386C30.6142 59.4605 30.2922 59.7906 29.9783 60.1125C29.4712 60.6277 29.0848 60.6357 28.5616 60.1367C25.7364 57.4482 22.9192 54.7679 20.0939 52.0794C19.8202 51.8219 19.5385 51.5723 19.2809 51.2987C18.9187 50.9284 18.9026 50.4938 19.2568 50.1235C21.1 48.1997 22.9433 46.276 24.8027 44.3683C25.1729 43.99 25.6076 44.0061 26.01 44.3764C26.1952 44.5454 26.3884 44.7225 26.5574 44.9076C26.7184 45.0847 26.8552 45.2859 27.0242 45.5113C27.3784 45.0847 27.6279 44.7627 27.9016 44.4569C29.4068 42.7665 31.2179 41.5994 33.4877 41.2452C34.7112 41.0521 35.9186 41.1406 37.1099 41.4706C38.4541 41.8409 39.8144 41.9777 41.1989 41.9697C43.0824 41.9616 44.9739 41.9697 46.8574 41.9697C48.258 41.9697 48.8939 42.2755 49.7712 43.4105C49.8759 43.3139 49.9805 43.2253 50.0852 43.1207C51.4938 41.7282 52.8943 40.3276 54.311 38.9432C55.8403 37.4541 58.3597 37.6714 59.5912 39.41C59.8327 39.7481 59.9615 40.1667 60.1386 40.553C60.1225 40.8589 60.1225 41.1567 60.1225 41.4465ZM28.3121 46.5979C28.3443 46.6382 28.3685 46.6784 28.4087 46.7187C29.9944 48.2561 31.572 49.8015 33.1738 51.3228C33.2946 51.4355 33.536 51.4919 33.7051 51.4677C36.0152 51.1377 38.3414 51.0813 40.6757 51.0974C43.2031 51.1216 45.7386 51.1216 48.266 51.0733C49.6907 51.0491 50.882 50.5179 51.8318 49.3669C53.8441 46.9199 55.9289 44.5213 57.9814 42.1065C58.1021 41.9616 58.2229 41.8167 58.3195 41.6558C58.6253 41.1406 58.569 40.6577 58.1746 40.2149C57.4582 39.41 56.2106 39.3376 55.4459 40.0862C53.7556 41.7443 52.0733 43.4185 50.3991 45.0928C50.2944 45.1974 50.2139 45.3584 50.1898 45.5033C49.9403 47.3304 48.8053 48.3527 46.9782 48.3607C45.6661 48.3688 44.3541 48.3607 43.0421 48.3607C42.5189 48.3607 41.9957 48.3688 41.4725 48.3527C41.0942 48.3366 40.8527 48.1192 40.7642 47.757C40.6757 47.3948 40.7803 47.0729 41.1103 46.8958C41.2874 46.7992 41.5128 46.7589 41.722 46.7589C43.517 46.7509 45.312 46.7509 47.107 46.7509C47.606 46.7509 48.0326 46.5899 48.3063 46.1552C48.6765 45.5596 48.6846 44.9318 48.3868 44.32C48.1051 43.7405 47.5899 43.5876 46.9862 43.5876C45.1269 43.6037 43.2675 43.5795 41.4001 43.5956C39.758 43.6037 38.1482 43.4185 36.5545 43C32.9645 42.0743 29.9863 44.0061 28.3121 46.5979ZM29.6805 58.0922L33.1658 54.5103C33.4233 54.2447 33.4153 53.8261 33.1497 53.5766C30.7188 51.2182 28.3121 48.8839 25.8813 46.5255C25.6156 46.2679 25.1971 46.276 24.9476 46.5416C23.7643 47.7731 22.5972 48.9886 21.414 50.212C21.1564 50.4777 21.1725 50.8962 21.4381 51.1538C23.8931 53.4881 26.3159 55.7982 28.7548 58.1163C29.0124 58.3578 29.4229 58.3498 29.6805 58.0922Z" fill="#009EE2"/>
<path d="M32.0637 27.5939C32.5628 28.0205 33.0377 28.431 33.4965 28.8254C33.9392 28.4471 34.4141 28.0366 34.9373 27.5939C34.0036 26.3624 33.6736 24.9376 34.1082 23.3842C34.406 22.3297 35.0258 21.4926 35.9193 20.8567C37.6901 19.601 40.1129 19.7701 41.7308 21.235C43.1314 22.4987 44.0651 25.0986 42.254 27.61C42.7369 28.0285 43.2199 28.439 43.6787 28.8335C44.1294 28.4471 44.6124 28.0285 45.1195 27.5939C44.226 26.4348 43.9041 25.0906 44.226 23.6256C44.4595 22.5551 45.031 21.6777 45.9003 21.0096C47.6791 19.6252 50.1422 19.6976 51.8164 21.1465C53.3216 22.4424 54.2473 25.1067 52.4121 27.6261C52.4201 27.6502 52.4282 27.6824 52.4523 27.6905C53.9816 28.6 54.698 29.9523 54.6658 31.7312C54.6417 32.8258 54.6658 33.9286 54.6578 35.0233C54.6497 36.2146 53.9012 37.0517 52.7018 37.0678C50.0778 37.1 47.4538 37.0919 44.8297 37.0678C44.387 37.0597 43.9524 36.8182 43.5097 36.8263C43.075 36.8263 42.6323 37.0597 42.1976 37.0758C40.9098 37.1161 39.63 37.0919 38.3421 37.0919C37.3279 37.0919 36.3056 37.1241 35.2914 37.0758C34.6475 37.0436 33.9553 36.6895 33.3757 36.8343C32.7157 37.0034 32.0718 37.0839 31.4117 37.0839C29.6973 37.0919 27.9828 37.0919 26.2683 37.0839C25.6002 37.0839 24.9322 37.1 24.2641 37.0517C23.4189 36.9953 22.7508 36.4077 22.5576 35.5867C22.5093 35.3855 22.5013 35.1601 22.5013 34.9508C22.4932 33.8642 22.5174 32.7856 22.4932 31.699C22.4611 29.9523 23.1613 28.6242 24.6585 27.7146C24.6907 27.6985 24.7148 27.6663 24.7631 27.618C23.9019 26.4589 23.5396 25.1711 23.8294 23.7383C24.0548 22.6356 24.6182 21.726 25.4956 21.0257C27.3067 19.5849 29.81 19.6735 31.5325 21.2189C33.1101 22.6275 33.7702 25.2999 32.0637 27.5939ZM48.7577 35.4418C50.0295 35.4418 51.3013 35.4338 52.573 35.4418C52.9111 35.4418 53.064 35.3211 53.064 34.9669C53.056 33.7515 53.0801 32.528 53.056 31.3126C53.0318 30.1777 52.2511 29.1957 51.1564 28.8978C51.0035 28.8576 50.8103 28.8656 50.6654 28.93C49.4017 29.4532 48.146 29.4532 46.8823 28.93C46.7374 28.8737 46.5442 28.8656 46.3913 28.9059C45.2483 29.2198 44.5078 30.226 44.4917 31.4897C44.4756 32.6246 44.4836 33.7676 44.4917 34.9025C44.4917 35.3613 44.5722 35.4418 45.031 35.4418C46.2705 35.4418 47.5101 35.4418 48.7577 35.4418ZM28.4094 35.4418C29.6651 35.4418 30.9207 35.4418 32.1845 35.4418C32.4823 35.4418 32.6916 35.3694 32.6835 35.0313C32.6755 33.7435 32.7077 32.4636 32.6594 31.1758C32.6191 30.1213 31.8625 29.2118 30.8403 28.922C30.6632 28.8737 30.4378 28.8817 30.2768 28.9461C29.0211 29.4532 27.7816 29.4613 26.5339 28.9381C26.381 28.8737 26.1637 28.8656 26.0027 28.9139C24.908 29.2198 24.1514 30.2018 24.1353 31.3448C24.1192 32.5361 24.1272 33.7274 24.1272 34.9186C24.1272 35.3774 24.1916 35.4418 24.6746 35.4418C25.9222 35.4418 27.1618 35.4418 28.4094 35.4418ZM38.5836 35.4418C39.8392 35.4418 41.0949 35.4338 42.3586 35.4418C42.6725 35.4418 42.8738 35.3613 42.8657 34.9991C42.8577 33.7515 42.8818 32.5119 42.8496 31.2643C42.8255 30.1455 42.0045 29.1554 40.9098 28.8898C40.781 28.8576 40.612 28.8737 40.4912 28.922C39.2194 29.4613 37.9477 29.4613 36.6759 28.922C36.5391 28.8656 36.362 28.8576 36.2252 28.8978C35.0983 29.1957 34.3416 30.1696 34.3175 31.377C34.2934 32.5522 34.3094 33.7274 34.3094 34.9106C34.3094 35.3774 34.3738 35.4418 34.8487 35.4418C36.0964 35.4418 37.344 35.4418 38.5836 35.4418ZM38.5594 27.7066C40.2578 27.7146 41.6423 26.3463 41.6342 24.6559C41.6342 22.9897 40.2578 21.6133 38.5916 21.6053C36.9174 21.6053 35.549 22.9736 35.541 24.6398C35.5329 26.3221 36.8932 27.6985 38.5594 27.7066ZM31.4439 24.672C31.4439 22.9978 30.0917 21.6214 28.4174 21.6133C26.7432 21.6053 25.3427 22.9978 25.3507 24.672C25.3588 26.3382 26.7271 27.7066 28.4013 27.7066C30.0756 27.7146 31.4439 26.3463 31.4439 24.672ZM48.7738 27.7146C50.4481 27.7146 51.8164 26.3463 51.8245 24.672C51.8325 23.0058 50.4561 21.6214 48.7899 21.6133C47.1076 21.6053 45.7232 22.9817 45.7312 24.6801C45.7393 26.3543 47.0996 27.7146 48.7738 27.7146Z" fill="#009EE2"/>
<path d="M39.0239 47.572C39.0239 48.0308 38.6697 48.3769 38.2109 48.3689C37.7682 48.3608 37.4141 47.9906 37.4141 47.5398C37.4141 47.0971 37.7843 46.7349 38.2431 46.7429C38.6858 46.7429 39.0239 47.1051 39.0239 47.572Z" fill="#009EE2"/>
<circle cx="40" cy="40" r="39" stroke="#009EE2" stroke-width="2"/>
</svg>
