<svg width="51" height="51" viewBox="0 0 51 51" fill="none" xmlns="http://www.w3.org/2000/svg">
<path d="M37.7695 8.58667V13.3767H40.9595V11.7767H39.3695V8.58667H37.7695Z" fill="#00AEEF"/>
<path d="M37.7695 8.58667V13.3767H40.9595V11.7767H39.3695V8.58667H37.7695Z" stroke="white" stroke-width="0.21" stroke-miterlimit="10"/>
<path d="M38.57 3.78666C36.5377 3.7878 34.5688 4.49474 33 5.78666L34 7.01666C35.0857 6.15872 36.3935 5.62799 37.77 5.48666V6.98666H39.36V5.48666C40.9791 5.67035 42.4883 6.3971 43.6415 7.54844C44.7946 8.69979 45.5238 10.2078 45.71 11.8267H44.16V13.4267H45.71C45.5529 14.8002 45.0083 16.1008 44.14 17.1767L45.37 18.1767C46.4338 16.8896 47.109 15.3262 47.3166 13.6693C47.5242 12.0125 47.2555 10.3308 46.5421 8.8211C45.8287 7.31139 44.7 6.03612 43.2882 5.14453C41.8764 4.25295 40.2398 3.78195 38.57 3.78666Z" fill="#00AEEF"/>
<path d="M38.57 3.78666C36.5377 3.7878 34.5688 4.49474 33 5.78666L34 7.01666C35.0857 6.15872 36.3935 5.62799 37.77 5.48666V6.98666H39.36V5.48666C40.9791 5.67035 42.4883 6.3971 43.6415 7.54844C44.7946 8.69979 45.5238 10.2078 45.71 11.8267H44.16V13.4267H45.71C45.5529 14.8002 45.0083 16.1008 44.14 17.1767L45.37 18.1767C46.4338 16.8896 47.109 15.3262 47.3166 13.6693C47.5242 12.0125 47.2555 10.3308 46.5421 8.8211C45.8287 7.31139 44.7 6.03612 43.2882 5.14453C41.8764 4.25295 40.2398 3.78195 38.57 3.78666V3.78666Z" stroke="white" stroke-width="0.21" stroke-miterlimit="10"/>
<path d="M16.9898 38.1566H20.1798C20.8164 38.1566 21.4268 37.9037 21.8769 37.4536C22.327 37.0035 22.5798 36.3931 22.5798 35.7566V29.3666C22.5812 29.051 22.52 28.7384 22.3998 28.4466C22.2797 28.1548 22.103 27.8897 21.8798 27.6666C21.6567 27.4434 21.3916 27.2667 21.0998 27.1466C20.8081 27.0264 20.4954 26.9653 20.1798 26.9666H16.9898C16.3533 26.9666 15.7429 27.2194 15.2928 27.6695C14.8427 28.1196 14.5898 28.7301 14.5898 29.3666V35.7566C14.5925 36.3923 14.8462 37.0012 15.2957 37.4507C15.7452 37.9002 16.3541 38.1539 16.9898 38.1566ZM16.1898 29.3666C16.1898 29.2615 16.2105 29.1575 16.2507 29.0604C16.2909 28.9634 16.3499 28.8752 16.4242 28.8009C16.4984 28.7266 16.5866 28.6677 16.6837 28.6275C16.7808 28.5873 16.8848 28.5666 16.9898 28.5666H20.1798C20.392 28.5666 20.5955 28.6509 20.7455 28.8009C20.8956 28.9509 20.9798 29.1544 20.9798 29.3666V35.7566C20.9798 35.9687 20.8956 36.1722 20.7455 36.3223C20.5955 36.4723 20.392 36.5566 20.1798 36.5566H16.9898C16.8848 36.5566 16.7808 36.5359 16.6837 36.4957C16.5866 36.4555 16.4984 36.3965 16.4242 36.3223C16.3499 36.248 16.2909 36.1598 16.2507 36.0627C16.2105 35.9657 16.1898 35.8616 16.1898 35.7566V29.3666Z" fill="#00AEEF"/>
<path d="M16.9898 38.1566H20.1798C20.8164 38.1566 21.4268 37.9037 21.8769 37.4536C22.327 37.0035 22.5798 36.3931 22.5798 35.7566V29.3666C22.5812 29.051 22.52 28.7384 22.3998 28.4466C22.2797 28.1548 22.103 27.8897 21.8798 27.6666C21.6567 27.4434 21.3916 27.2667 21.0998 27.1466C20.8081 27.0264 20.4954 26.9653 20.1798 26.9666H16.9898C16.3533 26.9666 15.7429 27.2194 15.2928 27.6695C14.8427 28.1196 14.5898 28.7301 14.5898 29.3666V35.7566C14.5925 36.3923 14.8462 37.0012 15.2957 37.4507C15.7452 37.9002 16.3541 38.1539 16.9898 38.1566V38.1566ZM16.1898 29.3666C16.1898 29.2615 16.2105 29.1575 16.2507 29.0604C16.2909 28.9634 16.3499 28.8752 16.4242 28.8009C16.4984 28.7266 16.5866 28.6677 16.6837 28.6275C16.7808 28.5873 16.8848 28.5666 16.9898 28.5666H20.1798C20.392 28.5666 20.5955 28.6509 20.7455 28.8009C20.8956 28.9509 20.9798 29.1544 20.9798 29.3666V35.7566C20.9798 35.9687 20.8956 36.1722 20.7455 36.3223C20.5955 36.4723 20.392 36.5566 20.1798 36.5566H16.9898C16.8848 36.5566 16.7808 36.5359 16.6837 36.4957C16.5866 36.4555 16.4984 36.3965 16.4242 36.3223C16.3499 36.248 16.2909 36.1598 16.2507 36.0627C16.2105 35.9657 16.1898 35.8616 16.1898 35.7566V29.3666Z" stroke="white" stroke-width="0.21" stroke-miterlimit="10"/>
<path d="M26.5797 38.1566H29.7697C30.4062 38.1566 31.0167 37.9037 31.4667 37.4536C31.9168 37.0035 32.1697 36.3931 32.1697 35.7566V34.1566C32.1673 33.5651 31.9465 32.9953 31.5497 32.5566C31.9481 32.1189 32.1692 31.5484 32.1697 30.9566V29.3666C32.171 29.051 32.1098 28.7384 31.9897 28.4466C31.8696 28.1548 31.6928 27.8897 31.4697 27.6666C31.2466 27.4434 30.9815 27.2667 30.6897 27.1466C30.3979 27.0264 30.0852 26.9653 29.7697 26.9666H26.5797C25.9432 26.9666 25.3327 27.2194 24.8826 27.6695C24.4325 28.1196 24.1797 28.7301 24.1797 29.3666V30.9566C24.1802 31.5484 24.4013 32.1189 24.7997 32.5566C24.4029 32.9953 24.1821 33.5651 24.1797 34.1566V35.7566C24.1823 36.3923 24.436 37.0012 24.8855 37.4507C25.3351 37.9002 25.944 38.1539 26.5797 38.1566ZM30.5797 35.7566C30.5797 35.9687 30.4954 36.1722 30.3454 36.3223C30.1953 36.4723 29.9919 36.5566 29.7797 36.5566H26.5797C26.3675 36.5566 26.164 36.4723 26.014 36.3223C25.864 36.1722 25.7797 35.9687 25.7797 35.7566V34.1566C25.7797 33.9444 25.864 33.7409 26.014 33.5909C26.164 33.4409 26.3675 33.3566 26.5797 33.3566H29.7697C29.8747 33.3566 29.9788 33.3773 30.0758 33.4175C30.1729 33.4577 30.2611 33.5166 30.3354 33.5909C30.4097 33.6652 30.4686 33.7534 30.5088 33.8504C30.549 33.9475 30.5697 34.0515 30.5697 34.1566L30.5797 35.7566ZM25.7897 29.3666C25.7897 29.1544 25.874 28.9509 26.024 28.8009C26.174 28.6509 26.3775 28.5666 26.5897 28.5666H29.7797C29.9919 28.5666 30.1953 28.6509 30.3454 28.8009C30.4954 28.9509 30.5797 29.1544 30.5797 29.3666V30.9566C30.5797 31.1687 30.4954 31.3722 30.3454 31.5223C30.1953 31.6723 29.9919 31.7566 29.7797 31.7566H26.5797C26.3675 31.7566 26.164 31.6723 26.014 31.5223C25.864 31.3722 25.7797 31.1687 25.7797 30.9566L25.7897 29.3666Z" fill="#00AEEF"/>
<path d="M26.5797 38.1566H29.7697C30.4062 38.1566 31.0167 37.9037 31.4667 37.4536C31.9168 37.0035 32.1697 36.3931 32.1697 35.7566V34.1566C32.1673 33.5651 31.9465 32.9953 31.5497 32.5566C31.9481 32.1189 32.1692 31.5484 32.1697 30.9566V29.3666C32.171 29.051 32.1098 28.7384 31.9897 28.4466C31.8695 28.1548 31.6928 27.8897 31.4697 27.6666C31.2466 27.4434 30.9815 27.2667 30.6897 27.1466C30.3979 27.0264 30.0852 26.9653 29.7697 26.9666H26.5797C25.9432 26.9666 25.3327 27.2194 24.8826 27.6695C24.4325 28.1196 24.1797 28.7301 24.1797 29.3666V30.9566C24.1802 31.5484 24.4013 32.1189 24.7997 32.5566C24.4029 32.9953 24.1821 33.5651 24.1797 34.1566V35.7566C24.1823 36.3923 24.436 37.0012 24.8855 37.4507C25.3351 37.9002 25.944 38.1539 26.5797 38.1566V38.1566ZM30.5797 35.7566C30.5797 35.9687 30.4954 36.1722 30.3454 36.3223C30.1953 36.4723 29.9919 36.5566 29.7797 36.5566H26.5797C26.3675 36.5566 26.164 36.4723 26.014 36.3223C25.864 36.1722 25.7797 35.9687 25.7797 35.7566V34.1566C25.7797 33.9444 25.864 33.7409 26.014 33.5909C26.164 33.4409 26.3675 33.3566 26.5797 33.3566H29.7697C29.8747 33.3566 29.9788 33.3773 30.0758 33.4175C30.1729 33.4577 30.2611 33.5166 30.3354 33.5909C30.4097 33.6652 30.4686 33.7534 30.5088 33.8504C30.549 33.9475 30.5697 34.0515 30.5697 34.1566L30.5797 35.7566ZM25.7897 29.3666C25.7897 29.1544 25.874 28.9509 26.024 28.8009C26.174 28.6509 26.3775 28.5666 26.5897 28.5666H29.7797C29.9919 28.5666 30.1953 28.6509 30.3454 28.8009C30.4954 28.9509 30.5797 29.1544 30.5797 29.3666V30.9566C30.5797 31.1687 30.4954 31.3722 30.3454 31.5223C30.1953 31.6723 29.9919 31.7566 29.7797 31.7566H26.5797C26.3675 31.7566 26.164 31.6723 26.014 31.5223C25.864 31.3722 25.7797 31.1687 25.7797 30.9566L25.7897 29.3666Z" stroke="white" stroke-width="0.21" stroke-miterlimit="10"/>
<path d="M50.55 12.5766C50.4427 9.5385 49.1864 6.65435 47.0348 4.50678C44.8832 2.3592 41.9967 1.10828 38.9584 1.00671C35.9201 0.905134 32.9565 1.96049 30.6663 3.95957C28.3761 5.95865 26.9299 8.75245 26.62 11.7766H2.6C2.17565 11.7766 1.76869 11.9452 1.46863 12.2452C1.16857 12.5453 1 12.9522 1 13.3766V18.1766C1 18.6009 1.16857 19.0079 1.46863 19.308C1.76869 19.608 2.17565 19.7766 2.6 19.7766V50.1366H44.16V23.1366C46.0877 22.1171 47.7012 20.5916 48.8271 18.724C49.9529 16.8564 50.5486 14.7173 50.55 12.5366V12.5766ZM2.6 13.3366H26.6C26.7039 15.0143 27.1641 16.6507 27.95 18.1366H2.6V13.3366ZM34.6 38.1166H32.2V40.5066H12.2V24.5066H34.57L34.6 38.1166ZM33.8 39.7166H38.27L33.8 44.1766V39.7166ZM39.39 38.1166H36.17V24.5666C36.1805 24.4836 36.1805 24.3996 36.17 24.3166C36.9696 24.4809 37.7837 24.5647 38.6 24.5666C38.87 24.5666 39.13 24.5666 39.39 24.5666V38.1166ZM12.19 22.9666C11.7657 22.9666 11.3587 23.1352 11.0586 23.4352C10.7586 23.7353 10.59 24.1422 10.59 24.5666V40.5666C10.59 40.9909 10.7586 41.3979 11.0586 41.698C11.3587 41.998 11.7657 42.1666 12.19 42.1666H32.19V45.3666H7.4V19.7766H28.98C29.9571 21.0895 31.1924 22.1887 32.61 23.0066L12.19 22.9666ZM42.56 48.5466H4.2V19.7766H5.8V46.9466H33.3L40.96 39.2866V24.2866C41.5032 24.1697 42.0377 24.0161 42.56 23.8266V48.5466ZM38.56 22.9666C36.5051 22.9666 34.4963 22.3572 32.7876 21.2156C31.079 20.0739 29.7473 18.4512 28.9609 16.5527C28.1745 14.6541 27.9687 12.5651 28.3696 10.5496C28.7705 8.53414 29.7601 6.68282 31.2132 5.22975C32.6662 3.77668 34.5176 2.78713 36.533 2.38623C38.5485 1.98533 40.6376 2.19109 42.5361 2.97748C44.4346 3.76387 46.0573 5.09559 47.199 6.80421C48.3406 8.51284 48.95 10.5216 48.95 12.5766C48.9474 15.3296 47.8532 17.9693 45.9075 19.917C43.9617 21.8646 41.3231 22.9613 38.57 22.9666" fill="#00AEEF"/>
<path d="M50.55 12.5766C50.4427 9.5385 49.1864 6.65435 47.0348 4.50678C44.8832 2.3592 41.9967 1.10828 38.9584 1.00671C35.9201 0.905134 32.9565 1.96049 30.6663 3.95957C28.3761 5.95865 26.9299 8.75245 26.62 11.7766H2.6C2.17565 11.7766 1.76869 11.9452 1.46863 12.2452C1.16857 12.5453 1 12.9522 1 13.3766V18.1766C1 18.6009 1.16857 19.0079 1.46863 19.308C1.76869 19.608 2.17565 19.7766 2.6 19.7766V50.1366H44.16V23.1366C46.0817 22.1203 47.6913 20.601 48.8168 18.7411C49.9422 16.8812 50.5413 14.7505 50.55 12.5766V12.5766ZM2.6 13.3766H26.6C26.7039 15.0543 27.1641 16.6907 27.95 18.1766H2.6V13.3766ZM34.6 38.1566H32.2V40.5466H12.2V24.5466H34.57L34.6 38.1566ZM33.8 39.7566H38.27L33.8 44.2166V39.7566ZM39.39 38.1566H36.17V24.5666C36.1805 24.4836 36.1805 24.3996 36.17 24.3166C36.9696 24.4809 37.7837 24.5647 38.6 24.5666C38.87 24.5666 39.13 24.5666 39.39 24.5666V38.1566ZM12.19 22.9666C11.7657 22.9666 11.3587 23.1352 11.0586 23.4352C10.7586 23.7353 10.59 24.1422 10.59 24.5666V40.5666C10.59 40.9909 10.7586 41.3979 11.0586 41.698C11.3587 41.998 11.7657 42.1666 12.19 42.1666H32.19V45.3666H7.4V19.7766H28.98C29.9571 21.0895 31.1924 22.1887 32.61 23.0066L12.19 22.9666ZM42.56 48.5466H4.2V19.7766H5.8V46.9466H33.3L40.96 39.2866V24.2866C41.5032 24.1697 42.0377 24.0161 42.56 23.8266V48.5466ZM38.56 22.9666C36.5051 22.9666 34.4963 22.3572 32.7876 21.2156C31.079 20.0739 29.7473 18.4512 28.9609 16.5527C28.1745 14.6541 27.9687 12.5651 28.3696 10.5496C28.7705 8.53414 29.7601 6.68282 31.2132 5.22975C32.6662 3.77668 34.5175 2.78713 36.533 2.38623C38.5485 1.98533 40.6376 2.19109 42.5361 2.97748C44.4346 3.76387 46.0573 5.09559 47.199 6.80421C48.3406 8.51284 48.95 10.5216 48.95 12.5766C48.9474 15.3296 47.8532 17.9693 45.9075 19.917C43.9617 21.8646 41.3231 22.9613 38.57 22.9666H38.56Z" stroke="white" stroke-width="0.21" stroke-miterlimit="10"/>
<path d="M39.3599 19.7166V18.1766H37.7699V19.7266C36.1492 19.5425 34.6389 18.8143 33.4856 17.6609C32.3322 16.5076 31.604 14.9973 31.4199 13.3766H32.9699V11.7766H31.4199C31.5761 10.401 32.1246 9.09927 32.9999 8.02661L31.7599 7.02661C30.3891 8.71494 29.6929 10.8515 29.8058 13.0232C29.9187 15.195 30.8326 17.2479 32.371 18.785C33.9094 20.3221 35.963 21.2344 38.1348 21.3455C40.3067 21.4567 42.4427 20.7587 44.1299 19.3866L43.1299 18.1466C42.0551 19.0231 40.7488 19.5685 39.3699 19.7166" fill="#00AEEF"/>
<path d="M39.3599 19.7166V18.1766H37.7699V19.7266C36.1492 19.5425 34.6389 18.8143 33.4856 17.6609C32.3322 16.5076 31.604 14.9973 31.4199 13.3766H32.9699V11.7766H31.4199C31.5761 10.401 32.1246 9.09927 32.9999 8.02661L31.7599 7.02661C30.3891 8.71494 29.6929 10.8515 29.8058 13.0232C29.9187 15.195 30.8326 17.2479 32.371 18.785C33.9094 20.3221 35.963 21.2344 38.1348 21.3455C40.3067 21.4567 42.4427 20.7587 44.1299 19.3866L43.1299 18.1466C42.0523 19.0248 40.7423 19.5704 39.3599 19.7166Z" stroke="white" stroke-width="0.21" stroke-miterlimit="10"/>
<path d="M12.1898 14.9766H10.5898V16.5766H12.1898V14.9766Z" fill="#00AEEF"/>
<path d="M12.1898 14.9766H10.5898V16.5766H12.1898V14.9766Z" stroke="white" stroke-width="0.21" stroke-miterlimit="10"/>
</svg>
