<svg width="45" height="51" viewBox="0 0 45 51" fill="none" xmlns="http://www.w3.org/2000/svg">
<path d="M41.21 6.58495C40.6506 6.58966 40.1022 6.7414 39.62 7.02495V5.78495C39.6174 4.93707 39.2794 4.12467 38.6798 3.52512C38.0803 2.92558 37.2679 2.58759 36.42 2.58495C35.7815 2.58322 35.1574 2.77498 34.63 3.13495C34.3824 2.42855 33.8943 1.8317 33.2511 1.44884C32.6079 1.06599 31.8506 0.921517 31.1116 1.04071C30.3726 1.1599 29.6991 1.53516 29.2088 2.10082C28.7186 2.66649 28.4429 3.38653 28.43 4.13495V4.58495C27.9503 4.31745 27.4092 4.17958 26.86 4.18495C26.0113 4.18495 25.1974 4.52209 24.5973 5.12221C23.9971 5.72233 23.66 6.53626 23.66 7.38495C23.5169 7.37467 23.3731 7.37467 23.23 7.38495C22.7541 7.38155 22.2824 7.47361 21.8426 7.65567C21.4029 7.83774 21.0042 8.10612 20.67 8.44495L11.19 17.885C9.96166 19.1099 9.12612 20.6731 8.79 22.375L8.04 26.085C7.81726 27.2175 7.32696 28.2804 6.61 29.185L1 36.185L12.42 48.485L20.03 40.885C20.9079 40.0178 21.9919 39.3881 23.18 39.055C23.4793 39.8544 23.6317 40.7013 23.63 41.555V44.145H22.03V50.535H42.86V44.145H41.26V38.045C41.2646 36.9277 41.5246 35.8263 42.02 34.825L43.53 31.825C44.1257 30.5979 44.4271 29.2488 44.41 27.885V9.78495C44.41 9.36472 44.3272 8.94861 44.1664 8.56037C44.0056 8.17212 43.7699 7.81936 43.4727 7.52221C43.1756 7.22506 42.8228 6.98935 42.4346 6.82854C42.0463 6.66772 41.6302 6.58495 41.21 6.58495ZM18.86 39.755L12.46 46.195L3.11 36.115L7.86 30.175C8.73522 29.0794 9.33529 27.7901 9.61 26.415L10.35 22.695C10.638 21.3004 11.3341 20.0229 12.35 19.025L21.8 9.57495C22.0778 9.2778 22.4396 9.07241 22.8371 8.98619C23.2346 8.89997 23.649 8.93702 24.0249 9.09239C24.4009 9.24776 24.7205 9.51407 24.9412 9.85579C25.1618 10.1975 25.2731 10.5984 25.26 11.005C25.2602 11.5438 25.0483 12.0612 24.67 12.445L21.06 16.015C20.4782 15.5947 19.7777 15.3705 19.06 15.375C18.1458 15.3776 17.2698 15.7419 16.6234 16.3883C15.977 17.0348 15.6126 17.9108 15.61 18.825V19.125C15.6101 19.3364 15.6302 19.5473 15.67 19.755L15.92 21.125L15.71 21.345C14.917 22.1298 14.2876 23.0644 13.8585 24.0943C13.4293 25.1243 13.2089 26.2292 13.21 27.345H14.86C14.8545 25.7949 15.3764 24.2891 16.34 23.075L17.67 30.145C17.9556 31.6846 18.6459 33.1204 19.67 34.305L21.86 36.815C22.0774 37.0681 22.2778 37.3354 22.46 37.615C21.1038 38.0249 19.8681 38.7594 18.86 39.755ZM23.59 15.755V23.595L22.46 18.105C22.3934 17.7925 22.2787 17.4923 22.12 17.215L23.59 15.755ZM41.21 48.945H23.63V45.745H41.21V48.945ZM42.86 27.885C42.8593 29.0026 42.5992 30.1049 42.1 31.105L40.59 34.105C39.9883 35.3314 39.6737 36.6788 39.67 38.045V44.145H25.23V41.555C25.2327 39.4239 24.4575 37.3651 23.05 35.765L20.86 33.275C20.0263 32.3078 19.4608 31.1389 19.22 29.885L17.27 19.485C17.2603 19.3718 17.2603 19.2581 17.27 19.145V18.845C17.3134 18.4257 17.4987 18.0338 17.7951 17.7342C18.0916 17.4346 18.4815 17.2452 18.9003 17.1974C19.319 17.1496 19.7416 17.2462 20.098 17.4712C20.4543 17.6963 20.7232 18.0363 20.86 18.435L22.94 28.165H25.19V14.105L25.73 13.565C26.1072 13.1871 26.3961 12.7305 26.5761 12.2279C26.756 11.7252 26.8226 11.189 26.771 10.6576C26.7194 10.1262 26.5509 9.61286 26.2775 9.15425C26.0042 8.69564 25.6328 8.30317 25.19 8.00495V7.38495C25.19 6.96061 25.3586 6.55364 25.6586 6.25358C25.9587 5.95352 26.3657 5.78495 26.79 5.78495C27.2143 5.78495 27.6213 5.95352 27.9214 6.25358C28.2214 6.55364 28.39 6.96061 28.39 7.38495V23.385H29.99V4.18495C29.9726 3.96488 30.0009 3.74357 30.0731 3.53496C30.1453 3.32635 30.26 3.13495 30.4098 2.97279C30.5596 2.81064 30.7414 2.68124 30.9436 2.59275C31.1459 2.50425 31.3642 2.45856 31.585 2.45856C31.8058 2.45856 32.0241 2.50425 32.2264 2.59275C32.4286 2.68124 32.6104 2.81064 32.7602 2.97279C32.91 3.13495 33.0247 3.32635 33.0969 3.53496C33.1691 3.74357 33.1974 3.96488 33.18 4.18495V23.365H34.86V5.78495C34.86 5.36061 35.0286 4.95364 35.3286 4.65358C35.6287 4.35352 36.0357 4.18495 36.46 4.18495C36.8843 4.18495 37.2913 4.35352 37.5914 4.65358C37.8914 4.95364 38.06 5.36061 38.06 5.78495V23.365H39.66V9.78495C39.66 9.57484 39.7014 9.36678 39.7818 9.17266C39.8622 8.97854 39.9801 8.80216 40.1286 8.65358C40.2772 8.50501 40.4536 8.38715 40.6477 8.30674C40.8418 8.22634 41.0499 8.18495 41.26 8.18495C41.4701 8.18495 41.6782 8.22634 41.8723 8.30674C42.0664 8.38715 42.2428 8.50501 42.3914 8.65358C42.5399 8.80216 42.6578 8.97854 42.7382 9.17266C42.8186 9.36678 42.86 9.57484 42.86 9.78495V27.885Z" fill="#00AEEF"/>
<path d="M41.21 6.58495C40.6506 6.58966 40.1022 6.7414 39.62 7.02495V5.78495C39.6174 4.93707 39.2794 4.12467 38.6798 3.52512C38.0803 2.92558 37.2679 2.58759 36.42 2.58495C35.7815 2.58322 35.1574 2.77498 34.63 3.13495C34.3824 2.42855 33.8943 1.8317 33.2511 1.44884C32.6079 1.06599 31.8506 0.921517 31.1116 1.04071C30.3726 1.1599 29.6991 1.53516 29.2088 2.10082C28.7186 2.66649 28.4429 3.38653 28.43 4.13495V4.58495C27.9503 4.31745 27.4092 4.17958 26.86 4.18495C26.0113 4.18495 25.1974 4.52209 24.5973 5.12221C23.9971 5.72233 23.66 6.53626 23.66 7.38495V7.38495C23.5169 7.37467 23.3732 7.37467 23.23 7.38495C22.7541 7.38155 22.2824 7.47361 21.8426 7.65567C21.4029 7.83774 21.0042 8.10612 20.67 8.44495L11.19 17.885C9.96166 19.1099 9.12612 20.6731 8.79 22.375L8.04 26.085C7.81726 27.2175 7.32696 28.2804 6.61 29.185L1 36.185L12.42 48.485L20.03 40.885C20.9079 40.0178 21.9919 39.3881 23.18 39.055C23.4793 39.8544 23.6317 40.7013 23.63 41.555V44.145H22.03V50.535H42.86V44.145H41.26V38.045C41.2646 36.9277 41.5246 35.8263 42.02 34.825L43.53 31.825C44.1257 30.5979 44.4271 29.2488 44.41 27.885V9.78495C44.41 8.93626 44.0729 8.12233 43.4727 7.52221C42.8726 6.92209 42.0587 6.58495 41.21 6.58495ZM18.86 39.755L12.46 46.195L3.11 36.115L7.86 30.175C8.73522 29.0794 9.33529 27.7901 9.61 26.415L10.35 22.695C10.638 21.3004 11.3341 20.0229 12.35 19.025L21.8 9.57495C22.0778 9.2778 22.4396 9.07241 22.8371 8.98619C23.2346 8.89997 23.649 8.93701 24.0249 9.09239C24.4009 9.24776 24.7205 9.51407 24.9412 9.85579C25.1618 10.1975 25.2731 10.5984 25.26 11.005C25.2602 11.5438 25.0483 12.0612 24.67 12.445L21.06 16.015C20.4782 15.5947 19.7777 15.3705 19.06 15.375C18.1458 15.3776 17.2698 15.7419 16.6234 16.3883C15.977 17.0348 15.6126 17.9108 15.61 18.825V19.125C15.6101 19.3364 15.6302 19.5473 15.67 19.755L15.92 21.125L15.71 21.345C14.917 22.1298 14.2876 23.0644 13.8585 24.0943C13.4293 25.1243 13.2089 26.2292 13.21 27.345H14.86C14.8545 25.7949 15.3764 24.2891 16.34 23.075L17.67 30.145C17.9556 31.6846 18.6459 33.1204 19.67 34.305L21.86 36.815C22.0774 37.0681 22.2778 37.3354 22.46 37.615C21.1038 38.0249 19.8681 38.7594 18.86 39.755V39.755ZM23.59 15.755V23.595L22.46 18.105C22.3934 17.7925 22.2787 17.4923 22.12 17.215L23.59 15.755ZM41.21 48.945H23.63V45.745H41.21V48.945ZM42.86 27.885C42.8593 29.0026 42.5992 30.1049 42.1 31.105L40.59 34.105C39.9883 35.3314 39.6737 36.6788 39.67 38.045V44.145H25.23V41.555C25.2327 39.4239 24.4575 37.3651 23.05 35.765L20.86 33.275C20.0263 32.3078 19.4608 31.1389 19.22 29.885L17.27 19.485C17.2603 19.3718 17.2603 19.2581 17.27 19.145V18.845C17.3134 18.4257 17.4987 18.0338 17.7951 17.7342C18.0916 17.4346 18.4815 17.2452 18.9003 17.1974C19.319 17.1496 19.7416 17.2462 20.098 17.4712C20.4543 17.6963 20.7232 18.0363 20.86 18.435L22.94 28.165H25.19V14.105L25.73 13.565C26.1072 13.1871 26.3961 12.7305 26.5761 12.2279C26.756 11.7252 26.8226 11.189 26.771 10.6576C26.7194 10.1262 26.5509 9.61286 26.2775 9.15425C26.0042 8.69564 25.6328 8.30317 25.19 8.00495V7.38495C25.19 6.96061 25.3586 6.55364 25.6586 6.25358C25.9587 5.95352 26.3657 5.78495 26.79 5.78495C27.2143 5.78495 27.6213 5.95352 27.9214 6.25358C28.2214 6.55364 28.39 6.96061 28.39 7.38495V23.385H29.99V4.18495C29.9726 3.96488 30.0009 3.74357 30.0731 3.53496C30.1453 3.32635 30.26 3.13495 30.4098 2.97279C30.5596 2.81064 30.7414 2.68124 30.9436 2.59275C31.1459 2.50425 31.3642 2.45856 31.585 2.45856C31.8058 2.45856 32.0241 2.50425 32.2264 2.59275C32.4286 2.68124 32.6104 2.81064 32.7602 2.97279C32.91 3.13495 33.0247 3.32635 33.0969 3.53496C33.1691 3.74357 33.1974 3.96488 33.18 4.18495V23.365H34.86V5.78495C34.86 5.36061 35.0286 4.95364 35.3286 4.65358C35.6287 4.35352 36.0357 4.18495 36.46 4.18495C36.8843 4.18495 37.2913 4.35352 37.5914 4.65358C37.8914 4.95364 38.06 5.36061 38.06 5.78495V23.365H39.66V9.78495C39.66 9.57484 39.7014 9.36678 39.7818 9.17266C39.8622 8.97854 39.9801 8.80215 40.1286 8.65358C40.2772 8.50501 40.4536 8.38715 40.6477 8.30674C40.8418 8.22634 41.0499 8.18495 41.26 8.18495C41.4701 8.18495 41.6782 8.22634 41.8723 8.30674C42.0664 8.38715 42.2428 8.50501 42.3914 8.65358C42.5399 8.80215 42.6578 8.97854 42.7382 9.17266C42.8186 9.36678 42.86 9.57484 42.86 9.78495V27.885Z" stroke="white" stroke-width="0.21" stroke-miterlimit="10"/>
</svg>
