<svg width="51" height="36" viewBox="0 0 51 36" fill="none" xmlns="http://www.w3.org/2000/svg">
<path d="M20.6434 18.7399C20.4523 18.6268 20.2291 18.5804 20.0088 18.6082C19.7885 18.636 19.5837 18.7362 19.4267 18.8932C19.2697 19.0502 19.1694 19.255 19.1416 19.4753C19.1139 19.6956 19.1602 19.9189 19.2734 20.1099C19.4588 20.2843 19.7038 20.3814 19.9584 20.3814C20.2129 20.3814 20.4579 20.2843 20.6434 20.1099C20.8177 19.9245 20.9148 19.6795 20.9148 19.4249C20.9148 19.1704 20.8177 18.9254 20.6434 18.7399Z" fill="#00AEEF"/>
<path d="M19.9534 20.3899C20.4891 20.3899 20.9234 19.9557 20.9234 19.42C20.9234 18.8842 20.4891 18.45 19.9534 18.45C19.4177 18.45 18.9834 18.8842 18.9834 19.42C18.9834 19.9557 19.4177 20.3899 19.9534 20.3899Z" stroke="white" stroke-width="0.21" stroke-miterlimit="10"/>
<path d="M25.7637 20.3899C25.1873 20.3879 24.6233 20.5572 24.1433 20.8762C23.6632 21.1952 23.2887 21.6495 23.0672 22.1817C22.8457 22.7138 22.7872 23.2997 22.8992 23.8652C23.0111 24.4306 23.2885 24.95 23.6961 25.3576C24.1036 25.7651 24.6231 26.0425 25.1885 26.1545C25.7539 26.2664 26.3398 26.208 26.872 25.9865C27.4041 25.765 27.8585 25.3904 28.1775 24.9104C28.4965 24.4303 28.6657 23.8663 28.6637 23.2899C28.6637 22.5208 28.3582 21.7832 27.8143 21.2393C27.2705 20.6954 26.5329 20.3899 25.7637 20.3899ZM25.7637 24.2599C25.566 24.2599 25.3726 24.2013 25.2082 24.0914C25.0437 23.9815 24.9155 23.8253 24.8399 23.6426C24.7642 23.4599 24.7444 23.2588 24.7829 23.0648C24.8215 22.8708 24.9168 22.6927 25.0566 22.5528C25.1965 22.413 25.3747 22.3177 25.5686 22.2791C25.7626 22.2405 25.9637 22.2603 26.1464 22.336C26.3291 22.4117 26.4853 22.5399 26.5952 22.7043C26.7051 22.8688 26.7637 23.0621 26.7637 23.2599C26.7637 23.5251 26.6584 23.7795 26.4708 23.967C26.2833 24.1546 26.029 24.2599 25.7637 24.2599Z" fill="#00AEEF"/>
<path d="M25.7637 20.3899C25.1873 20.3879 24.6233 20.5572 24.1433 20.8762C23.6632 21.1952 23.2887 21.6495 23.0672 22.1817C22.8457 22.7138 22.7872 23.2997 22.8992 23.8652C23.0111 24.4306 23.2885 24.95 23.6961 25.3576C24.1036 25.7651 24.6231 26.0425 25.1885 26.1545C25.7539 26.2664 26.3398 26.208 26.872 25.9865C27.4041 25.765 27.8585 25.3904 28.1775 24.9104C28.4965 24.4303 28.6657 23.8663 28.6637 23.2899C28.6637 22.5208 28.3582 21.7832 27.8143 21.2393C27.2705 20.6954 26.5329 20.3899 25.7637 20.3899V20.3899ZM25.7637 24.2599C25.566 24.2599 25.3726 24.2013 25.2082 24.0914C25.0437 23.9815 24.9155 23.8253 24.8399 23.6426C24.7642 23.4599 24.7444 23.2588 24.7829 23.0648C24.8215 22.8708 24.9168 22.6927 25.0566 22.5528C25.1965 22.413 25.3747 22.3177 25.5686 22.2791C25.7626 22.2405 25.9637 22.2603 26.1464 22.336C26.3291 22.4117 26.4853 22.5399 26.5952 22.7043C26.7051 22.8688 26.7637 23.0621 26.7637 23.2599C26.7637 23.5251 26.6584 23.7795 26.4708 23.967C26.2833 24.1546 26.029 24.2599 25.7637 24.2599V24.2599Z" stroke="white" stroke-width="0.21" stroke-miterlimit="10"/>
<path d="M25.7634 15.5501C24.6928 15.5485 23.6337 15.7698 22.6534 16.2001C22.4222 16.3091 22.2417 16.5025 22.1487 16.7406C22.0557 16.9786 22.0574 17.2432 22.1534 17.4801C22.2642 17.7094 22.4583 17.8878 22.6962 17.9788C22.9341 18.0699 23.1977 18.0668 23.4334 17.9701C24.5798 17.4682 25.8577 17.3499 27.0768 17.6328C28.2959 17.9157 29.3911 18.5847 30.1993 19.5402C31.0075 20.4958 31.4856 21.6867 31.5624 22.9359C31.6392 24.185 31.3106 25.4256 30.6255 26.4729C29.9404 27.5202 28.9354 28.3183 27.7602 28.7485C26.5849 29.1786 25.3022 29.2177 24.1029 28.8601C22.9036 28.5024 21.8518 27.767 21.1041 26.7634C20.3565 25.7598 19.9529 24.5416 19.9534 23.2901V23.2001C19.9973 23.0529 20.0067 22.8976 19.9809 22.7462C19.9551 22.5948 19.8948 22.4513 19.8047 22.327C19.7145 22.2027 19.5969 22.1008 19.461 22.0292C19.3251 21.9577 19.1745 21.9184 19.021 21.9144C18.8675 21.9104 18.7151 21.9419 18.5757 22.0063C18.4363 22.0707 18.3136 22.1664 18.2171 22.2859C18.1206 22.4054 18.0529 22.5455 18.0193 22.6954C17.9857 22.8452 17.9871 23.0008 18.0234 23.1501V23.2901C18.0234 24.8209 18.4773 26.3173 19.3278 27.5902C20.1783 28.863 21.3871 29.8551 22.8014 30.4409C24.2157 31.0267 25.7719 31.18 27.2734 30.8813C28.7748 30.5827 30.1539 29.8455 31.2364 28.7631C32.3188 27.6806 33.056 26.3015 33.3546 24.8001C33.6533 23.2986 33.5 21.7424 32.9142 20.3281C32.3284 18.9138 31.3363 17.705 30.0635 16.8545C28.7906 16.004 27.2942 15.5501 25.7634 15.5501Z" fill="#00AEEF"/>
<path d="M25.7634 15.5501C24.6928 15.5485 23.6337 15.7698 22.6534 16.2001C22.4222 16.3091 22.2416 16.5025 22.1487 16.7406C22.0557 16.9786 22.0574 17.2432 22.1534 17.4801C22.2642 17.7094 22.4583 17.8878 22.6962 17.9788C22.9341 18.0699 23.1977 18.0668 23.4334 17.9701C24.5798 17.4682 25.8577 17.3499 27.0768 17.6328C28.2959 17.9157 29.3911 18.5847 30.1993 19.5402C31.0075 20.4958 31.4856 21.6867 31.5624 22.9359C31.6392 24.185 31.3106 25.4256 30.6255 26.4729C29.9404 27.5202 28.9354 28.3183 27.7602 28.7485C26.5849 29.1786 25.3022 29.2177 24.1029 28.8601C22.9036 28.5024 21.8518 27.767 21.1041 26.7634C20.3565 25.7598 19.9529 24.5416 19.9534 23.2901V23.2001C19.9973 23.0529 20.0067 22.8976 19.9809 22.7462C19.9551 22.5948 19.8948 22.4513 19.8047 22.327C19.7145 22.2027 19.5969 22.1008 19.461 22.0292C19.3251 21.9577 19.1745 21.9184 19.021 21.9144C18.8675 21.9104 18.7151 21.9419 18.5757 22.0063C18.4363 22.0707 18.3136 22.1664 18.2171 22.2859C18.1206 22.4054 18.0529 22.5455 18.0193 22.6954C17.9857 22.8452 17.9871 23.0008 18.0234 23.1501V23.2901C18.0234 24.8209 18.4773 26.3173 19.3278 27.5902C20.1783 28.863 21.3871 29.8551 22.8014 30.4409C24.2157 31.0267 25.7719 31.18 27.2734 30.8813C28.7748 30.5827 30.1539 29.8455 31.2364 28.7631C32.3188 27.6806 33.056 26.3015 33.3546 24.8001C33.6533 23.2986 33.5 21.7424 32.9142 20.3281C32.3284 18.9138 31.3363 17.705 30.0635 16.8545C28.7906 16.004 27.2942 15.5501 25.7634 15.5501V15.5501Z" stroke="white" stroke-width="0.21" stroke-miterlimit="10"/>
<path d="M25.7637 1.03C25.4985 1.03 25.2441 1.13536 25.0566 1.32289C24.869 1.51043 24.7637 1.76478 24.7637 2.03V7.81C24.8179 8.02623 24.9427 8.21815 25.1185 8.35528C25.2942 8.49241 25.5108 8.5669 25.7337 8.5669C25.9566 8.5669 26.1731 8.49241 26.3489 8.35528C26.5246 8.21815 26.6495 8.02623 26.7037 7.81V2C26.7037 1.73478 26.5983 1.48043 26.4108 1.29289C26.2232 1.10536 25.9689 1 25.7037 1" fill="#00AEEF"/>
<path d="M25.7637 1.03003C25.4985 1.03003 25.2441 1.13539 25.0566 1.32292C24.869 1.51046 24.7637 1.76481 24.7637 2.03003V7.81003C24.8179 8.02626 24.9427 8.21818 25.1185 8.35531C25.2942 8.49244 25.5108 8.56692 25.7337 8.56692C25.9566 8.56692 26.1731 8.49244 26.3489 8.35531C26.5246 8.21818 26.6495 8.02626 26.7037 7.81003V2.00003C26.6966 1.7501 26.5962 1.51189 26.4222 1.33234C26.2482 1.15279 26.0133 1.04493 25.7637 1.03003V1.03003Z" stroke="white" stroke-width="0.21" stroke-miterlimit="10"/>
<path d="M14.9536 8.21007L10.8836 4.10007C10.6982 3.9257 10.4532 3.82861 10.1986 3.82861C9.94408 3.82861 9.6991 3.9257 9.51364 4.10007C9.33927 4.28553 9.24219 4.53051 9.24219 4.78507C9.24219 5.03963 9.33927 5.28461 9.51364 5.47007L13.5836 9.58007C13.7747 9.69321 13.998 9.73955 14.2182 9.71179C14.4385 9.68403 14.6433 9.58375 14.8003 9.42675C14.9573 9.26975 15.0576 9.06496 15.0854 8.84467C15.1131 8.62438 15.0668 8.40111 14.9536 8.21007Z" fill="#00AEEF"/>
<path d="M14.9536 8.21007L10.8836 4.10007C10.6982 3.9257 10.4532 3.82861 10.1986 3.82861C9.94408 3.82861 9.6991 3.9257 9.51364 4.10007C9.33927 4.28553 9.24219 4.53051 9.24219 4.78507C9.24219 5.03963 9.33927 5.28461 9.51364 5.47007L13.5836 9.58007C13.7747 9.69321 13.998 9.73956 14.2182 9.71179C14.4385 9.68403 14.6433 9.58375 14.8003 9.42675C14.9573 9.26975 15.0576 9.06496 15.0854 8.84467C15.1131 8.62438 15.0668 8.40111 14.9536 8.21007Z" stroke="white" stroke-width="0.21" stroke-miterlimit="10"/>
<path d="M42.0541 4.10007C41.8687 3.9257 41.6237 3.82861 41.3691 3.82861C41.1146 3.82861 40.8696 3.9257 40.6841 4.10007L36.5741 8.21007C36.461 8.40111 36.4147 8.62438 36.4424 8.84467C36.4702 9.06496 36.5705 9.26975 36.7275 9.42675C36.8845 9.58375 37.0893 9.68403 37.3095 9.71179C37.5298 9.73955 37.7531 9.69321 37.9441 9.58007L42.0541 5.47007C42.2285 5.28461 42.3256 5.03963 42.3256 4.78507C42.3256 4.53051 42.2285 4.28553 42.0541 4.10007Z" fill="#00AEEF"/>
<path d="M42.0541 4.10007C41.8687 3.9257 41.6237 3.82861 41.3691 3.82861C41.1146 3.82861 40.8696 3.9257 40.6841 4.10007L36.5741 8.21007C36.461 8.40111 36.4147 8.62438 36.4424 8.84467C36.4702 9.06496 36.5705 9.26975 36.7275 9.42675C36.8845 9.58375 37.0893 9.68403 37.3095 9.71179C37.5298 9.73956 37.7531 9.69321 37.9441 9.58007L42.0541 5.47007C42.2285 5.28461 42.3256 5.03963 42.3256 4.78507C42.3256 4.53051 42.2285 4.28553 42.0541 4.10007V4.10007Z" stroke="white" stroke-width="0.21" stroke-miterlimit="10"/>
<path d="M50.2938 23.46C44.1438 16.46 35.0238 10.71 25.7638 10.71C16.5038 10.71 7.37379 16.5 1.23379 23.46C1.06986 23.6554 0.98683 23.9062 1.0017 24.1608C1.01657 24.4155 1.12822 24.6549 1.31379 24.83C1.5105 24.9926 1.76197 25.074 2.01668 25.0572C2.27139 25.0405 2.51007 24.927 2.68379 24.74C2.88379 24.51 3.09379 24.27 3.31379 24.04C5.81393 27.6864 9.16466 30.669 13.0763 32.7298C16.9878 34.7906 21.3425 35.8676 25.7638 35.8676C30.185 35.8676 34.5397 34.7906 38.4513 32.7298C42.3629 30.669 45.7137 27.6864 48.2138 24.04L48.8438 24.74C48.9125 24.8767 49.0117 24.9958 49.1337 25.0881C49.2557 25.1805 49.3973 25.2436 49.5475 25.2726C49.6978 25.3016 49.8526 25.2958 50.0003 25.2555C50.1479 25.2153 50.2843 25.1417 50.399 25.0405C50.5137 24.9392 50.6037 24.813 50.6619 24.6715C50.7202 24.53 50.7452 24.377 50.735 24.2243C50.7248 24.0717 50.6798 23.9234 50.6033 23.7908C50.5268 23.6583 50.4209 23.5451 50.2938 23.46ZM25.7638 33.93C21.5905 33.9336 17.4814 32.9024 13.8044 30.9286C10.1273 28.9549 6.99705 26.1001 4.69379 22.62C8.14379 19.24 16.1138 12.62 25.7638 12.62C35.4138 12.62 43.3838 19.24 46.8838 22.62C44.5759 26.1072 41.4377 28.9664 37.7512 30.9405C34.0648 32.9146 29.9456 33.9419 25.7638 33.93Z" fill="#00AEEF"/>
<path d="M50.2938 23.46C44.1438 16.46 35.0238 10.71 25.7638 10.71C16.5038 10.71 7.37379 16.5 1.23379 23.46C1.06986 23.6554 0.98683 23.9062 1.0017 24.1608C1.01657 24.4155 1.12822 24.6549 1.31379 24.83C1.5105 24.9926 1.76197 25.074 2.01668 25.0572C2.27139 25.0405 2.51007 24.927 2.68379 24.74C2.88379 24.51 3.09379 24.27 3.31379 24.04C5.81393 27.6864 9.16466 30.669 13.0763 32.7298C16.9878 34.7906 21.3425 35.8676 25.7638 35.8676C30.185 35.8676 34.5397 34.7906 38.4513 32.7298C42.3629 30.669 45.7137 27.6864 48.2138 24.04L48.8438 24.74C48.9125 24.8767 49.0117 24.9958 49.1337 25.0881C49.2557 25.1805 49.3973 25.2436 49.5475 25.2726C49.6978 25.3016 49.8526 25.2958 50.0003 25.2555C50.1479 25.2153 50.2843 25.1417 50.399 25.0405C50.5137 24.9392 50.6037 24.813 50.6619 24.6715C50.7202 24.53 50.7452 24.377 50.735 24.2243C50.7249 24.0717 50.6798 23.9234 50.6033 23.7908C50.5268 23.6583 50.4209 23.5451 50.2938 23.46V23.46ZM25.7638 33.93C21.5905 33.9336 17.4814 32.9024 13.8044 30.9286C10.1273 28.9549 6.99705 26.1001 4.69379 22.62C8.14379 19.24 16.1138 12.62 25.7638 12.62C35.4138 12.62 43.3838 19.24 46.8838 22.62C44.5759 26.1072 41.4377 28.9664 37.7512 30.9405C34.0648 32.9146 29.9456 33.9419 25.7638 33.93Z" stroke="white" stroke-width="0.21" stroke-miterlimit="10"/>
</svg>
