<svg width="49" height="51" viewBox="0 0 49 51" fill="none" xmlns="http://www.w3.org/2000/svg">
<path d="M24.18 29.199C24.1813 28.8835 24.1201 28.5708 24 28.279C23.8799 27.9872 23.7031 27.7221 23.48 27.499C23.2569 27.2759 22.9918 27.0992 22.7 26.979C22.4082 26.8589 22.0955 26.7977 21.78 26.799H14.59V22.799C14.5867 22.2203 14.3735 21.6624 13.99 21.229C14.6612 20.7987 15.2141 20.2073 15.5984 19.5086C15.9826 18.81 16.186 18.0263 16.19 17.229V14.829C16.1336 13.5952 15.6038 12.4306 14.7108 11.5774C13.8177 10.7242 12.6301 10.248 11.395 10.248C10.1599 10.248 8.9723 10.7242 8.07923 11.5774C7.18617 12.4306 6.65636 13.5952 6.6 14.829V17.229C6.60138 17.9895 6.78343 18.7387 7.13116 19.4151C7.47888 20.0914 7.98232 20.6754 8.6 21.119C8.26896 21.9304 8.00149 22.7662 7.8 23.619H3.4C2.76348 23.619 2.15303 23.8719 1.70294 24.322C1.25286 24.772 1 25.3825 1 26.019C1 26.6555 1.25286 27.266 1.70294 27.7161C2.15303 28.1662 2.76348 28.419 3.4 28.419H4.2V35.609C4.2142 36.3423 4.42973 37.0575 4.82302 37.6766C5.21631 38.2956 5.77223 38.7946 6.43 39.119L3.51 47.909C3.43944 48.1323 3.40238 48.3648 3.4 48.599C3.41 49.1132 3.59904 49.6079 3.93454 49.9977C4.27005 50.3875 4.73101 50.6481 5.23801 50.7346C5.74501 50.8211 6.26629 50.728 6.71205 50.4714C7.1578 50.2149 7.50011 49.8109 7.68 49.329L8.9 45.979H17.02V50.779H33.77V34.779H35.37V29.999H24.03C24.1298 29.7441 24.1807 29.4727 24.18 29.199ZM21.78 28.399C21.9922 28.399 22.1957 28.4833 22.3457 28.6333C22.4957 28.7834 22.58 28.9868 22.58 29.199C22.58 29.4112 22.4957 29.6147 22.3457 29.7647C22.1957 29.9147 21.9922 29.999 21.78 29.999H12.2C12.0941 30.0003 11.989 29.9806 11.8908 29.941C11.7926 29.9014 11.7032 29.8427 11.6278 29.7683C11.5525 29.6938 11.4927 29.6052 11.4518 29.5075C11.411 29.4098 11.39 29.3049 11.39 29.199V22.799C11.39 22.6931 11.411 22.5883 11.4518 22.4905C11.4927 22.3928 11.5525 22.3042 11.6278 22.2298C11.7032 22.1553 11.7926 22.0966 11.8908 22.057C11.989 22.0174 12.0941 21.9977 12.2 21.999C12.3046 21.999 12.4081 22.0198 12.5046 22.0601C12.6012 22.1004 12.6887 22.1595 12.7622 22.2339C12.8357 22.3083 12.8937 22.3966 12.9328 22.4936C12.9719 22.5906 12.9913 22.6944 12.99 22.799V28.399H21.78ZM12.2 31.589H16.99V34.789H8.99V27.179C8.99333 25.5232 9.27736 23.8799 9.83 22.319C9.81514 22.4787 9.81514 22.6394 9.83 22.799V29.199C9.83 29.5137 9.89215 29.8253 10.0129 30.1159C10.1336 30.4066 10.3106 30.6705 10.5335 30.8925C10.7565 31.1146 11.0212 31.2904 11.3123 31.41C11.6034 31.5295 11.9153 31.5903 12.23 31.589H12.2ZM8.23 14.809C8.20568 14.3744 8.27028 13.9394 8.41985 13.5306C8.56942 13.1218 8.80082 12.7479 9.0999 12.4316C9.39897 12.1153 9.75942 11.8634 10.1592 11.6912C10.559 11.519 10.9897 11.4302 11.425 11.4302C11.8603 11.4302 12.291 11.519 12.6908 11.6912C13.0906 11.8634 13.451 12.1153 13.7501 12.4316C14.0492 12.7479 14.2806 13.1218 14.4301 13.5306C14.5797 13.9394 14.6443 14.3744 14.62 14.809V17.209C14.6443 17.6436 14.5797 18.0786 14.4301 18.4874C14.2806 18.8962 14.0492 19.2702 13.7501 19.5864C13.451 19.9027 13.0906 20.1547 12.6908 20.3268C12.291 20.499 11.8603 20.5878 11.425 20.5878C10.9897 20.5878 10.559 20.499 10.1592 20.3268C9.75942 20.1547 9.39897 19.9027 9.0999 19.5864C8.80082 19.2702 8.56942 18.8962 8.41985 18.4874C8.27028 18.0786 8.20568 17.6436 8.23 17.209V14.809ZM3.43 26.809C3.21783 26.809 3.01434 26.7247 2.86431 26.5747C2.71429 26.4247 2.63 26.2212 2.63 26.009C2.63 25.7968 2.71429 25.5934 2.86431 25.4433C3.01434 25.2933 3.21783 25.209 3.43 25.209H7.53C7.441 25.8719 7.39756 26.5402 7.4 27.209V34.819C7.4 35.0291 7.44139 35.2372 7.52179 35.4313C7.6022 35.6254 7.72006 35.8018 7.86863 35.9504C8.0172 36.099 8.19359 36.2168 8.38771 36.2972C8.58183 36.3776 8.78989 36.419 9 36.419H17V38.019H8.2C7.56429 38.0164 6.95537 37.7627 6.50585 37.3132C6.05633 36.8636 5.80263 36.2547 5.8 35.619V26.799L3.43 26.809ZM11.19 39.589H17.02V41.189H10.59L11.19 39.589ZM6.19 48.799C6.14565 48.9181 6.06461 49.0201 5.95857 49.0902C5.85253 49.1603 5.72697 49.1949 5.6 49.189C5.44617 49.189 5.29865 49.1279 5.18988 49.0191C5.08111 48.9104 5.02 48.7628 5.02 48.609C5.01047 48.5494 5.01047 48.4886 5.02 48.429L8.02 39.569H8.24H9.46L6.19 48.799ZM9.47 44.389L10.04 42.789H17.04V44.389H9.47ZM32.2 49.189H18.59V34.789H32.18L32.2 49.189ZM33.79 33.189H18.59V31.589H33.77L33.79 33.189Z" fill="#00AEEF"/>
<path d="M24.18 29.199C24.1813 28.8835 24.1201 28.5708 24 28.279C23.8799 27.9872 23.7031 27.7221 23.48 27.499C23.2569 27.2759 22.9918 27.0992 22.7 26.979C22.4082 26.8589 22.0955 26.7977 21.78 26.799H14.59V22.799C14.5867 22.2203 14.3735 21.6624 13.99 21.229C14.6612 20.7987 15.2141 20.2073 15.5984 19.5086C15.9826 18.81 16.186 18.0263 16.19 17.229V14.829C16.1336 13.5952 15.6038 12.4306 14.7108 11.5774C13.8177 10.7242 12.6301 10.248 11.395 10.248C10.1599 10.248 8.9723 10.7242 8.07923 11.5774C7.18617 12.4306 6.65636 13.5952 6.6 14.829V17.229C6.60138 17.9895 6.78343 18.7387 7.13116 19.4151C7.47888 20.0914 7.98232 20.6754 8.6 21.119C8.26896 21.9304 8.00149 22.7662 7.8 23.619H3.4C2.76348 23.619 2.15303 23.8719 1.70294 24.322C1.25286 24.772 1 25.3825 1 26.019C1 26.6555 1.25286 27.266 1.70294 27.7161C2.15303 28.1662 2.76348 28.419 3.4 28.419H4.2V35.609C4.2142 36.3423 4.42973 37.0575 4.82302 37.6766C5.21631 38.2956 5.77223 38.7946 6.43 39.119L3.51 47.909C3.43944 48.1323 3.40238 48.3648 3.4 48.599C3.41 49.1132 3.59904 49.6079 3.93454 49.9977C4.27005 50.3875 4.73101 50.6481 5.23801 50.7346C5.74501 50.8211 6.26629 50.728 6.71205 50.4714C7.1578 50.2149 7.50011 49.8109 7.68 49.329L8.9 45.979H17.02V50.779H33.77V34.779H35.37V29.999H24.03C24.1298 29.7441 24.1807 29.4727 24.18 29.199V29.199ZM21.78 28.399C21.9922 28.399 22.1957 28.4833 22.3457 28.6333C22.4957 28.7834 22.58 28.9868 22.58 29.199C22.58 29.4112 22.4957 29.6147 22.3457 29.7647C22.1957 29.9147 21.9922 29.999 21.78 29.999H12.2C12.0941 30.0003 11.989 29.9806 11.8908 29.941C11.7926 29.9014 11.7032 29.8427 11.6278 29.7683C11.5525 29.6938 11.4927 29.6052 11.4518 29.5075C11.411 29.4098 11.39 29.3049 11.39 29.199V22.799C11.39 22.6931 11.411 22.5883 11.4518 22.4905C11.4927 22.3928 11.5525 22.3042 11.6278 22.2298C11.7032 22.1553 11.7926 22.0966 11.8908 22.057C11.989 22.0174 12.0941 21.9977 12.2 21.999C12.3046 21.999 12.4081 22.0198 12.5046 22.0601C12.6012 22.1004 12.6887 22.1595 12.7622 22.2339C12.8357 22.3083 12.8937 22.3966 12.9328 22.4936C12.9719 22.5906 12.9913 22.6944 12.99 22.799V28.399H21.78ZM12.2 31.589H16.99V34.789H8.99V27.179C8.99333 25.5232 9.27736 23.8799 9.83 22.319C9.81514 22.4787 9.81514 22.6394 9.83 22.799V29.199C9.82998 29.8294 10.079 30.4343 10.5229 30.882C10.9668 31.3296 11.5696 31.5837 12.2 31.589V31.589ZM8.2 14.809C8.17568 14.3744 8.24028 13.9394 8.38985 13.5306C8.53942 13.1218 8.77082 12.7479 9.0699 12.4316C9.36897 12.1153 9.72942 11.8634 10.1292 11.6912C10.529 11.519 10.9597 11.4302 11.395 11.4302C11.8303 11.4302 12.261 11.519 12.6608 11.6912C13.0606 11.8634 13.421 12.1153 13.7201 12.4316C14.0192 12.7479 14.2506 13.1218 14.4001 13.5306C14.5497 13.9394 14.6143 14.3744 14.59 14.809V17.209C14.6143 17.6436 14.5497 18.0786 14.4001 18.4874C14.2506 18.8962 14.0192 19.2702 13.7201 19.5864C13.421 19.9027 13.0606 20.1547 12.6608 20.3268C12.261 20.499 11.8303 20.5878 11.395 20.5878C10.9597 20.5878 10.529 20.499 10.1292 20.3268C9.72942 20.1547 9.36897 19.9027 9.0699 19.5864C8.77082 19.2702 8.53942 18.8962 8.38985 18.4874C8.24028 18.0786 8.17568 17.6436 8.2 17.209V14.809ZM3.4 26.809C3.18783 26.809 2.98434 26.7247 2.83431 26.5747C2.68429 26.4247 2.6 26.2212 2.6 26.009C2.6 25.7968 2.68429 25.5934 2.83431 25.4433C2.98434 25.2933 3.18783 25.209 3.4 25.209H7.53C7.441 25.8719 7.39756 26.5402 7.4 27.209V34.819C7.4 35.0291 7.44139 35.2372 7.52179 35.4313C7.6022 35.6254 7.72006 35.8018 7.86863 35.9504C8.0172 36.099 8.19359 36.2168 8.38771 36.2972C8.58183 36.3776 8.78988 36.419 9 36.419H17V38.019H8.2C7.56429 38.0164 6.95537 37.7627 6.50585 37.3132C6.05633 36.8636 5.80263 36.2547 5.8 35.619V26.799L3.4 26.809ZM11.16 39.589H16.99V41.189H10.59L11.16 39.589ZM6.16 48.799C6.11565 48.9181 6.03461 49.0201 5.92857 49.0902C5.82253 49.1603 5.69697 49.1949 5.57 49.189C5.41617 49.189 5.26865 49.1279 5.15988 49.0191C5.05111 48.9104 4.99 48.7628 4.99 48.609C4.98047 48.5494 4.98047 48.4886 4.99 48.429L7.99 39.569H8.21H9.46L6.16 48.799ZM9.44 44.389L10.01 42.789H17.01V44.389H9.44ZM32.17 49.189H18.59V34.789H32.18L32.17 49.189ZM33.76 33.189H18.59V31.589H33.77L33.76 33.189Z" stroke="white" stroke-width="0.21" stroke-miterlimit="10"/>
<path d="M45.5503 12.169C46.1137 11.7195 46.5688 11.1491 46.8821 10.5C47.1954 9.85096 47.3588 9.13977 47.3603 8.41903V6.01903C47.3899 5.37092 47.2878 4.72354 47.0602 4.11599C46.8326 3.50844 46.4842 2.95334 46.036 2.48423C45.5878 2.01512 45.0492 1.64173 44.4527 1.38663C43.8562 1.13153 43.2141 1 42.5653 1C41.9165 1 41.2745 1.13153 40.6779 1.38663C40.0814 1.64173 39.5428 2.01512 39.0946 2.48423C38.6465 2.95334 38.298 3.50844 38.0704 4.11599C37.8428 4.72354 37.7407 5.37092 37.7703 6.01903V8.41903C37.7699 9.28946 38.0072 10.1435 38.4566 10.8889C38.906 11.6344 39.5504 12.243 40.3203 12.649C39.83 13.0328 39.419 13.5083 39.1103 14.049C38.1334 15.7647 37.4824 17.6464 37.1903 19.599H32.9703C32.3338 19.599 31.7233 19.8519 31.2733 20.302C30.8232 20.7521 30.5703 21.3625 30.5703 21.999C30.5703 22.6356 30.8232 23.246 31.2733 23.6961C31.7233 24.1462 32.3338 24.399 32.9703 24.399H36.9703V29.189H38.5703V50.769H48.1603V16.459C48.1615 15.5732 47.9185 14.7041 47.4581 13.9473C46.9977 13.1905 46.3376 12.5752 45.5503 12.169ZM39.3703 8.41903V6.01903C39.346 5.58442 39.4106 5.14942 39.5602 4.74064C39.7097 4.33185 39.9411 3.95788 40.2402 3.6416C40.5393 3.32533 40.8997 3.07339 41.2995 2.90121C41.6993 2.72902 42.13 2.64022 42.5653 2.64022C43.0006 2.64022 43.4313 2.72902 43.8311 2.90121C44.2309 3.07339 44.5913 3.32533 44.8904 3.6416C45.1895 3.95788 45.4209 4.33185 45.5705 4.74064C45.72 5.14942 45.7846 5.58442 45.7603 6.01903V8.41903C45.7146 9.23549 45.3581 10.0035 44.7639 10.5653C44.1698 11.1272 43.3831 11.4402 42.5653 11.4402C41.7476 11.4402 40.9609 11.1272 40.3667 10.5653C39.7725 10.0035 39.416 9.23549 39.3703 8.41903ZM40.1703 15.499V19.609H38.8003C39.0489 18.1782 39.5107 16.7928 40.1703 15.499ZM32.1703 21.999C32.169 21.8944 32.1884 21.7906 32.2276 21.6936C32.2667 21.5966 32.3246 21.5084 32.3981 21.4339C32.4716 21.3595 32.5592 21.3004 32.6557 21.2601C32.7522 21.2198 32.8557 21.199 32.9603 21.199H41.7503V14.009C41.7559 13.8288 41.8229 13.6559 41.9403 13.519C42.2085 13.3979 42.4906 13.3106 42.7803 13.259C42.9441 13.3048 43.0884 13.4029 43.1913 13.5383C43.2942 13.6737 43.3501 13.839 43.3503 14.009V22.009C43.3517 22.1145 43.3319 22.2191 43.2922 22.3168C43.2524 22.4144 43.1935 22.5032 43.119 22.5777C43.0444 22.6523 42.9557 22.7111 42.858 22.7509C42.7604 22.7906 42.6557 22.8104 42.5503 22.809H32.9703C32.8657 22.809 32.7622 22.7883 32.6657 22.748C32.5692 22.7076 32.4816 22.6485 32.4081 22.5741C32.3346 22.4997 32.2767 22.4114 32.2376 22.3144C32.1984 22.2174 32.179 22.1136 32.1803 22.009L32.1703 21.999ZM42.5603 24.409C42.8759 24.4104 43.1885 24.3492 43.4803 24.229C43.7721 24.1089 44.0372 23.9322 44.2603 23.709C44.4834 23.4859 44.6602 23.2208 44.7803 22.929C44.9005 22.6373 44.9616 22.3246 44.9603 22.009V14.009C44.9603 13.889 44.9603 13.779 44.9603 13.659C45.4545 13.9408 45.8655 14.3482 46.1518 14.8399C46.438 15.3316 46.5893 15.8901 46.5903 16.459V27.599H38.5903V24.399L42.5603 24.409ZM40.1703 29.209H41.7603V49.209H40.1703V29.209ZM43.3603 29.209H46.5603V49.209H43.3603V29.209Z" fill="#00AEEF"/>
<path d="M45.5503 12.169C46.1137 11.7195 46.5688 11.1491 46.8821 10.5C47.1954 9.85096 47.3588 9.13977 47.3603 8.41903V6.01903C47.3899 5.37092 47.2878 4.72354 47.0602 4.11599C46.8326 3.50844 46.4842 2.95334 46.036 2.48423C45.5878 2.01512 45.0492 1.64173 44.4527 1.38663C43.8562 1.13153 43.2141 1 42.5653 1C41.9165 1 41.2745 1.13153 40.6779 1.38663C40.0814 1.64173 39.5428 2.01512 39.0946 2.48423C38.6465 2.95334 38.298 3.50844 38.0704 4.11599C37.8428 4.72354 37.7407 5.37092 37.7703 6.01903V8.41903C37.7699 9.28946 38.0072 10.1435 38.4566 10.8889C38.906 11.6344 39.5504 12.243 40.3203 12.649C39.83 13.0328 39.419 13.5083 39.1103 14.049C38.1334 15.7647 37.4824 17.6464 37.1903 19.599H32.9703C32.3338 19.599 31.7233 19.8519 31.2733 20.302C30.8232 20.7521 30.5703 21.3625 30.5703 21.999C30.5703 22.6356 30.8232 23.246 31.2733 23.6961C31.7233 24.1462 32.3338 24.399 32.9703 24.399H36.9703V29.189H38.5703V50.769H48.1603V16.459C48.1615 15.5732 47.9185 14.7041 47.4581 13.9473C46.9977 13.1905 46.3376 12.5752 45.5503 12.169V12.169ZM39.3703 8.41903V6.01903C39.346 5.58442 39.4106 5.14942 39.5602 4.74064C39.7097 4.33185 39.9411 3.95788 40.2402 3.6416C40.5393 3.32533 40.8997 3.07339 41.2995 2.90121C41.6993 2.72902 42.13 2.64022 42.5653 2.64022C43.0006 2.64022 43.4313 2.72902 43.8311 2.90121C44.2309 3.07339 44.5913 3.32533 44.8904 3.6416C45.1895 3.95788 45.4209 4.33185 45.5705 4.74064C45.72 5.14942 45.7846 5.58442 45.7603 6.01903V8.41903C45.7146 9.23549 45.3581 10.0035 44.7639 10.5653C44.1698 11.1272 43.3831 11.4402 42.5653 11.4402C41.7476 11.4402 40.9609 11.1272 40.3667 10.5653C39.7725 10.0035 39.416 9.23549 39.3703 8.41903V8.41903ZM40.1703 15.499V19.609H38.8003C39.0489 18.1782 39.5107 16.7928 40.1703 15.499V15.499ZM32.1703 21.999C32.169 21.8944 32.1884 21.7906 32.2276 21.6936C32.2667 21.5966 32.3246 21.5084 32.3981 21.4339C32.4716 21.3595 32.5592 21.3004 32.6557 21.2601C32.7522 21.2198 32.8557 21.199 32.9603 21.199H41.7503V14.009C41.7559 13.8288 41.8229 13.6559 41.9403 13.519C42.2085 13.3979 42.4906 13.3106 42.7803 13.259C42.9441 13.3048 43.0884 13.4029 43.1913 13.5383C43.2942 13.6737 43.3501 13.839 43.3503 14.009V22.009C43.3517 22.1145 43.3319 22.2191 43.2922 22.3168C43.2524 22.4144 43.1935 22.5032 43.119 22.5777C43.0444 22.6523 42.9557 22.7111 42.858 22.7509C42.7604 22.7906 42.6557 22.8104 42.5503 22.809H32.9703C32.8649 22.8091 32.7605 22.788 32.6633 22.747C32.5661 22.7061 32.4781 22.6461 32.4045 22.5706C32.3309 22.4951 32.2731 22.4057 32.2346 22.3075C32.1961 22.2093 32.1776 22.1044 32.1803 21.999H32.1703ZM42.5503 24.399C42.8659 24.4004 43.1785 24.3392 43.4703 24.219C43.7621 24.0989 44.0272 23.9222 44.2503 23.699C44.4734 23.4759 44.6502 23.2108 44.7703 22.919C44.8905 22.6273 44.9516 22.3146 44.9503 21.999V13.999C44.9503 13.879 44.9503 13.769 44.9503 13.649C45.4445 13.9308 45.8555 14.3382 46.1418 14.8299C46.428 15.3216 46.5793 15.8801 46.5803 16.449V27.599H38.5803V24.399H42.5503ZM40.1603 29.199H41.7503V49.199H40.1703L40.1603 29.199ZM43.3503 29.199H46.5503V49.199H43.3503V29.199Z" stroke="white" stroke-width="0.21" stroke-miterlimit="10"/>
<path d="M32.9701 4.41895H31.3701V6.01895H32.9701V4.41895Z" fill="#00AEEF"/>
<path d="M32.9701 4.41895H31.3701V6.01895H32.9701V4.41895Z" stroke="white" stroke-width="0.21" stroke-miterlimit="10"/>
<path d="M29.7797 4.41895H28.1797V6.01895H29.7797V4.41895Z" fill="#00AEEF"/>
<path d="M29.7797 4.41895H28.1797V6.01895H29.7797V4.41895Z" stroke="white" stroke-width="0.21" stroke-miterlimit="10"/>
<path d="M26.5805 4.41895H24.9805V6.01895H26.5805V4.41895Z" fill="#00AEEF"/>
<path d="M26.5805 4.41895H24.9805V6.01895H26.5805V4.41895Z" stroke="white" stroke-width="0.21" stroke-miterlimit="10"/>
<path d="M31.37 12.229V9.22899H36.17V1.21899H21.79V9.21899H26.36L31.37 12.229ZM23.37 2.81899H34.57V7.61899H29.78V9.39899L26.78 7.61899H23.38L23.37 2.81899Z" fill="#00AEEF"/>
<path d="M31.37 12.229V9.22899H36.17V1.21899H21.79V9.21899H26.36L31.37 12.229ZM23.37 2.81899H34.57V7.61899H29.78V9.39899L26.78 7.61899H23.38L23.37 2.81899Z" stroke="white" stroke-width="0.21" stroke-miterlimit="10"/>
<path d="M22.5902 17.209H20.9902V18.809H22.5902V17.209Z" fill="#00AEEF"/>
<path d="M22.5902 17.209H20.9902V18.809H22.5902V17.209Z" stroke="white" stroke-width="0.21" stroke-miterlimit="10"/>
<path d="M25.7797 17.209H24.1797V18.809H25.7797V17.209Z" fill="#00AEEF"/>
<path d="M25.7797 17.209H24.1797V18.809H25.7797V17.209Z" stroke="white" stroke-width="0.21" stroke-miterlimit="10"/>
<path d="M22.58 24.299L26.02 21.999H29.02V13.999H17.79V21.999H22.58V24.299ZM19.39 20.399V15.609H27.39V20.399H25.54L24.18 21.309V20.399H19.39Z" fill="#00AEEF"/>
<path d="M22.58 24.299L26.02 21.999H29.02V13.999H17.79V21.999H22.58V24.299ZM19.39 20.399V15.609H27.39V20.399H25.54L24.18 21.309V20.399H19.39Z" stroke="white" stroke-width="0.21" stroke-miterlimit="10"/>
</svg>
