<svg width="51" height="51" viewBox="0 0 51 51" fill="none" xmlns="http://www.w3.org/2000/svg">
<path d="M48.96 23.3815V3.4015C48.9625 2.88888 48.8001 2.38906 48.4968 1.97581C48.1934 1.56256 47.7653 1.25779 47.2755 1.10648C46.7857 0.955175 46.2603 0.965355 45.7767 1.13552C45.2931 1.30568 44.8771 1.62681 44.59 2.0515C43.5252 3.62222 42.6807 5.33145 42.08 7.1315C38.4228 3.92016 33.8971 1.86285 29.0729 1.21867C24.2487 0.574493 19.3417 1.37226 14.97 3.5115C14.77 3.2815 14.57 3.0515 14.36 2.8415L13.08 1.5615L12.9 4.6215C10.639 5.99617 8.61322 7.72482 6.90003 9.7415L6.51003 1.5615L5.23003 2.8415C3.886 4.17994 2.82026 5.77123 2.09426 7.52359C1.36825 9.27595 0.996362 11.1547 1.00003 13.0515V14.5315C1.01858 16.1847 1.32307 17.8222 1.90003 19.3715C0.878048 23.1626 0.771224 27.1423 1.58835 30.9828C2.40548 34.8233 4.12319 38.4148 6.60003 41.4615V47.3615C6.5757 47.7961 6.6403 48.2311 6.78988 48.6399C6.93945 49.0487 7.17085 49.4226 7.46992 49.7389C7.769 50.0552 8.12945 50.3071 8.52924 50.4793C8.92903 50.6515 9.35974 50.7403 9.79503 50.7403C10.2303 50.7403 10.661 50.6515 11.0608 50.4793C11.4606 50.3071 11.8211 50.0552 12.1201 49.7389C12.4192 49.4226 12.6506 49.0487 12.8002 48.6399C12.9497 48.2311 13.0144 47.7961 12.99 47.3615V46.9915C17.5771 49.7671 22.9424 50.9755 28.2765 50.4343C33.6106 49.8932 38.6239 47.6318 42.56 43.9915V47.3615C42.56 48.2102 42.8972 49.0241 43.4973 49.6242C44.0974 50.2244 44.9113 50.5615 45.76 50.5615C46.6087 50.5615 47.4227 50.2244 48.0228 49.6242C48.6229 49.0241 48.96 48.2102 48.96 47.3615V28.0315C49.4251 27.8655 49.828 27.5607 50.1142 27.1583C50.4003 26.7559 50.556 26.2753 50.56 25.7815V23.3815H48.96ZM45.9 2.9515C45.971 2.84402 46.0676 2.7558 46.181 2.69473C46.2944 2.63366 46.4212 2.60162 46.55 2.6015C46.7622 2.6015 46.9657 2.68578 47.1157 2.83581C47.2657 2.98584 47.35 3.18932 47.35 3.4015V23.4015H43.9C42.9016 20.3065 42.4482 17.0616 42.56 13.8115C42.5791 9.94149 43.741 6.16336 45.9 2.9515ZM25.78 2.6015C31.6486 2.58637 37.3011 4.81514 41.58 8.8315C41.2552 10.1427 41.0576 11.4823 40.99 12.8315C38.1753 9.5311 34.3639 7.23524 30.1305 6.29008C25.8971 5.34491 21.4712 5.80167 17.52 7.5915C17.1156 6.6074 16.6024 5.67159 15.99 4.8015C19.0526 3.35939 22.3949 2.60832 25.78 2.6015ZM7.08003 12.0915C8.66719 9.93297 10.6159 8.06541 12.84 6.5715L12.64 10.7415C10.5269 12.5883 8.82372 14.8569 7.64003 17.4015C7.39156 17.0295 7.2466 16.5981 7.22003 16.1515L7.02003 12.0515L7.08003 12.0915ZM12.52 13.0915L12.37 16.1815C12.3269 16.8341 12.0376 17.4461 11.5604 17.8935C11.0833 18.3409 10.4541 18.5904 9.80003 18.5915C9.4928 18.5933 9.18782 18.539 8.90003 18.4315C9.77524 16.4463 10.9901 14.6291 12.49 13.0615L12.52 13.0915ZM2.57003 13.0615C2.5693 10.3151 3.45679 7.64208 5.10003 5.4415L5.62003 16.2415C5.6725 17.3134 6.13527 18.3241 6.91249 19.0642C7.6897 19.8043 8.72181 20.2171 9.79503 20.2171C10.8682 20.2171 11.9004 19.8043 12.6776 19.0642C13.4548 18.3241 13.9176 17.3134 13.97 16.2415L14.49 5.5715H14.55C16.1409 7.75567 16.9954 10.3894 16.99 13.0915V14.5715C16.9938 17.8692 15.7217 21.0405 13.44 23.4215H6.15003C3.85876 21.0306 2.5859 17.843 2.60003 14.5315L2.57003 13.0615ZM18.57 14.5415V14.1915L18.64 14.2415C19.7094 12.7612 21.2138 11.6512 22.9436 11.0661C24.6735 10.4809 26.5427 10.4497 28.2911 10.9767C30.0396 11.5038 31.5802 12.5629 32.6984 14.0066C33.8166 15.4504 34.4569 17.2068 34.53 19.0315V19.4315L34.86 19.6515C36.1089 20.4876 37.1616 21.5846 37.9454 22.867C38.7292 24.1494 39.2255 25.5865 39.3999 27.0793C39.5744 28.572 39.423 30.0849 38.956 31.5134C38.4891 32.942 37.7178 34.2523 36.6953 35.3538C35.6729 36.4553 34.4236 37.322 33.0338 37.8939C31.6439 38.4658 30.1465 38.7293 28.6449 38.6663C27.1433 38.6034 25.6732 38.2154 24.3361 37.5292C22.999 36.8429 21.8267 35.8748 20.9 34.6915L20.59 34.3115L20.11 34.4115C18.8072 34.692 17.4521 34.606 16.1953 34.1629C14.9384 33.7198 13.8289 32.937 12.99 31.9015V28.0315C13.4567 27.868 13.8612 27.5639 14.1478 27.1609C14.4343 26.7579 14.5889 26.276 14.59 25.7815V24.4915C17.1693 21.8028 18.6035 18.2173 18.59 14.4915L18.57 14.5415ZM6.60003 38.7715C3.20927 33.7993 1.90248 27.6962 2.96003 21.7715C3.52127 22.7512 4.19226 23.6637 4.96003 24.4915V25.7815C4.9612 26.276 5.11571 26.7579 5.40228 27.1609C5.68884 27.5639 6.09334 27.868 6.56003 28.0315L6.60003 38.7715ZM11.39 47.3615C11.4075 47.5816 11.3792 47.8029 11.3069 48.0115C11.2347 48.2201 11.12 48.4115 10.9702 48.5737C10.8204 48.7358 10.6387 48.8652 10.4364 48.9537C10.2342 49.0422 10.0158 49.0879 9.79503 49.0879C9.57426 49.0879 9.35588 49.0422 9.15363 48.9537C8.95138 48.8652 8.76963 48.7358 8.61982 48.5737C8.47001 48.4115 8.35537 48.2201 8.28313 48.0115C8.21088 47.8029 8.18259 47.5816 8.20003 47.3615V28.1815H11.39V47.3615ZM12.19 26.5815H7.40003C7.29497 26.5815 7.19094 26.5608 7.09388 26.5206C6.99682 26.4804 6.90863 26.4215 6.83434 26.3472C6.76005 26.2729 6.70113 26.1847 6.66092 26.0876C6.62072 25.9906 6.60003 25.8866 6.60003 25.7815V24.9815H12.99V25.7815C12.99 25.8866 12.9693 25.9906 12.9291 26.0876C12.8889 26.1847 12.83 26.2729 12.7557 26.3472C12.6814 26.4215 12.5932 26.4804 12.4962 26.5206C12.3991 26.5608 12.2951 26.5815 12.19 26.5815ZM42.56 41.7515C38.8124 45.6981 33.7941 48.1981 28.3865 48.8126C22.9788 49.4271 17.5276 48.1167 12.99 45.1115V41.1115C15.1637 42.9179 17.6956 44.2431 20.4187 44.9998C23.1419 45.7564 25.9945 45.9273 28.7885 45.5011C31.5825 45.075 34.2544 44.0615 36.6282 42.5275C39.002 40.9935 41.0237 38.9738 42.56 36.6015V41.7515ZM42.56 33.3615C41.3454 36.0496 39.5019 38.406 37.1853 40.232C34.8686 42.058 32.1467 43.2999 29.2492 43.8529C26.3517 44.4059 23.3638 44.2538 20.5374 43.4095C17.7111 42.5651 15.1293 41.0533 13.01 39.0015V34.1415C13.9715 34.9438 15.0939 35.5304 16.3015 35.8616C17.5092 36.1928 18.7738 36.261 20.01 36.0615C21.1095 37.3545 22.4708 38.3996 24.004 39.1277C25.5373 39.8558 27.2075 40.2504 28.9044 40.2854C30.6014 40.3204 32.2865 39.995 33.8484 39.3307C35.4103 38.6664 36.8135 37.6783 37.9654 36.4317C39.1173 35.1851 39.9916 33.7083 40.5306 32.0989C41.0696 30.4894 41.2611 28.7839 41.0924 27.095C40.9236 25.4061 40.3985 23.7722 39.5518 22.3012C38.705 20.8302 37.5558 19.5556 36.18 18.5615C36.0301 16.5942 35.3209 14.7108 34.1361 13.1331C32.9514 11.5554 31.3403 10.3493 29.4929 9.65674C27.6454 8.9642 25.6385 8.81415 23.7086 9.22426C21.7787 9.63437 20.0062 10.5876 18.6 11.9715C18.5253 11.0044 18.3579 10.0466 18.1 9.1115C22.0643 7.26042 26.559 6.88498 30.7754 8.05273C34.9917 9.22049 38.6529 11.8548 41.1 15.4815C41.1331 18.1584 41.5403 20.8175 42.31 23.3815H40.96V25.7815C40.9641 26.2753 41.1197 26.7559 41.4059 27.1583C41.6921 27.5607 42.095 27.8655 42.56 28.0315V33.3615ZM47.36 47.3615C47.36 47.7858 47.1915 48.1928 46.8914 48.4929C46.5913 48.7929 46.1844 48.9615 45.76 48.9615C45.3357 48.9615 44.9287 48.7929 44.6287 48.4929C44.3286 48.1928 44.16 47.7858 44.16 47.3615V28.1815H47.36V47.3615ZM48.96 25.7815C48.96 25.9937 48.8757 26.1972 48.7257 26.3472C48.5757 26.4972 48.3722 26.5815 48.16 26.5815H43.36C43.1479 26.5815 42.9444 26.4972 42.7943 26.3472C42.6443 26.1972 42.56 25.9937 42.56 25.7815V24.9815H48.96V25.7815Z" fill="#00AEEF"/>
<path d="M48.96 23.3815V3.4015C48.9625 2.88888 48.8001 2.38906 48.4968 1.97581C48.1934 1.56256 47.7653 1.25779 47.2755 1.10648C46.7857 0.955175 46.2603 0.965355 45.7767 1.13552C45.2931 1.30568 44.8771 1.62681 44.59 2.0515C43.5252 3.62222 42.6807 5.33145 42.08 7.1315C38.4228 3.92016 33.8971 1.86285 29.0729 1.21867C24.2487 0.574493 19.3417 1.37226 14.97 3.5115C14.77 3.2815 14.57 3.0515 14.36 2.8415L13.08 1.5615L12.9 4.6215C10.639 5.99617 8.61322 7.72482 6.90003 9.7415L6.51003 1.5615L5.23003 2.8415C3.886 4.17994 2.82026 5.77123 2.09426 7.52359C1.36825 9.27595 0.996362 11.1547 1.00003 13.0515V14.5315C1.01858 16.1847 1.32307 17.8222 1.90003 19.3715V19.3715C0.878048 23.1626 0.771224 27.1423 1.58835 30.9828C2.40548 34.8233 4.12319 38.4148 6.60003 41.4615V47.3615C6.5757 47.7961 6.6403 48.2311 6.78988 48.6399C6.93945 49.0487 7.17085 49.4226 7.46992 49.7389C7.769 50.0552 8.12945 50.3071 8.52924 50.4793C8.92903 50.6515 9.35974 50.7403 9.79503 50.7403C10.2303 50.7403 10.661 50.6515 11.0608 50.4793C11.4606 50.3071 11.8211 50.0552 12.1201 49.7389C12.4192 49.4226 12.6506 49.0487 12.8002 48.6399C12.9497 48.2311 13.0144 47.7961 12.99 47.3615V46.9915C17.5771 49.7671 22.9424 50.9755 28.2765 50.4343C33.6106 49.8932 38.6239 47.6318 42.56 43.9915V47.3615C42.56 48.2102 42.8972 49.0241 43.4973 49.6242C44.0974 50.2244 44.9113 50.5615 45.76 50.5615C46.6087 50.5615 47.4227 50.2244 48.0228 49.6242C48.6229 49.0241 48.96 48.2102 48.96 47.3615V28.0315C49.4251 27.8655 49.828 27.5607 50.1142 27.1583C50.4003 26.7559 50.556 26.2753 50.56 25.7815V23.3815H48.96ZM45.9 2.9515C45.971 2.84402 46.0676 2.7558 46.181 2.69473C46.2944 2.63366 46.4212 2.60162 46.55 2.6015C46.7622 2.6015 46.9657 2.68578 47.1157 2.83581C47.2657 2.98584 47.35 3.18932 47.35 3.4015V23.4015H43.9C42.9016 20.3065 42.4482 17.0616 42.56 13.8115C42.5791 9.94149 43.741 6.16336 45.9 2.9515V2.9515ZM25.78 2.6015C31.6486 2.58637 37.3011 4.81514 41.58 8.8315C41.2552 10.1427 41.0576 11.4823 40.99 12.8315C38.1753 9.5311 34.3639 7.23524 30.1305 6.29008C25.8971 5.34491 21.4712 5.80167 17.52 7.5915C17.1156 6.6074 16.6024 5.67159 15.99 4.8015C19.0526 3.35939 22.3949 2.60832 25.78 2.6015V2.6015ZM7.08003 12.0915C8.66719 9.93297 10.6159 8.06541 12.84 6.5715L12.64 10.7415C10.5269 12.5883 8.82372 14.8569 7.64003 17.4015C7.39156 17.0295 7.2466 16.5981 7.22003 16.1515L7.02003 12.0515L7.08003 12.0915ZM12.52 13.0915L12.37 16.1815C12.3269 16.8341 12.0376 17.4461 11.5604 17.8935C11.0833 18.3409 10.4541 18.5904 9.80003 18.5915C9.4928 18.5933 9.18782 18.539 8.90003 18.4315C9.78429 16.4441 11.0094 14.6267 12.52 13.0615V13.0915ZM2.60003 13.0915C2.58414 10.3382 3.46133 7.65404 5.10003 5.4415L5.62003 16.2415C5.6725 17.3134 6.13527 18.3241 6.91249 19.0642C7.6897 19.8043 8.72181 20.2171 9.79503 20.2171C10.8682 20.2171 11.9004 19.8043 12.6776 19.0642C13.4548 18.3241 13.9175 17.3134 13.97 16.2415L14.49 5.5715H14.55C16.1409 7.75567 16.9954 10.3894 16.99 13.0915V14.5715C16.9938 17.8692 15.7217 21.0405 13.44 23.4215H6.15003C3.85876 21.0306 2.5859 17.843 2.60003 14.5315V13.0915ZM18.6 14.5715V14.2215L18.67 14.2715C19.7394 12.7912 21.2438 11.6812 22.9736 11.0961C24.7035 10.5109 26.5727 10.4797 28.3211 11.0067C30.0696 11.5338 31.6102 12.5929 32.7284 14.0366C33.8466 15.4804 34.4869 17.2368 34.56 19.0615V19.4615L34.89 19.6815C36.138 20.5198 37.1891 21.6189 37.9709 22.903C38.7527 24.187 39.2465 25.6254 39.4183 27.1189C39.5901 28.6124 39.4358 30.1254 38.9659 31.5534C38.4961 32.9815 37.7219 34.2905 36.6969 35.3903C35.6719 36.49 34.4205 37.3542 33.029 37.9232C31.6375 38.4922 30.1391 38.7525 28.6372 38.6861C27.1354 38.6196 25.6658 38.2281 24.33 37.5384C22.9942 36.8488 21.8239 35.8774 20.9 34.6915L20.59 34.3115L20.11 34.4115C18.8072 34.692 17.4521 34.606 16.1953 34.1629C14.9384 33.7198 13.8289 32.937 12.99 31.9015V28.0315C13.4567 27.8681 13.8612 27.5639 14.1478 27.1609C14.4343 26.7579 14.5889 26.276 14.59 25.7815V24.4915C17.1597 21.8127 18.5932 18.2435 18.59 14.5315L18.6 14.5715ZM6.60003 38.7715C3.20927 33.7993 1.90248 27.6962 2.96003 21.7715C3.52127 22.7512 4.19226 23.6637 4.96003 24.4915V25.7815C4.9612 26.276 5.11571 26.7579 5.40228 27.1609C5.68884 27.5639 6.09334 27.8681 6.56003 28.0315L6.60003 38.7715ZM11.39 47.3615C11.4075 47.5816 11.3792 47.8029 11.3069 48.0115C11.2347 48.2201 11.12 48.4115 10.9702 48.5737C10.8204 48.7358 10.6387 48.8652 10.4364 48.9537C10.2342 49.0422 10.0158 49.0879 9.79503 49.0879C9.57426 49.0879 9.35588 49.0422 9.15363 48.9537C8.95138 48.8652 8.76963 48.7358 8.61982 48.5737C8.47001 48.4115 8.35537 48.2201 8.28313 48.0115C8.21088 47.8029 8.18259 47.5816 8.20003 47.3615V28.1815H11.39V47.3615ZM12.19 26.5815H7.40003C7.29497 26.5815 7.19094 26.5608 7.09388 26.5206C6.99682 26.4804 6.90863 26.4215 6.83434 26.3472C6.76005 26.2729 6.70113 26.1847 6.66092 26.0876C6.62072 25.9906 6.60003 25.8866 6.60003 25.7815V24.9815H12.99V25.7815C12.99 25.8866 12.9693 25.9906 12.9291 26.0876C12.8889 26.1847 12.83 26.2729 12.7557 26.3472C12.6814 26.4215 12.5932 26.4804 12.4962 26.5206C12.3991 26.5608 12.2951 26.5815 12.19 26.5815V26.5815ZM42.56 41.7515C38.8124 45.6981 33.7941 48.1981 28.3865 48.8126C22.9788 49.4271 17.5276 48.1167 12.99 45.1115V41.1115C15.1637 42.9179 17.6956 44.2431 20.4187 44.9998C23.1419 45.7564 25.9945 45.9273 28.7885 45.5011C31.5825 45.075 34.2544 44.0615 36.6282 42.5275C39.002 40.9935 41.0237 38.9738 42.56 36.6015V41.7515ZM42.56 33.3615C41.3454 36.0496 39.5019 38.406 37.1853 40.232C34.8686 42.058 32.1467 43.2999 29.2492 43.8529C26.3517 44.4059 23.3638 44.2538 20.5374 43.4095C17.7111 42.5651 15.1293 41.0533 13.01 39.0015V34.1415C13.9715 34.9438 15.0939 35.5304 16.3015 35.8616C17.5092 36.1928 18.7738 36.261 20.01 36.0615C21.1095 37.3545 22.4708 38.3996 24.004 39.1277C25.5373 39.8558 27.2075 40.2504 28.9044 40.2854C30.6014 40.3204 32.2865 39.995 33.8484 39.3307C35.4103 38.6664 36.8135 37.6783 37.9654 36.4317C39.1173 35.1851 39.9916 33.7083 40.5306 32.0989C41.0696 30.4894 41.2611 28.7839 41.0924 27.095C40.9236 25.4061 40.3985 23.7722 39.5518 22.3012C38.705 20.8302 37.5558 19.5556 36.18 18.5615C36.0301 16.5942 35.3209 14.7108 34.1361 13.1331C32.9514 11.5554 31.3403 10.3493 29.4929 9.65674C27.6454 8.9642 25.6385 8.81415 23.7086 9.22426C21.7787 9.63437 20.0062 10.5876 18.6 11.9715C18.5253 11.0044 18.3579 10.0466 18.1 9.1115C22.0642 7.26042 26.559 6.88498 30.7754 8.05273C34.9917 9.22049 38.6529 11.8548 41.1 15.4815C41.1331 18.1584 41.5403 20.8175 42.31 23.3815H40.96V25.7815C40.9641 26.2753 41.1197 26.7559 41.4059 27.1583C41.6921 27.5607 42.0949 27.8655 42.56 28.0315V33.3615ZM47.36 47.3615C47.36 47.7858 47.1915 48.1928 46.8914 48.4929C46.5913 48.7929 46.1844 48.9615 45.76 48.9615C45.3357 48.9615 44.9287 48.7929 44.6287 48.4929C44.3286 48.1928 44.16 47.7858 44.16 47.3615V28.1815H47.36V47.3615ZM48.96 25.7815C48.96 25.9937 48.8757 26.1972 48.7257 26.3472C48.5757 26.4972 48.3722 26.5815 48.16 26.5815H43.36C43.1479 26.5815 42.9444 26.4972 42.7943 26.3472C42.6443 26.1972 42.56 25.9937 42.56 25.7815V24.9815H48.96V25.7815Z" stroke="white" stroke-width="0.21" stroke-miterlimit="10"/>
<path d="M25.7805 13.7914V12.1914C24.4954 12.1941 23.2343 12.5393 22.127 13.1914C21.0196 13.8435 20.1061 14.7789 19.4805 15.9014L20.8805 16.6714C21.3662 15.7973 22.0764 15.0687 22.9378 14.5606C23.7992 14.0526 24.7805 13.7836 25.7805 13.7814" fill="#00AEEF"/>
<path d="M25.7805 13.7914V12.1914C24.4954 12.1941 23.2343 12.5393 22.127 13.1914C21.0196 13.8435 20.1061 14.7789 19.4805 15.9014L20.8805 16.6714C21.3675 15.7992 22.0783 15.0725 22.9396 14.5663C23.8008 14.0601 24.7815 13.7926 25.7805 13.7914V13.7914Z" stroke="white" stroke-width="0.21" stroke-miterlimit="10"/>
<path d="M20.3599 17.9916L18.8099 17.5916C18.6611 18.1799 18.5872 18.7847 18.5899 19.3916H20.1799C20.1837 18.9194 20.2441 18.4493 20.3599 17.9916Z" fill="#00AEEF"/>
<path d="M20.3599 17.9916L18.8099 17.5916C18.6611 18.1799 18.5872 18.7847 18.5899 19.3916H20.1799C20.1837 18.9194 20.2441 18.4493 20.3599 17.9916V17.9916Z" stroke="white" stroke-width="0.21" stroke-miterlimit="10"/>
<path d="M22.5801 28.1815C22.5801 29.4473 22.9554 30.6847 23.6587 31.7371C24.3619 32.7896 25.3615 33.6099 26.5309 34.0943C27.7004 34.5787 28.9872 34.7055 30.2287 34.4585C31.4701 34.2116 32.6105 33.602 33.5056 32.707C34.4006 31.8119 35.0102 30.6716 35.2571 29.4301C35.504 28.1886 35.3773 26.9018 34.8929 25.7323C34.4085 24.5629 33.5882 23.5633 32.5357 22.8601C31.4833 22.1568 30.2459 21.7815 28.9801 21.7815C27.2827 21.7815 25.6548 22.4558 24.4546 23.656C23.2544 24.8562 22.5801 26.4841 22.5801 28.1815ZM28.9801 23.3815C29.9294 23.3815 30.8575 23.663 31.6468 24.1904C32.4362 24.7179 33.0514 25.4675 33.4147 26.3446C33.778 27.2217 33.8731 28.1868 33.6878 29.1179C33.5026 30.049 33.0455 30.9043 32.3742 31.5756C31.7029 32.2469 30.8476 32.7041 29.9165 32.8893C28.9854 33.0745 28.0203 32.9794 27.1432 32.6161C26.2661 32.2528 25.5165 31.6376 24.989 30.8482C24.4616 30.0589 24.1801 29.1308 24.1801 28.1815C24.1801 26.9085 24.6858 25.6876 25.586 24.7874C26.4861 23.8872 27.707 23.3815 28.9801 23.3815Z" fill="#00AEEF"/>
<path d="M22.5801 28.1815C22.5801 29.4473 22.9554 30.6847 23.6587 31.7371C24.3619 32.7896 25.3615 33.6099 26.5309 34.0943C27.7004 34.5787 28.9872 34.7055 30.2287 34.4585C31.4701 34.2116 32.6105 33.602 33.5056 32.707C34.4006 31.8119 35.0102 30.6716 35.2571 29.4301C35.504 28.1886 35.3773 26.9018 34.8929 25.7323C34.4085 24.5629 33.5882 23.5633 32.5357 22.8601C31.4833 22.1568 30.2459 21.7815 28.9801 21.7815C27.2827 21.7815 25.6548 22.4558 24.4546 23.656C23.2544 24.8562 22.5801 26.4841 22.5801 28.1815ZM28.9801 23.3815C29.9294 23.3815 30.8575 23.663 31.6468 24.1904C32.4362 24.7179 33.0514 25.4675 33.4147 26.3446C33.778 27.2217 33.8731 28.1868 33.6878 29.1179C33.5026 30.049 33.0455 30.9043 32.3742 31.5756C31.7029 32.2469 30.8476 32.7041 29.9165 32.8893C28.9854 33.0745 28.0203 32.9794 27.1432 32.6161C26.2661 32.2528 25.5165 31.6376 24.989 30.8482C24.4616 30.0589 24.1801 29.1308 24.1801 28.1815C24.1801 26.9085 24.6858 25.6876 25.586 24.7874C26.4861 23.8872 27.707 23.3815 28.9801 23.3815V23.3815Z" stroke="white" stroke-width="0.21" stroke-miterlimit="10"/>
</svg>
