<svg width="51" height="51" viewBox="0 0 51 51" fill="none" xmlns="http://www.w3.org/2000/svg">
<path d="M44.1595 15.3901V13.7901C40.6511 13.7823 37.2049 12.8622 34.1595 11.1201L30.5595 9.07007L29.7695 10.4501L33.3595 12.5101C36.6663 14.3922 40.4047 15.3845 44.2095 15.3901" fill="#00AEEF"/>
<path d="M44.1595 15.3901V13.7901C40.6511 13.7823 37.2049 12.8622 34.1595 11.1201L30.5595 9.07007L29.7695 10.4501L33.3595 12.5101C36.6516 14.3838 40.3716 15.3758 44.1595 15.3901V15.3901Z" stroke="white" stroke-width="0.21" stroke-miterlimit="10"/>
<path d="M27.7793 7.49705L26.9863 8.88672L28.4455 9.71934L29.2385 8.32967L27.7793 7.49705Z" fill="#00AEEF"/>
<path d="M27.7793 7.49705L26.9863 8.88672L28.4455 9.71934L29.2385 8.32967L27.7793 7.49705Z" stroke="white" stroke-width="0.21" stroke-miterlimit="10"/>
<path d="M24.5802 8.9L23.7902 7.5L17.4502 11.12C14.4048 12.8621 10.9587 13.7822 7.4502 13.79V15.39C11.2551 15.3844 14.9934 14.3921 18.3002 12.51L24.5802 8.9Z" fill="#00AEEF"/>
<path d="M24.5802 8.9L23.7902 7.5L17.4502 11.12C14.4048 12.8621 10.9587 13.7822 7.4502 13.79V15.39C11.2551 15.3844 14.9934 14.3921 18.3002 12.51L24.5802 8.9Z" stroke="white" stroke-width="0.21" stroke-miterlimit="10"/>
<path d="M28.98 1.00001H22.58C16.8591 1.00795 11.3747 3.2841 7.3294 7.32941C3.28409 11.3747 1.00794 16.8591 1 22.58V50.58H2.6V22.58C2.6 17.2757 4.70714 12.1886 8.45786 8.43787C12.2086 4.68715 17.2957 2.58001 22.6 2.58001H29C34.3043 2.58001 39.3914 4.68715 43.1421 8.43787C46.8929 12.1886 49 17.2757 49 22.58V50.58H50.6V22.58C50.5974 19.7435 50.0361 16.9352 48.9481 14.3156C47.8602 11.6959 46.267 9.31625 44.2594 7.31236C42.2518 5.30847 39.8691 3.71963 37.2475 2.63656C34.6258 1.55348 31.8166 0.997382 28.98 1.00001Z" fill="#00AEEF"/>
<path d="M28.98 1.00001H22.58C16.8591 1.00795 11.3747 3.2841 7.3294 7.32941C3.28409 11.3747 1.00794 16.8591 1 22.58V50.58H2.6V22.58C2.6 17.2757 4.70714 12.1886 8.45786 8.43787C12.2086 4.68715 17.2957 2.58001 22.6 2.58001H29C34.3043 2.58001 39.3914 4.68715 43.1421 8.43787C46.8929 12.1886 49 17.2757 49 22.58V50.58H50.6V22.58C50.5974 19.7435 50.0361 16.9352 48.9481 14.3156C47.8602 11.6959 46.267 9.31625 44.2594 7.31236C42.2518 5.30847 39.8691 3.71963 37.2475 2.63656C34.6258 1.55348 31.8166 0.997382 28.98 1.00001V1.00001Z" stroke="white" stroke-width="0.21" stroke-miterlimit="10"/>
<path d="M44.1601 21.07V17.79H43.3601C39.3086 17.7887 35.3275 16.7305 31.8101 14.72L25.8101 11.27L19.8101 14.72C16.2745 16.7394 12.2717 17.7978 8.20009 17.79H7.40009V21.07C6.20308 21.3913 5.15268 22.1139 4.42457 23.1168C3.69647 24.1198 3.33481 25.3424 3.40009 26.58C3.33668 27.8173 3.69907 29.0389 4.42689 30.0415C5.15471 31.0441 6.20403 31.7671 7.40009 32.09V39.36H9.00009V38.06C9.95825 40.1974 11.3159 42.1321 13.0001 43.76V50.56H14.6001V45.14C16.2796 46.4356 18.1709 47.4303 20.1901 48.08V50.56H21.7901V48.56C24.423 49.1601 27.1572 49.1601 29.7901 48.56V50.56H31.3901V48.08C33.4102 47.4325 35.3019 46.4376 36.9801 45.14V50.56H38.5801V43.76C40.2643 42.1321 41.6219 40.1974 42.5801 38.06V47.36H44.1801V32.09C45.3762 31.7671 46.4255 31.0441 47.1533 30.0415C47.8811 29.0389 48.2435 27.8173 48.1801 26.58C48.2454 25.3424 47.8837 24.1198 47.1556 23.1168C46.4275 22.1139 45.3771 21.3913 44.1801 21.07H44.1601ZM7.40009 30.43C6.65116 30.1151 6.01825 29.5758 5.58845 28.8863C5.15865 28.1968 4.9531 27.3911 5.00009 26.58C4.95246 25.7675 5.15762 24.9602 5.58737 24.269C6.01711 23.5779 6.65036 23.0367 7.40009 22.72V30.43ZM42.5601 30.57C42.5601 35.0204 40.7922 39.2884 37.6453 42.4353C34.4985 45.5821 30.2304 47.35 25.7801 47.35C21.3298 47.35 17.0617 45.5821 13.9148 42.4353C10.768 39.2884 9.00009 35.0204 9.00009 30.57V19.37C10.8994 19.3064 12.7851 19.0245 14.6201 18.53C13.0393 19.3093 11.8004 20.6427 11.1392 22.2764C10.478 23.9101 10.4408 25.7299 11.0347 27.3893C11.6285 29.0486 12.8119 30.4316 14.3595 31.2749C15.9071 32.1181 17.7107 32.3627 19.427 31.962C21.1433 31.5614 22.6522 30.5435 23.6665 29.1022C24.6808 27.6609 25.1296 25.8969 24.9274 24.1462C24.7252 22.3954 23.8861 20.7802 22.5699 19.6081C21.2538 18.436 19.5525 17.7889 17.7901 17.79C17.4243 17.7959 17.0597 17.8327 16.7001 17.9C18.0275 17.4189 19.3121 16.8268 20.5401 16.13L25.7801 13.13L31.0201 16.13C32.261 16.8289 33.559 17.421 34.9001 17.9C34.5399 17.8395 34.1753 17.8093 33.8101 17.81C32.0397 17.8071 30.3302 18.4557 29.0072 19.6322C27.6843 20.8086 26.8404 22.4307 26.6364 24.1893C26.4324 25.9478 26.8826 27.72 27.9011 29.1681C28.9196 30.6161 30.4353 31.6388 32.1593 32.0412C33.8834 32.4437 35.6952 32.1978 37.2496 31.3503C38.804 30.5029 39.9922 29.1132 40.5879 27.4461C41.1837 25.7789 41.1452 23.9509 40.4798 22.3103C39.8145 20.6697 38.5688 19.3313 36.9801 18.55C38.815 19.0445 40.7008 19.3264 42.6001 19.39L42.5601 30.57ZM21.3601 24.98C19.8615 25.6175 18.6092 26.7225 17.7901 28.13C16.9673 26.7218 15.7116 25.6169 14.2101 24.98C15.7074 24.3365 16.9612 23.2333 17.7901 21.83C18.6126 23.2348 19.8638 24.3389 21.3601 24.98ZM18.6501 19.46C19.7959 19.6412 20.8574 20.1732 21.6884 20.9827C22.5193 21.7921 23.0789 22.8393 23.2901 23.98C21.7901 23.57 19.1001 22.42 18.6501 19.46ZM23.2901 25.99C23.0771 27.1289 22.5167 28.1739 21.6858 28.9814C20.855 29.7889 19.7945 30.3194 18.6501 30.5C19.1001 27.5 21.7901 26.4 23.2901 25.99ZM16.9001 30.5C15.7549 30.3197 14.6942 29.7878 13.8646 28.978C13.0351 28.1682 12.4779 27.1205 12.2701 25.98C13.7701 26.39 16.4601 27.54 16.9001 30.5ZM12.2701 23.98C12.4806 22.8407 13.0388 21.7946 13.8678 20.9853C14.6968 20.1759 15.7561 19.6431 16.9001 19.46C16.4601 22.46 13.7701 23.56 12.2701 23.98ZM30.1801 24.98C31.6745 24.3359 32.9249 23.2326 33.7501 21.83C34.5762 23.2355 35.8309 24.3395 37.3301 24.98C35.8286 25.6169 34.5729 26.7218 33.7501 28.13C32.931 26.7225 31.6787 25.6175 30.1801 24.98ZM32.9001 30.5C31.7531 30.3216 30.6901 29.7906 29.8587 28.9806C29.0272 28.1706 28.4685 27.1219 28.2601 25.98C29.7601 26.39 32.4501 27.54 32.9001 30.5ZM28.2601 23.98C28.4713 22.8393 29.0308 21.7921 29.8618 20.9827C30.6928 20.1732 31.7543 19.6412 32.9001 19.46C32.4501 22.46 29.7601 23.56 28.2601 23.98ZM39.2601 25.98C39.0477 27.1175 38.4888 28.1614 37.6599 28.9688C36.831 29.7762 35.7727 30.3075 34.6301 30.49C35.0701 27.49 37.7701 26.39 39.2601 25.98ZM34.6301 19.45C35.7747 19.6317 36.8347 20.1641 37.664 20.9736C38.4932 21.7832 39.0509 22.8301 39.2601 23.97C37.7701 23.56 35.0701 22.41 34.6301 19.45ZM44.1501 30.45V22.75C44.9008 23.0625 45.5354 23.6013 45.9656 24.2913C46.3957 24.9814 46.6001 25.7884 46.5501 26.6C46.5971 27.4111 46.3915 28.2168 45.9617 28.9063C45.5319 29.5958 44.899 30.1351 44.1501 30.45Z" fill="#00AEEF"/>
<path d="M44.1601 21.07V17.79H43.3601C39.3086 17.7887 35.3275 16.7305 31.8101 14.72L25.8101 11.27L19.8101 14.72C16.2745 16.7394 12.2717 17.7978 8.20009 17.79H7.40009V21.07C6.20308 21.3913 5.15268 22.1139 4.42457 23.1168C3.69647 24.1198 3.33481 25.3424 3.40009 26.58C3.33668 27.8173 3.69907 29.0389 4.42689 30.0415C5.15471 31.0441 6.20403 31.7671 7.40009 32.09V39.36H9.00009V38.06C9.95825 40.1974 11.3159 42.1321 13.0001 43.76V50.56H14.6001V45.14C16.2796 46.4356 18.1709 47.4303 20.1901 48.08V50.56H21.7901V48.56C24.423 49.1601 27.1572 49.1601 29.7901 48.56V50.56H31.3901V48.08C33.4102 47.4325 35.3019 46.4376 36.9801 45.14V50.56H38.5801V43.76C40.2643 42.1321 41.6219 40.1974 42.5801 38.06V47.36H44.1801V32.09C45.3762 31.7671 46.4255 31.0441 47.1533 30.0415C47.8811 29.0389 48.2435 27.8173 48.1801 26.58C48.2443 25.3397 47.8798 24.115 47.1478 23.1117C46.4158 22.1084 45.3608 21.3875 44.1601 21.07V21.07ZM7.40009 30.43C6.65116 30.1151 6.01825 29.5758 5.58845 28.8863C5.15865 28.1968 4.9531 27.3911 5.00009 26.58C4.95246 25.7675 5.15762 24.9602 5.58737 24.269C6.01711 23.5779 6.65036 23.0367 7.40009 22.72V30.43ZM42.5601 30.57C42.5601 35.0204 40.7922 39.2884 37.6453 42.4353C34.4985 45.5821 30.2304 47.35 25.7801 47.35C21.3298 47.35 17.0617 45.5821 13.9148 42.4353C10.768 39.2884 9.00009 35.0204 9.00009 30.57V19.37C10.8994 19.3064 12.7851 19.0245 14.6201 18.53C13.0393 19.3093 11.8004 20.6427 11.1392 22.2764C10.478 23.9101 10.4408 25.7299 11.0347 27.3893C11.6285 29.0486 12.8119 30.4316 14.3595 31.2749C15.9071 32.1181 17.7107 32.3627 19.427 31.962C21.1433 31.5614 22.6522 30.5435 23.6665 29.1022C24.6808 27.6609 25.1296 25.8969 24.9274 24.1462C24.7252 22.3954 23.8861 20.7802 22.5699 19.6081C21.2538 18.436 19.5525 17.7889 17.7901 17.79C17.4243 17.7959 17.0597 17.8327 16.7001 17.9C18.0275 17.4189 19.3121 16.8268 20.5401 16.13L25.7801 13.13L31.0201 16.13C32.261 16.8289 33.559 17.421 34.9001 17.9C34.5399 17.8395 34.1753 17.8093 33.8101 17.81C32.0397 17.8071 30.3302 18.4557 29.0072 19.6322C27.6843 20.8086 26.8404 22.4307 26.6364 24.1893C26.4324 25.9478 26.8826 27.72 27.9011 29.1681C28.9196 30.6161 30.4353 31.6388 32.1593 32.0412C33.8834 32.4437 35.6952 32.1978 37.2496 31.3503C38.804 30.5029 39.9922 29.1132 40.5879 27.4461C41.1837 25.7789 41.1452 23.9509 40.4798 22.3103C39.8145 20.6697 38.5688 19.3313 36.9801 18.55C38.815 19.0445 40.7008 19.3264 42.6001 19.39L42.5601 30.57ZM21.3601 24.98C19.8615 25.6175 18.6092 26.7225 17.7901 28.13C16.9673 26.7218 15.7116 25.6169 14.2101 24.98C15.7074 24.3365 16.9612 23.2333 17.7901 21.83C18.6126 23.2348 19.8638 24.3389 21.3601 24.98V24.98ZM18.6501 19.46C19.7959 19.6412 20.8574 20.1732 21.6884 20.9827C22.5193 21.7921 23.0789 22.8393 23.2901 23.98C21.7901 23.57 19.1001 22.42 18.6501 19.46V19.46ZM23.2901 25.99C23.0771 27.1289 22.5167 28.1739 21.6858 28.9814C20.855 29.7889 19.7945 30.3194 18.6501 30.5C19.1001 27.55 21.7901 26.4 23.2901 25.99V25.99ZM16.9001 30.5C15.7549 30.3197 14.6942 29.7878 13.8646 28.978C13.0351 28.1682 12.4779 27.1205 12.2701 25.98C13.7901 26.39 16.4801 27.54 16.9001 30.5ZM12.2701 23.98C12.4806 22.8407 13.0388 21.7946 13.8678 20.9853C14.6968 20.1759 15.7561 19.6431 16.9001 19.46C16.4801 22.41 13.7901 23.56 12.2901 23.98H12.2701ZM30.1801 24.98C31.6745 24.3359 32.9249 23.2326 33.7501 21.83C34.5762 23.2355 35.8309 24.3395 37.3301 24.98C35.8286 25.6169 34.5729 26.7218 33.7501 28.13C32.9361 26.7257 31.6913 25.6211 30.2001 24.98H30.1801ZM32.9001 30.5C31.7531 30.3216 30.6901 29.7906 29.8587 28.9806C29.0272 28.1706 28.4685 27.1219 28.2601 25.98C29.7701 26.39 32.4601 27.54 32.9001 30.5ZM28.2601 23.98C28.4712 22.8393 29.0308 21.7921 29.8618 20.9827C30.6928 20.1732 31.7543 19.6412 32.9001 19.46C32.4601 22.41 29.7701 23.56 28.2701 23.98H28.2601ZM39.2601 25.98C39.0477 27.1175 38.4888 28.1614 37.6599 28.9688C36.831 29.7762 35.7727 30.3075 34.6301 30.49C35.0801 27.55 37.7801 26.4 39.2701 25.99L39.2601 25.98ZM34.6301 19.45C35.7747 19.6317 36.8347 20.1641 37.664 20.9736C38.4932 21.7832 39.0509 22.8301 39.2601 23.97C37.7801 23.57 35.0801 22.42 34.6401 19.46L34.6301 19.45ZM44.1501 30.45V22.75C44.9008 23.0625 45.5354 23.6013 45.9656 24.2913C46.3957 24.9814 46.6001 25.7884 46.5501 26.6C46.5936 27.4067 46.3876 28.2071 45.9599 28.8924C45.5323 29.5778 44.9038 30.1146 44.1601 30.43L44.1501 30.45Z" stroke="white" stroke-width="0.21" stroke-miterlimit="10"/>
<path d="M9.00039 40.96H7.40039V50.55H9.00039V40.96Z" fill="#00AEEF"/>
<path d="M9.00039 40.96H7.40039V50.55H9.00039V40.96Z" stroke="white" stroke-width="0.21" stroke-miterlimit="10"/>
<path d="M44.1596 48.96H42.5596V50.56H44.1596V48.96Z" fill="#00AEEF"/>
<path d="M44.1596 48.96H42.5596V50.56H44.1596V48.96Z" stroke="white" stroke-width="0.21" stroke-miterlimit="10"/>
</svg>
