<svg width="48" height="51" viewBox="0 0 48 51" fill="none" xmlns="http://www.w3.org/2000/svg">
<path d="M6.21047 41.9972C6.03503 41.8268 5.80007 41.7314 5.55547 41.7314C5.31087 41.7314 5.07591 41.8268 4.90047 41.9972C4.7434 42.1788 4.6609 42.4131 4.66957 42.653C4.67823 42.893 4.77743 43.1207 4.94719 43.2905C5.11696 43.4603 5.34471 43.5595 5.58465 43.5681C5.82458 43.5768 6.05889 43.4943 6.24047 43.3372C6.32936 43.2497 6.39996 43.1455 6.44815 43.0304C6.49633 42.9154 6.52115 42.7919 6.52115 42.6672C6.52115 42.5425 6.49633 42.419 6.44815 42.304C6.39996 42.189 6.32936 42.0847 6.24047 41.9972" fill="#00AEEF"/>
<path d="M6.21047 41.9972C6.03503 41.8268 5.80007 41.7314 5.55547 41.7314C5.31087 41.7314 5.07591 41.8268 4.90047 41.9972C4.7434 42.1788 4.6609 42.4131 4.66957 42.653C4.67823 42.893 4.77743 43.1207 4.94719 43.2905C5.11696 43.4603 5.34471 43.5595 5.58465 43.5681C5.82458 43.5768 6.05889 43.4943 6.24047 43.3372C6.32936 43.2497 6.39996 43.1455 6.44815 43.0304C6.49633 42.9154 6.52115 42.7919 6.52115 42.6672C6.52115 42.5425 6.49633 42.419 6.44815 42.304C6.39996 42.189 6.32936 42.0847 6.24047 41.9972H6.21047Z" stroke="white" stroke-width="0.2" stroke-miterlimit="10"/>
<path d="M41.9901 20.3773C42.4946 19.6867 42.7644 18.8526 42.7601 17.9973V17.2373C42.6407 16.2685 42.1712 15.3767 41.44 14.73C40.7087 14.0833 39.7662 13.7263 38.7901 13.7263C37.8139 13.7263 36.8714 14.0833 36.1401 14.73C35.4089 15.3767 34.9394 16.2685 34.8201 17.2373V17.9973C34.8242 18.8389 35.0936 19.6577 35.5901 20.3373C34.3513 20.6973 33.2344 21.3888 32.3601 22.3373V21.9973C32.3585 20.4733 31.8596 18.9914 30.9391 17.7767C30.0186 16.5621 28.7269 15.681 27.2601 15.2673C27.7529 14.5865 28.0189 13.7678 28.0201 12.9273V12.1673C27.8921 11.2064 27.4195 10.3246 26.6902 9.686C25.9609 9.04736 25.0245 8.69531 24.0551 8.69531C23.0857 8.69531 22.1492 9.04736 21.4199 9.686C20.6906 10.3246 20.218 11.2064 20.0901 12.1673V12.9273C20.1036 13.7768 20.3874 14.5999 20.9001 15.2773C19.4237 15.6795 18.1198 16.5544 17.1879 17.768C16.256 18.9816 15.7475 20.4672 15.7401 21.9973V22.3273C14.8711 21.3772 13.7569 20.6852 12.5201 20.3273C13.011 19.6493 13.2768 18.8344 13.2801 17.9973V17.2373C13.1521 16.2764 12.6795 15.3946 11.9502 14.756C11.2209 14.1174 10.2845 13.7653 9.31506 13.7653C8.34565 13.7653 7.40923 14.1174 6.67991 14.756C5.9506 15.3946 5.47802 16.2764 5.35006 17.2373V17.9973C5.35127 18.8378 5.61718 19.6565 6.11006 20.3373C4.63478 20.751 3.33597 21.6373 2.4129 22.8602C1.48984 24.0831 0.993506 25.5751 1.00006 27.1073V34.2873C1.00271 35.0388 1.30309 35.7586 1.83541 36.289C2.36773 36.8195 3.08858 37.1173 3.84006 37.1173H4.60006V39.1973C4.58644 39.3296 4.60073 39.4632 4.64202 39.5896C4.6833 39.716 4.75066 39.8323 4.83974 39.9311C4.92881 40.0298 5.03762 40.1087 5.15911 40.1627C5.28061 40.2168 5.4121 40.2447 5.54506 40.2447C5.67803 40.2447 5.80951 40.2168 5.93101 40.1627C6.05251 40.1087 6.16132 40.0298 6.25039 39.9311C6.33947 39.8323 6.40682 39.716 6.44811 39.5896C6.48939 39.4632 6.50369 39.3296 6.49006 39.1973V33.1073H12.1601V47.7073C12.136 47.9412 12.026 48.1578 11.8515 48.3153C11.6769 48.4728 11.4502 48.56 11.2151 48.56C10.98 48.56 10.7532 48.4728 10.5787 48.3153C10.4041 48.1578 10.2942 47.9412 10.2701 47.7073V38.4873C10.275 38.4441 10.275 38.4005 10.2701 38.3573V37.5073C10.246 37.2735 10.136 37.0568 9.96147 36.8993C9.78692 36.7418 9.56017 36.6547 9.32506 36.6547C9.08996 36.6547 8.86321 36.7418 8.68866 36.8993C8.51411 37.0568 8.40415 37.2735 8.38006 37.5073V47.7073C8.38006 47.9566 8.28103 48.1957 8.10474 48.372C7.92846 48.5483 7.68937 48.6473 7.44006 48.6473C7.19076 48.6473 6.95167 48.5483 6.77538 48.372C6.5991 48.1957 6.50006 47.9566 6.50006 47.7073V45.9073C6.51369 45.7751 6.49939 45.6414 6.45811 45.515C6.41682 45.3886 6.34947 45.2723 6.26039 45.1736C6.17132 45.0749 6.06251 44.9959 5.94101 44.9419C5.81951 44.8879 5.68803 44.86 5.55506 44.86C5.4221 44.86 5.29061 44.8879 5.16912 44.9419C5.04762 44.9959 4.93881 45.0749 4.84974 45.1736C4.76066 45.2723 4.6933 45.3886 4.65202 45.515C4.61073 45.6414 4.59644 45.7751 4.61006 45.9073V47.7073C4.60692 48.2554 4.76353 48.7925 5.06076 49.2529C5.358 49.7134 5.78296 50.0772 6.28369 50.3C6.78443 50.5228 7.33923 50.5948 7.88025 50.5073C8.42128 50.4198 8.92509 50.1766 9.33006 49.8073C9.73624 50.1753 10.2405 50.4174 10.7817 50.5042C11.3228 50.5911 11.8775 50.5189 12.3784 50.2965C12.8793 50.0741 13.3049 49.7111 13.6034 49.2514C13.9019 48.7918 14.0606 48.2554 14.0601 47.7073V37.1173H14.8101C15.1817 37.1173 15.5497 37.0441 15.8931 36.9019C16.2364 36.7597 16.5484 36.5512 16.8112 36.2884C17.074 36.0256 17.2824 35.7137 17.4246 35.3703C17.5669 35.027 17.6401 34.659 17.6401 34.2873V31.8573C17.9424 31.9622 18.26 32.0162 18.5801 32.0173H19.3501V42.6073C19.3469 43.1554 19.5035 43.6925 19.8008 44.1529C20.098 44.6134 20.523 44.9772 21.0237 45.2C21.5244 45.4228 22.0792 45.4949 22.6203 45.4073C23.1613 45.3198 23.6651 45.0766 24.0701 44.7073C24.475 45.0766 24.9788 45.3198 25.5199 45.4073C26.0609 45.4949 26.6157 45.4228 27.1164 45.2C27.6172 44.9772 28.0421 44.6134 28.3394 44.1529C28.6366 43.6925 28.7932 43.1554 28.7901 42.6073V31.9973H29.5401C29.8633 31.9955 30.1841 31.9415 30.4901 31.8373V34.2673C30.4901 34.639 30.5633 35.007 30.7055 35.3503C30.8477 35.6937 31.0562 36.0056 31.319 36.2684C31.5817 36.5312 31.8937 36.7397 32.2371 36.8819C32.5804 37.0241 32.9484 37.0973 33.3201 37.0973H34.0801V47.7073C34.0796 48.2554 34.2382 48.7918 34.5367 49.2514C34.8352 49.7111 35.2608 50.0741 35.7617 50.2965C36.2626 50.5189 36.8173 50.5911 37.3585 50.5042C37.8996 50.4174 38.4039 50.1753 38.8101 49.8073C39.215 50.1766 39.7188 50.4198 40.2599 50.5073C40.8009 50.5948 41.3557 50.5228 41.8564 50.3C42.3572 50.0772 42.7821 49.7134 43.0794 49.2529C43.3766 48.7925 43.5332 48.2554 43.5301 47.7073V44.8773C43.5437 44.7451 43.5294 44.6114 43.4881 44.485C43.4468 44.3586 43.3795 44.2423 43.2904 44.1436C43.2013 44.0449 43.0925 43.9659 42.971 43.9119C42.8495 43.8579 42.718 43.83 42.5851 43.83C42.4521 43.83 42.3206 43.8579 42.1991 43.9119C42.0776 43.9659 41.9688 44.0449 41.8797 44.1436C41.7907 44.2423 41.7233 44.3586 41.682 44.485C41.6407 44.6114 41.6264 44.7451 41.6401 44.8773V47.7073C41.6401 47.9566 41.541 48.1957 41.3647 48.372C41.1885 48.5483 40.9494 48.6473 40.7001 48.6473C40.4508 48.6473 40.2117 48.5483 40.0354 48.372C39.8591 48.1957 39.7601 47.9566 39.7601 47.7073V38.4873C39.7649 38.4441 39.7649 38.4005 39.7601 38.3573V37.5073C39.7601 37.258 39.661 37.0189 39.4847 36.8426C39.3085 36.6664 39.0694 36.5673 38.8201 36.5673C38.5708 36.5673 38.3317 36.6664 38.1554 36.8426C37.9791 37.0189 37.8801 37.258 37.8801 37.5073V47.7073C37.856 47.9412 37.746 48.1578 37.5715 48.3153C37.3969 48.4728 37.1702 48.56 36.9351 48.56C36.7 48.56 36.4732 48.4728 36.2987 48.3153C36.1241 48.1578 36.0142 47.9412 35.9901 47.7073V33.1073H41.6601V38.5373C41.6464 38.6696 41.6607 38.8032 41.702 38.9296C41.7433 39.056 41.8107 39.1723 41.8997 39.2711C41.9888 39.3698 42.0976 39.4487 42.2191 39.5027C42.3406 39.5568 42.4721 39.5847 42.6051 39.5847C42.738 39.5847 42.8695 39.5568 42.991 39.5027C43.1125 39.4487 43.2213 39.3698 43.3104 39.2711C43.3995 39.1723 43.4668 39.056 43.5081 38.9296C43.5494 38.8032 43.5637 38.6696 43.5501 38.5373V37.1173H44.3001C45.0506 37.1173 45.7704 36.8192 46.3012 36.2884C46.8319 35.7577 47.1301 35.0379 47.1301 34.2873V27.1073C47.1279 25.582 46.6275 24.0991 45.7051 22.8843C44.7827 21.6695 43.4887 20.7892 42.0201 20.3773H41.9901ZM7.24006 17.2773C7.27656 16.7519 7.51104 16.2599 7.89616 15.9006C8.28128 15.5413 8.78836 15.3415 9.31506 15.3415C9.84176 15.3415 10.3489 15.5413 10.734 15.9006C11.1191 16.2599 11.3536 16.7519 11.3901 17.2773V17.9973C11.4098 18.2819 11.3708 18.5676 11.2755 18.8365C11.1802 19.1053 11.0306 19.3518 10.836 19.5604C10.6413 19.769 10.4059 19.9353 10.1442 20.049C9.8826 20.1628 9.60036 20.2215 9.31506 20.2215C9.02977 20.2215 8.74753 20.1628 8.48589 20.049C8.22424 19.9353 7.98879 19.769 7.79418 19.5604C7.59956 19.3518 7.44994 19.1053 7.35461 18.8365C7.25928 18.5676 7.22029 18.2819 7.24006 17.9973V17.2773ZM15.7401 29.1873V34.2873C15.7258 34.532 15.6222 34.7628 15.4489 34.9361C15.2756 35.1094 15.0447 35.213 14.8001 35.2273H14.0501V27.4873C14.0637 27.3551 14.0494 27.2214 14.0081 27.095C13.9668 26.9686 13.8995 26.8523 13.8104 26.7536C13.7213 26.6549 13.6125 26.5759 13.491 26.5219C13.3695 26.4679 13.238 26.44 13.1051 26.44C12.9721 26.44 12.8406 26.4679 12.7191 26.5219C12.5976 26.5759 12.4888 26.6549 12.3997 26.7536C12.3107 26.8523 12.2433 26.9686 12.202 27.095C12.1607 27.2214 12.1464 27.3551 12.1601 27.4873V31.2173H6.49006V27.4873C6.50369 27.3551 6.48939 27.2214 6.44811 27.095C6.40682 26.9686 6.33947 26.8523 6.25039 26.7536C6.16132 26.6549 6.05251 26.5759 5.93101 26.5219C5.80951 26.4679 5.67803 26.44 5.54506 26.44C5.4121 26.44 5.28061 26.4679 5.15911 26.5219C5.03762 26.5759 4.92881 26.6549 4.83974 26.7536C4.75066 26.8523 4.6833 26.9686 4.64202 27.095C4.60073 27.2214 4.58644 27.3551 4.60006 27.4873V35.2273H3.84006C3.59076 35.2273 3.35167 35.1283 3.17538 34.952C2.9991 34.7757 2.90006 34.5366 2.90006 34.2873V27.1073C2.90005 25.7555 3.43568 24.4588 4.38967 23.5011C5.34366 22.5433 6.63828 22.0026 7.99006 21.9973H10.6401C11.9919 22 13.2875 22.5381 14.2434 23.494C15.1993 24.4499 15.7374 25.7455 15.7401 27.0973V29.1873ZM21.9701 12.1873C21.9701 11.6357 22.1892 11.1066 22.5793 10.7165C22.9694 10.3265 23.4984 10.1073 24.0501 10.1073C24.6017 10.1073 25.1308 10.3265 25.5208 10.7165C25.9109 11.1066 26.1301 11.6357 26.1301 12.1873V12.9473C26.1301 13.499 25.9109 14.028 25.5208 14.4181C25.1308 14.8082 24.6017 15.0273 24.0501 15.0273C23.4984 15.0273 22.9694 14.8082 22.5793 14.4181C22.1892 14.028 21.9701 13.499 21.9701 12.9473V12.1873ZM26.9001 42.6073C26.9001 42.7308 26.8758 42.853 26.8285 42.967C26.7813 43.0811 26.712 43.1847 26.6247 43.272C26.5375 43.3593 26.4338 43.4285 26.3198 43.4758C26.2057 43.523 26.0835 43.5473 25.9601 43.5473C25.8366 43.5473 25.7144 43.523 25.6003 43.4758C25.4863 43.4285 25.3827 43.3593 25.2954 43.272C25.2081 43.1847 25.1389 43.0811 25.0916 42.967C25.0444 42.853 25.0201 42.7308 25.0201 42.6073V33.3873C25.0201 33.3873 25.0201 33.2973 25.0201 33.2573V32.4073C24.996 32.1735 24.886 31.9568 24.7115 31.7993C24.5369 31.6418 24.3102 31.5547 24.0751 31.5547C23.84 31.5547 23.6132 31.6418 23.4387 31.7993C23.2641 31.9568 23.1542 32.1735 23.1301 32.4073V42.6073C23.106 42.8412 22.996 43.0578 22.8215 43.2153C22.6469 43.3728 22.4202 43.46 22.1851 43.46C21.95 43.46 21.7232 43.3728 21.5487 43.2153C21.3741 43.0578 21.2642 42.8412 21.2401 42.6073V27.9973H26.9001V42.6073ZM30.4901 27.1073V29.1873C30.4755 29.4336 30.3705 29.6658 30.1952 29.8393C30.0198 30.0128 29.7865 30.1154 29.5401 30.1273H28.7901V22.3873C28.8037 22.2551 28.7894 22.1214 28.7481 21.995C28.7068 21.8686 28.6395 21.7523 28.5504 21.6536C28.4613 21.5549 28.3525 21.4759 28.231 21.4219C28.1095 21.3679 27.978 21.34 27.8451 21.34C27.7121 21.34 27.5806 21.3679 27.4591 21.4219C27.3376 21.4759 27.2288 21.5549 27.1397 21.6536C27.0507 21.7523 26.9833 21.8686 26.942 21.995C26.9007 22.1214 26.8864 22.2551 26.9001 22.3873V26.1173H21.2201V22.3873C21.2201 22.2639 21.1958 22.1416 21.1485 22.0276C21.1013 21.9136 21.032 21.8099 20.9447 21.7226C20.8575 21.6354 20.7538 21.5661 20.6398 21.5189C20.5257 21.4716 20.4035 21.4473 20.2801 21.4473C20.1566 21.4473 20.0344 21.4716 19.9203 21.5189C19.8063 21.5661 19.7027 21.6354 19.6154 21.7226C19.5281 21.8099 19.4589 21.9136 19.4116 22.0276C19.3644 22.1416 19.3401 22.2639 19.3401 22.3873V30.1273H18.5701C18.3208 30.1273 18.0817 30.0283 17.9054 29.852C17.7291 29.6757 17.6301 29.4366 17.6301 29.1873V21.9973C17.6327 20.6455 18.1709 19.3499 19.1267 18.394C20.0826 17.4381 21.3783 16.9 22.7301 16.8973H25.3701C26.7236 16.8973 28.0218 17.4343 28.9798 18.3905C29.9379 19.3466 30.4774 20.6438 30.4801 21.9973L30.4901 27.1073ZM36.7201 17.2773C36.7201 16.7257 36.9392 16.1966 37.3293 15.8065C37.7194 15.4165 38.2484 15.1973 38.8001 15.1973C39.3517 15.1973 39.8808 15.4165 40.2708 15.8065C40.6609 16.1966 40.8801 16.7257 40.8801 17.2773V17.9973C40.8801 18.549 40.6609 19.078 40.2708 19.4681C39.8808 19.8582 39.3517 20.0773 38.8001 20.0773C38.2484 20.0773 37.7194 19.8582 37.3293 19.4681C36.9392 19.078 36.7201 18.549 36.7201 17.9973V17.2773ZM45.2201 34.2773C45.2201 34.5266 45.121 34.7657 44.9447 34.942C44.7685 35.1183 44.5294 35.2173 44.2801 35.2173H43.5301V27.4873C43.5437 27.3551 43.5294 27.2214 43.4881 27.095C43.4468 26.9686 43.3795 26.8523 43.2904 26.7536C43.2013 26.6549 43.0925 26.5759 42.971 26.5219C42.8495 26.4679 42.718 26.44 42.5851 26.44C42.4521 26.44 42.3206 26.4679 42.1991 26.5219C42.0776 26.5759 41.9688 26.6549 41.8797 26.7536C41.7907 26.8523 41.7233 26.9686 41.682 27.095C41.6407 27.2214 41.6264 27.3551 41.6401 27.4873V31.2173H35.9601V27.4873C35.9737 27.3551 35.9594 27.2214 35.9181 27.095C35.8768 26.9686 35.8095 26.8523 35.7204 26.7536C35.6313 26.6549 35.5225 26.5759 35.401 26.5219C35.2795 26.4679 35.148 26.44 35.0151 26.44C34.8821 26.44 34.7506 26.4679 34.6291 26.5219C34.5076 26.5759 34.3988 26.6549 34.3097 26.7536C34.2207 26.8523 34.1533 26.9686 34.112 27.095C34.0707 27.2214 34.0564 27.3551 34.0701 27.4873V35.2273H33.3101C33.0637 35.2154 32.8303 35.1128 32.655 34.9393C32.4796 34.7658 32.3746 34.5336 32.3601 34.2873V27.1073C32.3601 25.7521 32.8984 24.4523 33.8567 23.494C34.8151 22.5357 36.1148 21.9973 37.4701 21.9973H40.1101C41.4619 22 42.7575 22.5381 43.7134 23.494C44.6693 24.4499 45.2074 25.7455 45.2101 27.0973L45.2201 34.2773Z" fill="#00AEEF"/>
<path d="M41.9901 20.3773C42.4946 19.6867 42.7644 18.8526 42.7601 17.9973V17.2373C42.6407 16.2685 42.1712 15.3767 41.44 14.73C40.7087 14.0833 39.7662 13.7263 38.7901 13.7263C37.8139 13.7263 36.8714 14.0833 36.1401 14.73C35.4089 15.3767 34.9394 16.2685 34.8201 17.2373V17.9973C34.8242 18.8389 35.0936 19.6577 35.5901 20.3373C34.3513 20.6973 33.2344 21.3888 32.3601 22.3373V21.9973C32.3585 20.4733 31.8596 18.9914 30.9391 17.7767C30.0186 16.5621 28.7269 15.681 27.2601 15.2673C27.7529 14.5865 28.0189 13.7678 28.0201 12.9273V12.1673C27.8921 11.2064 27.4195 10.3246 26.6902 9.686C25.9609 9.04736 25.0245 8.69531 24.0551 8.69531C23.0857 8.69531 22.1492 9.04736 21.4199 9.686C20.6906 10.3246 20.218 11.2064 20.0901 12.1673V12.9273C20.1036 13.7768 20.3874 14.5999 20.9001 15.2773C19.4237 15.6795 18.1198 16.5544 17.1879 17.768C16.256 18.9816 15.7475 20.4672 15.7401 21.9973V22.3273C14.8711 21.3772 13.7569 20.6852 12.5201 20.3273C13.011 19.6493 13.2768 18.8344 13.2801 17.9973V17.2373C13.1521 16.2764 12.6795 15.3946 11.9502 14.756C11.2209 14.1174 10.2845 13.7653 9.31506 13.7653C8.34565 13.7653 7.40923 14.1174 6.67991 14.756C5.9506 15.3946 5.47802 16.2764 5.35006 17.2373V17.9973C5.35127 18.8378 5.61718 19.6565 6.11006 20.3373C4.63478 20.751 3.33597 21.6373 2.4129 22.8602C1.48984 24.0831 0.993506 25.5751 1.00006 27.1073V34.2873C1.00271 35.0388 1.30309 35.7586 1.83541 36.289C2.36773 36.8195 3.08858 37.1173 3.84006 37.1173H4.60006V39.1973C4.58644 39.3296 4.60073 39.4632 4.64202 39.5896C4.6833 39.716 4.75066 39.8323 4.83974 39.9311C4.92881 40.0298 5.03762 40.1087 5.15911 40.1627C5.28061 40.2168 5.4121 40.2447 5.54506 40.2447C5.67803 40.2447 5.80951 40.2168 5.93101 40.1627C6.05251 40.1087 6.16132 40.0298 6.25039 39.9311C6.33947 39.8323 6.40682 39.716 6.44811 39.5896C6.48939 39.4632 6.50369 39.3296 6.49006 39.1973V33.1073H12.1601V47.7073C12.136 47.9412 12.026 48.1578 11.8515 48.3153C11.6769 48.4728 11.4502 48.56 11.2151 48.56C10.98 48.56 10.7532 48.4728 10.5787 48.3153C10.4041 48.1578 10.2942 47.9412 10.2701 47.7073V38.4873C10.275 38.4441 10.275 38.4005 10.2701 38.3573V37.5073C10.246 37.2735 10.136 37.0568 9.96147 36.8993C9.78692 36.7418 9.56017 36.6547 9.32506 36.6547C9.08996 36.6547 8.86321 36.7418 8.68866 36.8993C8.51411 37.0568 8.40415 37.2735 8.38006 37.5073V47.7073C8.38006 47.9566 8.28103 48.1957 8.10474 48.372C7.92846 48.5483 7.68937 48.6473 7.44006 48.6473C7.19076 48.6473 6.95167 48.5483 6.77538 48.372C6.5991 48.1957 6.50006 47.9566 6.50006 47.7073V45.9073C6.51369 45.7751 6.49939 45.6414 6.45811 45.515C6.41682 45.3886 6.34947 45.2723 6.26039 45.1736C6.17132 45.0749 6.06251 44.9959 5.94101 44.9419C5.81951 44.8879 5.68803 44.86 5.55506 44.86C5.4221 44.86 5.29061 44.8879 5.16912 44.9419C5.04762 44.9959 4.93881 45.0749 4.84974 45.1736C4.76066 45.2723 4.6933 45.3886 4.65202 45.515C4.61073 45.6414 4.59644 45.7751 4.61006 45.9073V47.7073C4.60692 48.2554 4.76353 48.7925 5.06076 49.2529C5.358 49.7134 5.78296 50.0772 6.28369 50.3C6.78443 50.5228 7.33923 50.5948 7.88025 50.5073C8.42128 50.4198 8.92509 50.1766 9.33006 49.8073C9.73624 50.1753 10.2405 50.4174 10.7817 50.5042C11.3228 50.5911 11.8775 50.5189 12.3784 50.2965C12.8793 50.0741 13.3049 49.7111 13.6034 49.2514C13.9019 48.7918 14.0606 48.2554 14.0601 47.7073V37.1173H14.8101C15.1817 37.1173 15.5497 37.0441 15.8931 36.9019C16.2364 36.7597 16.5484 36.5512 16.8112 36.2884C17.074 36.0256 17.2824 35.7137 17.4246 35.3703C17.5669 35.027 17.6401 34.659 17.6401 34.2873V31.8573C17.9424 31.9622 18.26 32.0162 18.5801 32.0173H19.3501V42.6073C19.3469 43.1554 19.5035 43.6925 19.8008 44.1529C20.098 44.6134 20.523 44.9772 21.0237 45.2C21.5244 45.4228 22.0792 45.4949 22.6203 45.4073C23.1613 45.3198 23.6651 45.0766 24.0701 44.7073C24.475 45.0766 24.9788 45.3198 25.5199 45.4073C26.0609 45.4949 26.6157 45.4228 27.1164 45.2C27.6172 44.9772 28.0421 44.6134 28.3394 44.1529C28.6366 43.6925 28.7932 43.1554 28.7901 42.6073V31.9973H29.5401C29.8633 31.9955 30.1841 31.9415 30.4901 31.8373V34.2673C30.4901 34.639 30.5633 35.007 30.7055 35.3503C30.8477 35.6937 31.0562 36.0056 31.319 36.2684C31.5817 36.5312 31.8937 36.7397 32.2371 36.8819C32.5804 37.0241 32.9484 37.0973 33.3201 37.0973H34.0801V47.7073C34.0796 48.2554 34.2382 48.7918 34.5367 49.2514C34.8352 49.7111 35.2608 50.0741 35.7617 50.2965C36.2626 50.5189 36.8173 50.5911 37.3585 50.5042C37.8996 50.4174 38.4039 50.1753 38.8101 49.8073C39.215 50.1766 39.7188 50.4198 40.2599 50.5073C40.8009 50.5948 41.3557 50.5228 41.8564 50.3C42.3572 50.0772 42.7821 49.7134 43.0794 49.2529C43.3766 48.7925 43.5332 48.2554 43.5301 47.7073V44.8773C43.5437 44.7451 43.5294 44.6114 43.4881 44.485C43.4468 44.3586 43.3795 44.2423 43.2904 44.1436C43.2013 44.0449 43.0925 43.9659 42.971 43.9119C42.8495 43.8579 42.718 43.83 42.5851 43.83C42.4521 43.83 42.3206 43.8579 42.1991 43.9119C42.0776 43.9659 41.9688 44.0449 41.8797 44.1436C41.7907 44.2423 41.7233 44.3586 41.682 44.485C41.6407 44.6114 41.6264 44.7451 41.6401 44.8773V47.7073C41.6401 47.9566 41.541 48.1957 41.3647 48.372C41.1885 48.5483 40.9494 48.6473 40.7001 48.6473C40.4508 48.6473 40.2117 48.5483 40.0354 48.372C39.8591 48.1957 39.7601 47.9566 39.7601 47.7073V38.4873C39.7649 38.4441 39.7649 38.4005 39.7601 38.3573V37.5073C39.7601 37.258 39.661 37.0189 39.4847 36.8426C39.3085 36.6664 39.0694 36.5673 38.8201 36.5673C38.5708 36.5673 38.3317 36.6664 38.1554 36.8426C37.9791 37.0189 37.8801 37.258 37.8801 37.5073V47.7073C37.856 47.9412 37.746 48.1578 37.5715 48.3153C37.3969 48.4728 37.1702 48.56 36.9351 48.56C36.7 48.56 36.4732 48.4728 36.2987 48.3153C36.1241 48.1578 36.0142 47.9412 35.9901 47.7073V33.1073H41.6601V38.5373C41.6464 38.6696 41.6607 38.8032 41.702 38.9296C41.7433 39.056 41.8107 39.1723 41.8997 39.2711C41.9888 39.3698 42.0976 39.4487 42.2191 39.5027C42.3406 39.5568 42.4721 39.5847 42.6051 39.5847C42.738 39.5847 42.8695 39.5568 42.991 39.5027C43.1125 39.4487 43.2213 39.3698 43.3104 39.2711C43.3995 39.1723 43.4668 39.056 43.5081 38.9296C43.5494 38.8032 43.5637 38.6696 43.5501 38.5373V37.1173H44.3001C45.0506 37.1173 45.7704 36.8192 46.3012 36.2884C46.8319 35.7577 47.1301 35.0379 47.1301 34.2873V27.1073C47.126 25.5781 46.6214 24.0922 45.6932 22.8769C44.765 21.6616 43.4643 20.7837 41.9901 20.3773V20.3773ZM7.24006 17.2773C7.27656 16.7519 7.51104 16.2599 7.89616 15.9006C8.28128 15.5413 8.78836 15.3415 9.31506 15.3415C9.84176 15.3415 10.3489 15.5413 10.734 15.9006C11.1191 16.2599 11.3536 16.7519 11.3901 17.2773V17.9973C11.4098 18.2819 11.3708 18.5676 11.2755 18.8365C11.1802 19.1053 11.0306 19.3518 10.836 19.5604C10.6413 19.769 10.4059 19.9353 10.1442 20.049C9.8826 20.1628 9.60036 20.2215 9.31506 20.2215C9.02977 20.2215 8.74753 20.1628 8.48589 20.049C8.22424 19.9353 7.98879 19.769 7.79418 19.5604C7.59956 19.3518 7.44994 19.1053 7.35461 18.8365C7.25928 18.5676 7.22029 18.2819 7.24006 17.9973V17.2773ZM15.7401 29.1873V34.2873C15.7258 34.532 15.6222 34.7628 15.4489 34.9361C15.2756 35.1094 15.0447 35.213 14.8001 35.2273H14.0501V27.4873C14.0637 27.3551 14.0494 27.2214 14.0081 27.095C13.9668 26.9686 13.8995 26.8523 13.8104 26.7536C13.7213 26.6549 13.6125 26.5759 13.491 26.5219C13.3695 26.4679 13.238 26.44 13.1051 26.44C12.9721 26.44 12.8406 26.4679 12.7191 26.5219C12.5976 26.5759 12.4888 26.6549 12.3997 26.7536C12.3107 26.8523 12.2433 26.9686 12.202 27.095C12.1607 27.2214 12.1464 27.3551 12.1601 27.4873V31.2173H6.49006V27.4873C6.50369 27.3551 6.48939 27.2214 6.44811 27.095C6.40682 26.9686 6.33947 26.8523 6.25039 26.7536C6.16132 26.6549 6.05251 26.5759 5.93101 26.5219C5.80951 26.4679 5.67803 26.44 5.54506 26.44C5.4121 26.44 5.28061 26.4679 5.15911 26.5219C5.03762 26.5759 4.92881 26.6549 4.83974 26.7536C4.75066 26.8523 4.6833 26.9686 4.64202 27.095C4.60073 27.2214 4.58644 27.3551 4.60006 27.4873V35.2273H3.84006C3.59076 35.2273 3.35167 35.1283 3.17538 34.952C2.9991 34.7757 2.90006 34.5366 2.90006 34.2873V27.1073C2.90005 25.7555 3.43568 24.4588 4.38967 23.5011C5.34366 22.5433 6.63828 22.0026 7.99006 21.9973H10.6401C11.9919 22 13.2875 22.5381 14.2434 23.494C15.1993 24.4499 15.7374 25.7455 15.7401 27.0973V29.1873ZM21.9701 12.1873C21.9701 11.6357 22.1892 11.1066 22.5793 10.7165C22.9694 10.3265 23.4984 10.1073 24.0501 10.1073C24.6017 10.1073 25.1308 10.3265 25.5208 10.7165C25.9109 11.1066 26.1301 11.6357 26.1301 12.1873V12.9473C26.1301 13.499 25.9109 14.028 25.5208 14.4181C25.1308 14.8082 24.6017 15.0273 24.0501 15.0273C23.4984 15.0273 22.9694 14.8082 22.5793 14.4181C22.1892 14.028 21.9701 13.499 21.9701 12.9473V12.1873ZM26.9001 42.6073C26.9001 42.7308 26.8758 42.853 26.8285 42.967C26.7813 43.0811 26.712 43.1847 26.6247 43.272C26.5375 43.3593 26.4338 43.4285 26.3198 43.4758C26.2057 43.523 26.0835 43.5473 25.9601 43.5473C25.8366 43.5473 25.7144 43.523 25.6003 43.4758C25.4863 43.4285 25.3827 43.3593 25.2954 43.272C25.2081 43.1847 25.1389 43.0811 25.0916 42.967C25.0444 42.853 25.0201 42.7308 25.0201 42.6073V33.3873C25.0201 33.3873 25.0201 33.2973 25.0201 33.2573V32.4073C24.996 32.1735 24.886 31.9568 24.7115 31.7993C24.5369 31.6418 24.3102 31.5547 24.0751 31.5547C23.84 31.5547 23.6132 31.6418 23.4387 31.7993C23.2641 31.9568 23.1542 32.1735 23.1301 32.4073V42.6073C23.106 42.8412 22.996 43.0578 22.8215 43.2153C22.6469 43.3728 22.4202 43.46 22.1851 43.46C21.95 43.46 21.7232 43.3728 21.5487 43.2153C21.3741 43.0578 21.2642 42.8412 21.2401 42.6073V27.9973H26.9001V42.6073ZM30.4901 27.1073V29.1873C30.4756 29.4336 30.3705 29.6658 30.1952 29.8393C30.0198 30.0128 29.7865 30.1154 29.5401 30.1273H28.7901V22.3873C28.8037 22.2551 28.7894 22.1214 28.7481 21.995C28.7068 21.8686 28.6395 21.7523 28.5504 21.6536C28.4613 21.5549 28.3525 21.4759 28.231 21.4219C28.1095 21.3679 27.978 21.34 27.8451 21.34C27.7121 21.34 27.5806 21.3679 27.4591 21.4219C27.3376 21.4759 27.2288 21.5549 27.1397 21.6536C27.0507 21.7523 26.9833 21.8686 26.942 21.995C26.9007 22.1214 26.8864 22.2551 26.9001 22.3873V26.1173H21.2201V22.3873C21.2201 22.2639 21.1958 22.1416 21.1485 22.0276C21.1013 21.9136 21.032 21.8099 20.9447 21.7226C20.8575 21.6354 20.7538 21.5661 20.6398 21.5189C20.5257 21.4716 20.4035 21.4473 20.2801 21.4473C20.1566 21.4473 20.0344 21.4716 19.9203 21.5189C19.8063 21.5661 19.7027 21.6354 19.6154 21.7226C19.5281 21.8099 19.4589 21.9136 19.4116 22.0276C19.3644 22.1416 19.3401 22.2639 19.3401 22.3873V30.1273H18.5701C18.3208 30.1273 18.0817 30.0283 17.9054 29.852C17.7291 29.6757 17.6301 29.4366 17.6301 29.1873V21.9973C17.6327 20.6455 18.1709 19.3499 19.1267 18.394C20.0826 17.4381 21.3783 16.9 22.7301 16.8973H25.3701C26.7236 16.8973 28.0218 17.4343 28.9798 18.3905C29.9379 19.3466 30.4774 20.6438 30.4801 21.9973L30.4901 27.1073ZM36.7201 17.2773C36.7201 16.7257 36.9392 16.1966 37.3293 15.8065C37.7194 15.4165 38.2484 15.1973 38.8001 15.1973C39.3517 15.1973 39.8808 15.4165 40.2708 15.8065C40.6609 16.1966 40.8801 16.7257 40.8801 17.2773V17.9973C40.8801 18.549 40.6609 19.078 40.2708 19.4681C39.8808 19.8582 39.3517 20.0773 38.8001 20.0773C38.2484 20.0773 37.7194 19.8582 37.3293 19.4681C36.9392 19.078 36.7201 18.549 36.7201 17.9973V17.2773ZM45.2201 34.2773C45.2201 34.5266 45.121 34.7657 44.9447 34.942C44.7685 35.1183 44.5294 35.2173 44.2801 35.2173H43.5301V27.4873C43.5437 27.3551 43.5294 27.2214 43.4881 27.095C43.4468 26.9686 43.3795 26.8523 43.2904 26.7536C43.2013 26.6549 43.0925 26.5759 42.971 26.5219C42.8495 26.4679 42.718 26.44 42.5851 26.44C42.4521 26.44 42.3206 26.4679 42.1991 26.5219C42.0776 26.5759 41.9688 26.6549 41.8797 26.7536C41.7907 26.8523 41.7233 26.9686 41.682 27.095C41.6407 27.2214 41.6264 27.3551 41.6401 27.4873V31.2173H35.9601V27.4873C35.9737 27.3551 35.9594 27.2214 35.9181 27.095C35.8768 26.9686 35.8095 26.8523 35.7204 26.7536C35.6313 26.6549 35.5225 26.5759 35.401 26.5219C35.2795 26.4679 35.148 26.44 35.0151 26.44C34.8821 26.44 34.7506 26.4679 34.6291 26.5219C34.5076 26.5759 34.3988 26.6549 34.3097 26.7536C34.2207 26.8523 34.1533 26.9686 34.112 27.095C34.0707 27.2214 34.0564 27.3551 34.0701 27.4873V35.2273H33.3101C33.0637 35.2154 32.8303 35.1128 32.655 34.9393C32.4796 34.7658 32.3746 34.5336 32.3601 34.2873V27.1073C32.3601 25.7521 32.8984 24.4523 33.8567 23.494C34.8151 22.5357 36.1148 21.9973 37.4701 21.9973H40.1101C41.4619 22 42.7575 22.5381 43.7134 23.494C44.6692 24.4499 45.2074 25.7455 45.2101 27.0973L45.2201 34.2773Z" stroke="white" stroke-width="0.2" stroke-miterlimit="10"/>
<path d="M43.1897 41.2172C43.1022 41.1283 42.9979 41.0577 42.8829 41.0095C42.7679 40.9613 42.6444 40.9365 42.5197 40.9365C42.395 40.9365 42.2715 40.9613 42.1565 41.0095C42.0414 41.0577 41.9372 41.1283 41.8497 41.2172C41.6926 41.3988 41.6101 41.6331 41.6188 41.873C41.6275 42.113 41.7266 42.3407 41.8964 42.5105C42.0662 42.6802 42.2939 42.7794 42.5339 42.7881C42.7738 42.7968 43.0081 42.7143 43.1897 42.5572C43.2786 42.4697 43.3492 42.3654 43.3974 42.2504C43.4456 42.1354 43.4704 42.0119 43.4704 41.8872C43.4704 41.7625 43.4456 41.639 43.3974 41.524C43.3492 41.409 43.2786 41.3047 43.1897 41.2172Z" fill="#00AEEF"/>
<path d="M43.1897 41.2172C43.1022 41.1283 42.9979 41.0577 42.8829 41.0095C42.7679 40.9613 42.6444 40.9365 42.5197 40.9365C42.395 40.9365 42.2715 40.9613 42.1565 41.0095C42.0414 41.0577 41.9372 41.1283 41.8497 41.2172C41.6926 41.3988 41.6101 41.6331 41.6188 41.873C41.6275 42.113 41.7266 42.3407 41.8964 42.5105C42.0662 42.6802 42.2939 42.7794 42.5339 42.7881C42.7738 42.7968 43.0081 42.7143 43.1897 42.5572C43.2786 42.4697 43.3492 42.3654 43.3974 42.2504C43.4456 42.1354 43.4704 42.0119 43.4704 41.8872C43.4704 41.7625 43.4456 41.639 43.3974 41.524C43.3492 41.409 43.2786 41.3047 43.1897 41.2172V41.2172Z" stroke="white" stroke-width="0.2" stroke-miterlimit="10"/>
<path d="M28.2605 4.56734L24.9505 3.17734V2.04734C24.9642 1.91507 24.9499 1.78142 24.9086 1.65503C24.8673 1.52863 24.7999 1.41231 24.7109 1.31359C24.6218 1.21487 24.513 1.13595 24.3915 1.08193C24.27 1.02791 24.1385 1 24.0055 1C23.8726 1 23.7411 1.02791 23.6196 1.08193C23.4981 1.13595 23.3893 1.21487 23.3002 1.31359C23.2111 1.41231 23.1438 1.52863 23.1025 1.65503C23.0612 1.78142 23.0469 1.91507 23.0605 2.04734V3.18734L19.7505 4.56734C19.2889 4.76321 18.895 5.09034 18.6177 5.50811C18.3404 5.92588 18.1918 6.4159 18.1905 6.91734V8.17734C18.1769 8.30961 18.1912 8.44326 18.2325 8.56965C18.2738 8.69605 18.3411 8.81237 18.4302 8.91109C18.5193 9.00981 18.6281 9.08873 18.7496 9.14275C18.8711 9.19677 19.0026 9.22468 19.1355 9.22468C19.2685 9.22468 19.4 9.19677 19.5215 9.14275C19.643 9.08873 19.7518 9.00981 19.8409 8.91109C19.9299 8.81237 19.9973 8.69605 20.0386 8.56965C20.0799 8.44326 20.0942 8.30961 20.0805 8.17734V6.91734C20.082 6.78677 20.1216 6.65947 20.1944 6.5511C20.2673 6.44273 20.3702 6.358 20.4905 6.30734L24.0105 4.83734L27.5305 6.30734C27.6498 6.35845 27.7513 6.44357 27.8225 6.55206C27.8936 6.66055 27.9312 6.7876 27.9305 6.91734V8.17734C27.9169 8.30961 27.9312 8.44326 27.9725 8.56965C28.0138 8.69605 28.0811 8.81237 28.1702 8.91109C28.2593 9.00981 28.3681 9.08873 28.4896 9.14275C28.6111 9.19677 28.7426 9.22468 28.8755 9.22468C29.0085 9.22468 29.14 9.19677 29.2615 9.14275C29.383 9.08873 29.4918 9.00981 29.5809 8.91109C29.6699 8.81237 29.7373 8.69605 29.7786 8.56965C29.8199 8.44326 29.8342 8.30961 29.8205 8.17734V6.91734C29.8219 6.41531 29.6744 5.92415 29.3967 5.50589C29.1191 5.08764 28.7237 4.76103 28.2605 4.56734Z" fill="#00AEEF"/>
<path d="M28.2605 4.56734L24.9505 3.17734V2.04734C24.9642 1.91507 24.9499 1.78142 24.9086 1.65503C24.8673 1.52863 24.7999 1.41231 24.7109 1.31359C24.6218 1.21487 24.513 1.13595 24.3915 1.08193C24.27 1.02791 24.1385 1 24.0055 1C23.8726 1 23.7411 1.02791 23.6196 1.08193C23.4981 1.13595 23.3893 1.21487 23.3002 1.31359C23.2111 1.41231 23.1438 1.52863 23.1025 1.65503C23.0612 1.78142 23.0469 1.91507 23.0605 2.04734V3.18734L19.7505 4.56734C19.2889 4.76321 18.895 5.09034 18.6177 5.50811C18.3404 5.92588 18.1918 6.4159 18.1905 6.91734V8.17734C18.1769 8.30961 18.1912 8.44326 18.2325 8.56965C18.2738 8.69605 18.3411 8.81237 18.4302 8.91109C18.5193 9.00981 18.6281 9.08873 18.7496 9.14275C18.8711 9.19677 19.0026 9.22468 19.1355 9.22468C19.2685 9.22468 19.4 9.19677 19.5215 9.14275C19.643 9.08873 19.7518 9.00981 19.8409 8.91109C19.9299 8.81237 19.9973 8.69605 20.0386 8.56965C20.0799 8.44326 20.0942 8.30961 20.0805 8.17734V6.91734C20.082 6.78677 20.1216 6.65947 20.1944 6.5511C20.2673 6.44273 20.3702 6.358 20.4905 6.30734L24.0105 4.83734L27.5305 6.30734C27.6498 6.35845 27.7513 6.44357 27.8225 6.55206C27.8936 6.66055 27.9312 6.7876 27.9305 6.91734V8.17734C27.9169 8.30961 27.9312 8.44326 27.9725 8.56965C28.0138 8.69605 28.0811 8.81237 28.1702 8.91109C28.2593 9.00981 28.3681 9.08873 28.4896 9.14275C28.6111 9.19677 28.7426 9.22468 28.8755 9.22468C29.0085 9.22468 29.14 9.19677 29.2615 9.14275C29.383 9.08873 29.4918 9.00981 29.5809 8.91109C29.6699 8.81237 29.7373 8.69605 29.7786 8.56965C29.8199 8.44326 29.8342 8.30961 29.8205 8.17734V6.91734C29.8219 6.41531 29.6744 5.92415 29.3967 5.50589C29.1191 5.08763 28.7237 4.76103 28.2605 4.56734V4.56734Z" stroke="white" stroke-width="0.2" stroke-miterlimit="10"/>
</svg>
