<svg width="51" height="51" viewBox="0 0 51 51" fill="none" xmlns="http://www.w3.org/2000/svg">
<path d="M12.1904 34.5701V39.3701H15.3904V37.7701H13.7904V34.5701H12.1904Z" fill="#00AEEF"/>
<path d="M12.1904 34.5701V39.3701H15.3904V37.7701H13.7904V34.5701H12.1904Z" stroke="white" stroke-width="0.21" stroke-miterlimit="10"/>
<path d="M12.9897 29.77C10.9612 29.7759 8.99712 30.4825 7.42969 31.77L8.42969 33.01C9.50351 32.1366 10.8046 31.5884 12.1797 31.43V32.98H13.7797V31.42C15.4003 31.6041 16.9107 32.3323 18.064 33.4857C19.2174 34.639 19.9456 36.1494 20.1297 37.77H18.5897V39.36H20.1297C19.9832 40.7394 19.4376 42.0461 18.5597 43.12L19.7997 44.12C20.8507 42.8306 21.5148 41.2696 21.7148 39.6182C21.9148 37.9667 21.6427 36.2924 20.9299 34.7893C20.2171 33.2862 19.0928 32.0159 17.6874 31.1258C16.2821 30.2357 14.6532 29.7621 12.9897 29.76" fill="#00AEEF"/>
<path d="M12.9897 29.77C10.9612 29.7759 8.99712 30.4825 7.42969 31.77L8.42969 33.01C9.50351 32.1366 10.8046 31.5884 12.1797 31.43V32.98H13.7797V31.42C15.4003 31.6041 16.9107 32.3323 18.064 33.4857C19.2174 34.639 19.9456 36.1494 20.1297 37.77H18.5897V39.36H20.1297C19.9832 40.7394 19.4376 42.0461 18.5597 43.12L19.7997 44.12C20.8507 42.8306 21.5148 41.2696 21.7148 39.6182C21.9148 37.9667 21.6427 36.2924 20.9299 34.7893C20.2171 33.2862 19.0928 32.0159 17.6874 31.1258C16.2821 30.2357 14.6532 29.7621 12.9897 29.76V29.77Z" stroke="white" stroke-width="0.21" stroke-miterlimit="10"/>
<path d="M13.7902 45.71V44.16H12.1902V45.71C10.5797 45.515 9.08229 44.7818 7.94062 43.6292C6.79896 42.4766 6.07999 40.9723 5.90024 39.36H7.40024V37.77H5.90024C6.05739 36.3964 6.6019 35.0959 7.47024 34.02L6.24024 33.02C4.92274 34.7095 4.26768 36.8221 4.39816 38.9606C4.52865 41.0991 5.43569 43.1164 6.94882 44.6332C8.46195 46.15 10.477 47.062 12.6152 47.1976C14.7534 47.3333 16.8675 46.6834 18.5602 45.37L17.5602 44.14C16.4844 45.0084 15.1838 45.5529 13.8102 45.71" fill="#00AEEF"/>
<path d="M13.7902 45.71V44.16H12.1902V45.71C10.5797 45.515 9.08229 44.7818 7.94062 43.6292C6.79896 42.4766 6.07999 40.9723 5.90024 39.36H7.40024V37.77H5.90024C6.05739 36.3964 6.6019 35.0959 7.47024 34.02L6.24024 33.02C4.92274 34.7095 4.26768 36.8221 4.39816 38.9606C4.52865 41.0991 5.43569 43.1164 6.94882 44.6332C8.46195 46.15 10.477 47.062 12.6152 47.1976C14.7534 47.3333 16.8675 46.6834 18.5602 45.37L17.5602 44.14C16.4788 45.0118 15.1708 45.5566 13.7902 45.71V45.71Z" stroke="white" stroke-width="0.21" stroke-miterlimit="10"/>
<path d="M48.9597 23.38H43.3397C43.2829 22.491 42.931 21.6463 42.3397 20.98H44.1297C45.1905 20.98 46.208 20.5586 46.9581 19.8084C47.7082 19.0583 48.1297 18.0409 48.1297 16.98V5C48.1297 3.93913 47.7082 2.92172 46.9581 2.17157C46.208 1.42143 45.1905 1 44.1297 1H17.7897C16.7288 1 15.7114 1.42143 14.9612 2.17157C14.2111 2.92172 13.7897 3.93913 13.7897 5V17C13.7897 18.0609 14.2111 19.0783 14.9612 19.8284C15.7114 20.5786 16.7288 21 17.7897 21H20.3797C19.7884 21.6663 19.4365 22.511 19.3797 23.4H13.7897C13.3653 23.4 12.9584 23.5686 12.6583 23.8686C12.3582 24.1687 12.1897 24.5757 12.1897 25V26.64C9.16553 26.9499 6.37173 28.3961 4.37265 30.6863C2.37357 32.9765 1.31822 35.9401 1.41979 38.9784C1.52136 42.0167 2.77229 44.9032 4.91986 47.0548C7.06744 49.2064 9.95159 50.4627 12.9897 50.57H50.5597V24.98C50.5597 24.7699 50.5183 24.5618 50.4379 24.3677C50.3575 24.1736 50.2396 23.9972 50.091 23.8486C49.9425 23.7001 49.7661 23.5822 49.572 23.5018C49.3778 23.4214 49.1698 23.38 48.9597 23.38ZM20.9597 29.66V28.18H23.3597V29.78H29.3597C29.6577 29.8073 29.9349 29.945 30.1366 30.1661C30.3384 30.3872 30.4502 30.6757 30.4502 30.975C30.4502 31.2743 30.3384 31.5628 30.1366 31.7839C29.9349 32.005 29.6577 32.1427 29.3597 32.17H23.1197C22.5253 31.2388 21.8051 30.3942 20.9797 29.66H20.9597ZM22.8997 21.25L27.7097 20.25C28.0419 20.937 28.561 21.5164 29.2075 21.9218C29.8539 22.3273 30.6016 22.5424 31.3647 22.5424C32.1278 22.5424 32.8754 22.3273 33.5219 21.9218C34.1683 21.5164 34.6874 20.937 35.0197 20.25L39.8297 21.25C40.3697 21.364 40.8546 21.6592 41.2038 22.0867C41.553 22.5141 41.7456 23.0481 41.7497 23.6V26.6H39.3697V24.2H23.3697V26.6H20.9697V23.6C20.9761 23.0472 21.1708 22.513 21.5216 22.0858C21.8725 21.6585 22.3586 21.3637 22.8997 21.25ZM28.9697 18.04C29.7142 18.4025 30.5316 18.5906 31.3597 18.59C32.1908 18.5894 33.0112 18.4014 33.7597 18.04V19.24C33.5944 19.7449 33.2738 20.1847 32.8437 20.4965C32.4136 20.8083 31.8959 20.9762 31.3647 20.9762C30.8334 20.9762 30.3158 20.8083 29.8856 20.4965C29.4555 20.1847 29.1349 19.7449 28.9697 19.24V18.04ZM31.3597 16.99C30.2988 16.99 29.2814 16.5686 28.5312 15.8184C27.7811 15.0683 27.3597 14.0509 27.3597 12.99V9.8C27.3597 8.73913 27.7811 7.72172 28.5312 6.97157C29.2814 6.22143 30.2988 5.8 31.3597 5.8C32.4205 5.8 33.438 6.22143 34.1881 6.97157C34.9382 7.72172 35.3597 8.73913 35.3597 9.8V12.99C35.3597 14.0509 34.9382 15.0683 34.1881 15.8184C33.438 16.5686 32.4205 16.99 31.3597 16.99ZM29.3597 28.18H24.9597V25.78H37.7697V28.18H33.3697C32.9971 28.1794 32.6282 28.2534 32.2847 28.3977C31.9412 28.5419 31.6301 28.7535 31.3697 29.02C31.1107 28.7517 30.7998 28.5389 30.456 28.3945C30.1122 28.2501 29.7426 28.1771 29.3697 28.18H29.3597ZM33.3697 29.78H39.3697V28.18H41.7597V31.38C41.7597 31.4846 41.7389 31.5881 41.6986 31.6846C41.6583 31.7812 41.5992 31.8687 41.5248 31.9422C41.4503 32.0157 41.3621 32.0737 41.2651 32.1128C41.1681 32.1519 41.0643 32.1713 40.9597 32.17H33.3697C33.2036 32.1852 33.0361 32.1656 32.878 32.1125C32.7199 32.0593 32.5745 31.9738 32.4513 31.8614C32.3281 31.7489 32.2297 31.612 32.1624 31.4594C32.095 31.3068 32.0602 31.1418 32.0602 30.975C32.0602 30.8082 32.095 30.6432 32.1624 30.4906C32.2297 30.338 32.3281 30.2011 32.4513 30.0886C32.5745 29.9762 32.7199 29.8907 32.878 29.8375C33.0361 29.7844 33.2036 29.7648 33.3697 29.78ZM15.3697 16.99V5C15.3723 4.36429 15.626 3.75537 16.0755 3.30585C16.525 2.85633 17.134 2.60263 17.7697 2.6C17.2432 3.28987 16.9554 4.13223 16.9497 5V6.6H18.5497V5C18.5497 4.36521 18.8012 3.75627 19.2491 3.30647C19.697 2.85667 20.3049 2.60265 20.9397 2.6H40.9397C41.5762 2.6 42.1866 2.85286 42.6367 3.30294C43.0868 3.75303 43.3397 4.36348 43.3397 5V6.6H44.9397V5C44.9339 4.13223 44.6461 3.28987 44.1197 2.6C44.7554 2.60263 45.3643 2.85633 45.8138 3.30585C46.2633 3.75537 46.517 4.36429 46.5197 5V17C46.517 17.6357 46.2633 18.2446 45.8138 18.6941C45.3643 19.1437 44.7554 19.3974 44.1197 19.4C44.6461 18.7101 44.9339 17.8678 44.9397 17V8.2H43.3397V16.99C43.3397 17.6265 43.0868 18.237 42.6367 18.6871C42.1866 19.1371 41.5762 19.39 40.9397 19.39H38.6497L35.3697 18.73V16.9C36.3958 15.8573 36.9705 14.4529 36.9697 12.99V9.8C37.0016 9.04535 36.8805 8.29205 36.6137 7.58542C36.3469 6.87878 35.9399 6.23342 35.4173 5.68816C34.8946 5.1429 34.267 4.70902 33.5722 4.41261C32.8775 4.11621 32.13 3.96341 31.3747 3.96341C30.6194 3.96341 29.8718 4.11621 29.1771 4.41261C28.4824 4.70902 27.8548 5.1429 27.3321 5.68816C26.8094 6.23342 26.4024 6.87878 26.1356 7.58542C25.8688 8.29205 25.7478 9.04535 25.7797 9.8V12.99C25.7789 14.4529 26.3536 15.8573 27.3797 16.9V18.73L24.0997 19.39H20.9797C20.3449 19.3874 19.737 19.1333 19.2891 18.6835C18.8412 18.2337 18.5897 17.6248 18.5897 16.99V8.2H16.9897V16.99C16.9954 17.8578 17.2832 18.7001 17.8097 19.39C17.174 19.3874 16.565 19.1337 16.1155 18.6841C15.666 18.2346 15.4123 17.6257 15.4097 16.99H15.3697ZM19.4097 24.99V28.45C17.7242 27.3853 15.799 26.7597 13.8097 26.63V24.98L19.4097 24.99ZM2.59967 38.57C2.5977 36.5146 3.20538 34.5048 4.34584 32.7949C5.48631 31.085 7.10831 29.7517 9.00666 28.9638C10.905 28.1758 12.9944 27.9687 15.0105 28.3684C17.0266 28.7682 18.8789 29.757 20.333 31.2096C21.787 32.6623 22.7776 34.5136 23.1793 36.5293C23.581 38.5451 23.3758 40.6347 22.5897 42.5338C21.8036 44.4329 20.4719 46.0562 18.7631 47.1983C17.0542 48.3404 15.045 48.95 12.9897 48.95C10.2366 48.9474 7.59693 47.8532 5.64929 45.9075C3.70164 43.9617 2.60497 41.3231 2.59967 38.57ZM48.9597 48.95H18.9597C20.3778 48.1371 21.6135 47.0411 22.5897 45.73H48.9597V48.95ZM48.9597 44.16H23.5897C24.123 43.1533 24.5102 42.0758 24.7397 40.96H44.9597V39.37H24.8997C24.8997 39.1 24.8997 38.84 24.8997 38.57C24.9052 36.9177 24.5646 35.2826 23.8997 33.77H29.3097C29.6826 33.7729 30.0522 33.6999 30.396 33.5555C30.7398 33.4111 31.0507 33.1983 31.3097 32.93C31.5701 33.1965 31.8812 33.4081 32.2247 33.5523C32.5682 33.6966 32.9371 33.7706 33.3097 33.77H40.8997C41.5345 33.77 42.1434 33.5185 42.5932 33.0706C43.043 32.6227 43.297 32.0148 43.2997 31.38V24.98H48.8997V39.37H46.4997V40.96H48.8997L48.9597 44.16Z" fill="#00AEEF"/>
<path d="M48.9597 23.38H43.3397C43.2829 22.491 42.931 21.6463 42.3397 20.98H44.1297C45.1905 20.98 46.208 20.5586 46.9581 19.8084C47.7082 19.0583 48.1297 18.0409 48.1297 16.98V5C48.1297 3.93913 47.7082 2.92172 46.9581 2.17157C46.208 1.42143 45.1905 1 44.1297 1H17.7897C16.7288 1 15.7114 1.42143 14.9612 2.17157C14.2111 2.92172 13.7897 3.93913 13.7897 5V17C13.7897 18.0609 14.2111 19.0783 14.9612 19.8284C15.7114 20.5786 16.7288 21 17.7897 21H20.3797C19.7884 21.6663 19.4365 22.511 19.3797 23.4H13.7897C13.3653 23.4 12.9584 23.5686 12.6583 23.8686C12.3582 24.1687 12.1897 24.5757 12.1897 25V26.64C9.16553 26.9499 6.37173 28.3961 4.37265 30.6863C2.37357 32.9765 1.31822 35.9401 1.41979 38.9784C1.52136 42.0167 2.77229 44.9032 4.91986 47.0548C7.06744 49.2064 9.95159 50.4627 12.9897 50.57H50.5597V24.98C50.5597 24.5557 50.3911 24.1487 50.091 23.8486C49.791 23.5486 49.384 23.38 48.9597 23.38V23.38ZM20.9597 29.66V28.18H23.3597V29.78H29.3597C29.6577 29.8073 29.9349 29.945 30.1366 30.1661C30.3384 30.3872 30.4502 30.6757 30.4502 30.975C30.4502 31.2743 30.3384 31.5628 30.1366 31.7839C29.9349 32.005 29.6577 32.1427 29.3597 32.17H23.1197C22.5253 31.2388 21.8051 30.3942 20.9797 29.66H20.9597ZM22.8997 21.25L27.7097 20.25C28.0419 20.937 28.561 21.5164 29.2075 21.9218C29.8539 22.3273 30.6016 22.5424 31.3647 22.5424C32.1278 22.5424 32.8754 22.3273 33.5219 21.9218C34.1683 21.5164 34.6874 20.937 35.0197 20.25L39.8297 21.25C40.3697 21.364 40.8546 21.6592 41.2038 22.0867C41.553 22.5141 41.7456 23.0481 41.7497 23.6V26.6H39.3697V24.2H23.3697V26.6H20.9697V23.6C20.9761 23.0472 21.1708 22.513 21.5216 22.0858C21.8725 21.6585 22.3586 21.3637 22.8997 21.25V21.25ZM28.9697 18.04C29.7142 18.4025 30.5316 18.5906 31.3597 18.59C32.1908 18.5894 33.0112 18.4014 33.7597 18.04V19.24C33.5944 19.7449 33.2739 20.1847 32.8437 20.4965C32.4136 20.8083 31.8959 20.9762 31.3647 20.9762C30.8334 20.9762 30.3158 20.8083 29.8856 20.4965C29.4555 20.1847 29.1349 19.7449 28.9697 19.24V18.04ZM31.3597 16.99C30.2988 16.99 29.2814 16.5686 28.5312 15.8184C27.7811 15.0683 27.3597 14.0509 27.3597 12.99V9.8C27.3597 8.73913 27.7811 7.72172 28.5312 6.97157C29.2814 6.22143 30.2988 5.8 31.3597 5.8C32.4205 5.8 33.438 6.22143 34.1881 6.97157C34.9382 7.72172 35.3597 8.73913 35.3597 9.8V12.99C35.3597 14.0491 34.9396 15.065 34.1916 15.8149C33.4437 16.5648 32.4288 16.9874 31.3697 16.99H31.3597ZM29.3597 28.18H24.9597V25.78H37.7697V28.18H33.3697C32.9971 28.1794 32.6282 28.2534 32.2847 28.3977C31.9412 28.5419 31.6301 28.7535 31.3697 29.02C31.1118 28.7529 30.8026 28.5408 30.4606 28.3964C30.1186 28.2521 29.7509 28.1784 29.3797 28.18H29.3597ZM33.3597 29.78H39.3597V28.18H41.7497V31.38C41.7497 31.4846 41.7289 31.5881 41.6886 31.6846C41.6483 31.7812 41.5892 31.8687 41.5148 31.9422C41.4403 32.0157 41.3521 32.0737 41.2551 32.1128C41.1581 32.1519 41.0543 32.1713 40.9497 32.17H33.3697C33.2036 32.1852 33.0361 32.1656 32.878 32.1125C32.7199 32.0593 32.5745 31.9738 32.4513 31.8614C32.3281 31.7489 32.2297 31.612 32.1624 31.4594C32.095 31.3068 32.0602 31.1418 32.0602 30.975C32.0602 30.8082 32.095 30.6432 32.1624 30.4906C32.2297 30.338 32.3281 30.2011 32.4513 30.0886C32.5745 29.9762 32.7199 29.8907 32.878 29.8375C33.0361 29.7844 33.2036 29.7648 33.3697 29.78H33.3597ZM15.3597 16.99V5C15.3623 4.36429 15.616 3.75537 16.0655 3.30585C16.515 2.85633 17.124 2.60263 17.7597 2.6V2.6C17.2332 3.28987 16.9454 4.13223 16.9397 5V6.6H18.5397V5C18.5397 4.36521 18.7912 3.75627 19.2391 3.30647C19.687 2.85667 20.2949 2.60264 20.9297 2.6H40.9297C41.5662 2.6 42.1766 2.85286 42.6267 3.30294C43.0768 3.75303 43.3297 4.36348 43.3297 5V6.6H44.9297V5C44.9239 4.13223 44.6361 3.28987 44.1097 2.6V2.6C44.7454 2.60263 45.3543 2.85633 45.8038 3.30585C46.2533 3.75537 46.507 4.36429 46.5097 5V17C46.507 17.6357 46.2533 18.2446 45.8038 18.6941C45.3543 19.1437 44.7454 19.3974 44.1097 19.4V19.4C44.6361 18.7101 44.9239 17.8678 44.9297 17V8.2H43.3297V16.99C43.3297 17.6265 43.0768 18.237 42.6267 18.6871C42.1766 19.1371 41.5662 19.39 40.9297 19.39H38.6497L35.3697 18.73V16.9C36.3958 15.8573 36.9705 14.4529 36.9697 12.99V9.8C37.0016 9.04535 36.8805 8.29205 36.6137 7.58542C36.3469 6.87878 35.9399 6.23342 35.4173 5.68816C34.8946 5.1429 34.267 4.70902 33.5722 4.41261C32.8775 4.11621 32.13 3.96341 31.3747 3.96341C30.6194 3.96341 29.8718 4.11621 29.1771 4.41261C28.4824 4.70902 27.8548 5.1429 27.3321 5.68816C26.8094 6.23342 26.4024 6.87878 26.1356 7.58542C25.8688 8.29205 25.7478 9.04535 25.7797 9.8V12.99C25.7789 14.4529 26.3536 15.8573 27.3797 16.9V18.73L24.0997 19.39H20.9797C20.3449 19.3874 19.737 19.1333 19.2891 18.6835C18.8412 18.2337 18.5897 17.6248 18.5897 16.99V8.2H16.9897V16.99C16.9954 17.8578 17.2832 18.7001 17.8097 19.39C17.4932 19.3913 17.1795 19.3303 16.8866 19.2104C16.5937 19.0905 16.3273 18.9141 16.1026 18.6912C15.8779 18.4683 15.6993 18.2034 15.5769 17.9115C15.4546 17.6196 15.391 17.3065 15.3897 16.99H15.3597ZM19.3597 24.99V28.45C17.6742 27.3853 15.749 26.7597 13.7597 26.63V24.98L19.3597 24.99ZM2.59967 38.57C2.5977 36.5146 3.20538 34.5048 4.34584 32.7949C5.48631 31.085 7.10831 29.7517 9.00666 28.9638C10.905 28.1758 12.9944 27.9687 15.0105 28.3684C17.0266 28.7682 18.8789 29.757 20.333 31.2096C21.787 32.6623 22.7776 34.5136 23.1793 36.5293C23.581 38.5451 23.3758 40.6347 22.5897 42.5338C21.8036 44.4329 20.4719 46.0562 18.7631 47.1983C17.0542 48.3404 15.045 48.95 12.9897 48.95C10.2366 48.9474 7.59693 47.8532 5.64929 45.9075C3.70164 43.9617 2.60497 41.3231 2.59967 38.57V38.57ZM48.9597 48.95H18.9597C20.3778 48.1371 21.6135 47.0411 22.5897 45.73V45.73H48.9597V48.95ZM48.9597 44.16H23.5897C24.123 43.1533 24.5102 42.0758 24.7397 40.96H44.9597V39.37H24.8997C24.8997 39.1 24.8997 38.84 24.8997 38.57C24.9052 36.9177 24.5646 35.2826 23.8997 33.77H29.3097C29.6826 33.7729 30.0522 33.6999 30.396 33.5555C30.7398 33.4111 31.0507 33.1983 31.3097 32.93C31.5701 33.1965 31.8812 33.4081 32.2247 33.5523C32.5682 33.6966 32.9371 33.7706 33.3097 33.77H40.8997C41.5345 33.77 42.1434 33.5185 42.5932 33.0706C43.043 32.6227 43.297 32.0148 43.2997 31.38V24.98H48.8997V39.37H46.4997V40.96H48.8997L48.9597 44.16Z" stroke="white" stroke-width="0.21" stroke-miterlimit="10"/>
<path d="M5.8 5.8H2.93L5.8 2.93V1H1V2.6H3.87L1 5.47V7.4H5.8V5.8Z" fill="#00AEEF"/>
<path d="M5.8 5.8H2.93L5.8 2.93V1H1V2.6H3.87L1 5.47V7.4H5.8V5.8Z" stroke="white" stroke-width="0.21" stroke-miterlimit="10"/>
<path d="M12.1904 13.79H9.33039L12.1904 10.93V9H7.40039V10.6H10.2604L7.40039 13.46V15.39H12.1904V13.79Z" fill="#00AEEF"/>
<path d="M12.1904 13.79H9.33039L12.1904 10.93V9H7.40039V10.6H10.2604L7.40039 13.46V15.39H12.1904V13.79Z" stroke="white" stroke-width="0.21" stroke-miterlimit="10"/>
</svg>
