<svg width="51" height="51" viewBox="0 0 51 51" fill="none" xmlns="http://www.w3.org/2000/svg">
<path d="M50.55 19.38C50.5417 16.3433 49.3825 13.4226 47.3059 11.2068C45.2293 8.99103 42.3898 7.64497 39.36 7.44V1H1V44.16H34.57V46.56C34.57 47.6209 34.9914 48.6383 35.7416 49.3884C36.4917 50.1386 37.5091 50.56 38.57 50.56C39.6309 50.56 40.6483 50.1386 41.3984 49.3884C42.1486 48.6383 42.57 47.6209 42.57 46.56V34.56H40.97V31.13C43.677 30.575 46.1094 29.1029 47.8566 26.9621C49.6039 24.8214 50.5587 22.1432 50.56 19.38H50.55ZM48.96 19.38C48.96 21.4349 48.3506 23.4437 47.209 25.1524C46.0673 26.861 44.4446 28.1927 42.5461 28.9791C40.6476 29.7655 38.5585 29.9713 36.543 29.5704C34.5276 29.1695 32.6762 28.1799 31.2232 26.7268C29.7701 25.2738 28.7805 23.4225 28.3796 21.407C27.9787 19.3915 28.1845 17.3024 28.9709 15.4039C29.7573 13.5054 31.089 11.8827 32.7976 10.741C34.5063 9.59936 36.5151 8.99 38.57 8.99C41.3222 8.99793 43.9593 10.0954 45.9045 12.0425C47.8497 13.9896 48.9447 16.6278 48.95 19.38H48.96ZM34.57 34.57V42.57H2.6V2.6H37.77V7.44C34.8992 7.66657 32.2057 8.91795 30.181 10.9657C28.1563 13.0135 26.9355 15.721 26.7414 18.5942C26.5474 21.4673 27.393 24.3145 29.124 26.6159C30.8549 28.9173 33.3558 30.5195 36.17 31.13V34.57H34.57ZM40.96 46.57C40.9207 47.1784 40.6512 47.7491 40.2064 48.1661C39.7616 48.5831 39.1747 48.8152 38.565 48.8152C37.9553 48.8152 37.3684 48.5831 36.9236 48.1661C36.4788 47.7491 36.2093 47.1784 36.17 46.57V36.17H40.96V46.57ZM39.36 34.57H37.77V31.33C38.03 31.33 38.3 31.33 38.57 31.33C38.84 31.33 39.1 31.33 39.36 31.33V34.57Z" fill="#00AEEF"/>
<path d="M50.55 19.38C50.5417 16.3433 49.3825 13.4226 47.3059 11.2068C45.2293 8.99103 42.3898 7.64497 39.36 7.44V1H1V44.16H34.57V46.56C34.57 47.6209 34.9914 48.6383 35.7416 49.3884C36.4917 50.1386 37.5091 50.56 38.57 50.56C39.6309 50.56 40.6483 50.1386 41.3984 49.3884C42.1486 48.6383 42.57 47.6209 42.57 46.56V34.56H40.97V31.13C43.6751 30.573 46.1053 29.1 47.8505 26.9594C49.5958 24.8189 50.5492 22.1418 50.55 19.38V19.38ZM48.95 19.38C48.95 21.4354 48.3404 23.4446 47.1983 25.1534C46.0562 26.8623 44.4329 28.194 42.5338 28.9801C40.6347 29.7662 38.5451 29.9713 36.5293 29.5696C34.5136 29.1679 32.6623 28.1774 31.2096 26.7233C29.757 25.2692 28.7682 23.417 28.3684 21.4009C27.9687 19.3847 28.1758 17.2953 28.9638 15.397C29.7517 13.4986 31.085 11.8766 32.7949 10.7362C34.5048 9.5957 36.5146 8.98802 38.57 8.99C41.3222 8.99793 43.9593 10.0954 45.9045 12.0425C47.8497 13.9896 48.9447 16.6278 48.95 19.38V19.38ZM34.57 34.57V42.57H2.6V2.6H37.77V7.44C34.8992 7.66658 32.2057 8.91795 30.181 10.9657C28.1563 13.0135 26.9355 15.721 26.7414 18.5942C26.5474 21.4673 27.393 24.3145 29.124 26.6159C30.8549 28.9173 33.3558 30.5195 36.17 31.13V34.57H34.57ZM40.96 46.57C40.9207 47.1784 40.6512 47.7491 40.2064 48.1661C39.7616 48.5831 39.1747 48.8152 38.565 48.8152C37.9553 48.8152 37.3684 48.5831 36.9236 48.1661C36.4788 47.7491 36.2093 47.1784 36.17 46.57V36.17H40.96V46.57ZM39.36 34.57H37.77V31.33C38.03 31.33 38.3 31.33 38.57 31.33C38.84 31.33 39.1 31.33 39.36 31.33V34.57Z" stroke="white" stroke-width="0.21" stroke-miterlimit="10"/>
<path d="M29.7695 19.3901C29.7695 21.1306 30.2856 22.832 31.2526 24.2791C32.2196 25.7263 33.5939 26.8542 35.2019 27.5202C36.8099 28.1863 38.5793 28.3605 40.2863 28.021C41.9934 27.6814 43.5614 26.8433 44.7921 25.6126C46.0228 24.3819 46.8609 22.8139 47.2004 21.1069C47.54 19.3998 47.3657 17.6305 46.6997 16.0225C46.0336 14.4145 44.9057 13.0401 43.4585 12.0732C42.0114 11.1062 40.31 10.5901 38.5695 10.5901C36.2364 10.5927 33.9997 11.5207 32.3499 13.1705C30.7002 14.8202 29.7722 17.057 29.7695 19.3901ZM45.7695 19.3901C45.7695 20.8145 45.347 22.207 44.5554 23.3912C43.7638 24.5755 42.6387 25.4983 41.3225 26.043C40.0063 26.5876 38.5581 26.7296 37.1612 26.451C35.7643 26.1724 34.4814 25.4857 33.4748 24.4777C32.4683 23.4698 31.7833 22.1859 31.5067 20.7886C31.23 19.3913 31.374 17.9433 31.9205 16.6278C32.467 15.3124 33.3914 14.1886 34.5767 13.3986C35.7621 12.6087 37.1551 12.1881 38.5795 12.1901C40.4874 12.1927 42.3161 12.9525 43.6642 14.3025C45.0123 15.6524 45.7695 17.4823 45.7695 19.3901Z" fill="#00AEEF"/>
<path d="M29.7695 19.3901C29.7695 21.1306 30.2856 22.832 31.2526 24.2791C32.2196 25.7263 33.5939 26.8542 35.2019 27.5202C36.8099 28.1863 38.5793 28.3605 40.2863 28.021C41.9934 27.6814 43.5614 26.8433 44.7921 25.6126C46.0228 24.3819 46.8609 22.8139 47.2004 21.1069C47.54 19.3999 47.3657 17.6305 46.6997 16.0225C46.0336 14.4145 44.9057 13.0401 43.4585 12.0732C42.0114 11.1062 40.31 10.5901 38.5695 10.5901C36.2364 10.5927 33.9997 11.5207 32.3499 13.1705C30.7002 14.8202 29.7722 17.057 29.7695 19.3901V19.3901ZM45.7695 19.3901C45.7695 20.8145 45.347 22.207 44.5554 23.3912C43.7638 24.5755 42.6387 25.4983 41.3225 26.043C40.0063 26.5876 38.5581 26.7296 37.1612 26.451C35.7643 26.1724 34.4814 25.4857 33.4748 24.4777C32.4683 23.4698 31.7833 22.1859 31.5067 20.7886C31.23 19.3913 31.374 17.9433 31.9205 16.6278C32.467 15.3124 33.3914 14.1886 34.5767 13.3986C35.7621 12.6087 37.1551 12.1881 38.5795 12.1901C40.4856 12.1954 42.3118 12.9563 43.6578 14.306C45.0037 15.6557 45.7595 17.484 45.7595 19.3901H45.7695Z" stroke="white" stroke-width="0.21" stroke-miterlimit="10"/>
<path d="M35.8099 21.12L34.9199 22.45L38.0799 24.55L42.4799 15.75L41.0499 15.03L37.4599 22.21L35.8099 21.12Z" fill="#00AEEF"/>
<path d="M35.8099 21.12L34.9199 22.45L38.0799 24.55L42.4799 15.75L41.0499 15.03L37.4599 22.21L35.8099 21.12Z" stroke="white" stroke-width="0.21" stroke-miterlimit="10"/>
<path d="M15.3302 27.6901L13.9002 27.0701L12.7802 29.7801H4.2002V40.9601H16.9902V29.7801H14.4602L15.3302 27.6901ZM15.3902 31.3701V39.3701H5.8002V31.3701H12.0602L10.3202 35.5601L8.7602 34.0101L7.6302 35.1301L10.9002 38.3801L13.8202 31.3801L15.3902 31.3701Z" fill="#00AEEF"/>
<path d="M15.3302 27.6901L13.9002 27.0701L12.7802 29.7801H4.2002V40.9601H16.9902V29.7801H14.4602L15.3302 27.6901ZM15.3902 31.3701V39.3701H5.8002V31.3701H12.0602L10.3202 35.5601L8.7602 34.0101L7.6302 35.1301L10.9002 38.3801L13.8202 31.3801L15.3902 31.3701Z" stroke="white" stroke-width="0.21" stroke-miterlimit="10"/>
<path d="M15.3302 12.4999L13.9002 11.8999L12.7802 14.6099H4.2002V25.7799H16.9902V14.5899H14.4602L15.3302 12.4999ZM15.3902 16.1899V24.1899H5.8002V16.1899H12.0602L10.3202 20.3699L8.7602 18.8199L7.6302 19.9499L10.9002 23.1899L13.8202 16.1899H15.3902Z" fill="#00AEEF"/>
<path d="M15.3302 12.4999L13.9002 11.8999L12.7802 14.6099H4.2002V25.7799H16.9902V14.5899H14.4602L15.3302 12.4999ZM15.3902 16.1899V24.1899H5.8002V16.1899H12.0602L10.3202 20.3699L8.7602 18.8199L7.6302 19.9499L10.9002 23.1899L13.8202 16.1899H15.3902Z" stroke="white" stroke-width="0.21" stroke-miterlimit="10"/>
<path d="M24.9799 7.3999H23.3799V8.9999H24.9799V7.3999Z" fill="#00AEEF"/>
<path d="M24.9799 7.3999H23.3799V8.9999H24.9799V7.3999Z" stroke="white" stroke-width="0.21" stroke-miterlimit="10"/>
<path d="M21.7802 7.3999H4.2002V8.9999H21.7802V7.3999Z" fill="#00AEEF"/>
<path d="M21.7802 7.3999H4.2002V8.9999H21.7802V7.3999Z" stroke="white" stroke-width="0.21" stroke-miterlimit="10"/>
<path d="M28.1798 29.77H18.5898V31.37H28.1798V29.77Z" fill="#00AEEF"/>
<path d="M28.1798 29.77H18.5898V31.37H28.1798V29.77Z" stroke="white" stroke-width="0.21" stroke-miterlimit="10"/>
<path d="M28.1798 32.97H18.5898V34.57H28.1798V32.97Z" fill="#00AEEF"/>
<path d="M28.1798 32.97H18.5898V34.57H28.1798V32.97Z" stroke="white" stroke-width="0.21" stroke-miterlimit="10"/>
<path d="M28.1798 36.1699H18.5898V37.7699H28.1798V36.1699Z" fill="#00AEEF"/>
<path d="M28.1798 36.1699H18.5898V37.7699H28.1798V36.1699Z" stroke="white" stroke-width="0.21" stroke-miterlimit="10"/>
<path d="M28.1798 39.3599H18.5898V40.9599H28.1798V39.3599Z" fill="#00AEEF"/>
<path d="M28.1798 39.3599H18.5898V40.9599H28.1798V39.3599Z" stroke="white" stroke-width="0.21" stroke-miterlimit="10"/>
<path d="M24.9798 14.5901H18.5898V16.1901H24.9798V14.5901Z" fill="#00AEEF"/>
<path d="M24.9798 14.5901H18.5898V16.1901H24.9798V14.5901Z" stroke="white" stroke-width="0.21" stroke-miterlimit="10"/>
<path d="M24.9798 17.79H18.5898V19.39H24.9798V17.79Z" fill="#00AEEF"/>
<path d="M24.9798 17.79H18.5898V19.39H24.9798V17.79Z" stroke="white" stroke-width="0.21" stroke-miterlimit="10"/>
<path d="M24.9798 20.98H18.5898V22.58H24.9798V20.98Z" fill="#00AEEF"/>
<path d="M24.9798 20.98H18.5898V22.58H24.9798V20.98Z" stroke="white" stroke-width="0.21" stroke-miterlimit="10"/>
<path d="M24.9798 24.1799H18.5898V25.7799H24.9798V24.1799Z" fill="#00AEEF"/>
<path d="M24.9798 24.1799H18.5898V25.7799H24.9798V24.1799Z" stroke="white" stroke-width="0.21" stroke-miterlimit="10"/>
<path d="M24.9802 4.19995H4.2002V5.79995H24.9802V4.19995Z" fill="#00AEEF"/>
<path d="M24.9802 4.19995H4.2002V5.79995H24.9802V4.19995Z" stroke="white" stroke-width="0.21" stroke-miterlimit="10"/>
</svg>
