<svg width="57" height="51" viewBox="0 0 57 51" fill="none" xmlns="http://www.w3.org/2000/svg">
<path d="M21.6201 38.1669C21.6201 39.5672 22.0354 40.9361 22.8133 42.1004C23.5913 43.2647 24.697 44.1721 25.9907 44.708C27.2844 45.2438 28.708 45.3841 30.0814 45.1109C31.4547 44.8377 32.7163 44.1634 33.7064 43.1732C34.6966 42.1831 35.3709 40.9215 35.6441 39.5482C35.9173 38.1748 35.7771 36.7512 35.2412 35.4575C34.7053 34.1638 33.7979 33.0581 32.6336 32.2801C31.4693 31.5021 30.1004 31.0869 28.7001 31.0869C26.8232 31.0896 25.0239 31.8363 23.6967 33.1635C22.3695 34.4907 21.6228 36.29 21.6201 38.1669ZM34.0101 38.1669C34.018 39.2188 33.7134 40.2493 33.1347 41.1278C32.5561 42.0063 31.7296 42.6931 30.76 43.1011C29.7905 43.5092 28.7216 43.6201 27.6889 43.4197C26.6563 43.2194 25.7064 42.7168 24.9598 41.9758C24.2131 41.2348 23.7034 40.2888 23.4953 39.2576C23.2871 38.2265 23.3899 37.1568 23.7906 36.1842C24.1913 35.2116 24.8719 34.3799 25.7459 33.7947C26.62 33.2094 27.6482 32.8969 28.7001 32.8969C30.1076 32.8996 31.4567 33.4598 32.4519 34.4551C33.4472 35.4503 34.0075 36.7994 34.0101 38.2069" fill="#00AEEF"/>
<path d="M21.6201 38.1669C21.6201 39.5672 22.0354 40.9361 22.8133 42.1004C23.5913 43.2647 24.697 44.1721 25.9907 44.708C27.2844 45.2438 28.708 45.3841 30.0814 45.1109C31.4547 44.8377 32.7163 44.1634 33.7064 43.1732C34.6966 42.1831 35.3709 40.9215 35.6441 39.5482C35.9173 38.1748 35.7771 36.7512 35.2412 35.4575C34.7053 34.1638 33.7979 33.0581 32.6336 32.2801C31.4693 31.5021 30.1004 31.0869 28.7001 31.0869C26.8232 31.0896 25.0239 31.8363 23.6967 33.1635C22.3695 34.4907 21.6228 36.29 21.6201 38.1669ZM34.0101 38.1669C34.018 39.2188 33.7134 40.2493 33.1347 41.1278C32.5561 42.0063 31.7296 42.6931 30.76 43.1011C29.7905 43.5092 28.7216 43.6201 27.6889 43.4197C26.6563 43.2194 25.7064 42.7168 24.9598 41.9758C24.2131 41.2348 23.7034 40.2888 23.4953 39.2576C23.2871 38.2265 23.3899 37.1568 23.7906 36.1842C24.1913 35.2116 24.8719 34.3799 25.7459 33.7947C26.62 33.2094 27.6482 32.8969 28.7001 32.8969C30.1007 32.8995 31.4438 33.4543 32.4379 34.4409C33.432 35.4275 33.997 36.7664 34.0101 38.1669V38.1669Z" stroke="white" stroke-width="0.21" stroke-miterlimit="10"/>
<path d="M28.7001 29.3169C31.1819 29.3181 33.5855 28.4493 35.493 26.8616C37.4004 25.2738 38.691 23.0677 39.1401 20.6269L37.4001 20.3069C36.9847 22.4633 35.7824 24.3883 34.0268 25.7077C32.2712 27.027 30.0878 27.6465 27.9009 27.4458C25.714 27.2451 23.6799 26.2384 22.1938 24.6215C20.7078 23.0046 19.876 20.8929 19.8601 18.6969V18.5969C19.8582 17.076 20.251 15.5806 21.0001 14.2569L26.8601 3.89689C27.0467 3.56538 27.3184 3.28963 27.6471 3.09804C27.9758 2.90645 28.3496 2.80595 28.7301 2.80689C29.1044 2.80992 29.4711 2.91247 29.7927 3.10402C30.1143 3.29557 30.3791 3.56921 30.5601 3.89689L33.4801 9.06689L32.5801 11.4769C32.3449 12.0962 32.2295 12.7545 32.2401 13.4169C32.2505 14.1915 32.4304 14.9545 32.767 15.6522C33.1036 16.35 33.5888 16.9657 34.1885 17.456C34.7883 17.9464 35.4881 18.2996 36.2388 18.4908C36.9895 18.6821 37.773 18.7067 38.5343 18.563C39.2956 18.4194 40.0162 18.1109 40.6456 17.6592C41.275 17.2075 41.7979 16.6236 42.1777 15.9483C42.5575 15.2731 42.785 14.523 42.8441 13.7505C42.9032 12.9781 42.7926 12.2021 42.5201 11.4769L40.7701 6.77689C40.5238 6.12185 40.0837 5.5575 39.5083 5.15913C38.933 4.76077 38.2499 4.54734 37.5501 4.54734C36.8503 4.54734 36.1671 4.76077 35.5918 5.15913C35.0165 5.5575 34.5763 6.12185 34.3301 6.77689V6.88689L32.1101 2.99689C31.7703 2.39118 31.2752 1.88692 30.6759 1.53595C30.0766 1.18499 29.3946 1 28.7001 1C28.0056 1 27.3236 1.18499 26.7242 1.53595C26.1249 1.88692 25.6299 2.39118 25.2901 2.99689L19.4501 13.3869C18.5519 14.9764 18.08 16.7712 18.0801 18.5969V18.6969C18.0827 21.5127 19.2025 24.2124 21.1935 26.2034C23.1846 28.1945 25.8843 29.3142 28.7001 29.3169ZM34.2301 12.0669L35.9901 7.39689C36.1066 7.07669 36.3187 6.80009 36.5978 6.60464C36.8769 6.40918 37.2094 6.30434 37.5501 6.30434C37.8908 6.30434 38.2233 6.40918 38.5023 6.60464C38.7814 6.80009 38.9936 7.07669 39.1101 7.39689L40.8601 12.0669C41.0184 12.4887 41.0965 12.9364 41.0901 13.3869C41.0795 14.3258 40.6963 15.222 40.025 15.8783C39.3536 16.5347 38.4489 16.8975 37.5101 16.8869C36.5712 16.8763 35.675 16.4931 35.0186 15.8218C34.3623 15.1504 33.9995 14.2458 34.0101 13.3069C34.0124 12.8841 34.0868 12.4647 34.2301 12.0669Z" fill="#00AEEF"/>
<path d="M28.7001 29.3169C31.1819 29.3181 33.5855 28.4493 35.493 26.8616C37.4004 25.2738 38.691 23.0677 39.1401 20.6269L37.4001 20.3069C36.9847 22.4633 35.7824 24.3883 34.0268 25.7077C32.2712 27.027 30.0878 27.6465 27.9009 27.4458C25.714 27.2451 23.6799 26.2384 22.1938 24.6215C20.7078 23.0046 19.876 20.8929 19.8601 18.6969V18.5969C19.8582 17.076 20.251 15.5806 21.0001 14.2569L26.8601 3.89689C27.0467 3.56538 27.3184 3.28963 27.6471 3.09804C27.9758 2.90645 28.3496 2.80595 28.7301 2.80689C29.1044 2.80992 29.4711 2.91247 29.7927 3.10402C30.1143 3.29557 30.3791 3.56921 30.5601 3.89689L33.4801 9.06689L32.5801 11.4769C32.3449 12.0962 32.2295 12.7545 32.2401 13.4169C32.2505 14.1915 32.4304 14.9545 32.767 15.6522C33.1036 16.35 33.5888 16.9657 34.1885 17.456C34.7883 17.9464 35.4881 18.2996 36.2388 18.4908C36.9895 18.6821 37.773 18.7067 38.5343 18.563C39.2956 18.4194 40.0162 18.1109 40.6456 17.6592C41.275 17.2075 41.7979 16.6236 42.1777 15.9483C42.5575 15.2731 42.785 14.523 42.8441 13.7505C42.9032 12.9781 42.7926 12.2021 42.5201 11.4769L40.7701 6.77689C40.5238 6.12185 40.0837 5.55749 39.5083 5.15913C38.933 4.76077 38.2499 4.54734 37.5501 4.54734C36.8503 4.54734 36.1671 4.76077 35.5918 5.15913C35.0165 5.55749 34.5763 6.12185 34.3301 6.77689V6.88689L32.1101 2.99689C31.7703 2.39118 31.2752 1.88692 30.6759 1.53595C30.0766 1.18499 29.3946 1 28.7001 1C28.0056 1 27.3236 1.18499 26.7242 1.53595C26.1249 1.88692 25.6299 2.39118 25.2901 2.99689L19.4501 13.3869C18.5519 14.9764 18.08 16.7712 18.0801 18.5969V18.6969C18.0827 21.5127 19.2025 24.2124 21.1935 26.2034C23.1846 28.1945 25.8843 29.3142 28.7001 29.3169V29.3169ZM34.2301 12.0669L35.9901 7.39689C36.1066 7.07669 36.3187 6.80009 36.5978 6.60464C36.8769 6.40918 37.2094 6.30434 37.5501 6.30434C37.8908 6.30434 38.2233 6.40918 38.5023 6.60464C38.7814 6.80009 38.9936 7.07669 39.1101 7.39689L40.8601 12.0669C41.0184 12.4887 41.0965 12.9364 41.0901 13.3869C41.0795 14.3258 40.6963 15.222 40.025 15.8783C39.3536 16.5347 38.4489 16.8975 37.5101 16.8869C36.5712 16.8763 35.675 16.4931 35.0186 15.8218C34.3623 15.1504 33.9995 14.2458 34.0101 13.3069C34.0124 12.8841 34.0868 12.4647 34.2301 12.0669V12.0669Z" stroke="white" stroke-width="0.21" stroke-miterlimit="10"/>
<path d="M24.0702 15.9868L26.8602 11.1168L25.3102 10.2468L22.5702 15.1268C21.9749 16.1865 21.6615 17.3813 21.6602 18.5968V18.6968C21.656 19.6403 21.8424 20.5748 22.2085 21.4444C22.5745 22.3139 23.1125 23.1005 23.7902 23.7568L25.0302 22.4868C24.5221 21.9954 24.1185 21.4063 23.8435 20.7551C23.5686 20.1038 23.428 19.4037 23.4302 18.6968V18.5968C23.4338 17.6835 23.6677 16.7858 24.1102 15.9868" fill="#00AEEF"/>
<path d="M24.0702 15.9868L26.8602 11.1168L25.3102 10.2468L22.5702 15.1268C21.9749 16.1865 21.6615 17.3813 21.6602 18.5968V18.6968C21.656 19.6403 21.8424 20.5748 22.2085 21.4444C22.5745 22.3139 23.1125 23.1005 23.7902 23.7568L25.0302 22.4868C24.5221 21.9954 24.1185 21.4063 23.8435 20.7551C23.5686 20.1038 23.428 19.4037 23.4302 18.6968V18.5968C23.4215 17.6869 23.6416 16.7895 24.0702 15.9868V15.9868Z" stroke="white" stroke-width="0.21" stroke-miterlimit="10"/>
<path d="M27.2284 6.76524L26.2334 8.53467L27.7762 9.40222L28.7712 7.63279L27.2284 6.76524Z" fill="#00AEEF"/>
<path d="M27.2284 6.76524L26.2334 8.53467L27.7762 9.40222L28.7712 7.63279L27.2284 6.76524Z" stroke="white" stroke-width="0.21" stroke-miterlimit="10"/>
<path d="M55.92 37.5868C51.1787 32.5349 45.127 28.8997 38.44 27.0868L37.99 26.9668L34.99 29.5468L35.76 30.2168C37.3876 31.641 38.542 33.5277 39.0693 35.6252C39.5965 37.7226 39.4714 39.931 38.7108 41.9555C37.9501 43.98 36.5899 45.7244 34.812 46.9556C33.034 48.1869 30.9227 48.8466 28.76 48.8466C26.5973 48.8466 24.486 48.1869 22.708 46.9556C20.9301 45.7244 19.5699 43.98 18.8093 41.9555C18.0486 39.931 17.9235 37.7226 18.4507 35.6252C18.9779 33.5277 20.1324 31.641 21.76 30.2168L22.52 29.5468L19.52 26.9668L19.07 27.0868C12.3435 28.881 6.25149 32.5175 1.48 37.5868L1 38.1668L1.48 38.7368C4.96651 42.4646 9.18156 45.4365 13.8639 47.4683C18.5461 49.5001 23.5959 50.5485 28.7 50.5485C33.8041 50.5485 38.8539 49.5001 43.5361 47.4683C48.2184 45.4365 52.4335 42.4646 55.92 38.7368L56.41 38.1668L55.92 37.5868ZM4.09 38.8968C5.9 38.7068 8.41 38.3968 9.61 38.2568L11.1 41.2568L12.68 40.4568L11.24 37.5868L14.19 35.3768L13.13 33.8968L9.78 36.4268C8.2 36.6268 6.11 36.8768 4.51 37.0568C8.65 33.2717 13.5989 30.481 18.98 28.8968L19.77 29.5768C18.5645 30.8262 17.6361 32.3158 17.0452 33.9483C16.4543 35.5808 16.2142 37.3196 16.3406 39.0512C16.4671 40.7827 16.9572 42.4681 17.779 43.9975C18.6008 45.5268 19.7358 46.8657 21.11 47.9268C14.7388 46.4727 8.86633 43.357 4.09 38.8968ZM36.29 47.9768C37.6663 46.9138 38.803 45.5726 39.626 44.0407C40.4489 42.5088 40.9397 40.8205 41.0661 39.0862C41.1926 37.3518 40.9519 35.6102 40.3598 33.9751C39.7677 32.34 38.8376 30.8481 37.63 29.5968L38.42 28.9168C43.7847 30.5086 48.7208 33.2911 52.86 37.0568L45.86 36.4268L43.48 33.9968L42.23 35.2468L44.53 37.5468L43.86 40.2668L41.48 41.8968L42.48 43.3668L44.48 41.9968L45.74 43.2568L46.99 42.0068L45.58 40.5868L46.16 38.2668L53.28 38.9168C48.5229 43.4031 42.654 46.5378 36.28 47.9968" fill="#00AEEF"/>
<path d="M55.92 37.5868C51.1787 32.5349 45.127 28.8997 38.44 27.0868L37.99 26.9668L34.99 29.5468L35.76 30.2168C37.3876 31.641 38.5421 33.5277 39.0693 35.6252C39.5965 37.7226 39.4714 39.931 38.7108 41.9555C37.9501 43.98 36.5899 45.7244 34.812 46.9556C33.034 48.1869 30.9227 48.8466 28.76 48.8466C26.5973 48.8466 24.486 48.1869 22.708 46.9556C20.9301 45.7244 19.5699 43.98 18.8093 41.9555C18.0486 39.931 17.9235 37.7226 18.4507 35.6252C18.9779 33.5277 20.1324 31.641 21.76 30.2168L22.52 29.5468L19.52 26.9668L19.07 27.0868C12.3435 28.881 6.25149 32.5175 1.48 37.5868L1 38.1668L1.48 38.7368C4.96651 42.4646 9.18156 45.4365 13.8639 47.4683C18.5461 49.5001 23.5959 50.5485 28.7 50.5485C33.8041 50.5485 38.8539 49.5001 43.5361 47.4683C48.2184 45.4365 52.4335 42.4646 55.92 38.7368L56.41 38.1668L55.92 37.5868ZM4.09 38.8968C5.9 38.7068 8.41 38.3968 9.61 38.2568L11.1 41.2568L12.68 40.4568L11.24 37.5868L14.19 35.3768L13.13 33.8968L9.78 36.4268C8.2 36.6268 6.11 36.8768 4.51 37.0568C8.65 33.2717 13.5989 30.481 18.98 28.8968L19.77 29.5768C18.5645 30.8262 17.6361 32.3158 17.0452 33.9483C16.4543 35.5808 16.2142 37.3196 16.3406 39.0512C16.4671 40.7827 16.9572 42.4681 17.779 43.9975C18.6008 45.5268 19.7358 46.8657 21.11 47.9268C14.7388 46.4727 8.86633 43.357 4.09 38.8968V38.8968ZM36.29 47.9768C37.6663 46.9138 38.803 45.5726 39.626 44.0407C40.4489 42.5088 40.9397 40.8205 41.0661 39.0862C41.1926 37.3518 40.9519 35.6102 40.3598 33.9751C39.7678 32.34 38.8376 30.8481 37.63 29.5968L38.42 28.9168C43.7847 30.5086 48.7208 33.2911 52.86 37.0568L45.86 36.4268L43.48 33.9968L42.23 35.2468L44.53 37.5468L43.86 40.2668L41.48 41.8968L42.48 43.3668L44.48 41.9968L45.74 43.2568L46.99 42.0068L45.58 40.5868L46.16 38.2668L53.28 38.9168C48.5211 43.387 42.6563 46.5076 36.29 47.9568V47.9768Z" stroke="white" stroke-width="0.21" stroke-miterlimit="10"/>
</svg>
