<svg width="39" height="42" viewBox="0 0 39 42" fill="none" xmlns="http://www.w3.org/2000/svg">
<path d="M30.151 0.0250244C30.6387 0.134249 31.1264 0.199784 31.6031 0.341776C35.2057 1.44494 37.4116 3.82604 37.9215 7.49599C38.4203 11.1332 36.9238 13.9839 33.7979 15.9937C33.5651 16.1466 33.4543 16.2886 33.4653 16.5725C33.4875 17.6757 33.4764 18.7789 33.4764 19.893C33.4764 20.0131 33.4875 20.1442 33.4653 20.2643C33.4099 20.7449 33.0663 21.0508 32.6118 21.0398C32.1573 21.0289 31.8248 20.7012 31.8137 20.2206C31.8026 19.2813 31.8137 18.342 31.8137 17.3917C31.8137 17.2388 31.8137 17.0968 31.8137 16.9002C30.4946 17.2607 29.1866 17.348 27.812 17.1405C27.812 17.348 27.812 17.5228 27.812 17.6976C27.812 23.2571 27.812 28.8057 27.812 34.3652C27.812 35.8944 27.025 37.0412 25.6837 37.4344C25.3179 37.5437 24.9189 37.5764 24.542 37.5764C18.9995 37.5874 13.4571 37.5874 7.91463 37.5874C7.74835 37.5874 7.58208 37.5874 7.30496 37.5874C7.34929 38.2427 7.31604 38.8871 7.44906 39.4879C7.58208 40.0558 8.0809 40.3289 8.6684 40.3617C9.02312 40.3726 9.38892 40.3617 9.74364 40.3617C16.5498 40.3617 23.3448 40.3617 30.151 40.3617C31.2927 40.3617 31.8026 39.8592 31.8026 38.7342C31.8026 35.1735 31.8026 31.6128 31.8026 28.052C31.8026 27.8991 31.8026 27.7462 31.8137 27.6042C31.8469 27.1892 32.1462 26.8833 32.5564 26.8506C32.9776 26.8178 33.3434 27.069 33.4321 27.495C33.4653 27.6479 33.4653 27.8227 33.4653 27.9865C33.4653 31.5582 33.4653 35.1407 33.4653 38.7124C33.4653 40.4709 32.6894 41.4757 30.9712 41.9563C30.9491 41.9673 30.9269 41.9891 30.9047 42C23.3337 42 15.7738 42 8.20283 42C8.18066 41.9782 8.15849 41.9563 8.13632 41.9563C6.42925 41.4211 5.67547 40.4272 5.66439 38.6578C5.66439 38.3082 5.66439 37.9587 5.66439 37.5546C4.82194 37.5546 4.02382 37.5546 3.22571 37.5546C1.27476 37.5546 0 36.2985 0 34.3762C0 24.5787 0 14.7813 0 4.98382C0 4.67799 0.0332547 4.35032 0.0997642 4.05541C0.454481 2.66826 1.62948 1.81631 3.18137 1.81631C9.96533 1.81631 16.7493 1.81631 23.5443 1.80538C23.7993 1.80538 24.0875 1.70708 24.2981 1.56509C25.2625 0.931588 26.3045 0.472845 27.4352 0.221629C27.7566 0.156094 28.0781 0.0905592 28.3995 0.0250244C28.987 0.0250244 29.5745 0.0250244 30.151 0.0250244ZM22.3139 3.44375C22.0811 3.44375 21.937 3.44375 21.7818 3.44375C20.3186 3.44375 18.8443 3.44375 17.3811 3.44375C12.659 3.44375 7.93679 3.44375 3.20354 3.44375C2.46085 3.44375 1.93986 3.73866 1.75142 4.30663C1.67382 4.54692 1.65165 4.81998 1.65165 5.0712C1.65165 14.8031 1.65165 24.535 1.65165 34.2669C1.65165 34.3762 1.65165 34.4854 1.65165 34.5946C1.70708 35.381 2.25024 35.9053 3.05943 35.9053C10.2757 35.9053 17.492 35.9053 24.7083 35.9053C25.4953 35.9053 26.0385 35.4029 26.105 34.6274C26.116 34.5072 26.116 34.3871 26.116 34.256C26.116 28.5326 26.116 22.8202 26.116 17.0968C26.116 17.0204 26.1382 16.9221 26.105 16.8565C26.0606 16.7582 26.0163 16.6162 25.9276 16.5835C24.2316 15.8735 22.9014 14.7485 21.9038 13.263C21.6377 13.2958 21.3939 13.3613 21.15 13.3613C16.3059 13.3723 11.4507 13.3613 6.60661 13.3613C5.85283 13.3613 5.55354 13.0664 5.55354 12.3128C5.55354 11.3625 5.55354 10.4014 5.55354 9.45111C5.55354 8.50085 5.78632 8.26056 6.75071 8.26056C11.1736 8.26056 15.5854 8.26056 20.0083 8.26056C20.1856 8.26056 20.3519 8.26056 20.5514 8.26056C20.6623 6.4802 21.2498 4.91829 22.3139 3.44375ZM29.2752 15.5895C33.1771 15.6004 36.3696 12.4766 36.3696 8.63192C36.3696 4.80906 33.1993 1.67432 29.3196 1.66339C25.4066 1.65247 22.2363 4.77629 22.2363 8.63192C22.2252 12.4657 25.3734 15.5895 29.2752 15.5895ZM20.5403 9.94262C16.0953 9.94262 11.6835 9.94262 7.26062 9.94262C7.26062 10.5543 7.26062 11.1332 7.26062 11.7121C11.6946 11.7121 16.1064 11.7121 20.5403 11.7121C20.5403 11.1113 20.5403 10.5434 20.5403 9.94262Z" fill="#009EE2"/>
<path d="M31.8027 23.9015C31.8027 23.4427 32.1574 23.1041 32.623 23.0932C33.0886 23.0932 33.4765 23.4755 33.4544 23.9233C33.4433 24.3602 33.0553 24.7207 32.6119 24.7098C32.1575 24.7098 31.8027 24.3493 31.8027 23.9015Z" fill="#009EE2"/>
<path d="M13.9009 25.6164C11.5177 25.6164 9.1344 25.6164 6.75115 25.6164C6.59596 25.6164 6.44077 25.6164 6.29667 25.5946C5.88653 25.5399 5.59832 25.2123 5.58723 24.8191C5.57615 24.4258 5.85327 24.0763 6.26341 24.0108C6.42969 23.978 6.59596 23.978 6.76223 23.978C11.5287 23.978 16.2953 23.978 21.0507 23.978C21.8155 23.978 22.2035 24.2511 22.2146 24.7863C22.2257 25.3433 21.8377 25.6164 21.0396 25.6164C18.6674 25.6164 16.2842 25.6164 13.9009 25.6164Z" fill="#009EE2"/>
<path d="M13.9003 17.8613C11.517 17.8613 9.13377 17.8613 6.75052 17.8613C6.58424 17.8613 6.41797 17.8613 6.2517 17.8395C5.84155 17.763 5.56443 17.4244 5.57552 17.0312C5.5866 16.6162 5.89698 16.2885 6.32929 16.2448C6.48448 16.2339 6.62858 16.2339 6.78377 16.2339C11.517 16.2339 16.2614 16.2339 20.9946 16.2339C21.1609 16.2339 21.3272 16.2339 21.4934 16.2557C21.9036 16.3103 22.2029 16.6271 22.214 17.0312C22.225 17.4135 21.9812 17.7521 21.5821 17.8395C21.4048 17.8723 21.2274 17.8832 21.05 17.8832C18.6668 17.8613 16.2835 17.8613 13.9003 17.8613Z" fill="#009EE2"/>
<path d="M13.9008 27.8773C16.3395 27.8773 18.7782 27.8773 21.2169 27.8773C21.5716 27.8773 21.882 27.9429 22.0815 28.2487C22.414 28.7402 22.1147 29.4065 21.5051 29.5048C21.361 29.5266 21.2058 29.5157 21.0506 29.5157C16.2841 29.5157 11.5176 29.5157 6.75107 29.5157C6.67347 29.5157 6.58479 29.5157 6.5072 29.5157C5.95295 29.5048 5.57607 29.1552 5.58715 28.6747C5.59824 28.205 5.96404 27.8773 6.5072 27.8773C8.24753 27.8773 9.99895 27.8773 11.7393 27.8773C12.4598 27.8773 13.1803 27.8773 13.9008 27.8773Z" fill="#009EE2"/>
<path d="M13.9003 21.7389C11.5059 21.7389 9.11158 21.7389 6.70615 21.7389C6.58422 21.7389 6.4512 21.7498 6.32927 21.728C5.89696 21.6843 5.58658 21.3457 5.57549 20.9415C5.56441 20.5374 5.8637 20.177 6.28493 20.1114C6.41795 20.0896 6.56205 20.1005 6.69507 20.1005C11.4838 20.1005 16.2835 20.1005 21.0722 20.1005C21.1941 20.1005 21.3272 20.0896 21.4491 20.1114C21.9036 20.166 22.214 20.5156 22.2029 20.9415C22.1918 21.3675 21.8703 21.7061 21.4158 21.7389C21.2939 21.7498 21.172 21.7389 21.039 21.7389C18.6668 21.7389 16.2835 21.7389 13.9003 21.7389Z" fill="#009EE2"/>
<path d="M28.4766 10.3467C28.4766 9.46199 28.4766 8.57727 28.4766 7.69255C28.4766 7.11366 28.787 6.76414 29.2747 6.7423C29.7846 6.73138 30.1283 7.10274 30.1283 7.68163C30.1393 9.47291 30.1393 11.2533 30.1283 13.0446C30.1283 13.6125 29.7957 13.962 29.2969 13.962C28.7981 13.962 28.4766 13.6234 28.4766 13.0446C28.4655 12.1489 28.4766 11.2533 28.4766 10.3467Z" fill="#009EE2"/>
<path d="M28.4768 4.90733C28.4879 4.44858 28.8426 4.10999 29.2971 4.10999C29.7516 4.10999 30.1174 4.47043 30.1174 4.91825C30.1174 5.37699 29.7183 5.75928 29.2639 5.73743C28.8205 5.72651 28.4657 5.35515 28.4768 4.90733Z" fill="#009EE2"/>
</svg>
