<svg width="48" height="48" viewBox="0 0 48 48" fill="none" xmlns="http://www.w3.org/2000/svg">
<path d="M9.98605 47.9651C8.81209 47.7439 7.66138 47.4179 6.68502 46.6729C5.976 47.3364 5.16236 47.6973 4.2325 47.4878C3.72107 47.3714 3.19802 47.1269 2.77958 46.8126C2.23329 46.3935 1.75673 45.858 1.28017 45.3458C0.315437 44.2981 0.29219 42.773 1.18719 41.6788C1.25693 41.5973 1.32667 41.5158 1.40803 41.4226C0.826863 40.5146 0.408424 39.56 0.25732 38.489C-0.0681328 36.1608 0.594397 34.1468 2.21004 32.4588C3.11666 31.5159 4.04653 30.5962 4.97639 29.6882C5.16236 29.5019 5.20886 29.3389 5.13912 29.0828C4.5812 26.9641 4.33711 24.7988 4.5347 22.6102C4.59282 21.935 4.83691 21.6207 5.30184 21.6556C5.76678 21.6906 5.98762 22.0631 5.94113 22.715C5.6273 27.0572 6.76638 31.0036 9.25378 34.5542C10.6137 36.51 12.8221 38.5239 14.4959 39.397C15.3328 38.5472 16.1929 37.6974 17.0414 36.836C17.7853 36.0909 18.6803 35.8232 19.6915 36.0793C21.6675 36.5682 22.4114 38.9663 21.0631 40.4913C20.7376 40.8639 20.3308 41.1665 20.0054 41.5623C23.132 42.3307 26.189 42.2026 29.211 41.248C33.4884 39.8976 36.7894 37.29 39.2187 33.4832C38.347 32.6101 37.4868 31.7487 36.6383 30.8989C35.8944 30.1538 35.6271 29.2574 35.8944 28.2446C36.4059 26.2656 38.7886 25.5322 40.3113 26.8942C40.6833 27.2202 40.9622 27.6393 41.2877 28.0118C41.3574 27.9769 41.4271 27.942 41.4969 27.907C41.6015 27.162 41.7642 26.4169 41.7991 25.6603C41.8456 24.4961 41.8107 23.332 41.7875 22.1679C41.7758 21.7371 41.8921 21.4228 42.3221 21.3064C42.7522 21.19 43.159 21.5043 43.1706 22.0514C43.2055 23.4018 43.2404 24.7639 43.159 26.1026C43.1009 27.0107 42.8336 27.907 42.7057 28.8151C42.6825 29.0013 42.7522 29.2807 42.8801 29.4204C43.7286 30.3052 44.6003 31.1783 45.4837 32.0397C46.6925 33.2155 47.4829 34.6008 47.7154 36.2888C47.727 36.3587 47.7619 36.4285 47.7851 36.51C47.7851 37.0339 47.7851 37.5694 47.7851 38.0932C47.5294 39.2341 47.2272 40.3516 46.5182 41.2829C47.2737 42.3074 47.4713 42.8778 47.355 43.716C47.1807 44.9383 45.2745 47.0221 44.0191 47.3481C42.9614 47.6158 42.0548 47.3132 41.276 46.5798C41.2063 46.6147 41.1482 46.638 41.1017 46.6729C37.9983 48.5239 34.6624 48.1164 32.1169 45.5786C31.2684 44.7288 30.4199 43.8906 29.583 43.0292C29.3621 42.7963 29.1645 42.7498 28.8507 42.8429C25.6427 43.6927 22.4346 43.716 19.215 42.9011C18.9128 42.8312 18.7268 42.8895 18.5176 43.1106C17.6342 44.0187 16.7392 44.9034 15.8442 45.7881C15.5769 46.0559 15.2979 46.3004 15.0073 46.5332C14.6586 46.8009 14.2634 46.766 14.0077 46.4633C13.752 46.1607 13.7869 45.7765 14.1123 45.4622C16.0302 43.5763 17.9364 41.6788 19.8543 39.7812C19.924 39.7114 19.9821 39.6532 20.0518 39.5833C20.4122 39.1526 20.4819 38.5822 20.2262 38.1049C19.9705 37.6159 19.4591 37.3132 18.9128 37.4413C18.5757 37.5228 18.2154 37.7207 17.9713 37.9652C16.4254 39.4785 14.9027 41.0152 13.3801 42.5519C12.6362 43.2969 11.7644 43.5647 10.7416 43.3085C10.4626 43.2387 10.2069 43.099 9.91631 42.9826C9.56761 44.1933 8.46339 44.787 7.74274 45.7416C8.11469 45.9162 8.44014 46.0908 8.78884 46.2305C9.75358 46.603 10.7416 46.6729 11.7644 46.5216C12.241 46.4517 12.5548 46.7078 12.6129 47.1153C12.6594 47.4994 12.3921 47.8254 11.9271 47.9069C11.7877 47.9302 11.6598 47.9767 11.5319 48C10.9857 47.9651 10.4858 47.9651 9.98605 47.9651ZM45.4953 40.2469C45.6115 40.0373 45.7045 39.8743 45.7859 39.7114C46.8552 37.5112 46.4252 34.9733 44.6468 33.1689C42.973 31.4809 41.2877 29.7929 39.6023 28.1166C39.5093 28.0235 39.4279 27.942 39.3233 27.8605C38.8816 27.5345 38.4167 27.4763 37.9285 27.7208C37.4403 27.9652 37.1381 28.396 37.2311 28.9315C37.2892 29.304 37.4868 29.7114 37.7426 29.9792C39.1722 31.4577 40.6368 32.9012 42.0897 34.3563C43.3217 35.5903 43.4845 36.4634 42.7638 38.0816C43.9494 38.4192 44.5538 39.5018 45.4953 40.2469ZM5.87139 39.4203C5.51106 39.6066 5.15074 39.7114 4.90665 39.9442C4.04653 40.7474 3.22127 41.5973 2.39601 42.4354C1.7916 43.0641 1.7916 43.8324 2.39601 44.4727C2.80283 44.9034 3.22127 45.3225 3.65133 45.7299C4.24412 46.2887 5.03451 46.2887 5.61567 45.7299C6.46418 44.915 7.30106 44.0769 8.11469 43.2271C8.7191 42.5984 8.7191 41.8301 8.11469 41.1898C7.70787 40.7591 7.31268 40.3284 6.85937 39.9442C6.59203 39.723 6.23171 39.6066 5.87139 39.4203ZM39.2536 42.0862C39.4512 42.4471 39.5558 42.808 39.7766 43.0524C40.5903 43.9255 41.4504 44.7637 42.2989 45.6019C42.8684 46.149 43.6472 46.1607 44.2284 45.6252C44.6933 45.1944 45.1466 44.7404 45.5767 44.2748C46.1113 43.6927 46.0997 42.9244 45.5418 42.3423C44.7165 41.4808 43.868 40.631 43.0079 39.8045C42.4268 39.2457 41.6364 39.2457 41.0436 39.8045C40.6019 40.2236 40.1602 40.631 39.765 41.0967C39.5558 41.3644 39.4396 41.7253 39.2536 42.0862ZM2.43088 40.3866C3.36075 39.6415 3.96516 38.5589 5.17399 38.198C4.37198 36.6963 4.76717 35.4739 5.95275 34.4262C6.28983 34.1235 6.60366 33.8092 6.90586 33.5182C6.48742 32.6218 6.10385 31.8069 5.72028 30.9804C4.82529 31.8651 3.8838 32.7149 3.04692 33.6462C2.57036 34.1817 2.17517 34.8336 1.91946 35.4972C1.2918 37.1736 1.50102 38.815 2.43088 40.3866ZM30.8267 42.2143C31.7217 43.1223 32.5702 44.0536 33.4884 44.9034C33.8952 45.2876 34.395 45.6252 34.9065 45.858C36.7081 46.6729 38.4864 46.5332 40.2183 45.532C39.4744 44.6007 38.3935 43.9954 38.0448 42.7963C37.9634 42.8312 37.9053 42.8429 37.8472 42.8662C36.5918 43.4366 35.5574 43.262 34.581 42.2957C34.2207 41.9349 33.8604 41.5623 33.4884 41.2131C33.4071 41.1316 33.2094 41.0967 33.1048 41.1432C32.3261 41.4809 31.5822 41.8534 30.8267 42.2143ZM34.4764 40.3633C34.6159 40.4564 34.7786 40.5379 34.9065 40.6543C35.2087 40.9221 35.4644 41.2364 35.7782 41.4925C36.278 41.9116 36.9405 41.8999 37.4287 41.4226C38.777 40.0955 40.1253 38.7568 41.4504 37.3947C41.9153 36.9174 41.9386 36.2655 41.5201 35.7766C41.1366 35.3226 40.6833 34.9151 40.2648 34.496C39.579 35.3808 38.9281 36.2422 38.2772 37.0921C38.87 37.7789 38.9514 38.0816 38.6143 38.4075C38.4981 38.5239 38.2888 38.652 38.1726 38.6171C37.8355 38.5123 37.5217 38.3377 37.1963 38.1747C36.3478 38.8732 35.4644 39.5717 34.4764 40.3633ZM10.8345 38.4541C10.0907 39.0478 9.82332 39.106 9.48624 38.7684C9.17241 38.4541 9.23053 38.1631 9.77682 37.418C9.0678 36.5333 8.3704 35.6485 7.68463 34.7754C7.26619 35.1712 6.81288 35.5438 6.42931 35.9861C6.03411 36.4401 6.06898 37.1037 6.51067 37.5577C7.84735 38.9314 9.19566 40.2818 10.5672 41.6205C11.067 42.1095 11.7412 42.0746 12.2526 41.6089C12.671 41.2364 13.0546 40.8289 13.4498 40.4331C12.5664 39.7696 11.7179 39.1293 10.8345 38.4541Z" fill="#009EE2"/>
<path d="M41.1241 1.37641C41.9726 0.608077 42.9257 0.328685 44.0183 0.666284C44.088 0.689567 44.1694 0.712849 44.2392 0.747773C45.3899 1.43461 46.3895 2.331 46.9939 3.51841C47.5518 4.62434 47.238 5.70699 46.4127 6.61501C46.68 7.17379 47.0055 7.7093 47.1915 8.29136C48.0748 10.9689 47.5983 13.4019 45.6804 15.4857C44.6111 16.6498 43.4488 17.7441 42.3213 18.8617C41.775 19.3972 41.2868 19.2691 41.0311 18.5474C39.6828 14.6126 37.3698 11.3996 33.906 9.05969C33.72 8.93164 33.5224 8.80358 33.29 8.66389C32.4066 9.54863 31.5581 10.4334 30.6747 11.2832C29.524 12.4008 27.7573 12.3542 26.7228 11.2017C25.7813 10.154 25.7697 8.59404 26.7344 7.54632C27.0599 7.19708 27.4434 6.8944 27.7573 6.4986C24.7933 5.75355 21.8643 5.83504 18.9817 6.67322C14.5299 8.00033 11.0429 10.6196 8.54392 14.6126C9.4273 15.4974 10.3107 16.3588 11.1592 17.2319C12.1123 18.2098 12.2401 19.6067 11.5079 20.701C10.5431 22.1446 8.57879 22.3192 7.30023 21.0619C5.51024 19.2924 3.73187 17.4997 1.9535 15.7069C1.0585 14.7989 0.465714 13.7162 0.186754 12.4706C-0.243309 10.5381 0.0705211 8.72209 1.11662 7.04574C1.16311 6.96425 1.20961 6.88276 1.26772 6.77799C0.605194 6.05623 0.291364 5.21805 0.465714 4.21689C0.709804 2.80829 2.9996 0.712849 4.35953 0.666284C5.19641 0.63136 5.90543 0.934035 6.45173 1.4579C7.26536 1.13194 8.00925 0.724491 8.81126 0.526588C11.3451 -0.0904032 13.5884 0.514947 15.4714 2.31935C16.4129 3.21574 17.3312 4.15869 18.2378 5.08999C18.4354 5.29954 18.6097 5.3461 18.8887 5.26461C22.1432 4.39151 25.3977 4.37987 28.6639 5.18312C28.8382 5.22969 29.1172 5.13656 29.2567 5.0085C30.1633 4.1354 31.0467 3.23902 31.9417 2.34264C34.4988 -0.206816 37.8928 -0.602622 40.9614 1.29492C40.9962 1.3182 41.0427 1.34148 41.1241 1.37641ZM40.0548 2.41249C38.1602 1.06209 35.1962 1.22507 33.4178 2.88978C31.4884 4.69419 29.6519 6.60337 27.7921 8.48927C27.0947 9.19939 27.4202 10.3635 28.3384 10.6429C28.9196 10.8175 29.3962 10.6196 29.8146 10.1889C31.3256 8.66389 32.8483 7.15051 34.3593 5.6255C35.3822 4.60106 36.4748 4.42644 37.7533 5.07835C37.7882 5.10164 37.8347 5.10164 37.9044 5.11328C38.2531 3.92586 39.3574 3.33215 40.0548 2.41249ZM2.32545 7.75586C2.19759 7.97705 2.11623 8.09346 2.04649 8.20987C0.94227 10.2937 1.26772 12.913 2.88337 14.6359C3.73187 15.5439 4.63849 16.4054 5.51024 17.2901C6.4401 18.2214 7.36997 19.1644 8.32308 20.0957C8.76477 20.5381 9.35756 20.6079 9.86898 20.3402C10.3804 20.0724 10.6826 19.502 10.5315 18.9315C10.4501 18.6172 10.2409 18.3029 10.0201 18.0701C8.52068 16.5334 6.99802 15.0201 5.47537 13.5067C4.96394 13.0061 4.60362 12.4124 4.61524 11.7023C4.62686 11.1319 4.80121 10.5614 4.8942 10.0492C4.47576 9.73489 3.9992 9.43221 3.58076 9.05969C3.1507 8.67553 2.77876 8.23316 2.32545 7.75586ZM45.9362 4.62434C45.7502 4.26346 45.6456 3.91422 45.4247 3.64647C45.0295 3.16917 44.5762 2.73844 44.1229 2.31935C43.5301 1.77221 42.7397 1.78385 42.1586 2.35428C41.3101 3.18081 40.4848 4.00735 39.6596 4.85717C39.0784 5.46252 39.0784 6.25413 39.6596 6.85948C40.0664 7.29021 40.4848 7.7093 40.9149 8.11674C41.5193 8.68717 42.3213 8.69881 42.9141 8.11674C43.7626 7.29021 44.5995 6.46367 45.4131 5.60221C45.6339 5.3461 45.7502 4.97358 45.9362 4.62434ZM4.49901 1.94683C4.12706 2.14473 3.77836 2.26115 3.4994 2.49397C3.05772 2.8665 2.67415 3.28559 2.27895 3.70467C1.66292 4.35659 1.65129 5.13656 2.26733 5.77683C3.08096 6.61501 3.90622 7.44155 4.73147 8.2448C5.33589 8.82687 6.12627 8.82687 6.73069 8.25644C7.16075 7.84899 7.57919 7.4299 7.986 6.99917C8.57879 6.37054 8.57879 5.59057 7.96276 4.96194C7.14913 4.12376 6.33549 3.29723 5.48699 2.49397C5.23128 2.26115 4.85933 2.14473 4.49901 1.94683ZM42.0307 17.1388C42.9141 16.2657 43.7858 15.4275 44.6343 14.5544C45.7967 13.3437 46.3081 11.8769 46.1802 10.2122C46.1221 9.30416 45.8548 8.46598 45.3201 7.66273C44.8784 8.1051 44.4949 8.54747 44.0648 8.92C43.6347 9.29252 43.1466 9.61848 42.67 9.96772C43.2977 11.4112 43.1233 12.3426 41.9726 13.495C41.6007 13.8676 41.2055 14.2052 40.8451 14.5311C41.2636 15.4624 41.6355 16.2773 42.0307 17.1388ZM16.9825 5.83504C16.1223 4.97358 15.2855 4.08884 14.4137 3.2623C13.2049 2.09817 11.7403 1.59759 10.0782 1.714C9.18321 1.78385 8.3347 2.03996 7.57919 2.56382C8.3347 3.48349 9.39243 4.08884 9.74113 5.26461C9.81087 5.25297 9.85736 5.24133 9.90385 5.22969C11.2522 4.62434 12.2401 4.79896 13.2862 5.84668C13.6814 6.24249 14.0534 6.66158 14.4137 7.04574C15.3087 6.61501 16.134 6.23085 16.9825 5.83504ZM37.9858 10.6313C38.7064 11.5393 39.4039 12.424 40.1245 13.3321C40.2291 13.2389 40.3453 13.1342 40.4499 13.0294C40.7522 12.7151 41.0776 12.424 41.3566 12.0864C41.7401 11.6091 41.7169 10.9572 41.2752 10.5032C39.9385 9.14118 38.5902 7.77914 37.2187 6.44039C36.7305 5.9631 36.0447 5.97474 35.5333 6.44039C35.1148 6.81291 34.7313 7.22036 34.3361 7.60452C35.2195 8.29136 36.0796 8.94328 36.9397 9.60683C37.6952 9.01313 37.9858 8.95492 38.3229 9.32744C38.6367 9.68832 38.5553 10.0026 37.9858 10.6313ZM13.2049 7.74422C12.7981 7.34841 12.4261 6.95261 12.0193 6.59173C11.5195 6.14936 10.8453 6.14936 10.3688 6.61501C9.00886 7.95376 7.66055 9.30416 6.32387 10.6778C5.85894 11.1551 5.85894 11.8303 6.30062 12.3309C6.68419 12.7616 7.10263 13.1458 7.49783 13.5533C8.17198 12.6685 8.83451 11.807 9.48541 10.9456C8.90425 10.2355 8.83451 9.93279 9.19483 9.59519C9.53191 9.26924 9.84574 9.33908 10.5083 9.90951C11.3916 9.19939 12.275 8.48927 13.2049 7.74422Z" fill="#009EE2"/>
<path d="M15.379 26.0561C15.7277 26.2773 16.1113 26.417 16.3554 26.6847C17.5758 28.0118 18.7614 29.3739 19.947 30.7243C20.5398 31.4111 20.5049 32.1329 19.8308 32.7382C18.7498 33.7161 17.6572 34.6823 16.553 35.6486C15.8788 36.2306 15.1349 36.1724 14.5421 35.5089C13.3682 34.1934 12.2059 32.8779 11.0435 31.5624C10.3694 30.7941 10.4159 30.0956 11.1714 29.4204C12.2407 28.4659 13.2985 27.5113 14.391 26.58C14.6468 26.3588 15.0071 26.254 15.379 26.0561ZM13.3914 32.0979C14.4957 31.0968 15.5766 30.1306 16.6692 29.141C16.2043 28.6172 15.7742 28.1399 15.3209 27.6277C14.2051 28.6172 13.1241 29.5834 12.0199 30.5613C12.4964 31.0852 12.9381 31.5741 13.3914 32.0979ZM17.5991 30.1888C16.4949 31.1783 15.4139 32.1562 14.3213 33.1457C14.7746 33.6579 15.1931 34.1235 15.6347 34.6125C16.7506 33.623 17.8315 32.6567 18.9358 31.6789C18.4592 31.155 18.0408 30.6777 17.5991 30.1888Z" fill="#009EE2"/>
<path d="M32.5241 12.1214C32.896 12.3426 33.3028 12.4706 33.5585 12.7384C34.7557 14.0422 35.9297 15.3693 37.092 16.7081C37.6964 17.4066 37.6383 18.1982 36.9525 18.8152C35.3718 20.2354 33.7794 21.6557 32.1754 23.0526C31.4431 23.6929 30.6527 23.6347 30.0018 22.9013C28.8627 21.6324 27.7236 20.3518 26.6078 19.0596C25.9569 18.3146 26.0034 17.523 26.7589 16.8478C28.3397 15.4392 29.9088 14.0306 31.5128 12.6453C31.7685 12.4357 32.1289 12.3193 32.5241 12.1214ZM32.5008 13.6231C30.8387 15.1016 29.1998 16.5451 27.5493 18.0236C28.7697 19.3972 29.9437 20.736 31.1525 22.098C32.8146 20.6196 34.4419 19.1761 36.104 17.6976C34.8836 16.3239 33.7096 14.9852 32.5008 13.6231Z" fill="#009EE2"/>
</svg>
