<svg width="37" height="44" viewBox="0 0 37 44" fill="none" xmlns="http://www.w3.org/2000/svg">
<path d="M4.02346 43.7365C4.00073 43.7137 3.98936 43.6909 3.96663 43.6796C2.07993 43.1218 1.31842 42.1087 1.31842 40.1393C1.31842 39.8889 1.30705 39.6271 1.31842 39.3767C1.35252 38.7847 1.34115 38.2952 0.681942 37.9424C0.15912 37.6692 0 37.0658 0 36.4625C0 34.6867 0 32.9109 0 31.1238C0.0113657 29.9285 0.568282 29.3366 1.77305 29.2114C1.82988 29.2114 1.87534 29.1886 1.97763 29.1772C1.97763 28.4373 1.9549 27.6974 1.97763 26.9575C2.00037 26.024 2.64821 25.2955 3.55746 25.0906C4.38716 24.9085 5.28505 25.3183 5.66012 26.1037C5.79651 26.3883 5.8647 26.7298 5.87607 27.0485C5.91017 27.8112 5.87607 28.5853 5.8988 29.348C5.8988 29.5187 5.97836 29.7122 6.08065 29.8374C6.41026 30.2472 6.56937 30.6912 6.56937 31.2148C6.56937 31.8523 6.56937 32.4898 6.56937 33.2183C6.72849 33.0248 6.83079 32.9223 6.92171 32.7971C7.99009 31.4083 9.05846 30.031 10.1155 28.6308C10.5928 27.9933 11.1839 27.5608 11.934 27.2876C13.6502 26.6615 15.3551 26.0013 17.0826 25.3752C17.3554 25.2727 17.4577 25.1475 17.4464 24.8515C17.4236 24.2255 17.4464 23.5994 17.435 22.9733C17.435 22.8253 17.3782 22.6204 17.2645 22.5294C15.5483 21.0723 14.73 19.2168 14.764 16.9743C14.764 16.9288 14.7527 16.8946 14.7413 16.8605C14.3435 16.7922 13.9457 16.758 13.5707 16.6556C12.3432 16.3027 11.7067 15.4375 11.7067 14.174C11.7067 13.6162 11.718 13.0698 11.7862 12.512C11.8203 12.2388 11.934 11.9429 12.1045 11.738C12.3545 11.4192 12.4 11.0891 12.3886 10.7135C12.3772 9.55236 12.3773 8.37989 12.3773 7.21879C12.3886 4.61201 14.3321 2.66546 16.9349 2.65407C17.2418 2.65407 17.56 2.65407 17.8896 2.65407C17.9351 2.52886 17.9692 2.40364 18.0033 2.28981C18.4124 0.946577 19.6172 0.0245276 21.0265 0.0131443C22.5496 0.00176101 24.0726 -0.00962231 25.5842 0.0131443C28.6416 0.0586776 31.2102 2.63131 31.2898 5.69342C31.3011 6.03492 31.3011 6.37642 31.2898 6.71792C31.2784 7.1391 31.0056 7.42368 30.6306 7.4123C30.2782 7.40092 30.0395 7.12772 30.0055 6.7293C29.96 6.06907 29.9827 5.38607 29.835 4.73722C29.369 2.75652 27.5732 1.33361 25.5274 1.29946C24.0385 1.27669 22.5496 1.28807 21.0493 1.29946C20.0036 1.31084 19.1739 2.06214 19.1512 3.10941C19.1171 5.01042 19.1171 6.92282 19.1512 8.82383C19.1739 9.81418 19.9695 10.5996 20.9356 10.5996C23.9021 10.6224 26.8685 10.611 29.8463 10.611C29.8804 10.611 29.9259 10.5882 30.0055 10.5655C30.0055 10.2581 29.9941 9.95078 30.0055 9.64343C30.0168 9.21087 30.2669 8.93767 30.6306 8.92629C31.017 8.9149 31.267 9.21087 31.2784 9.6662C31.2784 9.85972 31.2784 10.0646 31.2784 10.2581C31.2784 10.8614 31.3466 11.4078 31.6307 11.9884C32.1536 13.047 32.1081 14.2537 31.6762 15.3465C31.2784 16.3596 30.3237 16.7011 29.3008 16.8035C29.1758 16.8149 29.0507 16.8149 28.9257 16.8263C28.8348 17.4979 28.778 18.1582 28.6416 18.807C28.3233 20.2868 27.5618 21.5162 26.4025 22.4952C26.2775 22.5976 26.1866 22.8139 26.1752 22.9847C26.1525 23.5994 26.1866 24.2141 26.1525 24.8174C26.1411 25.1134 26.2434 25.2386 26.5275 25.3183C28.9257 26.0582 31.3125 26.8322 33.7107 27.5722C35.9042 28.2552 36.984 29.7236 36.984 32.023C36.984 32.5467 36.984 33.0817 36.984 33.6053C36.9726 34.0493 36.7453 34.3111 36.3702 34.3225C35.9724 34.3339 35.7224 34.0606 35.711 33.5939C35.6997 32.9565 35.711 32.3076 35.6997 31.6702C35.6769 30.3838 34.9382 29.3138 33.7107 28.9268C31.1079 28.0844 28.4938 27.2648 25.8797 26.4566C25.7433 26.4111 25.516 26.468 25.391 26.559C24.3681 27.3103 23.3679 28.073 22.3563 28.8357C21.8562 29.2114 21.6858 29.2 21.1857 28.8243C20.1969 28.0844 19.208 27.3445 18.2306 26.5818C18.0146 26.4111 17.8328 26.3997 17.5827 26.4907C15.8324 27.1624 14.0821 27.8226 12.3204 28.4601C11.8203 28.6422 11.4225 28.9268 11.1043 29.348C9.66085 31.2376 8.20603 33.1158 6.77396 35.0055C6.63757 35.1876 6.58074 35.4608 6.53528 35.6998C6.43299 36.2576 6.52391 36.9065 6.2625 37.3391C5.92153 37.8741 5.85333 38.3863 5.8647 38.9669C5.8647 39.4336 5.61466 39.7068 5.21686 39.6954C4.84179 39.684 4.60311 39.4222 4.59175 38.9783C4.58038 38.7961 4.59175 38.614 4.59175 38.4091C3.9098 38.4091 3.26196 38.4091 2.63684 38.4091C2.63684 39.3198 2.54592 40.2304 2.65958 41.1183C2.79597 42.0745 3.81887 42.5868 4.86452 42.2566C5.33051 42.1087 5.8306 41.8355 6.13748 41.4712C7.59229 39.7978 8.97891 38.0676 10.3883 36.3487C10.4792 36.2349 10.536 36.0414 10.536 35.8934C10.5474 35.2218 10.536 34.5615 10.5474 33.8899C10.5474 33.4004 10.8201 33.1045 11.2066 33.1158C11.5816 33.1272 11.809 33.4118 11.8203 33.8899C11.8203 34.0493 11.8203 34.1973 11.8203 34.3908C18.0146 34.3908 24.1862 34.3908 30.4033 34.3908C30.4033 34.2314 30.3919 34.072 30.4033 33.9241C30.426 33.5256 30.6874 33.2638 31.0511 33.2638C31.4034 33.2638 31.6762 33.537 31.6762 33.9354C31.6876 34.9713 31.6762 36.0072 31.6762 37.0545C31.6762 38.8189 31.6762 40.5833 31.6762 42.3705C33.0174 42.3705 34.3244 42.3705 35.6883 42.3705C35.6883 42.2225 35.6883 42.0631 35.6883 41.9151C35.6883 40.1963 35.6883 38.4774 35.6883 36.7471C35.6883 36.5877 35.6883 36.4284 35.7224 36.2804C35.8247 35.9503 36.0634 35.7909 36.4043 35.8251C36.7226 35.8592 36.9272 36.0641 36.9499 36.3828C36.9726 36.6219 36.9613 36.861 36.9613 37.1114C36.9613 39.001 36.9499 40.8906 36.9726 42.7917C36.9726 43.1787 36.8817 43.486 36.5294 43.6796C28.0051 43.6796 19.4808 43.6796 10.9565 43.6796C10.6156 43.4747 10.5133 43.1673 10.5246 42.7803C10.5474 41.9721 10.536 41.1638 10.536 40.3442C10.536 39.6726 10.536 38.9896 10.536 38.2269C10.3655 38.4205 10.2519 38.5457 10.1382 38.6709C9.26305 39.7295 8.36515 40.7768 7.51273 41.8696C6.84215 42.7347 6.09202 43.4405 4.98955 43.6909C4.7054 43.7365 4.36443 43.7365 4.02346 43.7365ZM30.4373 35.7795C24.243 35.7795 18.0828 35.7795 11.8999 35.7795C11.8999 37.1228 11.8999 38.4546 11.8999 39.8092C12.2295 39.8092 12.525 39.8092 12.8205 39.8092C14.0821 39.8092 15.3437 39.8092 16.6167 39.8092C17.1622 39.8092 17.5259 40.2987 17.2418 40.7085C17.1054 40.902 16.7871 41.0614 16.5485 41.0728C15.1391 41.1069 13.7411 41.0842 12.3318 41.0842C12.184 41.0842 12.0363 41.0842 11.8999 41.0842C11.8999 41.5736 11.8999 41.9948 11.8999 42.416C18.0942 42.416 24.2658 42.416 30.4373 42.416C30.4373 41.9607 30.4373 41.5395 30.4373 41.0842C30.2669 41.0842 30.1077 41.0842 29.96 41.0842C26.5844 41.0842 23.1974 41.0842 19.8218 41.0842C19.6854 41.0842 19.5376 41.0955 19.4013 41.0728C19.0603 40.9931 18.8557 40.7768 18.8671 40.4125C18.8898 40.0597 19.0944 39.8775 19.424 39.8206C19.549 39.7978 19.674 39.8092 19.8104 39.8092C23.186 39.8092 26.573 39.8092 29.9486 39.8092C30.1077 39.8092 30.2782 39.8092 30.4487 39.8092C30.4374 38.4319 30.4373 37.1341 30.4373 35.7795ZM16.0825 11.9201C16.0711 11.9884 16.0484 12.0339 16.0484 12.0681C16.0484 13.9463 16.0143 15.8246 16.0597 17.7028C16.0938 19.1485 16.6621 20.4007 17.8214 21.2999C19.6058 22.7001 21.6403 22.9619 23.777 22.37C26.0388 21.7439 27.4482 20.0706 27.5618 17.7256C27.6528 15.836 27.5846 13.9463 27.5846 12.0567C27.5846 12.0225 27.5505 11.977 27.5277 11.9087C27.38 11.9087 27.2322 11.9087 27.0731 11.9087C25.1182 11.9087 23.1519 11.8973 21.197 11.9087C20.2082 11.9087 19.3672 11.5786 18.6966 10.8501C18.6397 10.7931 18.617 10.6907 18.5943 10.6224C17.4577 11.6241 17.1736 11.7721 16.0825 11.9201ZM17.8442 3.95177C17.4464 3.95177 17.094 3.94039 16.7417 3.95177C15.2528 3.99731 13.9003 5.05595 13.7411 6.54717C13.5934 7.87902 13.707 9.23363 13.707 10.5996C14.5481 10.5996 15.4119 10.6452 16.2757 10.5882C17.094 10.5313 17.7987 9.79142 17.8214 8.96043C17.8782 7.30985 17.8442 5.65927 17.8442 3.95177ZM5.29641 31.8523C5.29641 31.6588 5.29641 31.5222 5.29641 31.3856C5.29641 30.6684 5.1032 30.4863 4.38716 30.4863C3.59156 30.4863 2.79596 30.4863 2.00036 30.4863C1.51164 30.4863 1.28432 30.714 1.28432 31.1807C1.27296 32.9337 1.27296 34.6754 1.28432 36.4284C1.28432 36.8951 1.523 37.1455 1.989 37.1455C2.85279 37.1569 3.71659 37.1569 4.59175 37.1455C5.08047 37.1341 5.28505 36.9179 5.29641 36.4398C5.30778 36.2349 5.29641 36.03 5.29641 35.7909C4.6372 35.7909 4.02346 35.8137 3.42107 35.7795C3.21649 35.7682 2.93235 35.6885 2.83006 35.5405C2.70504 35.3811 2.65957 35.051 2.73913 34.8916C2.84142 34.7095 3.12557 34.5388 3.33015 34.5274C3.97799 34.4818 4.62584 34.516 5.27369 34.516C5.27369 34.0265 5.27369 33.6167 5.27369 33.15C4.63721 33.15 4.01209 33.1614 3.38698 33.15C2.92098 33.1386 2.64821 32.8882 2.64821 32.5011C2.64821 32.1141 2.92099 31.8751 3.39835 31.8751C4.0121 31.8523 4.62584 31.8523 5.29641 31.8523ZM21.8221 27.7088C22.7996 26.9688 23.743 26.2631 24.6863 25.5459C24.7772 25.4776 24.9022 25.3638 24.9022 25.2613C24.925 24.6694 24.9136 24.0775 24.9136 23.4628C22.8337 24.2596 20.7879 24.3393 18.7193 23.4628C18.7193 24.0661 18.7079 24.6239 18.7307 25.1703C18.7307 25.2841 18.8102 25.4207 18.8898 25.489C19.8559 26.2289 20.8333 26.9575 21.8221 27.7088ZM14.7527 11.8973C14.5936 11.8973 14.4799 11.8973 14.3776 11.8973C13.4343 11.8973 12.991 12.3299 12.991 13.2633C12.991 13.5479 12.991 13.8325 12.991 14.1171C12.991 15.2099 13.6616 15.7221 14.764 15.4717C14.7527 14.3106 14.7527 13.1381 14.7527 11.8973ZM28.9143 15.4945C30.085 15.688 30.6647 15.2213 30.6647 14.0943C30.6647 13.8097 30.6647 13.5251 30.6647 13.2406C30.6419 12.2161 29.9145 11.6924 28.9143 11.977C28.9143 13.1495 28.9143 14.322 28.9143 15.4945ZM4.62584 29.1772C4.62584 28.4145 4.63721 27.686 4.62584 26.9688C4.61448 26.5932 4.31897 26.32 3.96663 26.3314C3.59156 26.3428 3.31878 26.5477 3.29605 26.9119C3.26196 27.6518 3.28469 28.4031 3.28469 29.1772C3.72795 29.1772 4.14848 29.1772 4.62584 29.1772Z" fill="#009EE2"/>
<path d="M9.22868 19.8657C9.22868 20.0934 9.22868 20.2755 9.22868 20.4576C9.21731 21.6984 8.45581 22.4952 7.22831 22.518C6.14857 22.5408 5.06883 22.518 3.98909 22.518C3.34124 22.518 2.68204 22.5294 2.03419 22.518C0.783964 22.4839 0.0224609 21.7098 0.0224609 20.469C0.0224609 17.8508 0.0224609 15.2327 0.0224609 12.6145C0.0224609 11.3737 0.783964 10.5883 2.03419 10.5769C3.76178 10.5655 5.50072 10.5655 7.22831 10.5769C8.46717 10.5883 9.22868 11.3851 9.22868 12.6259C9.22868 13.7301 9.21731 14.8456 9.24004 15.9498C9.24004 16.132 9.34233 16.3596 9.46736 16.4962C10.1379 17.2134 10.8426 17.8964 11.5246 18.6021C11.6268 18.7046 11.7291 18.807 11.7973 18.9209C12.1042 19.3762 11.9337 19.786 11.3768 19.8315C10.8312 19.8771 10.2743 19.8543 9.7174 19.8657C9.56965 19.8657 9.41053 19.8657 9.22868 19.8657ZM9.56965 18.5794C9.60375 18.5225 9.62648 18.4769 9.66057 18.42C9.24004 18.0216 8.81951 17.6232 8.37625 17.2475C8.04665 16.9629 7.92162 16.6328 7.93299 16.2003C7.95572 15.005 7.94436 13.8098 7.94436 12.6145C7.94436 12.1023 7.72841 11.8632 7.23968 11.8518C5.48936 11.8404 3.75041 11.8404 2.00009 11.8518C1.52273 11.8518 1.29542 12.0909 1.29542 12.569C1.29542 15.2099 1.29542 17.8622 1.29542 20.5032C1.29542 20.9699 1.5 21.2203 1.95463 21.2203C3.72768 21.2317 5.50072 21.2317 7.28514 21.2203C7.7284 21.2203 7.94435 20.9585 7.95572 20.5145C7.96708 20.1275 7.95572 19.7519 7.95572 19.3648C7.96708 18.8184 8.18303 18.5908 8.72859 18.5794C9.00136 18.5794 9.28551 18.5794 9.56965 18.5794Z" fill="#009EE2"/>
<path d="M21.7993 20.173C20.6513 20.1616 19.6739 19.2509 19.5943 18.1012C19.5602 17.6345 19.7762 17.3272 20.1513 17.293C20.5036 17.2475 20.7764 17.4979 20.8559 17.9305C20.9809 18.568 21.3219 18.8981 21.8447 18.8867C22.3562 18.8753 22.6744 18.5452 22.7767 17.9191C22.8449 17.5207 23.1063 17.2703 23.4473 17.293C23.811 17.3158 24.0497 17.6004 24.0497 18.0329C24.0497 19.194 23.0154 20.173 21.7993 20.173Z" fill="#009EE2"/>
<path d="M25.2441 14.0488C25.2327 14.2309 25.2327 14.4244 25.1986 14.5952C25.1191 14.9253 24.8804 15.096 24.5394 15.0733C24.1984 15.0505 23.9939 14.8456 23.9711 14.5041C23.9484 14.2081 23.9598 13.9122 23.9711 13.6048C23.9825 13.2405 24.1757 13.0242 24.5394 12.9901C24.8917 12.9559 25.1645 13.1722 25.2213 13.5365C25.2441 13.7073 25.2213 13.878 25.2213 14.0488C25.2327 14.0374 25.2327 14.0488 25.2441 14.0488Z" fill="#009EE2"/>
<path d="M19.7081 14.0602C19.7081 14.1968 19.7195 14.3448 19.7081 14.4814C19.6627 14.8456 19.4581 15.0505 19.0944 15.0619C18.7307 15.0733 18.5034 14.857 18.4466 14.5155C18.4125 14.2195 18.4238 13.9236 18.4352 13.6276C18.4579 13.2292 18.7193 12.9788 19.083 12.9788C19.4467 12.9788 19.6854 13.2292 19.7081 13.639C19.7195 13.7756 19.7081 13.9236 19.7081 14.0602Z" fill="#009EE2"/>
<path d="M3.92098 17.0084C4.62565 16.2913 5.2735 15.6538 5.90997 15.0049C6.0009 14.9139 6.08046 14.8114 6.18275 14.7431C6.4669 14.5382 6.7624 14.5269 7.03518 14.7659C7.29659 15.005 7.33069 15.3692 7.06928 15.6424C6.19412 16.5531 5.29623 17.441 4.39834 18.3175C4.1142 18.6021 3.77322 18.5679 3.48908 18.2947C3.05719 17.8849 2.63665 17.4637 2.22748 17.0312C1.93198 16.7238 1.93198 16.3482 2.20476 16.0864C2.46617 15.8359 2.81851 15.8359 3.11401 16.1205C3.37543 16.3823 3.6141 16.6783 3.92098 17.0084Z" fill="#009EE2"/>
</svg>
