<svg width="44" height="44" viewBox="0 0 44 44" fill="none" xmlns="http://www.w3.org/2000/svg">
<path d="M0.0117188 33.5637C0.227667 32.858 0.352687 32.118 0.659561 31.4692C1.56882 29.4999 3.13728 28.3046 5.22857 27.7696C7.24029 27.246 9.25202 26.6882 11.2751 26.1646C11.5479 26.0963 11.6388 25.9938 11.6388 25.7092C11.6275 24.7303 11.6388 23.7513 11.6275 22.761C11.6275 22.6016 11.5365 22.3853 11.4229 22.317C9.24066 20.9282 8.03589 18.9362 7.78585 16.3635C7.78585 16.3408 7.77448 16.3066 7.75175 16.2611C7.51307 16.2383 7.26303 16.2156 7.01298 16.17C5.94461 15.9765 5.17174 15.0886 5.12628 13.9958C5.09218 13.2559 5.05809 12.516 5.48998 11.8444C5.56954 11.7191 5.54681 11.5142 5.54681 11.3435C5.54681 9.92058 5.51271 8.49766 5.91051 7.1089C7.03571 3.20442 10.4 0.438269 14.5598 0.0398529C18.3332 -0.324413 22.1862 1.83842 23.9706 5.29895C24.0274 5.41278 24.0843 5.51523 24.2206 5.6063C24.2206 4.77531 24.2206 3.94433 24.2206 3.12473C24.2206 2.72632 24.1979 2.31652 24.2661 1.92948C24.4707 0.791152 25.4368 0.0170863 26.6415 0.0170863C29.3579 0.00570299 32.063 0.0170863 34.7794 0.0170863C36.8934 0.0170863 39.0074 0.0170863 41.1328 0.0170863C42.6785 0.0170863 43.6673 1.00744 43.6673 2.54418C43.6673 3.53453 43.6673 4.53626 43.6673 5.52661C43.6673 6.06163 43.4287 6.34621 43.0081 6.33483C42.6103 6.32345 42.3944 6.05025 42.3944 5.52661C42.3944 4.53626 42.3944 3.53453 42.3944 2.54418C42.3944 1.7132 41.9738 1.29202 41.1328 1.29202C36.3478 1.29202 31.5629 1.29202 26.7666 1.29202C25.9141 1.29202 25.505 1.70182 25.505 2.54418C25.505 8.20169 25.505 13.8706 25.505 19.5281C25.505 20.3818 25.9028 20.7803 26.7552 20.7916C27.7213 20.803 28.6874 20.7916 29.6534 20.7916C30.2899 20.7916 30.4831 20.9965 30.4945 21.634C30.4945 22.0097 30.4945 22.3967 30.4945 22.8748C31.2219 22.3056 31.8925 21.8275 32.5062 21.2925C32.9495 20.9055 33.4268 20.7575 34.0179 20.7689C36.3592 20.7916 38.7005 20.7803 41.0532 20.7803C42.0193 20.7803 42.3944 20.4046 42.3944 19.437C42.3944 15.9651 42.3944 12.4932 42.3944 9.02129C42.3944 8.88469 42.383 8.73671 42.4057 8.60011C42.4739 8.25861 42.6899 8.06509 43.0195 8.06509C43.3605 8.06509 43.5764 8.25861 43.656 8.58873C43.6787 8.71394 43.6673 8.83916 43.6673 8.97576C43.6673 12.4704 43.6673 15.9765 43.6673 19.4712C43.6673 21.1104 42.7126 22.0666 41.076 22.0666C38.7233 22.0666 36.3592 22.0552 34.0065 22.078C33.7792 22.078 33.5064 22.1804 33.3246 22.317C32.3471 23.0569 31.3924 23.8196 30.4263 24.5709C30.1876 24.7644 29.9376 24.9238 29.608 24.7758C29.267 24.6164 29.2102 24.3205 29.2215 23.9904C29.2215 23.3643 29.2215 22.7496 29.2215 22.078C28.4032 22.078 27.6417 22.0893 26.8802 22.0666C26.5051 22.0552 26.1073 22.021 25.755 21.9072C24.8571 21.5999 24.2547 20.7461 24.2434 19.7899C24.232 18.5377 24.2434 17.2856 24.2434 16.0334C23.7774 16.1131 23.3455 16.1928 22.8568 16.2838C22.8227 16.5115 22.7886 16.7733 22.7545 17.0238C22.368 19.289 21.1974 21.0193 19.2766 22.2487C19.0606 22.3853 18.9697 22.5219 18.9697 22.7837C18.9811 23.8651 18.9811 24.9466 18.9811 26.0507C20.379 26.4264 21.7656 26.7907 23.1523 27.1663C24.2206 27.4623 25.3231 27.6672 26.3347 28.077C28.9715 29.1584 30.3922 31.1618 30.5854 34.0304C30.6195 34.5085 30.6082 34.998 30.5968 35.4761C30.5854 35.9201 30.3354 36.1933 29.983 36.2047C29.608 36.216 29.3466 35.9201 29.3238 35.4647C29.2897 34.7248 29.3352 33.9735 29.1988 33.2564C28.8351 31.3212 27.6985 29.9097 25.8573 29.2722C24.0274 28.6348 22.118 28.2136 20.1972 27.6899C20.0381 28.5209 19.8903 29.3178 19.7426 30.1032C19.6062 30.8431 19.4811 31.583 19.322 32.3229C19.1856 32.9604 18.6969 33.1425 18.1855 32.7214C17.2307 31.9473 16.2988 31.1732 15.3213 30.3764C14.4575 31.0822 13.571 31.7538 12.7527 32.4937C11.9684 33.2108 11.3888 33.0515 11.2183 31.9359C11.0251 30.6382 10.7523 29.3633 10.525 28.077C10.5023 27.9745 10.4682 27.8607 10.4341 27.7013C9.83168 27.8607 9.26339 28.0087 8.6951 28.168C7.5358 28.4754 6.36514 28.7714 5.20584 29.1129C2.87587 29.7959 1.3415 31.8448 1.31877 34.2809C1.31877 34.6224 1.30741 34.9639 1.31877 35.3054C1.33014 35.6696 1.28468 35.9998 0.886878 36.1477C0.489079 36.2957 0.250396 36.0567 0.034448 35.7835C0.0117167 35.0436 0.0117188 34.3036 0.0117188 33.5637ZM9.07018 11.8899C9.74075 11.0589 10.5818 10.8995 11.4911 10.9451C11.7184 10.9565 11.9457 10.9337 12.173 10.9451C12.6049 10.9678 12.9345 10.8085 13.23 10.5125C13.7301 9.98887 14.2529 9.47663 14.7644 8.97576C15.1281 8.62288 15.435 8.62288 15.7987 8.97576C16.2078 9.37418 16.6397 9.74983 17.0034 10.1824C17.5035 10.7857 18.0945 11.0248 18.8674 10.9565C19.8335 10.8654 20.7768 10.9906 21.4815 11.8671C21.5042 11.7305 21.527 11.685 21.527 11.6281C21.5724 10.9223 21.7429 10.7743 22.4476 10.7743C22.8681 10.7743 23.2887 10.7743 23.7205 10.7743C24.0502 7.74636 22.7658 4.52488 19.8562 2.63525C16.9466 0.745619 13.1959 0.836685 10.3659 2.86292C7.59263 4.84361 6.49016 7.99679 6.8425 10.7857C7.21756 10.7857 7.58126 10.7857 7.95633 10.7857C8.86559 10.7857 8.99062 10.8995 9.07018 11.8899ZM15.3327 10.2848C15.2417 10.3418 15.2076 10.3418 15.1849 10.3645C15.0599 10.4784 14.9235 10.5922 14.8212 10.7288C13.9006 11.924 12.7186 12.4363 11.2069 12.2542C10.9001 12.22 10.4682 12.3111 10.2636 12.516C9.79758 12.9827 9.43388 13.5405 9.02471 14.0755C9.01334 14.0983 9.02471 14.1324 9.02471 14.1552C9.04744 15.0317 9.00198 15.931 9.11563 16.7961C9.51343 19.733 11.9684 21.9186 15.0144 22.1007C17.8445 22.2715 20.6177 20.2794 21.2769 17.4677C21.5156 16.4774 21.4701 15.4073 21.5042 14.3828C21.5156 14.1552 21.4019 13.882 21.2656 13.6998C19.9699 12.072 20.4018 12.2542 18.3105 12.2542C17.5831 12.2542 16.9807 12.0037 16.4806 11.4915C16.1055 11.0817 15.7191 10.6833 15.3327 10.2848ZM15.2645 28.7031C16.0714 27.8835 16.8102 27.1322 17.5376 26.3809C17.5944 26.3239 17.6513 26.2329 17.6513 26.1646C17.6626 25.1173 17.6513 24.07 17.6513 23.0797C16.8329 23.1821 16.0601 23.3529 15.2872 23.3529C14.503 23.3529 13.7187 23.1821 12.9004 23.0797C12.9004 24.0814 12.9004 25.1059 12.9004 26.1304C12.9004 26.2101 12.9345 26.3012 12.9913 26.3581C13.7415 27.1322 14.4802 27.8948 15.2645 28.7031ZM16.2533 29.4999C16.9011 30.0349 17.5376 30.5472 18.2082 31.1049C18.4469 29.8072 18.6628 28.5892 18.9015 27.2801C18.6628 27.3257 18.4582 27.2915 18.3673 27.3826C17.6626 28.0656 16.9693 28.7827 16.2533 29.4999ZM14.3098 29.5113C13.5937 28.7827 12.9118 28.077 12.1957 27.3826C12.1048 27.2915 11.8661 27.3371 11.6616 27.3143C11.9002 28.6234 12.1275 29.8414 12.3662 31.1049C13.0368 30.5472 13.6733 30.0349 14.3098 29.5113ZM7.74039 12.0834C6.83113 12.0265 6.38787 12.4249 6.37651 13.29C6.37651 13.4836 6.36514 13.6885 6.37651 13.882C6.42197 14.6105 7.00162 15.0317 7.75175 14.8609C7.75175 14.0641 7.75175 13.2559 7.75175 12.4477C7.76312 12.3338 7.75175 12.2314 7.74039 12.0834ZM22.8454 14.8837C23.6296 14.9975 24.1638 14.5877 24.1979 13.8364C24.2093 13.6088 24.2093 13.3811 24.1979 13.1534C24.1524 12.4135 23.6296 11.9923 22.8454 12.1062C22.8454 13.0282 22.8454 13.9617 22.8454 14.8837Z" fill="#009EE2"/>
<path d="M0.0113664 38.3447C0.227315 38.0601 0.465995 37.8211 0.863795 37.9577C1.25023 38.1057 1.29569 38.4358 1.29569 38.8C1.28432 39.9953 1.29569 41.1905 1.29569 42.4086C2.76187 42.4086 4.19395 42.4086 5.70559 42.4086C5.70559 41.8849 5.70559 41.3499 5.70559 40.8149C5.70559 40.4506 5.69422 40.075 5.70559 39.7107C5.71695 39.2554 5.94427 39.0049 6.3307 39.0049C6.71713 39.0049 6.96718 39.2554 6.97855 39.6993C6.98991 40.462 6.97855 41.2361 6.97855 41.9988C6.97855 42.124 6.97855 42.2492 6.97855 42.4086C12.525 42.4086 18.0374 42.4086 23.6066 42.4086C23.6066 41.6573 23.6066 40.906 23.6066 40.1547C23.6066 39.9953 23.6066 39.8359 23.6066 39.6879C23.618 39.2668 23.8453 39.0163 24.209 39.0049C24.5954 38.9936 24.8682 39.244 24.8795 39.6766C24.8909 40.4279 24.8909 41.1792 24.8909 41.9418C24.8909 42.0898 24.8909 42.2492 24.8909 42.4199C26.3571 42.4199 27.7892 42.4199 29.2667 42.4199C29.2781 42.272 29.2894 42.124 29.2894 41.976C29.2894 40.9401 29.2894 39.9042 29.2894 38.857C29.2894 38.6976 29.2894 38.5382 29.3235 38.3902C29.4031 38.0715 29.6304 37.9121 29.9487 37.9235C30.2669 37.9349 30.5283 38.117 30.5283 38.4358C30.551 40.0294 30.551 41.6231 30.5169 43.2168C30.5169 43.3875 30.301 43.5583 30.176 43.7176C20.1173 43.7176 10.0587 43.7176 0 43.7176C0.0113657 41.9191 0.0113664 40.1319 0.0113664 38.3447Z" fill="#009EE2"/>
<path d="M33.6885 14.2234C30.4947 14.2007 27.892 11.5939 27.9034 8.39518C27.9147 5.18508 30.5516 2.55553 33.7567 2.58968C36.9504 2.61245 39.5418 5.25338 39.5191 8.44071C39.485 11.6508 36.8823 14.2462 33.6885 14.2234ZM38.2348 8.46348C38.2802 5.98191 36.2799 3.92153 33.7681 3.876C31.3017 3.83047 29.2331 5.8567 29.1877 8.36103C29.1422 10.8312 31.1426 12.8916 33.6658 12.9485C36.1208 12.994 38.1779 10.9792 38.2348 8.46348Z" fill="#009EE2"/>
<path d="M36.4048 18.1962C37.6778 18.1962 38.9621 18.1962 40.235 18.1962C40.7579 18.1962 41.0647 18.4353 41.0647 18.8451C41.0647 19.2435 40.7579 19.4825 40.2237 19.4825C37.6437 19.4825 35.0523 19.4825 32.4723 19.4825C31.9381 19.4825 31.6426 19.2435 31.6426 18.8337C31.6426 18.4353 31.9495 18.1962 32.4836 18.1962C33.7907 18.1962 35.0978 18.1962 36.4048 18.1962Z" fill="#009EE2"/>
<path d="M31.3694 15.6236C32.6083 15.6236 33.8357 15.6236 35.0746 15.6236C35.5747 15.6236 35.8702 15.8626 35.8702 16.2497C35.8816 16.6367 35.5747 16.8985 35.086 16.8985C32.5742 16.8985 30.0623 16.8985 27.5505 16.8985C27.0618 16.8985 26.7663 16.6367 26.7777 16.2383C26.789 15.8513 27.0845 15.6236 27.5846 15.6236C28.8462 15.6236 30.1078 15.6236 31.3694 15.6236Z" fill="#009EE2"/>
<path d="M20.2434 40.2799C19.8001 40.2799 19.3682 40.2913 18.9249 40.2799C18.4703 40.2685 18.1748 40.0067 18.1748 39.6425C18.1748 39.2668 18.4589 39.0164 18.9249 39.005C19.8001 38.9936 20.6866 38.9936 21.5618 39.005C22.0164 39.005 22.2665 39.2327 22.2778 39.6083C22.2892 40.0067 22.0278 40.2572 21.5618 40.2685C21.1299 40.2913 20.6866 40.2799 20.2434 40.2799Z" fill="#009EE2"/>
<path d="M39.1538 15.6236C39.563 15.6236 39.9722 15.6122 40.3927 15.6236C40.8019 15.635 41.0633 15.8854 41.0633 16.2383C41.0746 16.5798 40.8019 16.8758 40.4154 16.8872C39.563 16.9099 38.7106 16.9099 37.8582 16.8872C37.4604 16.8758 37.199 16.5912 37.2103 16.2383C37.2103 15.8854 37.4717 15.6236 37.8809 15.6122C38.3014 15.6122 38.7333 15.6236 39.1538 15.6236Z" fill="#009EE2"/>
<path d="M28.4825 19.4712C28.1416 19.4712 27.8006 19.4826 27.4596 19.4712C27.0618 19.4598 26.789 19.198 26.7777 18.8565C26.7663 18.4922 27.0505 18.2076 27.4596 18.2076C28.1416 18.1963 28.8235 18.1963 29.5055 18.2076C29.9374 18.219 30.1988 18.4694 30.1988 18.8451C30.1988 19.2208 29.926 19.4598 29.4941 19.4826C29.4827 19.4826 29.4714 19.4826 29.4486 19.4826C29.1304 19.4712 28.8121 19.4712 28.4825 19.4712Z" fill="#009EE2"/>
<path d="M33.7334 8.54321C34.6654 8.57736 35.4838 8.88471 36.1543 9.53356C36.4612 9.82953 36.4953 10.2052 36.2452 10.4784C35.9952 10.7516 35.6429 10.7516 35.3019 10.4784C34.2222 9.60186 33.2106 9.60186 32.1195 10.4784C31.7785 10.7516 31.4262 10.7402 31.1762 10.467C30.9375 10.1938 30.9716 9.81815 31.2785 9.52218C31.9604 8.87333 32.7901 8.56598 33.7334 8.54321Z" fill="#009EE2"/>
<path d="M32.0057 7.54147C31.5738 7.54147 31.267 7.34795 31.1761 6.9723C31.1192 6.75602 31.1533 6.43729 31.2783 6.27792C31.3693 6.16409 31.6989 6.23239 31.9262 6.26654C32.0512 6.27792 32.1535 6.36899 32.2671 6.4259C32.5286 6.55112 32.8354 6.66495 32.7331 7.02922C32.6308 7.3821 32.3353 7.5187 32.0057 7.54147Z" fill="#009EE2"/>
<path d="M35.3692 7.62114C35.1533 7.46178 34.8805 7.33656 34.7441 7.13166C34.5168 6.81293 34.7327 6.59665 35.5511 6.23238C35.9261 6.06163 36.1648 6.12993 36.2785 6.44866C36.4717 6.96091 36.0171 7.55285 35.3692 7.62114Z" fill="#009EE2"/>
</svg>
