<svg width="47" height="47" viewBox="0 0 47 47" fill="none" xmlns="http://www.w3.org/2000/svg">
<path d="M46.58 23.28C46.582 27.8868 45.2177 32.3906 42.6598 36.222C40.1019 40.0533 36.4652 43.04 32.2096 44.8043C27.9541 46.5686 23.271 47.0312 18.7525 46.1337C14.234 45.2362 10.0832 43.0188 6.82503 39.7621C3.56686 36.5053 1.34771 32.3554 0.448253 27.8373C-0.451207 23.3192 0.00942826 18.6359 1.7719 14.3796C3.53437 10.1233 6.5195 6.48535 10.3497 3.92577C14.18 1.36619 18.6833 4.24645e-07 23.29 0C29.4652 -5.69219e-07 35.3876 2.45239 39.755 6.81795C44.1224 11.1835 46.5774 17.1048 46.58 23.28Z" fill="#E7F7F8"/>
<path d="M0.00976777 23.28C0.00845419 26.338 0.60964 29.3663 1.77898 32.1919C2.94832 35.0176 4.66291 37.5851 6.82479 39.7479C8.98666 41.9107 11.5535 43.6264 14.3786 44.797C17.2037 45.9675 20.2318 46.57 23.2898 46.57V0C17.1155 0 11.1942 2.45271 6.82832 6.81855C2.46247 11.1844 0.00976777 17.1058 0.00976777 23.28Z" fill="#F4FAFC"/>
<path d="M34.2104 23.0901C31.6304 20.7601 25.5004 16.9701 29.3004 15.8501C33.1004 14.7301 33.6404 14.0601 32.8304 13.1701C31.6804 11.9201 26.7104 12.4901 26.0704 11.8001C25.4304 11.1101 27.5704 6.80011 27.5704 6.80011L25.0704 6.36011C25.0704 6.36011 24.8104 11.2001 23.7804 11.2001C22.7504 11.2001 23.1704 6.36011 23.1704 6.36011C22.4004 6.97011 20.6704 6.36011 20.6704 6.36011C20.6704 6.36011 22.4804 11.5401 21.2804 11.5401C20.0804 11.5401 18.9504 7.23011 18.9504 7.23011C18.7591 7.49708 18.5129 7.71999 18.2283 7.88386C17.9437 8.04772 17.6273 8.14874 17.3004 8.18011C18.3004 9.73011 17.9104 12.5901 17.9104 12.5901C16.3604 14.2501 16.7404 17.2401 16.7404 17.2401C16.5904 18.8401 17.4704 22.1701 16.7904 23.6401C15.7904 25.6401 13.6904 29.2201 16.2804 33.4401C18.8704 37.6601 24.9504 43.7401 34.2104 37.5801C39.3904 34.1401 36.8004 25.4201 34.2104 23.0901Z" fill="#E05245"/>
<path d="M16.4905 13.9299C16.4905 13.9299 17.5505 11.9999 15.0105 11.8999C12.4705 11.7999 13.2105 16.1199 12.7005 18.0199C12.1905 19.9199 8.39049 22.9399 8.90049 27.0799C9.41049 31.2199 14.6405 31.9999 14.6405 31.9999C14.6405 31.9999 13.2105 28.3899 14.8505 25.4599C16.4905 22.5299 16.7905 22.5999 16.1905 20.3599C15.5905 18.1199 16.4905 13.9399 16.4905 13.9399" fill="#E05245"/>
<path d="M31.2503 15.8601C32.1103 15.8601 32.8603 17.5801 34.7003 17.2401C35.5662 17.158 36.3929 16.8398 37.0903 16.3201C37.0903 16.3201 37.2903 17.7601 37.6903 17.9901C37.6903 17.9901 34.5903 18.5601 34.9303 19.1901C35.2703 19.8201 37.0903 20.5701 37.0903 20.5701C37.0903 20.5701 35.7903 22.1301 36.0203 22.7601C36.0203 22.7601 30.3303 19.5401 29.5903 18.3901C28.8503 17.2401 29.1803 15.8901 31.2503 15.8601Z" fill="#E05245"/>
<path d="M29.8204 37.1301C30.9204 38.7801 26.8204 33.6301 26.0704 31.9701C25.3204 30.3101 23.8604 34.0001 23.8604 35.0601C23.6527 33.577 23.926 32.0663 24.6404 30.7501C24.6404 30.7501 24.1204 26.8701 23.1704 25.2301C22.2204 23.5901 19.9004 28.5901 19.9004 30.3201C19.9004 30.3201 20.1504 25.0601 22.2304 23.5901C22.2304 23.5901 20.7604 18.1601 21.4504 16.4301C21.8649 15.3959 22.4459 14.4366 23.1704 13.5901C22.4699 14.9502 22.1454 16.4726 22.2304 18.0001C22.3864 19.3451 22.6167 20.6805 22.9204 22.0001C22.9204 22.0001 26.8004 21.9201 28.0904 23.3801C28.0904 23.3801 24.2104 22.5001 23.4304 22.8101C23.4304 22.8101 24.0404 24.7601 24.8604 27.0901C25.6804 29.4201 27.9204 30.2001 29.8604 30.5401C29.8604 30.5401 26.9404 30.5401 26.1104 29.7601C26.1104 29.7601 29.1704 36.1501 29.8604 37.1801" fill="#D0443B"/>
</svg>
