<svg width="48" height="47" viewBox="0 0 48 47" fill="none" xmlns="http://www.w3.org/2000/svg">
<path d="M47.1601 23.28C47.1621 27.8868 45.7978 32.3906 43.2399 36.222C40.6819 40.0533 37.0452 43.04 32.7897 44.8043C28.5342 46.5686 23.851 47.0312 19.3326 46.1337C14.8141 45.2362 10.6633 43.0188 7.40511 39.7621C4.14694 36.5053 1.92779 32.3554 1.02833 27.8373C0.128871 23.3192 0.589506 18.6359 2.35198 14.3796C4.11445 10.1233 7.09958 6.48535 10.9298 3.92577C14.7601 1.36619 19.2633 4.24645e-07 23.8701 0C30.0452 -5.69219e-07 35.9676 2.45239 40.3351 6.81795C44.7025 11.1835 47.1574 17.1048 47.1601 23.28Z" fill="#E7F7F8"/>
<path d="M0.589846 23.28C0.588532 26.338 1.18972 29.3663 2.35906 32.1919C3.5284 35.0176 5.24299 37.5851 7.40486 39.7479C9.56674 41.9107 12.1336 43.6264 14.9587 44.797C17.7838 45.9675 20.8118 46.57 23.8698 46.57V0C17.6956 0 11.7742 2.45271 7.4084 6.81855C3.04255 11.1844 0.589846 17.1058 0.589846 23.28Z" fill="#F4FAFC"/>
<path d="M21.4497 20.8201C21.1897 18.2701 21.0197 12.5001 18.4497 12.3701C15.8797 12.2401 10.6497 15.0001 8.58975 24.9201C6.52975 34.8401 8.15975 38.1701 11.2697 37.0801C14.3797 35.9901 21.1297 34.5201 21.4897 32.3501C21.8695 28.5161 21.8695 24.654 21.4897 20.8201" fill="#D26490"/>
<path d="M26.3003 20.8201C26.5503 18.2701 26.7303 12.5001 29.3003 12.3701C31.8703 12.2401 37.0903 15.0001 39.1903 24.9201C41.2903 34.8401 39.5903 38.1701 36.5103 37.0801C33.4303 35.9901 26.6603 34.5201 26.3003 32.3501C25.9155 28.5164 25.9155 24.6538 26.3003 20.8201Z" fill="#D26490"/>
<path d="M25.3402 4.79002H22.5902C22.5902 4.79002 23.9902 17.73 21.4102 20.79V24.13C22.1324 23.8284 22.7544 23.3283 23.204 22.6876C23.6536 22.0468 23.9123 21.2918 23.9502 20.51C23.9889 21.2929 24.2491 22.0487 24.7005 22.6896C25.1519 23.3304 25.776 23.8299 26.5002 24.13V20.77C23.9202 17.77 25.3202 4.77002 25.3202 4.77002" fill="#D26490"/>
<path d="M23.9702 4.79004H22.5902C22.5902 4.79004 23.9902 17.73 21.4102 20.79V24.13C22.1324 23.8285 22.7544 23.3283 23.204 22.6876C23.6536 22.0469 23.9123 21.2918 23.9502 20.51L23.9702 4.79004Z" fill="#D26490"/>
<path d="M27.1602 20.9199L36.3602 28.9799V31.7799" stroke="#A84270" stroke-width="0.16" stroke-miterlimit="10"/>
<path d="M33.5004 22.5801L29.4404 22.9201" stroke="#A84270" stroke-width="0.16" stroke-miterlimit="10"/>
<path d="M30.5801 28.3501L30.8001 24.1101" stroke="#A84270" stroke-width="0.16" stroke-miterlimit="10"/>
<path d="M33.0703 28.98V26.23" stroke="#A84270" stroke-width="0.16" stroke-miterlimit="10"/>
<path d="M34.79 27.6001L36.81 26.3501" stroke="#A84270" stroke-width="0.16" stroke-miterlimit="10"/>
<path d="M31.9697 25.13L34.7897 24.51" stroke="#A84270" stroke-width="0.16" stroke-miterlimit="10"/>
<path d="M21.5203 20.9199L12.3203 28.9799V31.7799" stroke="#A84270" stroke-width="0.16" stroke-miterlimit="10"/>
<path d="M15.1797 22.5801L19.2397 22.9201" stroke="#A84270" stroke-width="0.16" stroke-miterlimit="10"/>
<path d="M18.0999 28.3501L17.8799 24.1101" stroke="#A84270" stroke-width="0.16" stroke-miterlimit="10"/>
<path d="M15.6104 28.98V26.23" stroke="#A84270" stroke-width="0.16" stroke-miterlimit="10"/>
<path d="M13.8901 27.6001L11.8701 26.3501" stroke="#A84270" stroke-width="0.16" stroke-miterlimit="10"/>
<path d="M16.7096 25.13L13.8896 24.51" stroke="#A84270" stroke-width="0.16" stroke-miterlimit="10"/>
</svg>
