<svg width="47" height="47" viewBox="0 0 47 47" fill="none" xmlns="http://www.w3.org/2000/svg">
<path d="M46.7402 23.28C46.7421 27.8868 45.3779 32.3906 42.82 36.222C40.262 40.0533 36.6253 43.04 32.3698 44.8043C28.1143 46.5686 23.4311 47.0312 18.9126 46.1337C14.3942 45.2362 10.2434 43.0188 6.98519 39.7621C3.72702 36.5053 1.50787 32.3554 0.60841 27.8373C-0.291051 23.3192 0.169585 18.6359 1.93206 14.3796C3.69453 10.1233 6.67966 6.48535 10.5099 3.92577C14.3401 1.36619 18.8434 4.24645e-07 23.4502 0C29.6253 -5.69219e-07 35.5477 2.45239 39.9151 6.81795C44.2826 11.1835 46.7375 17.1048 46.7402 23.28Z" fill="#E7F7F8"/>
<path d="M0.169924 23.28C0.16861 26.338 0.769796 29.3663 1.93914 32.1919C3.10848 35.0176 4.82306 37.5851 6.98494 39.7479C9.14682 41.9107 11.7136 43.6264 14.5387 44.797C17.3639 45.9675 20.3919 46.57 23.4499 46.57V0C17.2757 0 11.3543 2.45271 6.98848 6.81855C2.62263 11.1844 0.169924 17.1058 0.169924 23.28Z" fill="#F4FAFC"/>
<path d="M39.7105 13.2499C39.6505 11.7199 38.0405 11.3099 29.4305 11.3999C20.8205 11.4899 12.3805 9.17993 9.17049 15.6599C5.96049 22.1399 7.04049 35.8599 10.2805 35.4899C13.5205 35.1199 18.8505 29.4099 21.3505 26.7199C23.8505 24.0299 27.2405 24.5499 30.6605 23.2799C36.5605 21.0899 39.8305 15.6599 39.7405 13.2799" fill="#E05245"/>
<path d="M20.3105 12C20.3105 12 22.6705 15.53 22.4105 18.8C22.1505 22.07 13.0005 32.61 9.31055 30.76C9.31055 30.76 9.56055 32.44 11.8305 31.85C14.1005 31.26 18.4605 27.65 20.4005 24.85C22.3405 22.05 24.1005 22 26.4505 22C28.8005 22 35.9705 19.31 37.0405 15.55C35.3119 17.6811 32.9108 19.162 30.2305 19.75C25.6105 20.84 23.5005 12.89 20.3105 12.02" fill="#E87470"/>
</svg>
