<svg width="47" height="48" viewBox="0 0 47 48" fill="none" xmlns="http://www.w3.org/2000/svg">
<path d="M46.58 23.8601C46.582 28.4668 45.2177 32.9707 42.6598 36.802C40.1019 40.6334 36.4652 43.6201 32.2096 45.3844C27.9541 47.1487 23.271 47.6113 18.7525 46.7138C14.234 45.8163 10.0832 43.5989 6.82503 40.3421C3.56686 37.0854 1.34771 32.9355 0.448253 28.4174C-0.451207 23.8993 0.00942826 19.216 1.7719 14.9597C3.53437 10.7034 6.5195 7.06543 10.3497 4.50585C14.18 1.94627 18.6833 0.580079 23.29 0.580078C29.4652 0.580078 35.3876 3.03247 39.755 7.39803C44.1224 11.7636 46.5774 17.6849 46.58 23.8601Z" fill="#E7F7F8"/>
<path d="M0.00976777 23.8601C0.00845419 26.9181 0.60964 29.9464 1.77898 32.772C2.94832 35.5976 4.66291 38.1652 6.82479 40.328C8.98666 42.4908 11.5535 44.2065 14.3786 45.377C17.2037 46.5476 20.2318 47.1501 23.2898 47.1501V0.580078C17.1155 0.580078 11.1942 3.03278 6.82832 7.39863C2.46247 11.7645 0.00976777 17.6858 0.00976777 23.8601Z" fill="#F4FAFC"/>
<path d="M14.3597 40.96C14.3597 40.96 10.0097 23.77 21.4597 20.23L22.7997 22.69C22.7997 22.69 12.8897 24.45 17.4597 40.96H14.3597Z" fill="#E6A240"/>
<path d="M23.0804 17.1404C23.0804 17.1404 15.9104 17.3504 13.8704 14.4004C13.8704 14.4004 12.3204 15.1004 12.1104 16.4004C12.1104 16.4004 14.6404 18.9204 21.9504 20.2604L23.0804 17.1404Z" fill="#E6A240"/>
<path d="M21.2396 7.71997C17.6796 10.26 18.7097 13.65 19.7997 15.34C20.7526 17.0164 21.2536 18.9116 21.2536 20.84C21.2536 22.7683 20.7526 24.6635 19.7997 26.34C18.7097 28.04 17.6796 31.42 21.2396 33.96C24.7996 36.5 34.4696 34.58 34.4696 20.82C34.4696 7.05997 24.8096 5.17997 21.2396 7.71997Z" fill="#DC6F62"/>
</svg>
