<svg width="48" height="48" viewBox="0 0 48 48" fill="none" xmlns="http://www.w3.org/2000/svg">
<path d="M47.1601 23.8601C47.1621 28.4668 45.7978 32.9707 43.2399 36.802C40.6819 40.6334 37.0452 43.6201 32.7897 45.3844C28.5342 47.1487 23.851 47.6113 19.3326 46.7138C14.8141 45.8163 10.6633 43.5989 7.40511 40.3421C4.14694 37.0854 1.92779 32.9355 1.02833 28.4174C0.128871 23.8993 0.589506 19.216 2.35198 14.9597C4.11445 10.7034 7.09958 7.06543 10.9298 4.50585C14.7601 1.94627 19.2633 0.580079 23.8701 0.580078C30.0452 0.580078 35.9676 3.03247 40.3351 7.39803C44.7025 11.7636 47.1574 17.6849 47.1601 23.8601Z" fill="#E7F7F8"/>
<path d="M0.589846 23.8601C0.588532 26.9181 1.18972 29.9464 2.35906 32.772C3.5284 35.5976 5.24299 38.1652 7.40486 40.328C9.56674 42.4908 12.1336 44.2065 14.9587 45.377C17.7838 46.5476 20.8118 47.1501 23.8698 47.1501V0.580078C17.6956 0.580078 11.7742 3.03278 7.4084 7.39863C3.04255 11.7645 0.589846 17.6858 0.589846 23.8601Z" fill="#F4FAFC"/>
<path d="M20.33 39.03C20.33 39.03 19.6 38.03 18.83 38.58C18.06 39.13 15.16 41.02 14.94 36.77C14.94 36.77 12.4 37.85 12.35 35.45C12.35 35.45 9.82 35.77 10.27 33C10.27 33 7.87 31.78 9.18 30.06C9.18 30.06 6.69 28.65 8.18 26.75C8.18 26.75 5.91 24.75 7.7 22.86C7.7 22.86 5.91 20.09 7.99 18.64C7.99 18.64 5.28 15.7 7.86 13.97C7.86 13.97 8.13 9.53003 11.48 10.44C11.48 10.44 13.57 7.95003 16.24 10.62C16.24 10.62 19.5 9.13003 20.59 12.62C20.59 12.62 22.9 10.62 24.85 12.85C25.1694 12.3366 25.6491 11.9427 26.215 11.7294C26.7808 11.5161 27.4011 11.4952 27.98 11.67C27.98 11.67 29.06 8.67003 31.65 9.81003C31.65 9.81003 34.54 7.96003 36.09 10.36C36.4862 10.2756 36.8968 10.2852 37.2886 10.3883C37.6804 10.4913 38.0426 10.6848 38.346 10.9532C38.6495 11.2217 38.8857 11.5575 39.0358 11.9339C39.1858 12.3102 39.2455 12.7165 39.21 13.12C39.21 13.12 42.16 14.26 40.21 17.74C40.7288 18.4897 40.9759 19.3941 40.9104 20.3034C40.8449 21.2127 40.4708 22.0724 39.85 22.74C39.85 22.74 41.39 24.96 38.54 27.74C38.54 27.74 39.85 29.37 37.99 31.5C37.99 31.5 38.58 34.27 34.69 35.5C34.69 35.5 34.6 37.09 30.02 37.04C29.0016 37.6084 27.8166 37.803 26.67 37.59C26.0113 38.1427 25.4975 38.848 25.1734 39.6444C24.8492 40.4408 24.7245 41.3044 24.81 42.16C23.9801 41.8384 23.0599 41.8384 22.23 42.16C22.23 42.16 20.96 36.95 21.91 34.96C22.86 32.97 26.59 33.58 26.59 33.58C26.7323 32.932 27.0932 32.3527 27.6122 31.9393C28.1312 31.526 28.7766 31.3038 29.44 31.31C29.6682 30.8754 30.017 30.5159 30.4445 30.2747C30.872 30.0334 31.36 29.9207 31.85 29.95C31.85 29.95 32.21 27.64 33.85 27.64C33.85 27.64 33.08 25.06 34.35 24.64C34.35 24.64 33.35 21.93 34.49 21.11C34.49 21.11 34.08 18.48 35.08 17.89C35.08 17.89 33.85 15.72 34.76 15.09C33.9265 15.6591 32.9057 15.8847 31.91 15.72C31.91 15.72 31.07 18.28 28.59 18.1C28.0914 18.4744 27.5181 18.737 26.9089 18.8698C26.2998 19.0027 25.6692 19.0028 25.06 18.87C25.06 18.87 23.61 19.87 21.12 18.05C21.12 18.05 18.12 18.69 17.58 16.65C17.58 16.65 15.05 17.15 14.28 15.65C14.28 15.65 15.41 18.14 13.55 19.59C13.55 19.59 14.55 21.81 14 23.03C14.5027 23.3707 14.8575 23.8894 14.993 24.4813C15.1285 25.0733 15.0345 25.6946 14.73 26.22C15.2674 26.5977 15.6595 27.1477 15.8414 27.7788C16.0233 28.41 15.984 29.0843 15.73 29.69C16.3389 29.9621 16.8538 30.4083 17.2097 30.9724C17.5655 31.5365 17.7466 32.1933 17.73 32.86C17.73 32.86 20 33.63 19.9 35.54C19.8 37.45 20.58 37.89 20.36 38.98" fill="#D77264"/>
<path d="M15.2802 36.3597C15.6563 34.9754 16.5565 33.7918 17.7902 33.0597C17.9702 32.9397 17.7902 32.6497 17.6202 32.7697C16.307 33.5426 15.3486 34.799 14.9502 36.2697C14.9502 36.4797 15.2402 36.5697 15.2802 36.3597Z" fill="#A9382C"/>
<path d="M11.0702 32.7799C11.6502 31.0399 13.7702 30.2199 15.3902 29.9499C15.6102 29.9499 15.5102 29.5899 15.3002 29.6199C13.5402 29.9099 11.3602 30.8299 10.7402 32.6899C10.6702 32.8899 11.0002 32.9799 11.0702 32.7799Z" fill="#A9382C"/>
<path d="M8.71011 26.8301C9.91011 25.3901 12.2201 25.4601 13.8501 25.8301C14.0601 25.8801 14.1501 25.5501 13.9401 25.5001C12.2001 25.1101 9.75011 25.0701 8.47011 26.6001C8.33011 26.7601 8.57011 27.0001 8.71011 26.8401" fill="#A9382C"/>
<path d="M8.27022 22.23C9.02325 21.8679 9.85581 21.7028 10.69 21.75C11.5242 21.7972 12.3329 22.0553 13.0402 22.5C13.2202 22.62 13.3902 22.33 13.2102 22.21C12.4512 21.7355 11.584 21.4618 10.6901 21.4146C9.79623 21.3674 8.90502 21.5482 8.10022 21.94C7.90022 22.03 8.10022 22.32 8.27022 22.23Z" fill="#A9382C"/>
<path d="M8.68037 18.4201C9.29688 18.1653 9.9743 18.0958 10.6297 18.2201C11.2851 18.3445 11.89 18.6572 12.3704 19.1201C12.5304 19.2701 12.7704 19.0301 12.6104 18.8801C12.0778 18.3635 11.404 18.0165 10.6742 17.883C9.94434 17.7495 9.19131 17.8355 8.51037 18.1301C8.31037 18.2201 8.51037 18.5101 8.68037 18.4201Z" fill="#A9382C"/>
<path d="M9.35965 12.9701C11.0496 12.8201 12.3596 14.2201 12.9596 15.6501C13.0396 15.8501 13.3696 15.7601 13.2896 15.5601C12.6396 14.0001 11.2096 12.4601 9.35965 12.6301C9.14965 12.6301 9.14965 12.9901 9.35965 12.9701Z" fill="#A9382C"/>
<path d="M15.81 11.19C16.81 12.29 16.88 14.25 16.9 15.61C16.9 15.6551 16.9179 15.6983 16.9497 15.7302C16.9816 15.7621 17.0249 15.78 17.07 15.78C17.115 15.78 17.1583 15.7621 17.1902 15.7302C17.222 15.6983 17.24 15.6551 17.24 15.61C17.24 14.13 17.11 12.13 16.05 10.95C15.91 10.79 15.67 11.03 15.81 11.19Z" fill="#A9382C"/>
<path d="M20.9204 13.2599C22.1604 14.0099 21.9204 16.2599 21.7104 17.4199C21.7104 17.6299 22.0004 17.7199 22.0304 17.5099C22.2504 16.2099 22.4904 13.8099 21.0904 12.9599C21.0506 12.9374 21.0035 12.9315 20.9595 12.9437C20.9154 12.9559 20.878 12.9851 20.8554 13.0249C20.8329 13.0647 20.8271 13.1118 20.8392 13.1559C20.8514 13.1999 20.8806 13.2374 20.9204 13.2599Z" fill="#A9382C"/>
<path d="M25.0304 13.4299C25.3464 14.1043 25.5102 14.84 25.5102 15.5849C25.5102 16.3297 25.3464 17.0654 25.0304 17.7399C24.9404 17.9399 25.2304 18.1099 25.3204 17.9099C25.6636 17.181 25.8415 16.3854 25.8415 15.5799C25.8415 14.7743 25.6636 13.9787 25.3204 13.2499C25.2204 13.0599 24.9304 13.2499 25.0304 13.4299Z" fill="#A9382C"/>
<path d="M28.2202 12.4899C29.5602 13.3999 29.6302 15.2899 29.2702 16.6899C29.2643 16.7116 29.2627 16.7342 29.2656 16.7565C29.2684 16.7788 29.2756 16.8003 29.2867 16.8198C29.2979 16.8393 29.3128 16.8564 29.3305 16.8701C29.3483 16.8839 29.3686 16.894 29.3902 16.8999C29.4119 16.9058 29.4345 16.9074 29.4568 16.9046C29.4791 16.9017 29.5006 16.8945 29.5201 16.8834C29.5396 16.8723 29.5567 16.8574 29.5705 16.8396C29.5842 16.8219 29.5943 16.8016 29.6002 16.7799C30.0002 15.2099 29.8602 13.1999 28.3902 12.1899C28.2102 12.0699 28.0402 12.3699 28.2202 12.4899Z" fill="#A9382C"/>
<path d="M31.8396 10.4201C33.5496 10.7201 34.1896 12.7101 34.2496 14.2001C34.2496 14.4201 34.5996 14.4201 34.5896 14.2001C34.5196 12.5601 33.7996 10.4201 31.9296 10.0901C31.7096 10.0901 31.6196 10.3901 31.8396 10.4201Z" fill="#A9382C"/>
<path d="M38.3504 13.2497C37.5576 14.2938 36.4495 15.0548 35.1904 15.4197C34.9904 15.4997 35.0704 15.8197 35.2804 15.7497C36.624 15.3647 37.8043 14.5497 38.6404 13.4297C38.7504 13.2297 38.4604 13.0597 38.3504 13.2497Z" fill="#A9382C"/>
<path d="M35.0098 18.6401C35.7715 19.0741 36.6331 19.3023 37.5098 19.3023C38.3865 19.3023 39.2481 19.0741 40.0098 18.6401C40.1998 18.5401 40.0098 18.2501 39.8398 18.3501C39.1316 18.7487 38.3325 18.9582 37.5198 18.9582C36.7071 18.9582 35.9081 18.7487 35.1998 18.3501C35.0198 18.2301 34.8498 18.5301 35.0298 18.6401" fill="#A9382C"/>
<path d="M34.59 21.6599C35.1155 22.354 35.8213 22.8907 36.6306 23.2115C37.4399 23.5324 38.3217 23.6252 39.18 23.4799C39.39 23.4799 39.39 23.1099 39.18 23.1399C38.381 23.2821 37.5583 23.2036 36.8006 22.9129C36.0428 22.6221 35.3788 22.1301 34.88 21.4899C34.76 21.3099 34.47 21.4899 34.59 21.6599Z" fill="#A9382C"/>
<path d="M34.5905 25.1203C34.8456 25.8468 35.3049 26.4842 35.9133 26.956C36.5218 27.4279 37.2534 27.7141 38.0205 27.7803C38.0656 27.7803 38.1089 27.7624 38.1407 27.7305C38.1726 27.6986 38.1905 27.6554 38.1905 27.6103C38.1905 27.5652 38.1726 27.522 38.1407 27.4901C38.1089 27.4582 38.0656 27.4403 38.0205 27.4403C37.3275 27.377 36.6671 27.1163 36.1177 26.6892C35.5683 26.262 35.1528 25.6863 34.9205 25.0303C34.8405 24.8303 34.5105 24.9203 34.5905 25.1203Z" fill="#A9382C"/>
<path d="M33.9805 28.2002C34.1576 28.9915 34.5579 29.7155 35.1339 30.2862C35.7099 30.8569 36.4376 31.2505 37.2305 31.4202C37.4405 31.4202 37.5305 31.1302 37.3205 31.0902C36.5831 30.9354 35.9068 30.5693 35.3741 30.0366C34.8414 29.5039 34.4753 28.8275 34.3205 28.0902C34.3205 27.8802 33.9405 27.9702 33.9905 28.1802" fill="#A9382C"/>
<path d="M31.7201 30.4202C31.5304 31.2484 31.6094 32.1155 31.9456 32.8959C32.2819 33.6762 32.8578 34.3292 33.5901 34.7602C33.7801 34.8802 33.9501 34.5802 33.7701 34.4702C33.0965 34.0726 32.568 33.4697 32.262 32.7498C31.9561 32.03 31.8888 31.2311 32.0701 30.4702C32.0725 30.4314 32.0615 30.3929 32.039 30.3612C32.0165 30.3295 31.9839 30.3064 31.9464 30.2959C31.909 30.2854 31.8691 30.288 31.8333 30.3033C31.7976 30.3187 31.7682 30.3458 31.7501 30.3802" fill="#A9382C"/>
<path d="M29.3199 31.6598C28.2199 32.9598 28.9599 35.0998 29.6099 36.3998C29.6999 36.5898 29.9999 36.3998 29.8999 36.2298C29.3399 35.0898 28.5799 33.0598 29.5599 31.8998C29.6899 31.7298 29.4599 31.4898 29.3199 31.6598Z" fill="#A9382C"/>
<path d="M26.3603 33.9002C25.2303 34.6702 25.7703 36.3102 26.3002 37.2602C26.4003 37.4502 26.7003 37.2602 26.5903 37.0902C26.1803 36.3402 25.5903 34.8402 26.5303 34.1902C26.7103 34.0702 26.5303 33.7702 26.3603 33.9002Z" fill="#A9382C"/>
</svg>
