<svg width="47" height="48" viewBox="0 0 47 48" fill="none" xmlns="http://www.w3.org/2000/svg">
<path d="M46.7402 23.8601C46.7421 28.4668 45.3779 32.9707 42.82 36.802C40.262 40.6334 36.6253 43.6201 32.3698 45.3844C28.1143 47.1487 23.4311 47.6113 18.9126 46.7138C14.3942 45.8163 10.2434 43.5989 6.98519 40.3421C3.72702 37.0854 1.50787 32.9355 0.60841 28.4174C-0.291051 23.8993 0.169585 19.216 1.93206 14.9597C3.69453 10.7034 6.67966 7.06543 10.5099 4.50585C14.3401 1.94627 18.8434 0.580079 23.4502 0.580078C29.6253 0.580078 35.5477 3.03247 39.9151 7.39803C44.2826 11.7636 46.7375 17.6849 46.7402 23.8601Z" fill="#E7F7F8"/>
<path d="M0.169924 23.8601C0.16861 26.9181 0.769796 29.9464 1.93914 32.772C3.10848 35.5976 4.82306 38.1652 6.98494 40.328C9.14682 42.4908 11.7136 44.2065 14.5387 45.377C17.3639 46.5476 20.3919 47.1501 23.4499 47.1501V0.580078C17.2757 0.580078 11.3543 3.03278 6.98848 7.39863C2.62263 11.7645 0.169924 17.6858 0.169924 23.8601Z" fill="#F4FAFC"/>
<path d="M41.2204 13.5802C41.2204 13.5802 40.3404 12.4702 38.8504 13.5802C38.4737 13.268 37.9997 13.0972 37.5104 13.0972C37.0211 13.0972 36.5472 13.268 36.1704 13.5802C36.1704 13.5802 34.5004 12.8902 33.9004 14.0502C33.9004 14.0502 32.0904 12.9802 31.4404 14.6002C31.4404 14.6002 29.7604 13.5402 28.8804 14.9802C28.8804 14.9802 27.0704 13.7202 25.7704 14.9802C25.7704 14.9802 23.1304 14.1902 21.9704 15.8102C21.5833 15.4951 21.0995 15.3231 20.6004 15.3231C20.1013 15.3231 19.6175 15.4951 19.2304 15.8102C19.2304 15.8102 16.4404 15.1102 15.2304 16.2302C15.2304 16.2302 12.9704 15.8102 11.6604 16.8802C11.0932 16.9458 10.548 17.138 10.0651 17.4426C9.58213 17.7473 9.17385 18.1566 8.87041 18.6402C8.87041 18.6402 6.87041 19.7102 6.92041 21.5202C6.25409 22.0438 5.78535 22.7782 5.59095 23.603C5.39655 24.4278 5.48803 25.2942 5.85041 26.0602C5.6246 26.6755 5.52505 27.33 5.5577 27.9846C5.59034 28.6392 5.75451 29.2805 6.04041 29.8702C6.04041 29.8702 6.59041 32.3302 8.45041 32.4202C8.87777 32.9695 9.42774 33.4111 10.0563 33.7098C10.6849 34.0084 11.3747 34.1559 12.0704 34.1402C12.0704 34.1402 15.0004 35.3602 16.6704 34.1402C17.7315 33.7292 18.6612 33.038 19.3604 32.1402C19.7577 31.7174 20.0083 31.1778 20.0749 30.6015C20.1415 30.0251 20.0207 29.4426 19.7304 28.9402C19.7304 28.9402 19.8704 27.2202 18.5704 26.9902C18.5704 26.9902 20.7004 26.9002 21.3104 26.0602C21.3104 26.0602 23.8604 26.0602 24.8304 24.9002C24.8304 24.9002 27.3404 24.6202 28.2704 23.2802C29.6562 23.0702 30.9573 22.4819 32.0304 21.5802C33.1036 21.3367 34.154 21.0021 35.1704 20.5802C35.1704 20.5802 37.4404 20.4902 38.0004 19.4602C38.0004 19.4602 40.0004 18.8602 40.4104 17.5102C40.4104 17.5102 41.6204 16.3102 41.2504 15.3302C41.2504 15.3302 41.7604 13.8902 41.2504 13.5202" fill="#DEA764"/>
<path d="M11.0906 29.17C11.7134 28.2373 12.0255 27.1317 11.9824 26.0111C11.9393 24.8904 11.5432 23.812 10.8506 22.93C10.6706 22.69 10.2706 22.93 10.4406 23.17C11.0953 23.9779 11.4731 24.9748 11.5181 26.0137C11.5631 27.0526 11.273 28.0785 10.6906 28.94C10.5206 29.18 10.9206 29.42 11.0906 29.17Z" fill="#C89359"/>
<path d="M11.8401 25.3698C13.6501 23.7698 15.2701 21.3698 14.8901 18.8398C14.8901 18.5498 14.4001 18.6698 14.4401 18.9698C14.8001 21.2898 13.1801 23.5698 11.5101 25.0498C11.2901 25.2398 11.6201 25.5698 11.8401 25.3698Z" fill="#C89359"/>
<path d="M14.2902 21.8902C17.3502 21.7402 20.9502 20.6902 22.6702 17.9702C22.8302 17.7202 22.4202 17.4802 22.2602 17.7402C20.6502 20.3002 17.1702 21.2802 14.2602 21.4302C13.9602 21.4302 13.9602 21.9102 14.2602 21.8902" fill="#C89359"/>
<path d="M21.1098 19.5799C24.7498 20.0299 29.8398 19.8799 32.2598 16.6899C32.4398 16.4499 32.0398 16.2199 31.8598 16.4599C29.5698 19.4599 24.5598 19.5499 21.1098 19.1199C20.8098 19.1199 20.8098 19.5499 21.1098 19.5799Z" fill="#C89359"/>
<path d="M30.4605 18.3001C33.1005 18.5401 36.4605 18.2301 38.3505 16.2201C38.3943 16.1764 38.4189 16.117 38.4189 16.0551C38.4189 15.9932 38.3943 15.9339 38.3505 15.8901C38.3068 15.8464 38.2474 15.8218 38.1855 15.8218C38.1236 15.8218 38.0643 15.8464 38.0205 15.8901C36.1805 17.8201 33.0205 18.0701 30.4605 17.8901C30.1605 17.8901 30.1705 18.3301 30.4605 18.3501" fill="#C89359"/>
<path d="M11.7398 26.9901C12.5974 26.9277 13.4577 27.0691 14.2502 27.4028C15.0428 27.7365 15.7451 28.253 16.2998 28.9101C16.4998 29.1301 16.8298 28.8001 16.6298 28.5801C16.0196 27.868 15.2462 27.3141 14.3755 26.9658C13.5048 26.6176 12.5627 26.4852 11.6298 26.5801C11.3398 26.6301 11.4598 27.0701 11.7598 27.0301" fill="#C89359"/>
<path d="M13.5297 23.2903C14.1725 23.3375 14.7932 23.5454 15.3348 23.8948C15.8765 24.2442 16.3217 24.7241 16.6297 25.2903C16.6657 25.3354 16.7167 25.3661 16.7734 25.3766C16.8302 25.3872 16.8888 25.377 16.9386 25.3478C16.9884 25.3187 17.0261 25.2725 17.0446 25.2179C17.0632 25.1632 17.0614 25.1037 17.0397 25.0503C16.6909 24.4088 16.1869 23.8649 15.5737 23.4684C14.9606 23.0718 14.2578 22.8353 13.5297 22.7803C13.2297 22.7803 13.2297 23.2303 13.5297 23.2503" fill="#C89359"/>
<path d="M19.1098 20.79C19.9115 20.7119 20.7195 20.8518 21.4482 21.1951C22.177 21.5383 22.7994 22.0721 23.2498 22.74C23.4098 22.99 23.8098 22.74 23.6498 22.5C23.1588 21.7621 22.4781 21.1702 21.6791 20.7866C20.8802 20.4029 19.9926 20.2418 19.1098 20.32C18.8098 20.32 18.8098 20.81 19.1098 20.79Z" fill="#C89359"/>
<path d="M27.7202 19.2901C28.1424 19.5229 28.5043 19.8512 28.7769 20.2489C29.0495 20.6465 29.2253 21.1024 29.2902 21.5801C29.2902 21.8801 29.7902 21.8801 29.7502 21.5801C29.6849 21.0212 29.4876 20.4858 29.1746 20.018C28.8617 19.5503 28.442 19.1637 27.9502 18.8901C27.6902 18.7501 27.4502 19.1501 27.7202 19.2901Z" fill="#C89359"/>
</svg>
