<svg width="47" height="47" viewBox="0 0 47 47" fill="none" xmlns="http://www.w3.org/2000/svg">
<path d="M46.58 23.28C46.582 27.8868 45.2177 32.3906 42.6598 36.222C40.1019 40.0533 36.4652 43.04 32.2096 44.8043C27.9541 46.5686 23.271 47.0312 18.7525 46.1337C14.234 45.2362 10.0832 43.0188 6.82503 39.7621C3.56686 36.5053 1.34771 32.3554 0.448253 27.8373C-0.451207 23.3192 0.00942826 18.6359 1.7719 14.3796C3.53437 10.1233 6.5195 6.48535 10.3497 3.92577C14.18 1.36619 18.6833 4.24645e-07 23.29 0C29.4652 -5.69219e-07 35.3876 2.45239 39.755 6.81795C44.1224 11.1835 46.5774 17.1048 46.58 23.28Z" fill="#E7F7F8"/>
<path d="M0.00976777 23.28C0.00845419 26.338 0.60964 29.3663 1.77898 32.1919C2.94832 35.0176 4.66291 37.5851 6.82479 39.7479C8.98666 41.9107 11.5535 43.6264 14.3786 44.797C17.2037 45.9675 20.2318 46.57 23.2898 46.57V0C17.1155 0 11.1942 2.45271 6.82832 6.81855C2.46247 11.1844 0.00976777 17.1058 0.00976777 23.28Z" fill="#F4FAFC"/>
<path d="M21.6703 29.2201L22.2203 28.5401L27.9003 21.5401L28.8503 20.3701C29.3812 19.7228 30.0377 19.1898 30.7801 18.8031C31.5226 18.4164 32.3357 18.1841 33.1703 18.1201C33.6596 18.078 34.1339 17.9301 34.5604 17.6867C34.9868 17.4432 35.3553 17.11 35.6403 16.7101C36.0964 16.0783 36.3179 15.3073 36.2668 14.5297C36.2157 13.7522 35.8952 13.0168 35.3603 12.4501C34.9332 12.0058 34.383 11.6993 33.7803 11.5701C33.518 11.5071 33.274 11.3839 33.0675 11.2104C32.8609 11.0368 32.6976 10.8176 32.5903 10.5701C32.3333 10.0083 31.9158 9.53506 31.3903 9.2101C30.7261 8.804 29.9409 8.64271 29.1703 8.75409C28.3998 8.86547 27.6924 9.24252 27.1703 9.8201C26.8387 10.1825 26.5892 10.6123 26.4391 11.08C26.2889 11.5477 26.2416 12.0424 26.3003 12.5301C26.4162 13.3632 26.3616 14.2111 26.1398 15.0225C25.9181 15.8339 25.5338 16.5917 25.0103 17.2501L24.0103 18.4201L17.6903 26.2201C17.1601 26.8648 16.5049 27.3956 15.7642 27.7805C15.0236 28.1655 14.2127 28.3966 13.3803 28.4601C12.8906 28.5047 12.4163 28.6547 11.9899 28.8998C11.5636 29.1449 11.1953 29.4793 10.9103 29.8801C10.4537 30.5092 10.2309 31.2779 10.2802 32.0537C10.3294 32.8295 10.6478 33.5638 11.1803 34.1301C11.6084 34.5752 12.1578 34.8847 12.7603 35.0201C13.0309 35.074 13.285 35.1908 13.5022 35.3611C13.7193 35.5313 13.8934 35.7502 14.0103 36.0001C14.2637 36.5612 14.6778 37.0345 15.2003 37.3601C15.7474 37.6818 16.3738 37.8435 17.0082 37.8267C17.6426 37.81 18.2596 37.6155 18.7889 37.2654C19.3182 36.9153 19.7386 36.4236 20.0023 35.8464C20.266 35.2691 20.3623 34.6294 20.2803 34.0001C20.185 33.1479 20.2587 32.2853 20.4972 31.4616C20.7357 30.638 21.1344 29.8695 21.6703 29.2001" fill="#D6C790"/>
</svg>
