<svg width="47" height="47" viewBox="0 0 47 47" fill="none" xmlns="http://www.w3.org/2000/svg">
<path d="M46.58 23.28C46.582 27.8868 45.2177 32.3906 42.6598 36.222C40.1019 40.0533 36.4652 43.04 32.2096 44.8043C27.9541 46.5686 23.271 47.0312 18.7525 46.1337C14.234 45.2362 10.0832 43.0188 6.82503 39.7621C3.56686 36.5053 1.34771 32.3554 0.448253 27.8373C-0.451207 23.3192 0.00942826 18.6359 1.7719 14.3796C3.53437 10.1233 6.5195 6.48535 10.3497 3.92577C14.18 1.36619 18.6833 4.24645e-07 23.29 0C29.4652 -5.69219e-07 35.3876 2.45239 39.755 6.81795C44.1224 11.1835 46.5774 17.1048 46.58 23.28Z" fill="#E7F7F8"/>
<path d="M0.00976777 23.28C0.00845419 26.338 0.60964 29.3663 1.77898 32.1919C2.94832 35.0176 4.66291 37.5851 6.82479 39.7479C8.98666 41.9107 11.5535 43.6264 14.3786 44.797C17.2037 45.9675 20.2318 46.57 23.2898 46.57V0C17.1155 0 11.1942 2.45271 6.82832 6.81855C2.46247 11.1844 0.00976777 17.1058 0.00976777 23.28Z" fill="#F4FAFC"/>
<path d="M25.2998 24.6601V25.0001L27.6298 30.6601C27.9137 31.3687 28.0196 32.1362 27.9381 32.8952C27.8567 33.6542 27.5904 34.3817 27.1626 35.014C26.7348 35.6462 26.1585 36.164 25.4842 36.5219C24.8099 36.8798 24.0582 37.0669 23.2948 37.0669C22.5314 37.0669 21.7796 36.8798 21.1053 36.5219C20.431 36.164 19.8547 35.6462 19.4269 35.014C18.9991 34.3817 18.7329 33.6542 18.6514 32.8952C18.57 32.1362 18.6758 31.3687 18.9598 30.6601L21.2898 25.0001V24.6601C21.2899 24.0517 21.0509 23.4675 20.6245 23.0336C20.198 22.5996 19.6181 22.3506 19.0098 22.3401H4.00977C4.34391 27.2297 6.52198 31.8101 10.1037 35.1555C13.6855 38.5008 18.4037 40.3615 23.3048 40.3615C28.2058 40.3615 32.9241 38.5008 36.5058 35.1555C40.0876 31.8101 42.2656 27.2297 42.5998 22.3401H27.5998C26.9845 22.3401 26.3944 22.5845 25.9593 23.0196C25.5242 23.4547 25.2798 24.0448 25.2798 24.6601" fill="#E07C5D"/>
<path d="M42.0604 25.41C41.5509 24.9049 40.8627 24.6216 40.1454 24.6216C39.428 24.6216 38.7398 24.9049 38.2304 25.41L37.8804 25.76C37.3709 26.265 36.6827 26.5483 35.9654 26.5483C35.248 26.5483 34.5598 26.265 34.0504 25.76C33.7994 25.5075 33.5011 25.3071 33.1724 25.1704C32.8437 25.0337 32.4913 24.9633 32.1354 24.9633C31.7794 24.9633 31.427 25.0337 31.0983 25.1704C30.7697 25.3071 30.4713 25.5075 30.2204 25.76C29.7109 26.265 29.0227 26.5483 28.3054 26.5483C27.588 26.5483 26.8998 26.265 26.3904 25.76L26.0104 25.41C25.7904 25.2 26.1304 27.01 26.1304 27.01L27.5904 30.66C27.8743 31.3686 27.9801 32.136 27.8987 32.8951C27.8173 33.6541 27.551 34.3816 27.1232 35.0139C26.6954 35.6461 26.1191 36.1639 25.4448 36.5218C24.7705 36.8797 24.0187 37.0668 23.2554 37.0668C22.492 37.0668 21.7402 36.8797 21.0659 36.5218C20.3916 36.1639 19.8153 35.6461 19.3875 35.0139C18.9597 34.3816 18.6935 33.6541 18.612 32.8951C18.5306 32.136 18.6364 31.3686 18.9204 30.66L20.6004 26.45C20.1445 26.5722 19.6645 26.5729 19.2083 26.4518C18.7521 26.3307 18.3356 26.0922 18.0004 25.76L17.6704 25.42C17.1605 24.9119 16.4701 24.6266 15.7504 24.6266C15.0306 24.6266 14.3402 24.9119 13.8304 25.42L13.5004 25.76C12.9909 26.265 12.3027 26.5483 11.5854 26.5483C10.868 26.5483 10.1798 26.265 9.67035 25.76L9.33035 25.41C8.82094 24.9049 8.13267 24.6216 7.41535 24.6216C6.69804 24.6216 6.00976 24.9049 5.50035 25.41L5.15035 25.76C4.98604 25.9161 4.80494 26.0536 4.61035 26.17C5.75838 30.3052 8.24859 33.9415 11.6892 36.5067C15.1299 39.072 19.3257 40.4206 23.6166 40.3404C27.9075 40.2603 32.0501 38.7559 35.3925 36.0639C38.7349 33.372 41.0876 29.6452 42.0804 25.47L42.0604 25.41Z" fill="#F5CA9B"/>
<path d="M34.0099 30.3399C34.0099 30.5176 33.9393 30.688 33.8137 30.8137C33.688 30.9393 33.5176 31.0099 33.3399 31.0099C33.1622 31.0099 32.9918 30.9393 32.8662 30.8137C32.7405 30.688 32.6699 30.5176 32.6699 30.3399C32.6699 30.1622 32.7405 29.9918 32.8662 29.8662C32.9918 29.7405 33.1622 29.6699 33.3399 29.6699C33.5176 29.6699 33.688 29.7405 33.8137 29.8662C33.9393 29.9918 34.0099 30.1622 34.0099 30.3399Z" fill="white"/>
<path d="M37.3 31.6801C37.2999 31.813 37.2604 31.9429 37.1863 32.0533C37.1122 32.1637 37.007 32.2496 36.884 32.3C36.761 32.3504 36.6258 32.3631 36.4955 32.3364C36.3653 32.3097 36.2459 32.2449 36.1527 32.1502C36.0594 32.0555 35.9964 31.9352 35.9716 31.8046C35.9469 31.6739 35.9616 31.5389 36.0139 31.4167C36.0661 31.2944 36.1536 31.1905 36.265 31.1181C36.3765 31.0457 36.507 31.0081 36.64 31.0101C36.8159 31.0127 36.9838 31.0845 37.1073 31.2098C37.2308 31.3352 37.3 31.5041 37.3 31.6801Z" fill="white"/>
<path d="M32.6299 33.68C32.6312 33.767 32.6151 33.8535 32.5824 33.9341C32.5497 34.0148 32.5012 34.0881 32.4396 34.1497C32.378 34.2112 32.3047 34.2598 32.2241 34.2925C32.1434 34.3252 32.0569 34.3413 31.9699 34.34C31.8824 34.3413 31.7955 34.3252 31.7143 34.2926C31.633 34.2601 31.5591 34.2117 31.4967 34.1502C31.4344 34.0888 31.3849 34.0156 31.3511 33.9349C31.3173 33.8541 31.2999 33.7675 31.2999 33.68C31.2984 33.5877 31.3159 33.4961 31.3514 33.4109C31.387 33.3257 31.4397 33.2488 31.5064 33.1849C31.573 33.1211 31.6522 33.0717 31.7388 33.0399C31.8255 33.008 31.9178 32.9945 32.0099 33C32.0974 33 32.1841 33.0174 32.2648 33.0512C32.3455 33.0849 32.4187 33.1345 32.4802 33.1968C32.5416 33.2592 32.59 33.3331 32.6226 33.4143C32.6551 33.4956 32.6712 33.5825 32.6699 33.67" fill="white"/>
<path d="M30.6299 29.6799C30.6276 29.814 30.585 29.9443 30.5077 30.054C30.4305 30.1636 30.3221 30.2476 30.1966 30.2949C30.0711 30.3423 29.9342 30.3509 29.8038 30.3196C29.6734 30.2883 29.5553 30.2186 29.4649 30.1195C29.3746 30.0203 29.316 29.8964 29.2969 29.7636C29.2778 29.6308 29.2989 29.4954 29.3576 29.3748C29.4163 29.2542 29.5099 29.154 29.6262 29.0871C29.7425 29.0203 29.8762 28.9899 30.0099 28.9999C30.1859 29.0025 30.3538 29.0743 30.4772 29.1996C30.6007 29.325 30.67 29.4939 30.6699 29.6699" fill="white"/>
<path d="M30.0099 36.3499C30.0099 36.5276 29.9393 36.698 29.8137 36.8237C29.688 36.9493 29.5176 37.0199 29.3399 37.0199C29.1622 37.0199 28.9918 36.9493 28.8662 36.8237C28.7405 36.698 28.6699 36.5276 28.6699 36.3499C28.6699 36.1722 28.7405 36.0018 28.8662 35.8762C28.9918 35.7505 29.1622 35.6799 29.3399 35.6799C29.5176 35.6799 29.688 35.7505 29.8137 35.8762C29.9393 36.0018 30.0099 36.1722 30.0099 36.3499Z" fill="white"/>
<path d="M17.2902 29.0001C17.2902 29.1326 17.2509 29.2621 17.1773 29.3723C17.1037 29.4825 16.999 29.5684 16.8766 29.6191C16.7542 29.6698 16.6195 29.6831 16.4895 29.6572C16.3595 29.6314 16.2401 29.5675 16.1464 29.4738C16.0527 29.3801 15.9889 29.2608 15.9631 29.1308C15.9372 29.0008 15.9505 28.8661 16.0012 28.7437C16.0519 28.6213 16.1378 28.5166 16.248 28.443C16.3581 28.3694 16.4877 28.3301 16.6202 28.3301C16.7979 28.3301 16.9683 28.4007 17.094 28.5263C17.2196 28.652 17.2902 28.8224 17.2902 29.0001Z" fill="white"/>
<path d="M15.2901 34.3399C15.2921 34.4729 15.2545 34.6034 15.1821 34.7148C15.1097 34.8263 15.0058 34.9138 14.8835 34.966C14.7613 35.0183 14.6263 35.033 14.4956 35.0083C14.365 34.9835 14.2447 34.9205 14.15 34.8272C14.0553 34.7339 13.9905 34.6146 13.9638 34.4844C13.9371 34.3541 13.9498 34.2189 14.0002 34.0959C14.0506 33.9729 14.1365 33.8677 14.2469 33.7936C14.3573 33.7195 14.4872 33.6799 14.6201 33.6799C14.7961 33.6799 14.965 33.7491 15.0904 33.8726C15.2157 33.9961 15.2875 34.164 15.2901 34.3399Z" fill="white"/>
<path d="M14.6203 31.0001C14.6203 31.1778 14.5497 31.3482 14.424 31.4738C14.2984 31.5995 14.128 31.6701 13.9503 31.6701C13.7726 31.6701 13.6022 31.5995 13.4765 31.4738C13.3509 31.3482 13.2803 31.1778 13.2803 31.0001C13.2803 30.8224 13.3509 30.652 13.4765 30.5263C13.6022 30.4007 13.7726 30.3301 13.9503 30.3301C14.128 30.3301 14.2984 30.4007 14.424 30.5263C14.5497 30.652 14.6203 30.8224 14.6203 31.0001Z" fill="white"/>
<path d="M10.6203 31.0001C10.6203 31.1778 10.5497 31.3482 10.424 31.4738C10.2984 31.5995 10.128 31.6701 9.95027 31.6701C9.77258 31.6701 9.60216 31.5995 9.47651 31.4738C9.35086 31.3482 9.28027 31.1778 9.28027 31.0001C9.28027 30.9121 9.2976 30.825 9.33127 30.7437C9.36494 30.6624 9.4143 30.5885 9.47651 30.5263C9.53873 30.4641 9.61259 30.4147 9.69388 30.3811C9.77516 30.3474 9.86229 30.3301 9.95027 30.3301C10.0383 30.3301 10.1254 30.3474 10.2067 30.3811C10.288 30.4147 10.3618 30.4641 10.424 30.5263C10.4862 30.5885 10.5356 30.6624 10.5693 30.7437C10.6029 30.825 10.6203 30.9121 10.6203 31.0001Z" fill="white"/>
<path d="M8.62027 28.3399C8.62027 28.4724 8.58098 28.602 8.50736 28.7122C8.43374 28.8223 8.3291 28.9082 8.20667 28.9589C8.08425 29.0096 7.94953 29.0229 7.81956 28.997C7.6896 28.9712 7.57021 28.9074 7.47651 28.8137C7.38281 28.72 7.319 28.6006 7.29315 28.4706C7.2673 28.3407 7.28056 28.206 7.33127 28.0835C7.38199 27.9611 7.46786 27.8565 7.57804 27.7828C7.68822 27.7092 7.81776 27.6699 7.95027 27.6699C8.03826 27.6699 8.12538 27.6873 8.20667 27.7209C8.28796 27.7546 8.36182 27.8039 8.42404 27.8662C8.48625 27.9284 8.5356 28.0022 8.56927 28.0835C8.60294 28.1648 8.62027 28.2519 8.62027 28.3399Z" fill="white"/>
<path d="M23.2899 27L25.1499 31.65C25.2723 31.9536 25.3182 32.2825 25.2838 32.608C25.2494 32.9334 25.1357 33.2455 24.9525 33.5167C24.7694 33.788 24.5225 34.0101 24.2335 34.1637C23.9445 34.3173 23.6222 34.3976 23.2949 34.3976C22.9676 34.3976 22.6454 34.3173 22.3564 34.1637C22.0673 34.0101 21.8204 33.788 21.6373 33.5167C21.4542 33.2455 21.3404 32.9334 21.306 32.608C21.2716 32.2825 21.3176 31.9536 21.4399 31.65L23.2899 27Z" fill="#CBA38D"/>
<path d="M25.77 31.4L24.01 26.88V14.63C24.01 14.4523 23.9394 14.2818 23.8137 14.1562C23.6881 14.0306 23.5177 13.96 23.34 13.96C23.1623 13.96 22.9919 14.0306 22.8662 14.1562C22.7406 14.2818 22.67 14.4523 22.67 14.63V26.88L20.87 31.4C20.7239 31.8018 20.6769 32.2329 20.7328 32.6567C20.7888 33.0805 20.9461 33.4847 21.1914 33.8348C21.4367 34.1849 21.7627 34.4708 22.142 34.6682C22.5212 34.8655 22.9424 34.9686 23.37 34.9686C23.7975 34.9686 24.2187 34.8655 24.5979 34.6682C24.9772 34.4708 25.3033 34.1849 25.5486 33.8348C25.7939 33.4847 25.9511 33.0805 26.0071 32.6567C26.063 32.2329 26.016 31.8018 25.87 31.4H25.77ZM24.5 33.14C24.3774 33.321 24.2119 33.4688 24.0181 33.57C23.8244 33.6712 23.6085 33.7228 23.39 33.72C23.1727 33.7229 22.9583 33.6713 22.7661 33.57C22.574 33.4687 22.4103 33.3208 22.29 33.14C22.1669 32.9585 22.0907 32.7494 22.068 32.5313C22.0453 32.3132 22.0769 32.0929 22.16 31.89L23.39 28.8L24.63 31.89C24.713 32.0929 24.7446 32.3132 24.7219 32.5313C24.6992 32.7494 24.623 32.9585 24.5 33.14Z" fill="#3F2718"/>
</svg>
