<svg width="47" height="47" viewBox="0 0 47 47" fill="none" xmlns="http://www.w3.org/2000/svg">
<path d="M46.58 23.28C46.582 27.8868 45.2177 32.3906 42.6598 36.222C40.1019 40.0533 36.4652 43.04 32.2096 44.8043C27.9541 46.5686 23.271 47.0312 18.7525 46.1337C14.234 45.2362 10.0832 43.0188 6.82503 39.7621C3.56686 36.5053 1.34771 32.3554 0.448253 27.8373C-0.451207 23.3192 0.00942826 18.6359 1.7719 14.3796C3.53437 10.1233 6.5195 6.48535 10.3497 3.92577C14.18 1.36619 18.6833 4.24645e-07 23.29 0C29.4652 -5.69219e-07 35.3876 2.45239 39.755 6.81795C44.1224 11.1835 46.5774 17.1048 46.58 23.28Z" fill="#E7F7F8"/>
<path d="M0.00976777 23.28C0.00845419 26.338 0.60964 29.3663 1.77898 32.1919C2.94832 35.0176 4.66291 37.5851 6.82479 39.7479C8.98666 41.9107 11.5535 43.6264 14.3786 44.797C17.2037 45.9675 20.2318 46.57 23.2898 46.57V0C17.1155 0 11.1942 2.45271 6.82832 6.81855C2.46247 11.1844 0.00976777 17.1058 0.00976777 23.28Z" fill="#F4FAFC"/>
<path d="M23.2901 12.47C15.1701 12.47 8.18012 16.92 5.12012 23.28C8.18012 29.65 15.1701 34.1 23.2901 34.1C31.4101 34.1 38.4101 29.65 41.4701 23.28C38.4101 16.92 31.4701 12.47 23.2901 12.47Z" fill="white"/>
<path d="M32.4704 23.2801C32.4704 25.0957 31.932 26.8706 30.9232 28.3802C29.9145 29.8899 28.4808 31.0665 26.8034 31.7613C25.126 32.4561 23.2802 32.6379 21.4994 32.2837C19.7187 31.9295 18.083 31.0552 16.7991 29.7713C15.5153 28.4875 14.641 26.8518 14.2867 25.071C13.9325 23.2903 14.1143 21.4445 14.8091 19.7671C15.504 18.0896 16.6806 16.6559 18.1902 15.6472C19.6999 14.6385 21.4747 14.1001 23.2904 14.1001C25.725 14.1001 28.06 15.0673 29.7816 16.7889C31.5032 18.5104 32.4704 20.8454 32.4704 23.2801Z" fill="#98CFCF"/>
<path d="M27.5595 23.28C27.5575 24.1241 27.3054 24.9487 26.835 25.6496C26.3646 26.3504 25.6971 26.8962 24.9167 27.2178C24.1362 27.5395 23.278 27.6226 22.4504 27.4567C21.6227 27.2908 20.8628 26.8834 20.2667 26.2858C19.6705 25.6882 19.2648 24.9274 19.1009 24.0994C18.9369 23.2713 19.022 22.4133 19.3455 21.6336C19.669 20.854 20.2163 20.1877 20.9183 19.7189C21.6203 19.2502 22.4454 19 23.2895 19C24.4203 19 25.5048 19.4485 26.3053 20.2471C27.1058 21.0457 27.5569 22.1293 27.5595 23.26" fill="#5C7283"/>
<path d="M23.2905 21.75C23.2905 22.0526 23.2007 22.3484 23.0326 22.6C22.8645 22.8516 22.6255 23.0477 22.346 23.1635C22.0664 23.2793 21.7588 23.3096 21.462 23.2506C21.1652 23.1916 20.8926 23.0459 20.6786 22.8319C20.4646 22.6179 20.3189 22.3453 20.2599 22.0485C20.2008 21.7517 20.2311 21.4441 20.3469 21.1645C20.4627 20.8849 20.6588 20.646 20.9104 20.4779C21.1621 20.3097 21.4579 20.22 21.7605 20.22C21.9618 20.2187 22.1613 20.2573 22.3475 20.3338C22.5338 20.4102 22.703 20.5228 22.8453 20.6652C22.9876 20.8075 23.1003 20.9767 23.1767 21.1629C23.2531 21.3492 23.2918 21.5487 23.2905 21.75Z" fill="white"/>
</svg>
