<svg width="47" height="47" viewBox="0 0 47 47" fill="none" xmlns="http://www.w3.org/2000/svg">
<path d="M46.58 23.28C46.582 27.8868 45.2177 32.3906 42.6598 36.222C40.1019 40.0533 36.4652 43.04 32.2096 44.8043C27.9541 46.5686 23.271 47.0312 18.7525 46.1337C14.234 45.2362 10.0832 43.0188 6.82503 39.7621C3.56686 36.5053 1.34771 32.3554 0.448253 27.8373C-0.451207 23.3192 0.00942826 18.6359 1.7719 14.3796C3.53437 10.1233 6.5195 6.48535 10.3497 3.92577C14.18 1.36619 18.6833 4.24645e-07 23.29 0C29.4652 -5.69219e-07 35.3876 2.45239 39.755 6.81795C44.1224 11.1835 46.5774 17.1048 46.58 23.28Z" fill="#E7F7F8"/>
<path d="M0.00976777 23.28C0.00845419 26.338 0.60964 29.3663 1.77898 32.1919C2.94832 35.0176 4.66291 37.5851 6.82479 39.7479C8.98666 41.9107 11.5535 43.6264 14.3786 44.797C17.2037 45.9675 20.2318 46.57 23.2898 46.57V0C17.1155 0 11.1942 2.45271 6.82832 6.81855C2.46247 11.1844 0.00976777 17.1058 0.00976777 23.28Z" fill="#F4FAFC"/>
<path d="M17.6897 38.56C17.6088 38.6239 17.5119 38.6642 17.4095 38.6766C17.3072 38.6889 17.2034 38.6728 17.1097 38.63C16.9297 38.54 16.7697 38.46 16.7597 38.37C16.7069 38.0222 16.7815 37.6671 16.9697 37.37C18.5217 35.851 20.1938 34.4598 21.9697 33.21C24.9697 31.35 27.5897 29.32 29.0997 26.06C30.3824 23.2842 30.8539 20.2022 30.4597 17.17C30.2695 14.8552 30.7339 12.5336 31.7997 10.47C31.9412 10.2629 32.1553 10.1165 32.3997 10.06C32.4708 10.0304 32.5476 10.0166 32.6246 10.0197C32.7016 10.0228 32.777 10.0427 32.8455 10.0779C32.9141 10.1131 32.9741 10.1629 33.0215 10.2237C33.0688 10.2845 33.1023 10.3549 33.1197 10.43C33.1899 10.6272 33.1899 10.8427 33.1197 11.04C32.1841 13.5168 31.8184 16.1725 32.0497 18.81C32.2346 21.8264 31.5652 24.8339 30.1183 27.4871C28.6714 30.1404 26.5056 32.3318 23.8697 33.81C21.9307 35.1261 20.0708 36.5553 18.2997 38.09L17.6697 38.6" fill="#DE7A79"/>
<path d="M13.45 35.4C13.681 33.241 13.7978 31.0714 13.8 28.9C13.5244 25.1158 14.4557 21.3417 16.46 18.12C18.0202 15.7899 20.1559 13.9022 22.66 12.64C24.6044 11.5538 26.3303 10.1161 27.75 8.40004C27.86 8.27004 27.94 8.06004 28.08 8.02004C28.2607 7.96616 28.4443 7.92276 28.63 7.89004C28.7048 7.87726 28.7815 7.88038 28.855 7.89922C28.9285 7.91805 28.9972 7.95217 29.0567 7.99935C29.1161 8.04653 29.1649 8.1057 29.2 8.17302C29.235 8.24034 29.2555 8.31429 29.26 8.39004C29.2837 8.57284 29.2486 8.75843 29.16 8.92004C27.6662 11.0184 25.6954 12.732 23.41 13.92C21.441 14.8482 19.7175 16.2257 18.3784 17.9418C17.0392 19.6579 16.1218 21.6645 15.7 23.8C15.4806 25.6152 15.3671 27.4417 15.36 29.27C15.17 31.52 14.91 33.77 14.6 36C14.6 36.18 14.38 36.34 14.16 36.49C13.94 36.64 13.52 36.64 13.43 36.37C13.384 36.0383 13.384 35.7018 13.43 35.37" fill="#DE7A79"/>
<path d="M27.3696 15.86C27.4043 15.9335 27.4223 16.0138 27.4223 16.095C27.4223 16.1763 27.4043 16.2566 27.3696 16.33C27.0096 17.06 26.6696 17.75 26.3196 18.43C24.3929 22.2034 22.4596 25.9767 20.5196 29.75C20.3198 30.1746 20.0605 30.5686 19.7496 30.92C19.6189 31.0297 19.465 31.1083 19.2996 31.15C19.2313 31.1699 19.1598 31.1761 19.0891 31.1682C19.0184 31.1604 18.95 31.1386 18.8877 31.1042C18.8255 31.0699 18.7706 31.0235 18.7263 30.9679C18.682 30.9123 18.6492 30.8484 18.6296 30.7801C18.561 30.5859 18.561 30.3742 18.6296 30.18C19.2496 28.7801 19.9696 27.4001 20.6796 26.0401C22.3463 22.8134 24.0329 19.5901 25.7396 16.3701C25.8813 16.0614 26.0856 15.7855 26.3396 15.56C26.4622 15.4923 26.5976 15.4511 26.7372 15.439C26.8767 15.427 27.0172 15.4443 27.1496 15.49C27.2696 15.49 27.3396 15.7 27.4196 15.86" fill="#DE7A79"/>
<path d="M29.1398 19.2599V19.3299C29.0398 24.6299 26.7598 28.5999 22.0698 31.1099C21.8657 31.2005 21.6384 31.225 21.4198 31.1799C21.3389 31.1726 21.2607 31.1468 21.1914 31.1045C21.122 31.0621 21.0633 31.0044 21.0198 30.9358C20.9763 30.8672 20.9492 30.7895 20.9405 30.7087C20.9319 30.6279 20.9419 30.5462 20.9698 30.4699C21.0435 30.2102 21.181 29.973 21.3698 29.7799C22.1098 29.1599 23.0498 28.7799 23.7998 28.1399C24.9655 27.129 25.8995 25.8785 26.5381 24.4737C27.1766 23.0689 27.5046 21.543 27.4998 19.9999C27.4998 19.1899 27.4998 18.3699 27.5598 17.5699C27.5836 17.4091 27.6611 17.2611 27.7798 17.1499C27.8636 17.0503 27.9806 16.9843 28.1092 16.9641C28.2378 16.9439 28.3694 16.9708 28.4798 17.0399C28.6598 17.1499 28.8398 17.2799 28.8798 17.4399C29.0223 18.0475 29.1093 18.6667 29.1398 19.2899" fill="#DE7A79"/>
<path d="M21.3902 16.22L21.3302 16.27C17.2502 19.64 15.5602 23.9 16.5202 29.13C16.5807 29.3464 16.7022 29.5408 16.8702 29.69C16.9273 29.7478 16.9966 29.7919 17.0731 29.8192C17.1495 29.8464 17.2312 29.8561 17.3119 29.8474C17.3926 29.8388 17.4704 29.812 17.5393 29.7692C17.6083 29.7264 17.6667 29.6685 17.7102 29.6C17.8687 29.3823 17.9686 29.1275 18.0002 28.86C18.0002 27.86 17.7502 26.86 17.7702 25.93C17.8307 24.3807 18.2268 22.863 18.9312 21.4817C19.6357 20.1005 20.6316 18.8887 21.8502 17.93C22.4602 17.39 23.1402 16.93 23.7202 16.37C23.8104 16.2624 23.8753 16.136 23.9102 16C23.9343 15.8733 23.9123 15.7421 23.8481 15.6302C23.7839 15.5183 23.6818 15.4331 23.5602 15.39C23.3891 15.2966 23.189 15.2716 23.0002 15.32C22.4343 15.5842 21.8951 15.9023 21.3902 16.27" fill="#DE7A79"/>
</svg>
