<svg width="47" height="47" viewBox="0 0 47 47" fill="none" xmlns="http://www.w3.org/2000/svg">
<path d="M46.58 23.28C46.582 27.8868 45.2177 32.3906 42.6598 36.222C40.1019 40.0533 36.4652 43.04 32.2096 44.8043C27.9541 46.5686 23.271 47.0312 18.7525 46.1337C14.234 45.2362 10.0832 43.0188 6.82503 39.7621C3.56686 36.5053 1.34771 32.3554 0.448253 27.8373C-0.451207 23.3192 0.00942826 18.6359 1.7719 14.3796C3.53437 10.1233 6.5195 6.48535 10.3497 3.92577C14.18 1.36619 18.6833 4.24645e-07 23.29 0C29.4652 -5.69219e-07 35.3876 2.45239 39.755 6.81795C44.1224 11.1835 46.5774 17.1048 46.58 23.28Z" fill="#E7F7F8"/>
<path d="M0.00976777 23.28C0.00845419 26.338 0.60964 29.3663 1.77898 32.1919C2.94832 35.0176 4.66291 37.5851 6.82479 39.7479C8.98666 41.9107 11.5535 43.6264 14.3786 44.797C17.2037 45.9675 20.2318 46.57 23.2898 46.57V0C17.1155 0 11.1942 2.45271 6.82832 6.81855C2.46247 11.1844 0.00976777 17.1058 0.00976777 23.28Z" fill="#F4FAFC"/>
<path d="M28.3503 8.45996H27.2803C26.771 8.45996 26.2827 8.66225 25.9226 9.02232C25.5625 9.38239 25.3603 9.87075 25.3603 10.38V18.27C24.6626 19.1677 23.8752 19.9919 23.0103 20.73C22.4818 21.1215 21.8475 21.3445 21.1903 21.37C20.8024 21.366 20.4202 21.2772 20.0703 21.11C19.6801 20.9262 19.2996 20.7226 18.9303 20.5C19.1638 19.1211 18.9017 17.704 18.1903 16.5C18.1057 16.332 17.9754 16.1913 17.8144 16.094C17.6535 15.9967 17.4683 15.9468 17.2803 15.95C17.0972 15.9376 16.9143 15.9759 16.7516 16.0605C16.5889 16.1452 16.4525 16.273 16.3576 16.4299C16.2626 16.5868 16.2126 16.7669 16.2131 16.9503C16.2135 17.1337 16.2645 17.3135 16.3603 17.47C16.6405 17.9694 16.8301 18.5144 16.9203 19.08C16.2396 18.5429 15.6011 17.9545 15.0103 17.32C14.9224 17.2163 14.8143 17.1316 14.6926 17.0711C14.5709 17.0106 14.4382 16.9755 14.3025 16.968C14.1668 16.9605 14.031 16.9808 13.9034 17.0275C13.7757 17.0743 13.659 17.1466 13.5603 17.24C13.4567 17.3283 13.3722 17.4368 13.312 17.5589C13.2518 17.6809 13.2172 17.814 13.2103 17.95C13.1986 18.2239 13.2915 18.492 13.4703 18.7C13.4703 18.7 13.6703 18.92 13.9703 19.22C13.7425 19.1846 13.5226 19.1102 13.3203 19C13.1277 18.8807 12.9067 18.8151 12.6803 18.81C12.4559 18.7958 12.2332 18.8576 12.0483 18.9856C11.8634 19.1135 11.727 19.3 11.6611 19.515C11.5952 19.73 11.6037 19.9609 11.6852 20.1704C11.7667 20.38 11.9164 20.556 12.1103 20.67C12.8201 21.147 13.6664 21.3787 14.5203 21.33C15.0913 21.323 15.6604 21.2628 16.2203 21.15C16.6203 21.45 17.0403 21.74 17.4503 22C16.4946 22.5623 15.6642 23.3144 15.0103 24.21C14.9312 24.3201 14.8754 24.4451 14.8462 24.5775C14.8169 24.7099 14.8149 24.8468 14.8403 24.98C14.8634 25.1159 14.9145 25.2457 14.9902 25.361C15.0659 25.4763 15.1647 25.5747 15.2803 25.65C15.4503 25.7686 15.6529 25.8315 15.8603 25.83C16.0284 25.8324 16.1943 25.7925 16.3429 25.7139C16.4915 25.6352 16.6178 25.5204 16.7103 25.38C17.4658 24.3987 18.4659 23.6332 19.6103 23.16C20.1107 23.3407 20.6382 23.4354 21.1703 23.44C21.3301 23.4499 21.4904 23.4499 21.6503 23.44C21.6216 24.8066 21.0747 26.1113 20.1203 27.09C19.1073 26.9916 18.104 26.811 17.1203 26.55C16.9179 26.4613 16.701 26.4105 16.4803 26.4C16.336 26.4038 16.1942 26.4389 16.0647 26.5028C15.9353 26.5667 15.8212 26.6578 15.7303 26.77C15.6409 26.864 15.5724 26.9759 15.5293 27.0982C15.4862 27.2206 15.4695 27.3507 15.4803 27.48C15.5099 27.7384 15.639 27.9752 15.8403 28.14C16.4235 28.5678 17.1181 28.8179 17.8403 28.86C17.7732 28.9969 17.7383 29.1474 17.7383 29.3C17.7383 29.4525 17.7732 29.603 17.8403 29.74C17.9205 29.9185 18.0514 30.0696 18.2167 30.1745C18.382 30.2794 18.5745 30.3335 18.7703 30.33C18.926 30.3321 19.0801 30.2979 19.2203 30.23C19.7656 29.9665 20.2846 29.6518 20.7703 29.29C20.7233 29.9076 20.4532 30.487 20.0103 30.92C19.906 31.0062 19.8204 31.1127 19.7585 31.2331C19.6966 31.3534 19.6598 31.485 19.6503 31.62C19.6332 31.761 19.6464 31.904 19.689 32.0396C19.7315 32.1751 19.8025 32.3 19.8971 32.406C19.9917 32.512 20.1078 32.5966 20.2377 32.6542C20.3676 32.7117 20.5082 32.741 20.6503 32.74C20.8968 32.7421 21.1354 32.653 21.3203 32.49C23.1503 30.91 22.8203 28.08 22.6403 27.1C23.0037 26.4762 23.2733 25.8023 23.4403 25.1C23.6373 24.3196 23.7115 23.5132 23.6603 22.71C23.8303 22.61 24.0003 22.51 24.1603 22.4C24.5793 22.1101 24.965 21.7747 25.3103 21.4V36.18C25.3089 36.4329 25.3576 36.6837 25.4535 36.9178C25.5494 37.1519 25.6907 37.3647 25.8691 37.5441C26.0475 37.7234 26.2596 37.8657 26.4932 37.9629C26.7268 38.06 26.9773 38.11 27.2303 38.11H28.3003C28.5532 38.11 28.8037 38.06 29.0373 37.9629C29.2709 37.8657 29.483 37.7234 29.6615 37.5441C29.8399 37.3647 29.9811 37.1519 30.077 36.9178C30.1729 36.6837 30.2216 36.4329 30.2203 36.18V10.38C30.2203 9.87075 30.018 9.38239 29.6579 9.02232C29.2978 8.66225 28.8095 8.45996 28.3003 8.45996H28.3503ZM29.7103 10.41C29.7103 10.7848 29.562 11.1445 29.2979 11.4105C29.0338 11.6765 28.6751 11.8273 28.3003 11.83H27.2803C26.9045 11.8273 26.5448 11.6769 26.2791 11.4112C26.0133 11.1454 25.8629 10.7858 25.8603 10.41C25.8655 10.0359 26.0171 9.67879 26.2825 9.4152C26.548 9.15161 26.9062 9.00254 27.2803 8.99996H28.3503C28.7251 9.0026 29.0838 9.15337 29.3479 9.41939C29.612 9.6854 29.7603 10.0451 29.7603 10.42L29.7103 10.41Z" fill="#DC6F62"/>
<path d="M28.3496 8.45996H27.2796C26.7704 8.45996 26.2821 8.66225 25.922 9.02232C25.5619 9.38239 25.3596 9.87075 25.3596 10.38V18.27C24.6619 19.1677 23.8745 19.9919 23.0096 20.73C22.4811 21.1215 21.8469 21.3445 21.1896 21.37C20.8018 21.366 20.4196 21.2772 20.0696 21.11C19.6795 20.9262 19.299 20.7226 18.9296 20.5C19.1632 19.1211 18.901 17.704 18.1896 16.5C18.105 16.332 17.9748 16.1913 17.8138 16.094C17.6528 15.9967 17.4677 15.9468 17.2796 15.95C17.0966 15.9376 16.9137 15.9759 16.751 16.0605C16.5882 16.1452 16.4519 16.273 16.3569 16.4299C16.2619 16.5868 16.212 16.7669 16.2124 16.9503C16.2129 17.1337 16.2638 17.3135 16.3596 17.47C16.6399 17.9694 16.8295 18.5144 16.9196 19.08C16.239 18.5429 15.6005 17.9545 15.0096 17.32C14.9218 17.2163 14.8137 17.1316 14.692 17.0711C14.5703 17.0106 14.4376 16.9755 14.3019 16.968C14.1662 16.9605 14.0303 16.9808 13.9027 17.0275C13.7751 17.0743 13.6584 17.1466 13.5596 17.24C13.4561 17.3283 13.3716 17.4368 13.3114 17.5589C13.2512 17.6809 13.2166 17.814 13.2096 17.95C13.198 18.2239 13.2909 18.492 13.4696 18.7C13.4696 18.7 13.6696 18.92 13.9696 19.21C13.7414 19.1828 13.5206 19.1115 13.3196 19C13.1271 18.8807 12.9061 18.8151 12.6796 18.81C12.5261 18.8153 12.3759 18.856 12.2406 18.9289C12.1053 19.0017 11.9887 19.1047 11.8996 19.23C11.8185 19.3373 11.7598 19.46 11.7271 19.5906C11.6945 19.7212 11.6885 19.857 11.7096 19.99C11.7267 20.1245 11.771 20.2542 11.8398 20.3711C11.9085 20.488 12.0003 20.5897 12.1096 20.67C12.8195 21.147 13.6658 21.3787 14.5196 21.33C15.0907 21.323 15.6598 21.2628 16.2196 21.15C16.6196 21.45 17.0396 21.74 17.4496 22C16.4939 22.5623 15.6635 23.3144 15.0096 24.21C14.9306 24.3201 14.8748 24.4451 14.8455 24.5775C14.8163 24.7099 14.8143 24.8468 14.8396 24.98C14.8628 25.1159 14.9139 25.2457 14.9896 25.361C15.0653 25.4763 15.1641 25.5747 15.2796 25.65C15.4496 25.7686 15.6523 25.8315 15.8596 25.83C16.0277 25.8324 16.1937 25.7925 16.3423 25.7139C16.4909 25.6352 16.6172 25.5204 16.7096 25.38C17.4652 24.3987 18.4652 23.6332 19.6096 23.16C20.1101 23.3407 20.6376 23.4354 21.1696 23.44C21.3295 23.4499 21.4898 23.4499 21.6496 23.44C21.6209 24.8066 21.074 26.1113 20.1196 27.09C19.1067 26.9916 18.1033 26.811 17.1196 26.55C16.9173 26.4613 16.7003 26.4105 16.4796 26.4C16.3353 26.4038 16.1936 26.4389 16.0641 26.5028C15.9346 26.5667 15.8205 26.6578 15.7296 26.77C15.6403 26.864 15.5718 26.9759 15.5287 27.0982C15.4856 27.2206 15.4689 27.3507 15.4796 27.48C15.5092 27.7384 15.6384 27.9752 15.8396 28.14C16.4229 28.5678 17.1175 28.8179 17.8396 28.86C17.7725 28.9969 17.7376 29.1474 17.7376 29.3C17.7376 29.4525 17.7725 29.603 17.8396 29.74C17.9199 29.9185 18.0508 30.0696 18.2161 30.1745C18.3814 30.2794 18.5739 30.3335 18.7696 30.33C18.9254 30.3321 19.0795 30.2979 19.2196 30.23C19.765 29.9665 20.284 29.6518 20.7696 29.29C20.7227 29.9076 20.4525 30.487 20.0096 30.92C19.9054 31.0062 19.8197 31.1127 19.7579 31.2331C19.696 31.3534 19.6592 31.485 19.6496 31.62C19.6341 31.7602 19.6485 31.9022 19.6917 32.0365C19.735 32.1708 19.8062 32.2945 19.9006 32.3993C19.9951 32.5042 20.1106 32.5878 20.2397 32.6448C20.3688 32.7018 20.5085 32.7308 20.6496 32.73C20.8948 32.7348 21.1333 32.6494 21.3196 32.49C23.1496 30.91 22.8196 28.08 22.6396 27.1C23.0031 26.4762 23.2726 25.8023 23.4396 25.1C23.6366 24.3196 23.7109 23.5132 23.6596 22.71C23.8296 22.61 23.9996 22.51 24.1596 22.4C24.5787 22.1101 24.9644 21.7747 25.3096 21.4V36.18C25.3083 36.4329 25.357 36.6837 25.4529 36.9178C25.5488 37.1519 25.69 37.3647 25.8684 37.5441C26.0469 37.7234 26.259 37.8657 26.4926 37.9629C26.7262 38.06 26.9767 38.11 27.2296 38.11H28.2996C28.5526 38.11 28.8031 38.06 29.0367 37.9629C29.2703 37.8657 29.4824 37.7234 29.6608 37.5441C29.8393 37.3647 29.9805 37.1519 30.0764 36.9178C30.1723 36.6837 30.221 36.4329 30.2196 36.18V10.38C30.2196 9.87075 30.0174 9.38239 29.6573 9.02232C29.2972 8.66225 28.8089 8.45996 28.2996 8.45996H28.3496ZM25.8096 10.38C25.8227 10.0024 25.9846 9.64537 26.26 9.3868C26.5355 9.12824 26.902 8.98917 27.2796 8.99996H28.3496C28.7245 9.0026 29.0831 9.15337 29.3473 9.41939C29.6114 9.6854 29.7597 10.0451 29.7596 10.42C29.7597 10.7948 29.6114 11.1545 29.3473 11.4205C29.0831 11.6865 28.7245 11.8373 28.3496 11.84H27.2796C26.9038 11.8373 26.5442 11.6869 26.2784 11.4212C26.0127 11.1554 25.8623 10.7958 25.8596 10.42L25.8096 10.38ZM29.7096 36.18C29.7097 36.5548 29.5614 36.9145 29.2973 37.1805C29.0331 37.4466 28.6745 37.5973 28.2996 37.6H27.2796C26.9038 37.5973 26.5442 37.4469 26.2784 37.1812C26.0127 36.9154 25.8623 36.5558 25.8596 36.18V20.7C25.8625 20.6454 25.8474 20.5915 25.8167 20.5464C25.786 20.5012 25.7414 20.4674 25.6896 20.45H25.6096C25.5684 20.4503 25.5279 20.4605 25.4914 20.4796C25.4549 20.4988 25.4234 20.5263 25.3996 20.56C25.0024 21.1297 24.5001 21.6185 23.9196 22C23.7296 22.13 23.5296 22.25 23.3296 22.36C23.2835 22.3823 23.2453 22.4182 23.2203 22.4629C23.1952 22.5076 23.1845 22.559 23.1896 22.61C23.2597 23.4111 23.1989 24.2183 23.0096 25C22.841 25.6797 22.5714 26.3303 22.2096 26.93C22.1975 26.9584 22.1913 26.989 22.1913 27.02C22.1913 27.0509 22.1975 27.0815 22.2096 27.11C22.3696 27.92 22.7596 30.66 21.0796 32.11C20.9862 32.1936 20.8651 32.2399 20.7396 32.24C20.6632 32.239 20.5879 32.2215 20.5188 32.1887C20.4498 32.1559 20.3887 32.1086 20.3396 32.05C20.2952 31.9979 20.2616 31.9375 20.241 31.8722C20.2204 31.8069 20.2131 31.7381 20.2196 31.67C20.2232 31.6022 20.2411 31.536 20.2721 31.4757C20.3031 31.4153 20.3466 31.3623 20.3996 31.32C20.7233 30.971 20.972 30.5593 21.1302 30.1103C21.2885 29.6614 21.3529 29.1848 21.3196 28.71C21.3198 28.6612 21.3057 28.6134 21.279 28.5725C21.2524 28.5317 21.2144 28.4995 21.1696 28.48C21.129 28.4552 21.0823 28.4422 21.0346 28.4422C20.987 28.4422 20.9403 28.4552 20.8996 28.48C20.332 28.9867 19.6957 29.4108 19.0096 29.74C18.9371 29.7719 18.8589 29.7889 18.7796 29.79C18.6812 29.7886 18.585 29.7598 18.502 29.7068C18.419 29.6538 18.3524 29.5787 18.3096 29.49C18.2582 29.3812 18.246 29.258 18.2752 29.1413C18.3043 29.0246 18.3731 28.9217 18.4696 28.85C18.5075 28.8194 18.5359 28.7788 18.5519 28.7328C18.5678 28.6869 18.5705 28.6374 18.5596 28.59C18.5493 28.5401 18.5234 28.4948 18.4857 28.4607C18.4479 28.4265 18.4003 28.4053 18.3496 28.4C16.8496 28.16 16.4396 27.93 16.2296 27.74C16.1185 27.6561 16.0406 27.5357 16.0096 27.4C16.0048 27.3426 16.0132 27.2848 16.0339 27.2311C16.0547 27.1774 16.0875 27.1292 16.1296 27.09C16.2896 26.91 16.3796 26.88 16.4996 26.88C16.6753 26.8903 16.8478 26.9309 17.0096 27C18.0649 27.2828 19.142 27.4768 20.2296 27.58C20.3025 27.5808 20.3733 27.5561 20.4296 27.51C21.0111 26.9375 21.4683 26.2513 21.7728 25.4943C22.0774 24.7373 22.2226 23.9256 22.1996 23.11C22.1993 23.0737 22.1911 23.0379 22.1756 23.005C22.16 22.9722 22.1375 22.9432 22.1096 22.92C22.0803 22.8971 22.0463 22.8808 22.0101 22.8721C21.9738 22.8635 21.9362 22.8628 21.8996 22.87C21.1696 22.9919 20.4203 22.9159 19.7296 22.65C19.7002 22.635 19.6677 22.6272 19.6346 22.6272C19.6016 22.6272 19.5691 22.635 19.5396 22.65C18.2705 23.1612 17.1618 24.0039 16.3296 25.09C16.2829 25.1612 16.219 25.2195 16.1439 25.2597C16.0688 25.2999 15.9848 25.3206 15.8996 25.32C15.7929 25.3209 15.6883 25.2895 15.5996 25.23C15.5436 25.1903 15.496 25.1398 15.46 25.0814C15.4239 25.023 15.4 24.9579 15.3896 24.89C15.3749 24.823 15.3745 24.7537 15.3882 24.6865C15.402 24.6193 15.4298 24.5557 15.4696 24.5C16.1424 23.5661 17.0088 22.7884 18.0096 22.22C18.0491 22.1984 18.082 22.1665 18.1049 22.1278C18.1278 22.0891 18.1398 22.0449 18.1396 22C18.1387 21.9552 18.1263 21.9114 18.1035 21.8729C18.0808 21.8343 18.0484 21.8023 18.0096 21.78C17.4432 21.44 16.8958 21.0695 16.3696 20.67C16.3367 20.6547 16.3009 20.6468 16.2646 20.6468C16.2284 20.6468 16.1926 20.6547 16.1596 20.67C15.6011 20.7921 15.0314 20.8558 14.4596 20.86C13.7159 20.9039 12.9773 20.7114 12.3496 20.31C12.2411 20.2228 12.1696 20.0977 12.1496 19.96C12.1384 19.8916 12.1414 19.8216 12.1587 19.7545C12.1759 19.6873 12.2069 19.6245 12.2496 19.57C12.2905 19.5083 12.3452 19.4572 12.4095 19.4207C12.4738 19.3842 12.5458 19.3634 12.6196 19.36C12.7545 19.3668 12.8853 19.4081 12.9996 19.48C13.493 19.7231 14.0402 19.8367 14.5896 19.81C14.6421 19.8092 14.6932 19.7925 14.736 19.7622C14.7788 19.7318 14.8115 19.6892 14.8296 19.64C14.8461 19.5931 14.8483 19.5424 14.8358 19.4943C14.8233 19.4462 14.7968 19.4029 14.7596 19.37C14.1596 18.81 13.8096 18.42 13.7596 18.37C13.6631 18.271 13.6091 18.1382 13.6091 18C13.6091 17.8617 13.6631 17.7289 13.7596 17.63C13.8557 17.5439 13.9807 17.4975 14.1096 17.5C14.183 17.4992 14.2556 17.514 14.3228 17.5433C14.39 17.5725 14.4503 17.6157 14.4996 17.67C15.2701 18.4725 16.1101 19.2053 17.0096 19.86C17.0503 19.8847 17.097 19.8978 17.1446 19.8978C17.1923 19.8978 17.239 19.8847 17.2796 19.86C17.321 19.8397 17.3559 19.8085 17.3806 19.7697C17.4053 19.7308 17.4188 19.686 17.4196 19.64C17.4152 18.7971 17.1912 17.9699 16.7696 17.24C16.7174 17.1182 16.7127 16.9813 16.7564 16.8562C16.8001 16.7311 16.8891 16.627 17.0058 16.5642C17.1224 16.5015 17.2584 16.4847 17.3868 16.5173C17.5153 16.5498 17.6269 16.6292 17.6996 16.74C18.3854 17.8839 18.6173 19.2434 18.3496 20.55C18.3367 20.6019 18.3414 20.6567 18.3632 20.7056C18.3849 20.7545 18.4224 20.7948 18.4696 20.82C18.9024 21.088 19.3498 21.3317 19.8096 21.55C20.2289 21.7483 20.6859 21.854 21.1496 21.86C21.9103 21.834 22.6456 21.5796 23.2596 21.13C24.1875 20.335 25.0349 19.4508 25.7896 18.49C25.8033 18.4409 25.8033 18.389 25.7896 18.34V11.71C25.9732 11.9026 26.1933 12.0566 26.4372 12.1631C26.681 12.2695 26.9436 12.3263 27.2096 12.33H28.2696V27.72C28.2621 27.7577 28.2631 27.7966 28.2724 27.8339C28.2818 27.8712 28.2993 27.9059 28.3237 27.9356C28.348 27.9654 28.3787 27.9893 28.4135 28.0057C28.4482 28.0222 28.4862 28.0307 28.5246 28.0307C28.5631 28.0307 28.6011 28.0222 28.6358 28.0057C28.6706 27.9893 28.7012 27.9654 28.7256 27.9356C28.75 27.9059 28.7675 27.8712 28.7769 27.8339C28.7862 27.7966 28.7871 27.7577 28.7796 27.72V12.28C29.1299 12.1832 29.4454 11.989 29.6896 11.72L29.7096 36.18Z" fill="#D1655C"/>
<path d="M28.59 28.5898C28.5228 28.5924 28.4592 28.621 28.4125 28.6694C28.3659 28.7179 28.3399 28.7826 28.34 28.8498V32.3398C28.3325 32.3776 28.3334 32.4165 28.3427 32.4537C28.3521 32.491 28.3696 32.5258 28.394 32.5555C28.4184 32.5852 28.449 32.6092 28.4838 32.6256C28.5185 32.6421 28.5565 32.6506 28.595 32.6506C28.6334 32.6506 28.6714 32.6421 28.7061 32.6256C28.7409 32.6092 28.7716 32.5852 28.796 32.5555C28.8203 32.5258 28.8378 32.491 28.8472 32.4537C28.8565 32.4165 28.8575 32.3776 28.85 32.3398V28.8498C28.85 28.7809 28.8226 28.7148 28.7738 28.666C28.725 28.6172 28.6589 28.5898 28.59 28.5898Z" fill="#D1655C"/>
</svg>
