<svg width="47" height="47" viewBox="0 0 47 47" fill="none" xmlns="http://www.w3.org/2000/svg">
<path d="M23.9201 18.56C23.7501 18.43 19.8601 15.67 16.3401 18.5C16.0152 18.7652 15.5983 18.8905 15.181 18.8483C14.7638 18.8061 14.3803 18.5998 14.1151 18.275C13.8499 17.9501 13.7246 17.5331 13.7668 17.1159C13.809 16.6986 14.0152 16.3152 14.3401 16.05C18.6801 12.53 23.7101 14.49 25.7801 16.05C26.1141 16.2991 26.3361 16.67 26.3979 17.082C26.4597 17.4941 26.3563 17.9138 26.1101 18.25C25.8473 18.561 25.481 18.7666 25.0786 18.8291C24.6763 18.8915 24.2649 18.8066 23.9201 18.59" fill="#EC8671"/>
<path d="M46.58 23.28C46.582 27.8868 45.2177 32.3906 42.6598 36.222C40.1019 40.0533 36.4652 43.04 32.2096 44.8043C27.9541 46.5686 23.271 47.0312 18.7525 46.1337C14.234 45.2362 10.0832 43.0188 6.82503 39.7621C3.56686 36.5053 1.34771 32.3554 0.448253 27.8373C-0.451207 23.3192 0.00942826 18.6359 1.7719 14.3796C3.53437 10.1233 6.5195 6.48535 10.3497 3.92577C14.18 1.36619 18.6833 4.24645e-07 23.29 0C29.4652 -5.69219e-07 35.3876 2.45239 39.755 6.81795C44.1224 11.1835 46.5774 17.1048 46.58 23.28Z" fill="#E7F7F8"/>
<path d="M0.00976777 23.28C0.00845419 26.338 0.60964 29.3663 1.77898 32.1919C2.94832 35.0176 4.66291 37.5851 6.82479 39.7479C8.98666 41.9107 11.5535 43.6264 14.3786 44.797C17.2037 45.9675 20.2318 46.57 23.2898 46.57V0C17.1155 0 11.1942 2.45271 6.82832 6.81855C2.46247 11.1844 0.00976777 17.1058 0.00976777 23.28Z" fill="#F4FAFC"/>
<path d="M23.2897 10.1299C20.6888 10.1299 18.1464 10.9011 15.9839 12.3461C13.8214 13.791 12.1359 15.8447 11.1406 18.2476C10.1453 20.6504 9.88493 23.2945 10.3923 25.8453C10.8997 28.3962 12.1521 30.7393 13.9912 32.5783C15.8303 34.4174 18.1734 35.6698 20.7242 36.1772C23.2751 36.6846 25.9191 36.4242 28.3219 35.4289C30.7248 34.4336 32.7785 32.7481 34.2235 30.5856C35.6684 28.4231 36.4397 25.8807 36.4397 23.2799C36.4397 19.7923 35.0542 16.4475 32.5881 13.9814C30.122 11.5153 26.7773 10.1299 23.2897 10.1299ZM23.2897 34.2799C21.1141 34.2799 18.9873 33.6347 17.1784 32.426C15.3694 31.2174 13.9595 29.4994 13.127 27.4894C12.2944 25.4794 12.0766 23.2677 12.501 21.1339C12.9255 19.0001 13.9731 17.0401 15.5115 15.5017C17.0499 13.9633 19.0099 12.9157 21.1437 12.4912C23.2775 12.0668 25.4892 12.2846 27.4992 13.1172C29.5092 13.9498 31.2271 15.3597 32.4358 17.1686C33.6445 18.9776 34.2897 21.1043 34.2897 23.2799C34.2897 26.1973 33.1307 28.9952 31.0678 31.0581C29.0049 33.121 26.207 34.2799 23.2897 34.2799Z" fill="#EC8671"/>
<path d="M18.4797 22.9999C18.4797 23.2099 17.2697 27.8299 21.1897 30.0699C21.369 30.173 21.5261 30.3104 21.6523 30.4742C21.7785 30.6381 21.8711 30.8252 21.925 31.0248C21.9788 31.2245 21.9928 31.4328 21.9662 31.6378C21.9396 31.8429 21.8728 32.0407 21.7697 32.2199C21.6666 32.3992 21.5292 32.5564 21.3654 32.6825C21.2016 32.8087 21.0145 32.9014 20.8148 32.9552C20.6152 33.0091 20.4069 33.0231 20.2018 32.9964C19.9968 32.9698 19.799 32.903 19.6197 32.7999C14.7697 30.0299 14.7497 24.6399 15.4297 22.1699C15.5418 21.7673 15.8089 21.4254 16.1725 21.2192C16.5361 21.0131 16.9666 20.9594 17.3697 21.0699C17.7535 21.2078 18.0758 21.4776 18.2791 21.8311C18.4824 22.1846 18.5535 22.5989 18.4797 22.9999Z" fill="#EC8671"/>
<path d="M26.3003 28.5502C26.4803 28.4302 30.5103 25.8702 29.1903 21.5502C29.1257 21.171 29.2018 20.7812 29.4041 20.4541C29.6064 20.1269 29.9212 19.8848 30.2893 19.7731C30.6574 19.6614 31.0536 19.6879 31.4036 19.8475C31.7536 20.0072 32.0333 20.289 32.1903 20.6402C33.8203 25.9802 30.1203 29.9002 27.9303 31.2302C27.5722 31.4475 27.1425 31.5138 26.7356 31.4144C26.3287 31.315 25.9779 31.0581 25.7603 30.7002C25.5828 30.3341 25.5376 29.9179 25.6324 29.5222C25.7272 29.1266 25.9562 28.7761 26.2803 28.5302" fill="#EC8671"/>
<path d="M25.0603 27.94C25.1163 27.6169 25.062 27.2843 24.906 26.9959C24.75 26.7074 24.5014 26.4799 24.2003 26.35C23.927 26.218 23.6849 26.0293 23.4901 25.7966C23.2952 25.5638 23.1521 25.2923 23.0703 25C23.0174 24.792 22.9228 24.5968 22.7924 24.4263C22.662 24.2558 22.4985 24.1135 22.3116 24.0079C22.1247 23.9023 21.9184 23.8357 21.7051 23.812C21.4917 23.7883 21.2758 23.808 21.0703 23.87C20.688 23.9967 20.367 24.2621 20.1708 24.6138C19.9746 24.9656 19.9173 25.3781 20.0103 25.77C20.1775 26.5304 20.5257 27.2392 21.0254 27.8364C21.525 28.4335 22.1613 28.9013 22.8803 29.2C23.1034 29.3064 23.3491 29.3567 23.5961 29.3467C23.8431 29.3367 24.0839 29.2665 24.2977 29.1424C24.5115 29.0183 24.6917 28.8439 24.8229 28.6344C24.954 28.4249 25.0321 28.1865 25.0503 27.94" fill="#EC8671"/>
<path d="M21.8101 21.57C21.9116 21.8768 22.1015 22.1468 22.3559 22.3461C22.6103 22.5453 22.9179 22.665 23.2401 22.69C23.8593 22.741 24.4355 23.0273 24.8501 23.49C24.9798 23.658 25.142 23.7981 25.327 23.902C25.5121 24.0059 25.7161 24.0715 25.927 24.0949C26.138 24.1182 26.3514 24.0988 26.5547 24.0378C26.758 23.9769 26.9469 23.8756 27.1101 23.74C27.4156 23.4619 27.6048 23.0788 27.64 22.6672C27.6752 22.2557 27.5539 21.846 27.3001 21.52C26.8123 20.9232 26.2037 20.4364 25.5143 20.0917C24.8249 19.747 24.0703 19.5521 23.3001 19.52C23.0562 19.5139 22.8143 19.5667 22.595 19.6738C22.3758 19.7809 22.1855 19.9392 22.0403 20.1354C21.8952 20.3315 21.7994 20.5598 21.7611 20.8008C21.7227 21.0418 21.743 21.2885 21.8201 21.52" fill="#EC8671"/>
</svg>
