<svg width="47" height="47" viewBox="0 0 47 47" fill="none" xmlns="http://www.w3.org/2000/svg">
<path d="M46.56 23.28C46.56 27.8843 45.1947 32.3853 42.6366 36.2137C40.0786 40.0421 36.4427 43.0259 32.1889 44.7879C27.935 46.5499 23.2542 47.0109 18.7383 46.1127C14.2224 45.2144 10.0743 42.9972 6.81856 39.7414C3.5628 36.4857 1.34559 32.3376 0.447329 27.8217C-0.450935 23.3058 0.010087 18.625 1.7721 14.3711C3.5341 10.1173 6.51796 6.48143 10.3463 3.92339C14.1747 1.36535 18.6757 0 23.28 0C29.4543 0 35.3756 2.45271 39.7415 6.81855C44.1073 11.1844 46.56 17.1058 46.56 23.28Z" fill="#E7F7F8"/>
<path d="M0 23.28C0 29.4542 2.45271 35.3756 6.81855 39.7414C11.1844 44.1073 17.1058 46.56 23.28 46.56V0C17.1058 0 11.1844 2.45271 6.81855 6.81855C2.45271 11.1844 0 17.1058 0 23.28Z" fill="#F4FAFC"/>
<path d="M12.6796 41.6102L16.6796 36.7002L17.7596 35.3602C18.3674 34.6244 19.1172 34.0186 19.9642 33.5788C20.8112 33.1389 21.7381 32.8741 22.6896 32.8002C23.248 32.7514 23.7893 32.5823 24.2761 32.3044C24.7629 32.0264 25.1837 31.6463 25.5096 31.1902C26.0301 30.4694 26.283 29.5897 26.2246 28.7025C26.1662 27.8154 25.8001 26.9764 25.1896 26.3302C24.7004 25.8277 24.0746 25.48 23.3896 25.3302C23.0934 25.2607 22.8169 25.1247 22.5813 24.9323C22.3456 24.74 22.1569 24.4964 22.0296 24.2202C21.7324 23.5819 21.2565 23.0435 20.6596 22.6702C19.9018 22.2084 19.0066 22.0257 18.1284 22.1535C17.2503 22.2813 16.4443 22.7116 15.8496 23.3702C15.4695 23.7824 15.1833 24.2721 15.0107 24.8055C14.8381 25.3389 14.7831 25.9034 14.8496 26.4602C14.9804 27.4074 14.9185 28.3714 14.6676 29.2942C14.4167 30.2169 13.982 31.0795 13.3896 31.8302L12.3096 33.1602L8.30957 38.1602" fill="#FAF6C6"/>
<path d="M34.5294 5.79004L30.3394 10.96L29.2594 12.3C28.6515 13.0358 27.9017 13.6416 27.0547 14.0814C26.2078 14.5213 25.2809 14.786 24.3294 14.86C23.7709 14.9088 23.2297 15.0779 22.7429 15.3558C22.256 15.6338 21.8352 16.0139 21.5094 16.47C20.9888 17.1908 20.736 18.0705 20.7944 18.9577C20.8528 19.8448 21.2188 20.6838 21.8294 21.33C22.3185 21.8325 22.9444 22.1802 23.6294 22.33C23.9256 22.3994 24.202 22.5355 24.4377 22.7279C24.6733 22.9202 24.862 23.1638 24.9894 23.44C25.2865 24.0783 25.7624 24.6167 26.3594 24.99C27.1172 25.4518 28.0124 25.6345 28.8905 25.5067C29.7686 25.3789 30.5746 24.9486 31.1694 24.29C31.5494 23.8778 31.8356 23.3881 32.0083 22.8547C32.1809 22.3213 32.2359 21.7568 32.1694 21.2C32.0362 20.2527 32.097 19.2882 32.348 18.3651C32.5989 17.442 33.0349 16.5795 33.6294 15.83L34.7094 14.5L38.8194 9.42004" fill="#FAF6C6"/>
<path d="M18.0796 26.3297C19.0462 26.9965 19.7666 27.9629 20.1296 29.0797C21.3066 28.9949 22.4782 29.3045 23.4596 29.9597C24.121 30.3967 24.6749 30.978 25.0796 31.6597C25.2356 31.5151 25.3794 31.3579 25.5096 31.1897C26.0302 30.4689 26.283 29.5892 26.2246 28.7021C26.1662 27.8149 25.8002 26.9759 25.1896 26.3297C24.7005 25.8273 24.0746 25.4795 23.3896 25.3297C23.0916 25.2616 22.8132 25.1262 22.5757 24.9338C22.3382 24.7414 22.148 24.4971 22.0196 24.2197C21.7296 23.5798 21.2563 23.0404 20.6596 22.6697C19.9018 22.2079 19.0066 22.0252 18.1285 22.153C17.2504 22.2808 16.4444 22.7111 15.8496 23.3697C15.3169 23.9442 14.9686 24.6652 14.8496 25.4397C15.9848 25.3923 17.1056 25.7075 18.0496 26.3397" fill="#D6C790"/>
<path d="M28.9404 21.33C27.9597 20.6689 27.2304 19.6966 26.8704 18.57C25.693 18.6595 24.5198 18.3495 23.5404 17.69C22.8851 17.2561 22.3378 16.678 21.9404 16C21.7868 16.147 21.6431 16.304 21.5104 16.47C20.9898 17.1907 20.737 18.0705 20.7954 18.9576C20.8538 19.8448 21.2198 20.6837 21.8304 21.33C22.3195 21.8324 22.9454 22.1801 23.6304 22.33C23.9265 22.3994 24.203 22.5355 24.4387 22.7278C24.6743 22.9202 24.863 23.1637 24.9904 23.44C25.2875 24.0783 25.7634 24.6167 26.3604 24.99C27.1176 25.4536 28.0133 25.6375 28.8919 25.5096C29.7706 25.3818 30.5767 24.9502 31.1704 24.29C31.7031 23.7154 32.0514 22.9944 32.1704 22.22C31.0346 22.2724 29.9123 21.9567 28.9704 21.32" fill="#D6C790"/>
</svg>
