<svg width="47" height="47" viewBox="0 0 47 47" fill="none" xmlns="http://www.w3.org/2000/svg">
<path d="M46.56 23.28C46.56 27.8843 45.1947 32.3853 42.6366 36.2137C40.0786 40.0421 36.4427 43.0259 32.1889 44.7879C27.935 46.5499 23.2542 47.0109 18.7383 46.1127C14.2224 45.2144 10.0743 42.9972 6.81856 39.7414C3.5628 36.4857 1.34559 32.3376 0.447329 27.8217C-0.450935 23.3058 0.010087 18.625 1.7721 14.3711C3.5341 10.1173 6.51796 6.48143 10.3463 3.92339C14.1747 1.36535 18.6757 0 23.28 0C29.4543 0 35.3756 2.45271 39.7415 6.81855C44.1073 11.1844 46.56 17.1058 46.56 23.28Z" fill="#E7F7F8"/>
<path d="M2.14796e-06 23.28C-0.00131143 26.338 0.599874 29.3663 1.76922 32.1919C2.93856 35.0176 4.65314 37.5851 6.81502 39.7479C8.9769 41.9107 11.5437 43.6264 14.3688 44.797C17.1939 45.9675 20.222 46.57 23.28 46.57V0C17.1058 0 11.1844 2.45271 6.81856 6.81855C2.45271 11.1844 2.14796e-06 17.1058 2.14796e-06 23.28Z" fill="#F4FAFC"/>
<path d="M32.1701 27.0001H30.9901L29.6401 25.6501C29.3096 25.3105 28.9148 25.0401 28.4787 24.8547C28.0426 24.6693 27.574 24.5725 27.1001 24.5701H24.4801V22.1601H28.1001C28.4184 22.1601 28.7236 22.0336 28.9486 21.8086C29.1737 21.5836 29.3001 21.2783 29.3001 20.9601C29.3001 20.6418 29.1737 20.3366 28.9486 20.1115C28.7236 19.8865 28.4184 19.7601 28.1001 19.7601H24.4801V17.2701H30.4801C30.6476 17.2853 30.8164 17.2655 30.9758 17.2119C31.1352 17.1583 31.2816 17.0721 31.4058 16.9587C31.53 16.8453 31.6292 16.7073 31.6971 16.5534C31.7649 16.3995 31.8 16.2332 31.8 16.0651C31.8 15.8969 31.7649 15.7306 31.6971 15.5767C31.6292 15.4229 31.53 15.2848 31.4058 15.1715C31.2816 15.0581 31.1352 14.9718 30.9758 14.9182C30.8164 14.8646 30.6476 14.8448 30.4801 14.8601H24.4801V12.3801H28.1001C28.3783 12.3288 28.6298 12.1817 28.8108 11.9643C28.9919 11.7469 29.091 11.473 29.091 11.1901C29.091 10.9072 28.9919 10.6332 28.8108 10.4158C28.6298 10.1984 28.3783 10.0513 28.1001 10.0001H24.4801V8.77007C24.4801 8.45181 24.3537 8.14658 24.1286 7.92154C23.9036 7.6965 23.5984 7.57007 23.2801 7.57007C22.9618 7.57007 22.6566 7.6965 22.4316 7.92154C22.2065 8.14658 22.0801 8.45181 22.0801 8.77007V10.0001H18.4701C18.1695 10.0275 17.8899 10.1663 17.6864 10.3892C17.4828 10.6122 17.37 10.9032 17.37 11.2051C17.37 11.507 17.4828 11.7979 17.6864 12.0209C17.8899 12.2438 18.1695 12.3827 18.4701 12.4101H22.1001V14.8901H16.1001C15.7995 14.9175 15.5199 15.0563 15.3164 15.2792C15.1128 15.5022 15 15.7932 15 16.0951C15 16.397 15.1128 16.6879 15.3164 16.9109C15.5199 17.1338 15.7995 17.2727 16.1001 17.3001H22.1001V19.7901H18.4701C18.1518 19.7901 17.8466 19.9165 17.6216 20.1415C17.3965 20.3666 17.2701 20.6718 17.2701 20.9901C17.2701 21.3083 17.3965 21.6136 17.6216 21.8386C17.8466 22.0636 18.1518 22.1901 18.4701 22.1901H22.1001V24.6001H19.4701C18.9953 24.5981 18.5248 24.6899 18.0855 24.8701C17.6462 25.0502 17.2468 25.3153 16.9101 25.6501L15.5701 27.0001H14.3901C13.458 26.996 12.5495 27.2927 11.7996 27.8463C11.0497 28.3998 10.4984 29.1805 10.2277 30.0724C9.95696 30.9643 9.98127 31.9198 10.297 32.7967C10.6127 33.6737 11.203 34.4254 11.9801 34.9401L16.9801 38.3001C17.6952 38.773 18.5328 39.0267 19.3901 39.0301H20.1201C20.7062 39.0297 21.2861 38.9098 21.8242 38.6777C22.3624 38.4455 22.8476 38.1061 23.2501 37.6801C23.6587 38.1043 24.1499 38.4404 24.6934 38.6674C25.2369 38.8944 25.8211 39.0076 26.4101 39.0001H27.1001C27.9545 38.9983 28.7894 38.7443 29.5001 38.2701L34.5001 34.9101C35.2587 34.3945 35.8339 33.6515 36.143 32.788C36.4521 31.9245 36.479 30.9851 36.2198 30.1053C35.9607 29.2256 35.4288 28.4508 34.701 27.8927C33.9732 27.3346 33.087 27.0221 32.1701 27.0001ZM18.4701 34.2201C18.2308 34.222 17.9963 34.153 17.7962 34.0217C17.5961 33.8904 17.4395 33.7027 17.3461 33.4824C17.2527 33.262 17.2267 33.0189 17.2715 32.7839C17.3162 32.5488 17.4297 32.3322 17.5975 32.1616C17.7653 31.991 17.9799 31.874 18.2143 31.8254C18.4486 31.7767 18.6921 31.7987 18.9139 31.8884C19.1358 31.9782 19.326 32.1317 19.4606 32.3296C19.5952 32.5274 19.6681 32.7608 19.6701 33.0001C19.6714 33.1585 19.6414 33.3156 19.5816 33.4624C19.5219 33.6091 19.4337 33.7426 19.3222 33.8551C19.2106 33.9676 19.0779 34.0568 18.9316 34.1178C18.7854 34.1787 18.6285 34.2101 18.4701 34.2101V34.2201ZM28.0901 34.2101C27.8504 34.212 27.6154 34.1428 27.4152 34.011C27.2149 33.8793 27.0582 33.691 26.9651 33.4701C26.872 33.2492 26.8466 33.0056 26.8921 32.7702C26.9377 32.5348 27.0521 32.3183 27.221 32.1481C27.3898 31.9778 27.6053 31.8616 27.8403 31.8141C28.0753 31.7666 28.3191 31.79 28.5408 31.8813C28.7625 31.9725 28.9521 32.1276 29.0855 32.3268C29.2189 32.526 29.2901 32.7603 29.2901 33.0001C29.2849 33.3141 29.1579 33.6138 28.9359 33.8358C28.7138 34.0579 28.4141 34.1849 28.1001 34.1901" fill="#E8DF99"/>
<path d="M32.1703 27.0001H30.9903L29.6403 25.6501C29.3098 25.3105 28.915 25.0401 28.4789 24.8547C28.0428 24.6693 27.5741 24.5725 27.1003 24.5701H24.4803V22.1601H28.1003C28.4185 22.1601 28.7238 22.0336 28.9488 21.8086C29.1738 21.5836 29.3003 21.2783 29.3003 20.9601C29.3003 20.6418 29.1738 20.3366 28.9488 20.1115C28.7238 19.8865 28.4185 19.7601 28.1003 19.7601H24.4803V17.2701H30.4803C30.6477 17.2853 30.8166 17.2655 30.9759 17.2119C31.1353 17.1583 31.2818 17.0721 31.406 16.9587C31.5302 16.8453 31.6294 16.7073 31.6972 16.5534C31.7651 16.3995 31.8002 16.2332 31.8002 16.0651C31.8002 15.8969 31.7651 15.7306 31.6972 15.5767C31.6294 15.4229 31.5302 15.2848 31.406 15.1715C31.2818 15.0581 31.1353 14.9718 30.9759 14.9182C30.8166 14.8646 30.6477 14.8448 30.4803 14.8601H24.4803V12.3801H28.1003C28.3785 12.3288 28.63 12.1817 28.811 11.9643C28.9921 11.7469 29.0912 11.473 29.0912 11.1901C29.0912 10.9072 28.9921 10.6332 28.811 10.4158C28.63 10.1984 28.3785 10.0513 28.1003 10.0001H24.4803V8.77007C24.4803 8.45181 24.3538 8.14658 24.1288 7.92154C23.9038 7.6965 23.5985 7.57007 23.2803 7.57007V37.6501C23.6828 38.0761 24.168 38.4155 24.7061 38.6477C25.2443 38.8798 25.8242 38.9997 26.4103 39.0001H27.1003C27.9547 38.9983 28.7896 38.7443 29.5003 38.2701L34.5003 34.9101C35.2588 34.3945 35.8341 33.6515 36.1432 32.788C36.4522 31.9245 36.4791 30.9851 36.22 30.1053C35.9608 29.2256 35.429 28.4508 34.7012 27.8927C33.9734 27.3346 33.0872 27.0221 32.1703 27.0001ZM28.1003 34.1901C27.8593 34.194 27.6226 34.1259 27.4206 33.9945C27.2186 33.8631 27.0604 33.6743 26.9664 33.4524C26.8723 33.2305 26.8467 32.9856 26.8927 32.749C26.9388 32.5125 27.0544 32.295 27.2248 32.1246C27.3953 31.9542 27.6127 31.8386 27.8492 31.7925C28.0858 31.7465 28.3307 31.7721 28.5526 31.8662C28.7745 31.9602 28.9633 32.1184 29.0947 32.3204C29.2261 32.5224 29.2942 32.7591 29.2903 33.0001C29.2851 33.3141 29.1581 33.6138 28.936 33.8358C28.714 34.0579 28.4143 34.1849 28.1003 34.1901Z" fill="#D6C790"/>
<mask id="mask0_524_3255" style="mask-type:alpha" maskUnits="userSpaceOnUse" x="6" y="23" width="11" height="10">
<circle cx="11.1299" cy="28" r="5" fill="#C4C4C4"/>
</mask>
<g mask="url(#mask0_524_3255)">
<path d="M-0.870117 26.6006L12.6099 40.0906" stroke="#D04B36" stroke-width="0.08" stroke-miterlimit="10"/>
<path d="M-0.360352 26.1299L13.0896 39.5799" stroke="#D04B36" stroke-width="0.08" stroke-miterlimit="10"/>
<path d="M0.149414 25.6504L13.5594 39.0604" stroke="#D04B36" stroke-width="0.08" stroke-miterlimit="10"/>
<path d="M0.669922 25.1802L14.0399 38.5502" stroke="#D04B36" stroke-width="0.08" stroke-miterlimit="10"/>
<path d="M1.17969 24.71L14.5097 38.04" stroke="#D04B36" stroke-width="0.08" stroke-miterlimit="10"/>
<path d="M1.68945 24.2305L14.9895 37.5305" stroke="#D04B36" stroke-width="0.08" stroke-miterlimit="10"/>
<path d="M2.2002 23.7603L15.4602 37.0203" stroke="#D04B36" stroke-width="0.08" stroke-miterlimit="10"/>
<path d="M2.70996 23.2803L15.94 36.5003" stroke="#D04B36" stroke-width="0.08" stroke-miterlimit="10"/>
<path d="M3.22949 22.8105L16.4095 35.9905" stroke="#D04B36" stroke-width="0.08" stroke-miterlimit="10"/>
<path d="M3.74023 22.3301L16.8802 35.4801" stroke="#D04B36" stroke-width="0.08" stroke-miterlimit="10"/>
<path d="M4.25 21.8604L17.36 34.9704" stroke="#D04B36" stroke-width="0.08" stroke-miterlimit="10"/>
<path d="M4.75977 21.3799L17.8298 34.4499" stroke="#D04B36" stroke-width="0.08" stroke-miterlimit="10"/>
<path d="M5.28027 20.9102L18.3103 33.9402" stroke="#D04B36" stroke-width="0.08" stroke-miterlimit="10"/>
<path d="M5.79004 20.4404L18.78 33.4304" stroke="#D04B36" stroke-width="0.08" stroke-miterlimit="10"/>
<path d="M6.2998 19.9604L19.2598 32.9204" stroke="#D04B36" stroke-width="0.08" stroke-miterlimit="10"/>
<path d="M6.80957 19.4902L19.7296 32.4102" stroke="#D04B36" stroke-width="0.08" stroke-miterlimit="10"/>
<path d="M7.32031 19.0103L20.2103 31.8903" stroke="#D04B36" stroke-width="0.08" stroke-miterlimit="10"/>
<path d="M7.83984 18.54L20.6798 31.38" stroke="#D04B36" stroke-width="0.08" stroke-miterlimit="10"/>
<path d="M8.34961 18.0605L21.1496 30.8705" stroke="#D04B36" stroke-width="0.08" stroke-miterlimit="10"/>
<path d="M8.86035 17.5903L21.6304 30.3603" stroke="#D04B36" stroke-width="0.08" stroke-miterlimit="10"/>
<path d="M9.37012 17.1104L22.1001 29.8504" stroke="#D04B36" stroke-width="0.08" stroke-miterlimit="10"/>
<path d="M9.87988 16.6401L22.5799 29.3301" stroke="#D04B36" stroke-width="0.08" stroke-miterlimit="10"/>
<path d="M12.6199 16.2402L-0.870117 29.7302" stroke="#D04B36" stroke-width="0.08" stroke-miterlimit="10"/>
<path d="M13.0896 16.7603L-0.360352 30.2003" stroke="#D04B36" stroke-width="0.08" stroke-miterlimit="10"/>
<path d="M13.5594 17.2705L0.149414 30.6805" stroke="#D04B36" stroke-width="0.08" stroke-miterlimit="10"/>
<path d="M14.0399 17.7803L0.669922 31.1503" stroke="#D04B36" stroke-width="0.08" stroke-miterlimit="10"/>
<path d="M14.5097 18.29L1.17969 31.63" stroke="#D04B36" stroke-width="0.08" stroke-miterlimit="10"/>
<path d="M14.9895 18.8003L1.68945 32.1003" stroke="#D04B36" stroke-width="0.08" stroke-miterlimit="10"/>
<path d="M15.4602 19.3203L2.2002 32.5803" stroke="#D04B36" stroke-width="0.08" stroke-miterlimit="10"/>
<path d="M15.94 19.8301L2.70996 33.0501" stroke="#D04B36" stroke-width="0.08" stroke-miterlimit="10"/>
<path d="M16.4095 20.3403L3.22949 33.5303" stroke="#D04B36" stroke-width="0.08" stroke-miterlimit="10"/>
<path d="M16.8802 20.8506L3.74023 34.0006" stroke="#D04B36" stroke-width="0.08" stroke-miterlimit="10"/>
<path d="M17.36 21.3701L4.25 34.4701" stroke="#D04B36" stroke-width="0.08" stroke-miterlimit="10"/>
<path d="M17.8298 21.8799L4.75977 34.9499" stroke="#D04B36" stroke-width="0.08" stroke-miterlimit="10"/>
<path d="M18.3103 22.3901L5.28027 35.4201" stroke="#D04B36" stroke-width="0.08" stroke-miterlimit="10"/>
<path d="M18.78 22.9004L5.79004 35.9004" stroke="#D04B36" stroke-width="0.08" stroke-miterlimit="10"/>
<path d="M19.2598 23.4102L6.2998 36.3702" stroke="#D04B36" stroke-width="0.08" stroke-miterlimit="10"/>
<path d="M19.7296 23.9302L6.80957 36.8502" stroke="#D04B36" stroke-width="0.08" stroke-miterlimit="10"/>
<path d="M20.2103 24.4404L7.32031 37.3204" stroke="#D04B36" stroke-width="0.08" stroke-miterlimit="10"/>
<path d="M20.6798 24.9502L7.83984 37.7902" stroke="#D04B36" stroke-width="0.08" stroke-miterlimit="10"/>
<path d="M21.1496 25.46L8.34961 38.27" stroke="#D04B36" stroke-width="0.08" stroke-miterlimit="10"/>
<path d="M21.6304 25.9805L8.86035 38.7405" stroke="#D04B36" stroke-width="0.08" stroke-miterlimit="10"/>
<path d="M22.1001 26.4902L9.37012 39.2202" stroke="#D04B36" stroke-width="0.08" stroke-miterlimit="10"/>
<path d="M22.5796 27L9.88965 39.69" stroke="#D04B36" stroke-width="0.08" stroke-miterlimit="10"/>
</g>
</svg>
